<svg width="396" height="62" viewBox="0 0 396 62" fill="none" xmlns="http://www.w3.org/2000/svg">
<path d="M18.2699 53.7186C15.5711 53.7186 12.9779 53.2961 10.4903 52.4513C8.00263 51.6064 5.83183 50.3978 3.97785 48.8255C2.12387 47.2296 0.797916 45.3404 0 43.1579L6.86443 40.5881C7.26339 41.7146 8.0261 42.7237 9.15257 43.6155C10.3025 44.4838 11.6637 45.1644 13.236 45.6572C14.8319 46.1501 16.5098 46.3965 18.2699 46.3965C20.1474 46.3965 21.9075 46.0914 23.5503 45.4812C25.2165 44.8711 26.5542 44.0262 27.5633 42.9467C28.5959 41.8671 29.1122 40.5999 29.1122 39.1448C29.1122 37.6429 28.5724 36.4108 27.4929 35.4486C26.4368 34.4864 25.0757 33.7237 23.4095 33.1605C21.7667 32.5972 20.0535 32.1748 18.2699 31.8932C14.8201 31.33 11.7223 30.5086 8.97656 29.429C6.25426 28.3495 4.09519 26.8358 2.49936 24.888C0.926991 22.9401 0.140809 20.4055 0.140809 17.2843C0.140809 14.3508 0.973927 11.7927 2.64016 9.6102C4.32987 7.42766 6.54761 5.73796 9.29338 4.54109C12.0626 3.32074 15.0548 2.71057 18.2699 2.71057C20.9218 2.71057 23.4799 3.133 25.944 3.97785C28.4316 4.79923 30.6142 6.00784 32.4916 7.60368C34.3925 9.17604 35.7537 11.0887 36.5751 13.3416L29.6402 15.841C29.2413 14.6911 28.4786 13.6937 27.3521 12.8488C26.2256 11.9805 24.8645 11.2999 23.2687 10.8071C21.6963 10.3142 20.03 10.0678 18.2699 10.0678C16.3925 10.0444 14.6324 10.3494 12.9896 10.9831C11.3703 11.5933 10.0444 12.4381 9.01176 13.5176C7.97916 14.5972 7.46287 15.8527 7.46287 17.2843C7.46287 19.0444 7.94396 20.3821 8.90616 21.2973C9.86835 22.2126 11.1591 22.8932 12.7784 23.3391C14.4212 23.7615 16.2517 24.1487 18.2699 24.5007C21.5085 25.017 24.5007 25.8736 27.2465 27.0705C30.0157 28.2674 32.2335 29.8632 33.8997 31.858C35.5894 33.8293 36.4343 36.2583 36.4343 39.1448C36.4343 42.0549 35.5894 44.6129 33.8997 46.8189C32.2335 49.0015 30.0157 50.7029 27.2465 51.9232C24.5007 53.1201 21.5085 53.7186 18.2699 53.7186Z" fill="white"/>
<path d="M62.2622 24.9232H54.8698L54.8346 52.8033H47.5125L47.5477 24.9232H41.9506V17.6011H47.5477L47.5125 6.54761H54.8346L54.8698 17.6011H62.2622V24.9232Z" fill="white"/>
<path d="M67.1564 39.6025V17.6011H74.4785V37.8072C74.4785 39.3795 74.8657 40.8111 75.6402 42.1018C76.4146 43.3926 77.4472 44.4252 78.738 45.1996C80.0287 45.9506 81.4485 46.3261 82.9974 46.3261C84.5698 46.3261 85.9896 45.9506 87.2569 45.1996C88.5476 44.4252 89.5685 43.3926 90.3195 42.1018C91.0939 40.8111 91.4811 39.3795 91.4811 37.8072V17.6011H98.8032L98.8384 52.8033H91.5163L91.4811 49.0015C90.2843 50.4565 88.7941 51.6064 87.0105 52.4513C85.2269 53.2961 83.3142 53.7186 81.2725 53.7186C78.6675 53.7186 76.2973 53.0849 74.1617 51.8176C72.0261 50.5504 70.3246 48.8489 69.0574 46.7133C67.7901 44.5777 67.1564 42.2074 67.1564 39.6025Z" fill="white"/>
<path d="M132.839 0H140.161V52.8033H132.839V47.6286C131.689 49.4591 130.187 50.9376 128.333 52.064C126.479 53.1671 124.309 53.7186 121.821 53.7186C119.263 53.7186 116.869 53.2375 114.64 52.2753C112.41 51.3131 110.439 49.9871 108.726 48.2974C107.036 46.5842 105.71 44.6129 104.748 42.3834C103.786 40.154 103.305 37.7602 103.305 35.2022C103.305 32.6442 103.786 30.2504 104.748 28.0209C105.71 25.768 107.036 23.7967 108.726 22.107C110.439 20.3938 112.41 19.0561 114.64 18.0939C116.869 17.1317 119.263 16.6506 121.821 16.6506C124.309 16.6506 126.479 17.2139 128.333 18.3403C130.187 19.4433 131.689 20.8984 132.839 22.7054V0ZM121.891 46.6429C123.957 46.6429 125.764 46.1383 127.313 45.1292C128.861 44.0966 130.058 42.712 130.903 40.9754C131.772 39.2387 132.206 37.3143 132.206 35.2022C132.206 33.0666 131.772 31.1305 130.903 29.3938C130.035 27.6572 128.826 26.2843 127.277 25.2752C125.752 24.2426 123.957 23.7263 121.891 23.7263C119.85 23.7263 117.984 24.2426 116.294 25.2752C114.628 26.3078 113.29 27.6924 112.281 29.429C111.296 31.1657 110.803 33.0901 110.803 35.2022C110.803 37.3378 111.307 39.2739 112.316 41.0106C113.349 42.7237 114.698 44.0966 116.365 45.1292C118.054 46.1383 119.897 46.6429 121.891 46.6429Z" fill="white"/>
<path d="M148.594 17.6011H155.917V52.8033H148.594V17.6011ZM152.326 12.4968C151.199 12.4968 150.261 12.133 149.51 11.4055C148.759 10.678 148.383 9.76274 148.383 8.65974C148.383 7.58021 148.759 6.67668 149.51 5.94917C150.261 5.19819 151.188 4.8227 152.291 4.8227C153.37 4.8227 154.286 5.19819 155.037 5.94917C155.787 6.67668 156.163 7.58021 156.163 8.65974C156.163 9.76274 155.787 10.678 155.037 11.4055C154.309 12.133 153.405 12.4968 152.326 12.4968Z" fill="white"/>
<path d="M264.674 53.2609H255.169L240.49 32.9493L237.498 36.5751V53.2609H230.176V3.97785H237.498V25.2048L255.24 3.97785H264.815L245.313 27.2465L264.674 53.2609Z" fill="white"/>
<path d="M270.191 53.2609V18.0587H277.513V21.7902C278.733 20.3351 280.235 19.1852 282.019 18.3403C283.802 17.4955 285.727 17.0731 287.792 17.0731C289.106 17.0731 290.408 17.2491 291.699 17.6011L288.777 24.9936C287.862 24.6415 286.947 24.4655 286.032 24.4655C284.483 24.4655 283.063 24.8528 281.772 25.6272C280.481 26.3782 279.449 27.399 278.674 28.6898C277.9 29.9805 277.513 31.4121 277.513 32.9845V53.2609H270.191Z" fill="white"/>
<path d="M321.504 18.0587H328.827V53.2609H321.469L321.188 48.1566C320.155 49.9636 318.759 51.4187 316.999 52.5217C315.238 53.6247 313.162 54.1762 310.768 54.1762C308.186 54.1762 305.757 53.6951 303.481 52.7329C301.205 51.7472 299.198 50.3861 297.461 48.6494C295.748 46.9128 294.411 44.918 293.448 42.6651C292.486 40.3886 292.005 37.948 292.005 35.343C292.005 32.8319 292.474 30.4734 293.413 28.2674C294.352 26.0379 295.654 24.09 297.321 22.4238C298.987 20.7576 300.911 19.4551 303.094 18.5164C305.3 17.5542 307.658 17.0731 310.169 17.0731C312.727 17.0731 314.98 17.6598 316.928 18.8332C318.899 19.9831 320.531 21.4616 321.821 23.2687L321.504 18.0587ZM310.592 47.1005C312.657 47.1005 314.464 46.596 316.013 45.5868C317.562 44.5542 318.759 43.1696 319.604 41.433C320.472 39.6963 320.906 37.7719 320.906 35.6598C320.906 33.5242 320.472 31.5881 319.604 29.8515C318.735 28.1148 317.527 26.7419 315.978 25.7328C314.452 24.7002 312.657 24.1839 310.592 24.1839C308.55 24.1839 306.684 24.7002 304.995 25.7328C303.305 26.7654 301.967 28.15 300.982 29.8867C299.996 31.6233 299.503 33.5477 299.503 35.6598C299.503 37.7954 300.008 39.7315 301.017 41.4682C302.049 43.1814 303.399 44.5542 305.065 45.5868C306.755 46.596 308.597 47.1005 310.592 47.1005Z" fill="white"/>
<path d="M358.452 18.0587H366.267L350.123 61.3954H342.343L345.568 53.2609L332.93 18.0587H340.921L349.229 43.2283L358.452 18.0587Z" fill="white"/>
<path d="M382.095 53.9298C380.241 53.8124 378.434 53.4369 376.674 52.8033C374.914 52.1697 373.365 51.3131 372.027 50.2335C370.713 49.1305 369.727 47.8398 369.07 46.3613L375.301 43.6859C375.606 44.3196 376.134 44.9415 376.885 45.5516C377.66 46.1618 378.563 46.6664 379.596 47.0653C380.628 47.4408 381.708 47.6286 382.834 47.6286C383.937 47.6286 384.958 47.476 385.897 47.1709C386.859 46.8424 387.645 46.3496 388.256 45.6924C388.866 45.0353 389.171 44.2492 389.171 43.3339C389.171 42.3013 388.819 41.5034 388.115 40.9401C387.434 40.3534 386.578 39.9076 385.545 39.6025C384.512 39.2974 383.48 39.004 382.447 38.7224C380.147 38.2061 378.035 37.5021 376.111 36.6103C374.21 35.695 372.696 34.5334 371.57 33.1253C370.443 31.6937 369.88 29.9453 369.88 27.8801C369.88 25.6272 370.49 23.6793 371.71 22.0366C372.931 20.3703 374.527 19.0913 376.498 18.1995C378.493 17.3077 380.617 16.8619 382.87 16.8619C385.686 16.8619 388.267 17.4603 390.614 18.6572C392.961 19.854 394.756 21.4968 396 23.5855L390.192 27.0353C389.84 26.3312 389.312 25.6976 388.608 25.1344C387.904 24.5711 387.106 24.1252 386.214 23.7967C385.322 23.4447 384.395 23.2452 383.433 23.1982C382.236 23.1513 381.121 23.2921 380.089 23.6207C379.079 23.9258 378.27 24.4186 377.66 25.0992C377.049 25.7797 376.744 26.6481 376.744 27.7041C376.744 28.7367 377.108 29.5112 377.836 30.0275C378.563 30.5203 379.478 30.9193 380.581 31.2243C381.708 31.5294 382.858 31.8697 384.031 32.2452C386.12 32.9023 388.079 33.712 389.91 34.6742C391.741 35.6129 393.219 36.7746 394.345 38.1592C395.472 39.5438 396.012 41.2335 395.965 43.2283C395.965 45.4343 395.296 47.3704 393.958 49.0367C392.644 50.7029 390.931 51.9702 388.819 52.8385C386.707 53.7068 384.465 54.0706 382.095 53.9298Z" fill="white"/>
<rect x="161.953" y="11.0938" width="42.8908" height="42.8908" rx="21.4454" fill="white"/>
<path d="M183.25 51.1549C180.011 51.1549 177.054 50.3217 174.379 48.6555C171.727 46.9893 169.603 44.7598 168.007 41.9671C166.435 39.1509 165.648 36.0414 165.648 32.6385C165.648 30.057 166.106 27.6515 167.021 25.4221C167.937 23.1691 169.192 21.1978 170.788 19.5081C172.407 17.7949 174.285 16.4572 176.42 15.495C178.556 14.5329 180.832 14.0518 183.25 14.0518C186.488 14.0518 189.433 14.8849 192.085 16.5511C194.761 18.2173 196.885 20.4586 198.457 23.2747C200.053 26.0909 200.851 29.2122 200.851 32.6385C200.851 35.1965 200.393 37.5903 199.478 39.8198C198.562 42.0492 197.295 44.0205 195.676 45.7337C194.08 47.4234 192.214 48.7494 190.079 49.7116C187.967 50.6738 185.69 51.1549 183.25 51.1549ZM183.25 43.8328C185.197 43.8328 186.946 43.3165 188.495 42.2839C190.044 41.2513 191.264 39.8902 192.156 38.2005C193.071 36.4873 193.529 34.6333 193.529 32.6385C193.529 30.5968 193.059 28.7193 192.12 27.0062C191.205 25.293 189.973 23.9318 188.424 22.9227C186.875 21.8901 185.15 21.3738 183.25 21.3738C181.325 21.3738 179.577 21.8901 178.004 22.9227C176.456 23.9553 175.223 25.3282 174.308 27.0414C173.416 28.7545 172.97 30.6203 172.97 32.6385C172.97 34.7272 173.44 36.6164 174.379 38.3061C175.317 39.9958 176.561 41.3452 178.11 42.3543C179.682 43.34 181.396 43.8328 183.25 43.8328Z" fill="#080808"/>
</svg>
