<svg width="137" height="916" viewBox="0 0 137 916" fill="none" xmlns="http://www.w3.org/2000/svg">
<path d="M6.67969 1165.62C2.44062 1162 -5.26128e-06 1156.7 -5.50509e-06 1151.12L-7.19306e-05 -368.517C-7.26426e-05 -384.808 19.099 -393.605 31.4799 -383.018L130.32 -298.497C134.559 -294.872 137 -289.573 137 -283.996L137 1235.64C137 1251.93 117.901 1260.73 105.52 1250.14L6.67969 1165.62Z" fill="#5F79FF"/>
<path d="M102.445 916.691C102.445 922.173 100.508 926.473 96.6325 929.592C93.7655 931.861 90.4731 932.995 86.7554 932.995C85.4322 932.995 84.046 932.853 82.5967 932.57L82.5967 921.228C83.2268 921.354 83.8254 921.417 84.3925 921.417C85.9993 921.417 87.5273 920.85 88.9766 919.715C90.3944 918.55 91.1032 916.785 91.1032 914.422L91.1032 908.751C91.1032 906.388 90.2841 904.215 88.6458 902.23C86.976 900.245 84.9596 899.016 82.5967 898.544C81.9981 898.418 81.431 898.355 80.8954 898.355C79.2571 898.355 77.7133 898.937 76.264 900.103C74.8148 901.269 74.0901 903.033 74.0901 905.396L74.0901 919.574L62.7481 917.305L62.7481 908.799C62.7481 906.436 61.9289 904.262 60.2906 902.277C58.6208 900.292 56.6044 899.063 54.2415 898.591C53.6114 898.465 53.0128 898.402 52.4457 898.402C50.8389 898.402 49.3266 898.985 47.9088 900.15C46.4596 901.285 45.7349 903.033 45.735 905.396C45.735 907.759 46.5699 909.933 48.2397 911.918C49.878 913.903 51.8786 915.131 54.2415 915.604L54.2415 926.946C48.7595 925.843 44.0809 922.976 40.2057 918.345C36.3305 913.714 34.3929 908.657 34.3929 903.175C34.3929 897.693 36.3305 893.392 40.2057 890.273C43.0727 887.973 46.3808 886.823 50.13 886.823C51.4532 886.823 52.8237 886.965 54.2415 887.249C58.5893 888.099 62.4172 890.068 65.7254 893.156C66.513 892.085 67.4582 891.108 68.5609 890.226C71.4279 887.926 74.7518 886.776 78.5324 886.776C79.8242 886.776 81.1789 886.918 82.5967 887.201C88.0787 888.304 92.7573 891.187 96.6325 895.85C100.508 900.481 102.445 905.538 102.445 911.02L102.445 916.691ZM68.4191 878.742C59.0304 876.883 51.0122 871.968 44.3644 863.997C37.7167 856.027 34.3929 847.347 34.3929 837.958C34.3929 828.569 37.7167 821.213 44.3644 815.888C49.2793 811.95 54.9661 809.981 61.4248 809.981C63.6617 809.981 65.9931 810.217 68.4191 810.69L102.445 817.448L102.445 828.79L91.1032 826.521L91.1032 871.89L102.445 874.158L102.445 885.5L68.4191 878.742ZM79.7612 824.3L68.4191 822.032C66.7808 821.717 65.2055 821.559 63.6932 821.559C59.4084 821.559 55.3442 823.103 51.5005 826.191C47.6568 829.247 45.7349 833.909 45.7349 840.179C45.7349 846.449 47.9561 852.246 52.3984 857.57C56.8092 862.863 62.1494 866.14 68.4191 867.4L79.7612 869.669L79.7612 824.3ZM91.1032 783.989C91.1032 781.626 90.2841 779.452 88.6458 777.467C86.976 775.482 84.9596 774.253 82.5967 773.781L76.9256 772.694C76.2955 772.568 75.6969 772.505 75.1298 772.505C73.523 772.505 72.0107 773.088 70.593 774.253C69.1437 775.388 68.4191 777.136 68.4191 779.499L68.4191 793.677L91.1032 798.166L91.1032 783.989ZM82.5967 762.439C88.0787 763.541 92.7573 766.424 96.6325 771.087C100.508 775.718 102.445 780.775 102.445 786.257L102.445 811.777L34.3929 798.261L34.3929 758.563L45.7349 760.785L45.7349 789.14L57.077 791.408L57.077 777.231C57.077 771.749 59.0146 767.464 62.8898 764.376C65.7569 762.076 69.065 760.926 72.8141 760.926C74.1374 760.926 75.5079 761.068 76.9256 761.352L82.5967 762.439ZM102.445 726.711C102.445 736.1 99.1214 743.456 92.4737 748.781C87.5588 752.719 81.872 754.688 75.4134 754.688C73.1765 754.688 70.845 754.452 68.4191 753.979C59.0304 752.089 51.0122 747.174 44.3644 739.235C37.7167 731.264 34.3929 722.584 34.3929 713.195C34.3929 703.775 37.7167 696.403 44.3644 691.078C49.2793 687.14 54.9346 685.171 61.3303 685.171C63.5987 685.171 65.9616 685.423 68.4191 685.927C77.8078 687.786 85.826 692.701 92.4737 700.672C99.1214 708.643 102.445 717.322 102.445 726.711ZM91.1032 724.443C91.1032 718.173 88.8978 712.392 84.487 707.099C80.0447 701.774 74.6887 698.498 68.4191 697.269C66.7808 696.954 65.2055 696.796 63.6932 696.796C59.4084 696.796 55.3442 698.34 51.5005 701.428C47.6568 704.484 45.7349 709.147 45.7349 715.416C45.7349 721.686 47.9561 727.483 52.3984 732.808C56.8092 738.1 62.1494 741.377 68.4191 742.637C70.0259 742.952 71.5854 743.11 73.0977 743.11C77.3825 743.11 81.4625 741.566 85.3377 738.479C89.1814 735.391 91.1032 730.712 91.1032 724.443ZM34.3929 611.117L45.7349 613.338L45.7349 641.693L102.445 652.988L102.445 664.33L45.7349 653.035L45.7349 681.39L34.3929 679.169L34.3929 611.117ZM102.445 579.264L102.445 590.606L45.7349 579.311L45.7349 593.489L82.5967 600.814C88.0787 601.917 92.7573 604.8 96.6325 609.462C100.508 614.094 102.445 619.15 102.445 624.632L91.1032 622.364C91.1032 620.001 90.2841 617.827 88.6458 615.842C86.976 613.858 84.9596 612.629 82.5967 612.156L34.3929 602.61L34.3929 565.748L102.445 579.264ZM34.3929 492.025L102.445 505.541L102.445 516.883L48.7595 506.202L102.445 559.179L102.445 573.593L34.3929 560.077L34.3929 548.735L88.0787 559.368L34.3929 506.439L34.3929 492.025ZM62.748 480.635L62.748 477.8C62.748 475.437 61.9289 473.263 60.2906 471.278C58.6208 469.293 56.6044 468.065 54.2415 467.592C53.6114 467.466 53.0128 467.403 52.4457 467.403C50.8389 467.403 49.3266 467.986 47.9088 469.152C46.4596 470.286 45.7349 472.034 45.7349 474.397L45.7349 477.233L62.748 480.635ZM91.1032 472.082C91.1032 469.719 90.2841 467.545 88.6458 465.56C86.976 463.575 84.9596 462.346 82.5967 461.874C81.9981 461.748 81.431 461.685 80.8954 461.685C79.2571 461.685 77.7133 462.268 76.264 463.433C74.8147 464.599 74.0901 466.363 74.0901 468.726L74.0901 482.904L91.1032 486.259L91.1032 472.082ZM63.6932 460.456C64.6069 457.746 66.2294 455.447 68.5609 453.556C71.4279 451.256 74.7517 450.106 78.5324 450.106C79.8242 450.106 81.1789 450.248 82.5967 450.532C88.0787 451.634 92.7573 454.517 96.6325 459.18C100.508 463.811 102.445 468.868 102.445 474.35L102.445 499.87L34.3929 486.354L34.3929 472.176C34.3929 466.694 36.3305 462.394 40.2057 459.275C43.0727 456.975 46.3808 455.825 50.13 455.825C51.4532 455.825 52.8237 455.966 54.2415 456.25C57.7071 456.943 60.8577 458.345 63.6932 460.456ZM91.1032 435.22C91.1032 432.857 90.2841 430.683 88.6458 428.698C86.976 426.713 84.9596 425.485 82.5967 425.012L76.9256 423.925C76.2955 423.799 75.6969 423.736 75.1298 423.736C73.523 423.736 72.0107 424.319 70.593 425.485C69.1437 426.619 68.4191 428.367 68.4191 430.73L91.1032 435.22ZM102.445 403.462L102.445 414.804L34.3929 401.288L34.3929 389.946L102.445 403.462ZM82.5967 413.67C88.0787 414.773 92.7573 417.655 96.6325 422.318C100.508 426.95 102.445 432.006 102.445 437.488L102.445 448.83L34.3929 435.314L34.3929 423.972L57.077 428.462C57.077 422.98 59.0146 418.695 62.8898 415.608C65.7568 413.308 69.0649 412.158 72.8141 412.158C74.1374 412.158 75.5079 412.299 76.9256 412.583L82.5967 413.67ZM34.3929 316.223L45.7349 318.444L45.7349 375.154L62.748 378.557L62.748 333.188L74.0901 335.457L74.0901 380.825L91.1032 384.181L91.1032 327.47L102.445 329.739L102.445 397.791L34.3929 384.275L34.3929 316.223ZM102.445 250.344L102.445 261.686L45.7349 250.391L45.7349 264.569L82.5967 271.894C88.0787 272.997 92.7573 275.88 96.6325 280.542C100.508 285.174 102.445 290.23 102.445 295.712L91.1032 293.444C91.1032 291.081 90.2841 288.907 88.6458 286.922C86.976 284.937 84.9596 283.709 82.5967 283.236L34.3929 273.69L34.3928 236.828L102.445 250.344ZM68.4191 237.915C59.0303 236.056 51.0121 231.141 44.3644 223.17C37.7167 215.199 34.3928 206.52 34.3928 197.131C34.3928 187.742 37.7167 180.386 44.3644 175.061C49.2793 171.123 54.9661 169.154 61.4248 169.154C63.6617 169.154 65.9931 169.39 68.4191 169.863L102.445 176.621L102.445 187.963L91.1032 185.694L91.1032 231.063L102.445 233.331L102.445 244.673L68.4191 237.915ZM79.7611 183.473L68.4191 181.205C66.7808 180.89 65.2055 180.732 63.6932 180.732C59.4084 180.732 55.3442 182.276 51.5005 185.363C47.6568 188.419 45.7349 193.082 45.7349 199.352C45.7349 205.622 47.9561 211.419 52.3984 216.743C56.8092 222.036 62.1494 225.313 68.4191 226.573L79.7611 228.841L79.7611 183.473ZM102.445 125.581L102.445 136.923L45.7349 125.629L45.7349 148.313L102.445 159.608L102.445 170.95L34.3928 157.434L34.3928 112.065L102.445 125.581ZM77.54 103.606L102.445 108.568L102.445 119.91L34.3928 106.394L34.3928 95.0522L59.2981 99.9671L34.3928 75.4399L34.3928 61.026L68.4191 94.5796L102.445 74.542L102.445 88.9559L77.54 103.606ZM34.3928 -12.6975L102.445 0.818466L102.445 12.1605L48.7595 1.48009L102.445 54.457L102.445 68.8709L34.3928 55.3549L34.3928 44.0129L88.0786 54.6461L34.3928 1.71638L34.3928 -12.6975Z" fill="white"/>
</svg>
