<svg width="658" height="451" viewBox="0 0 658 451" fill="none" xmlns="http://www.w3.org/2000/svg">
<rect width="658" height="451" rx="23" fill="#6125E0"/>
<rect x="90.4365" y="166.759" width="146.057" height="146.057" rx="47.3143" fill="#373539"/>
<path d="M171.58 260.448C170.956 260.448 170.308 260.424 169.612 260.352C168.364 260.256 166.949 260.016 165.485 259.656L161.453 258.696C150.389 256.08 146.765 250.224 149.357 239.184L151.709 229.128C152.237 226.848 152.86 225 153.628 223.464C157.756 214.944 165.653 215.712 171.268 217.032L175.276 217.968C180.892 219.288 184.444 221.376 186.436 224.568C188.404 227.76 188.716 231.864 187.396 237.48L185.044 247.512C182.98 256.296 178.684 260.448 171.58 260.448ZM165.125 219.816C161.116 219.816 158.573 221.472 156.869 225.024C156.245 226.32 155.692 227.928 155.212 229.944L152.861 240C150.725 249.072 153.197 253.032 162.269 255.192L166.3 256.152C167.596 256.464 168.82 256.656 169.924 256.752C176.452 257.4 179.692 254.544 181.516 246.696L183.868 236.664C184.948 232.032 184.804 228.792 183.364 226.464C181.924 224.136 179.092 222.552 174.436 221.472L170.428 220.536C168.436 220.056 166.66 219.816 165.125 219.816Z" fill="white"/>
<path d="M153.629 265.416C147.461 265.416 143.525 261.72 141.005 253.92L137.933 244.44C134.525 233.88 137.573 227.928 148.085 224.52L151.877 223.296C153.125 222.912 154.061 222.648 154.901 222.504C155.597 222.36 156.269 222.624 156.677 223.176C157.085 223.728 157.157 224.448 156.869 225.072C156.245 226.344 155.693 227.952 155.237 229.968L152.885 240.024C150.749 249.096 153.221 253.056 162.293 255.216L166.325 256.176C167.621 256.488 168.845 256.68 169.949 256.776C170.717 256.848 171.341 257.376 171.557 258.12C171.749 258.864 171.461 259.632 170.837 260.064C169.253 261.144 167.261 262.056 164.741 262.872L160.949 264.12C158.189 264.984 155.789 265.416 153.629 265.416ZM152.309 226.944L149.213 227.952C140.645 230.712 138.605 234.744 141.365 243.336L144.437 252.816C147.221 261.384 151.253 263.448 159.821 260.688L163.613 259.44C163.757 259.392 163.877 259.344 164.021 259.296L161.477 258.696C150.413 256.08 146.789 250.224 149.381 239.184L151.733 229.128C151.901 228.36 152.093 227.616 152.309 226.944Z" fill="white"/>
<path d="M175.611 237.239C175.467 237.239 175.323 237.215 175.155 237.191L163.515 234.239C162.555 233.999 161.979 233.015 162.219 232.055C162.459 231.095 163.443 230.519 164.403 230.759L176.043 233.711C177.003 233.951 177.579 234.935 177.339 235.895C177.147 236.687 176.403 237.239 175.611 237.239Z" fill="white"/>
<path d="M168.581 245.352C168.437 245.352 168.293 245.328 168.125 245.304L161.141 243.528C160.181 243.288 159.605 242.304 159.845 241.344C160.085 240.384 161.069 239.808 162.029 240.048L169.013 241.824C169.973 242.064 170.549 243.048 170.309 244.008C170.117 244.824 169.397 245.352 168.581 245.352Z" fill="white"/>
<rect x="61.4365" y="346.759" width="203" height="54" rx="22" transform="rotate(0.463629 61.4365 346.759)" fill="#244792"/>
<path d="M90.859 381.198C90.6324 381.196 90.4059 381.174 90.1795 381.132C89.9532 381.09 89.7069 381.042 89.4407 380.986L89.639 378.728C89.8252 378.783 90.025 378.811 90.2383 378.813C90.7983 378.817 91.2468 378.594 91.5838 378.144C91.9209 377.68 92.1664 377.002 92.3203 376.109C92.4741 375.217 92.583 374.118 92.647 372.812L92.8939 367.014L103.194 367.097L103.08 381.097L100.52 381.076L100.621 368.636L101.216 369.281L94.556 369.227L95.1213 368.572L94.9477 372.731C94.8965 374.117 94.7933 375.336 94.6381 376.388C94.4829 377.44 94.2491 378.325 93.9366 379.043C93.6375 379.747 93.2398 380.284 92.7435 380.653C92.2472 381.022 91.619 381.204 90.859 381.198ZM111.717 381.307C110.531 381.297 109.493 381.055 108.603 380.581C107.727 380.094 107.046 379.435 106.559 378.605C106.086 377.774 105.853 376.832 105.862 375.779C105.87 374.712 106.111 373.774 106.585 372.965C107.071 372.142 107.73 371.501 108.56 371.041C109.404 370.581 110.359 370.355 111.426 370.364C112.466 370.372 113.391 370.606 114.2 371.066C115.01 371.526 115.645 372.171 116.105 373.002C116.565 373.832 116.79 374.807 116.781 375.927C116.78 376.034 116.772 376.154 116.758 376.287C116.757 376.42 116.749 376.547 116.735 376.667L107.835 376.595L107.849 374.935L115.428 374.996L114.444 375.508C114.463 374.895 114.34 374.354 114.077 373.885C113.815 373.417 113.451 373.047 112.986 372.777C112.535 372.506 112.01 372.369 111.41 372.364C110.796 372.359 110.255 372.488 109.786 372.751C109.331 373.014 108.968 373.384 108.697 373.862C108.44 374.326 108.309 374.879 108.304 375.519L108.301 375.919C108.296 376.559 108.438 377.127 108.727 377.622C109.016 378.118 109.427 378.501 109.958 378.772C110.489 379.043 111.101 379.181 111.794 379.187C112.394 379.192 112.935 379.103 113.417 378.92C113.898 378.737 114.327 378.448 114.704 378.051L116.031 379.601C115.547 380.157 114.937 380.586 114.201 380.887C113.478 381.174 112.651 381.314 111.717 381.307ZM119.473 381.229L119.559 370.55L122.059 370.57L122.024 374.91L127.404 374.953L127.439 370.613L129.939 370.634L129.852 381.313L127.352 381.293L127.386 377.073L122.007 377.03L121.972 381.25L119.473 381.229ZM135.422 381.358L135.497 372.199L136.072 372.803L131.732 372.768L131.749 370.648L141.749 370.729L141.732 372.849L137.412 372.814L137.997 372.219L137.922 381.379L135.422 381.358ZM149.955 381.476L149.973 379.316L149.837 378.855L149.867 375.075C149.873 374.342 149.658 373.773 149.221 373.37C148.784 372.953 148.119 372.741 147.226 372.734C146.626 372.729 146.032 372.817 145.444 372.999C144.869 373.181 144.38 373.437 143.978 373.767L143.012 371.939C143.589 371.504 144.272 371.183 145.06 370.976C145.862 370.756 146.69 370.649 147.543 370.656C149.09 370.669 150.28 371.052 151.114 371.805C151.961 372.545 152.379 373.689 152.366 375.235L152.315 381.495L149.955 381.476ZM146.594 381.589C145.794 381.582 145.096 381.443 144.498 381.172C143.9 380.887 143.436 380.503 143.107 380.02C142.791 379.525 142.635 378.97 142.64 378.357C142.645 377.757 142.79 377.218 143.074 376.74C143.371 376.262 143.847 375.886 144.503 375.612C145.158 375.337 146.026 375.204 147.106 375.213L150.206 375.238L150.192 376.898L147.273 376.874C146.419 376.867 145.845 377.003 145.549 377.28C145.254 377.544 145.104 377.877 145.101 378.277C145.098 378.73 145.275 379.091 145.632 379.361C145.99 379.63 146.489 379.768 147.129 379.773C147.742 379.778 148.29 379.642 148.772 379.366C149.268 379.09 149.625 378.68 149.842 378.135L150.25 379.638C150.005 380.263 149.568 380.746 148.939 381.088C148.322 381.429 147.541 381.596 146.594 381.589ZM168.265 380.464L168.325 373.064L164.225 373.031L164.151 374.751C164.12 375.364 164.075 375.957 164.017 376.53C163.959 377.089 163.868 377.608 163.744 378.087C163.62 378.553 163.444 378.938 163.215 379.243C162.986 379.548 162.684 379.746 162.31 379.836L159.833 379.436C160.233 379.439 160.554 379.315 160.796 379.064C161.052 378.799 161.248 378.441 161.385 377.988C161.535 377.523 161.646 376.997 161.718 376.411C161.789 375.812 161.841 375.192 161.873 374.552L162.042 370.893L170.842 370.965L170.765 380.484L168.265 380.464ZM159.417 383.933L159.453 379.433L172.353 379.537L172.316 384.037L169.976 384.018L169.996 381.638L161.756 381.571L161.737 383.951L159.417 383.933ZM180.487 381.863C179.62 381.856 178.829 381.65 178.112 381.244C177.409 380.838 176.847 380.234 176.427 379.43C176.02 378.613 175.822 377.585 175.832 376.345C175.842 375.092 176.05 374.067 176.456 373.27C176.876 372.473 177.441 371.885 178.151 371.504C178.861 371.11 179.669 370.916 180.576 370.923C181.629 370.932 182.554 371.166 183.35 371.626C184.16 372.086 184.794 372.724 185.255 373.541C185.728 374.359 185.96 375.32 185.951 376.427C185.942 377.534 185.694 378.498 185.208 379.321C184.735 380.131 184.089 380.759 183.272 381.206C182.469 381.652 181.54 381.872 180.487 381.863ZM174.537 385.555L174.655 370.995L177.035 371.015L177.014 373.535L176.911 376.374L177.088 379.215L177.037 385.575L174.537 385.555ZM180.224 379.721C180.824 379.726 181.359 379.597 181.828 379.334C182.31 379.071 182.693 378.687 182.977 378.183C183.261 377.679 183.406 377.086 183.411 376.407C183.417 375.713 183.282 375.119 183.006 374.623C182.73 374.114 182.353 373.725 181.875 373.454C181.411 373.184 180.878 373.046 180.278 373.041C179.678 373.036 179.137 373.165 178.655 373.428C178.173 373.691 177.79 374.074 177.506 374.579C177.222 375.07 177.077 375.662 177.072 376.355C177.066 377.035 177.201 377.63 177.477 378.139C177.753 378.647 178.13 379.037 178.608 379.308C179.085 379.578 179.624 379.716 180.224 379.721ZM189.031 385.812C188.511 385.808 187.991 385.717 187.473 385.54C186.954 385.362 186.523 385.119 186.179 384.809L187.193 382.977C187.445 383.206 187.73 383.388 188.049 383.524C188.368 383.66 188.694 383.729 189.027 383.732C189.481 383.736 189.848 383.625 190.13 383.401C190.412 383.177 190.675 382.799 190.919 382.267L191.551 380.873L191.753 380.574L195.869 371.167L198.269 371.187L193.176 382.686C192.836 383.483 192.458 384.113 192.041 384.577C191.637 385.04 191.181 385.363 190.673 385.546C190.178 385.728 189.631 385.817 189.031 385.812ZM191.26 382.19L186.53 371.092L189.129 371.113L192.975 380.364L191.26 382.19ZM203.044 382.086C202.23 382.079 201.424 381.979 200.626 381.786C199.841 381.58 199.13 381.294 198.493 380.929L199.208 379.074C199.726 379.372 200.31 379.603 200.962 379.769C201.614 379.934 202.267 380.019 202.92 380.024C203.48 380.029 203.961 379.98 204.362 379.876C204.763 379.759 205.071 379.589 205.286 379.364C205.514 379.139 205.63 378.88 205.632 378.586C205.636 378.16 205.451 377.838 205.08 377.622C204.722 377.392 204.203 377.275 203.523 377.269L201.463 377.253L201.476 375.573L203.336 375.588C203.763 375.591 204.123 375.547 204.417 375.456C204.725 375.366 204.959 375.227 205.121 375.042C205.282 374.857 205.364 374.637 205.366 374.384C205.368 374.131 205.27 373.91 205.071 373.722C204.886 373.52 204.614 373.371 204.255 373.275C203.896 373.165 203.463 373.109 202.956 373.105C202.423 373.1 201.869 373.162 201.295 373.291C200.734 373.42 200.159 373.609 199.57 373.857L198.945 372.012C199.627 371.711 200.289 371.483 200.931 371.328C201.585 371.16 202.233 371.072 202.873 371.064C203.846 371.032 204.712 371.139 205.47 371.385C206.228 371.631 206.826 371.982 207.262 372.439C207.698 372.896 207.914 373.431 207.909 374.045C207.905 374.551 207.741 375.01 207.418 375.421C207.108 375.818 206.679 376.128 206.13 376.35C205.595 376.573 204.981 376.681 204.287 376.675L204.372 376.136C205.558 376.146 206.49 376.393 207.166 376.879C207.842 377.351 208.177 377.994 208.17 378.807C208.165 379.46 207.94 380.038 207.496 380.542C207.052 381.031 206.443 381.413 205.667 381.687C204.905 381.961 204.03 382.094 203.044 382.086ZM215.698 382.148C214.512 382.138 213.474 381.897 212.584 381.423C211.708 380.936 211.027 380.277 210.54 379.446C210.067 378.616 209.834 377.674 209.843 376.62C209.851 375.554 210.092 374.616 210.566 373.806C211.052 372.983 211.711 372.342 212.541 371.882C213.385 371.422 214.34 371.197 215.407 371.205C216.447 371.214 217.372 371.448 218.181 371.908C218.991 372.368 219.626 373.013 220.086 373.843C220.546 374.674 220.771 375.649 220.762 376.769C220.761 376.875 220.753 376.995 220.739 377.129C220.738 377.262 220.73 377.389 220.716 377.508L211.816 377.436L211.83 375.776L219.409 375.838L218.425 376.35C218.444 375.737 218.321 375.196 218.058 374.727C217.795 374.258 217.432 373.888 216.967 373.618C216.516 373.348 215.991 373.21 215.391 373.205C214.777 373.2 214.236 373.329 213.767 373.592C213.312 373.855 212.949 374.225 212.678 374.703C212.421 375.168 212.29 375.72 212.285 376.36L212.282 376.76C212.277 377.4 212.419 377.968 212.708 378.464C212.997 378.959 213.408 379.343 213.939 379.614C214.47 379.885 215.082 380.023 215.775 380.029C216.375 380.033 216.916 379.944 217.398 379.762C217.879 379.579 218.308 379.289 218.685 378.892L220.012 380.443C219.528 380.999 218.918 381.427 218.182 381.728C217.459 382.016 216.632 382.156 215.698 382.148ZM223.454 382.071L223.54 371.391L226.04 371.411L225.983 378.451L231.94 371.459L234.22 371.477L234.133 382.157L231.633 382.137L231.69 375.097L225.753 382.089L223.454 382.071ZM228.73 370.173C227.663 370.164 226.845 369.911 226.276 369.413C225.707 368.902 225.419 368.166 225.414 367.206L227.074 367.22C227.083 367.7 227.227 368.081 227.505 368.363C227.796 368.645 228.201 368.789 228.721 368.793C229.228 368.797 229.629 368.66 229.924 368.383C230.233 368.105 230.396 367.726 230.414 367.247L232.114 367.26C232.093 368.22 231.787 368.951 231.196 369.453C230.619 369.942 229.797 370.182 228.73 370.173Z" fill="white"/>
<rect x="269.437" y="166.759" width="146.057" height="146.057" rx="47.3143" fill="#373539"/>
<path d="M353.437 260.044H329.437C320.677 260.044 315.637 255.501 315.637 247.604V232.461C315.637 224.564 320.677 220.021 329.437 220.021H353.437C362.197 220.021 367.237 224.564 367.237 232.461V247.604C367.237 255.501 362.197 260.044 353.437 260.044ZM329.437 223.266C322.573 223.266 319.237 226.273 319.237 232.461V247.604C319.237 253.792 322.573 256.799 329.437 256.799H353.437C360.301 256.799 363.637 253.792 363.637 247.604V232.461C363.637 226.273 360.301 223.266 353.437 223.266H329.437Z" fill="#D5ABAB"/>
<path d="M341.436 241.916C339.42 241.916 337.38 241.353 335.82 240.207L328.308 234.798C327.54 234.236 327.396 233.219 328.02 232.527C328.644 231.834 329.772 231.704 330.54 232.267L338.052 237.675C339.876 238.995 342.972 238.995 344.796 237.675L352.308 232.267C353.076 231.704 354.228 231.813 354.828 232.527C355.452 233.219 355.332 234.257 354.54 234.798L347.028 240.207C345.492 241.353 343.452 241.916 341.436 241.916Z" fill="#D5ABAB"/>
<rect x="287.437" y="347.759" width="110" height="54" rx="22" transform="rotate(0.463629 287.437 347.759)" fill="#244792"/>
<path d="M325.904 376.631C325.169 376.931 324.453 377.152 323.759 377.293C323.064 377.434 322.391 377.502 321.737 377.497C319.951 377.483 318.574 377.045 317.608 376.184C316.655 375.309 316.185 374.065 316.198 372.452L316.234 367.992L318.814 368.013L318.78 372.193C318.772 373.18 319.053 373.935 319.622 374.46C320.191 374.984 321.009 375.251 322.075 375.26C322.715 375.265 323.356 375.197 323.997 375.055C324.652 374.914 325.28 374.692 325.883 374.391L325.904 376.631ZM325.46 382.067L325.574 368.068L328.154 368.089L328.04 382.088L325.46 382.067ZM338.164 382.17L338.181 380.01L338.045 379.549L338.075 375.769C338.081 375.036 337.866 374.467 337.429 374.064C336.993 373.647 336.328 373.435 335.434 373.428C334.834 373.423 334.24 373.511 333.652 373.693C333.077 373.875 332.589 374.131 332.186 374.462L331.221 372.634C331.798 372.198 332.48 371.877 333.269 371.67C334.07 371.45 334.898 371.343 335.751 371.35C337.298 371.363 338.488 371.746 339.322 372.499C340.169 373.239 340.587 374.383 340.574 375.929L340.524 382.189L338.164 382.17ZM334.803 382.283C334.003 382.276 333.304 382.137 332.706 381.866C332.108 381.581 331.645 381.197 331.315 380.715C330.999 380.219 330.844 379.664 330.849 379.051C330.854 378.451 330.998 377.912 331.282 377.434C331.579 376.957 332.055 376.581 332.711 376.306C333.367 376.031 334.234 375.898 335.314 375.907L338.414 375.932L338.401 377.592L335.481 377.568C334.628 377.561 334.053 377.697 333.758 377.974C333.462 378.239 333.313 378.571 333.309 378.971C333.306 379.424 333.483 379.786 333.841 380.055C334.199 380.325 334.697 380.462 335.337 380.467C335.951 380.472 336.498 380.337 336.981 380.06C337.476 379.784 337.833 379.374 338.051 378.829L338.459 380.332C338.214 380.957 337.776 381.44 337.147 381.782C336.531 382.124 335.749 382.291 334.803 382.283ZM345.837 382.232L345.911 373.073L346.486 373.677L342.146 373.642L342.164 371.522L352.163 371.603L352.146 373.723L347.826 373.688L348.411 373.093L348.337 382.252L345.837 382.232ZM364.67 382.385L364.756 371.705L367.256 371.725L367.17 382.405L364.67 382.385ZM359.148 375.18C360.521 375.191 361.559 375.506 362.26 376.125C362.975 376.744 363.328 377.614 363.319 378.734C363.31 379.894 362.903 380.797 362.097 381.444C361.306 382.077 360.183 382.382 358.73 382.357L353.89 382.297L353.977 371.618L356.477 371.638L356.448 375.138L359.148 375.18ZM358.525 380.515C359.258 380.534 359.819 380.385 360.208 380.068C360.598 379.752 360.795 379.287 360.8 378.673C360.805 378.06 360.615 377.618 360.23 377.349C359.859 377.066 359.301 376.914 358.554 376.895L356.434 376.858L356.405 380.478L358.525 380.515Z" fill="white"/>
<rect x="447.437" y="166.759" width="146.057" height="146.057" rx="47.3143" fill="#373539"/>
<path d="M519.819 239.903C519.747 239.903 519.699 239.903 519.627 239.903C519.507 239.879 519.339 239.879 519.195 239.903C512.235 239.687 506.979 234.215 506.979 227.471C506.979 220.607 512.571 215.015 519.435 215.015C526.299 215.015 531.891 220.607 531.891 227.471C531.867 234.215 526.587 239.687 519.891 239.903C519.867 239.903 519.843 239.903 519.819 239.903ZM519.435 218.615C514.563 218.615 510.579 222.599 510.579 227.471C510.579 232.271 514.323 236.135 519.099 236.303C519.219 236.279 519.555 236.279 519.867 236.303C524.571 236.087 528.267 232.223 528.291 227.471C528.291 222.599 524.307 218.615 519.435 218.615Z" fill="#D5ABAB"/>
<path d="M519.844 266.136C515.14 266.136 510.412 264.936 506.836 262.536C503.5 260.328 501.676 257.304 501.676 254.016C501.676 250.728 503.5 247.68 506.836 245.448C514.036 240.672 525.7 240.672 532.852 245.448C536.164 247.656 538.012 250.68 538.012 253.968C538.012 257.256 536.188 260.304 532.852 262.536C529.252 264.936 524.548 266.136 519.844 266.136ZM508.828 248.472C506.524 250.008 505.276 251.976 505.276 254.04C505.276 256.08 506.548 258.048 508.828 259.56C514.804 263.568 524.884 263.568 530.86 259.56C533.164 258.024 534.412 256.056 534.412 253.992C534.412 251.952 533.14 249.984 530.86 248.472C524.884 244.488 514.804 244.488 508.828 248.472Z" fill="#D5ABAB"/>
<rect x="442.437" y="347.759" width="155" height="54" rx="22" transform="rotate(0.463629 442.437 347.759)" fill="#244792"/>
<path d="M472.141 382L472.254 368L484.634 368.101L484.52 382.1L481.96 382.079L482.061 369.64L482.656 370.285L474.196 370.216L474.801 369.581L474.701 382.021L472.141 382ZM494.106 382.318C493.24 382.311 492.448 382.104 491.731 381.699C491.028 381.293 490.466 380.688 490.046 379.885C489.639 379.068 489.441 378.04 489.451 376.8C489.461 375.547 489.669 374.522 490.076 373.725C490.496 372.928 491.06 372.339 491.77 371.959C492.48 371.564 493.288 371.371 494.195 371.378C495.248 371.387 496.173 371.621 496.969 372.081C497.779 372.541 498.414 373.179 498.874 373.996C499.347 374.813 499.58 375.775 499.571 376.882C499.562 377.988 499.314 378.953 498.827 379.776C498.354 380.585 497.709 381.214 496.892 381.66C496.088 382.107 495.16 382.326 494.106 382.318ZM488.156 386.01L488.274 371.45L490.654 371.469L490.634 373.989L490.531 376.829L490.708 379.67L490.656 386.03L488.156 386.01ZM493.844 380.176C494.444 380.18 494.978 380.051 495.447 379.789C495.929 379.526 496.312 379.142 496.596 378.638C496.88 378.133 497.025 377.541 497.031 376.861C497.036 376.168 496.901 375.573 496.625 375.078C496.349 374.569 495.972 374.179 495.495 373.909C495.03 373.638 494.498 373.501 493.898 373.496C493.298 373.491 492.757 373.62 492.275 373.883C491.793 374.145 491.409 374.529 491.125 375.033C490.841 375.524 490.697 376.117 490.691 376.81C490.685 377.49 490.821 378.084 491.096 378.593C491.372 379.102 491.749 379.492 492.227 379.762C492.705 380.033 493.244 380.171 493.844 380.176ZM506.774 382.42C505.681 382.411 504.709 382.17 503.86 381.697C503.01 381.21 502.342 380.551 501.856 379.72C501.369 378.89 501.13 377.948 501.139 376.894C501.147 375.828 501.402 374.89 501.901 374.081C502.401 373.258 503.08 372.617 503.937 372.157C504.794 371.697 505.769 371.472 506.863 371.481C507.969 371.49 508.947 371.731 509.797 372.204C510.66 372.678 511.328 373.323 511.801 374.141C512.288 374.958 512.527 375.907 512.518 376.987C512.51 378.04 512.256 378.978 511.756 379.801C511.269 380.623 510.59 381.271 509.72 381.744C508.863 382.204 507.881 382.429 506.774 382.42ZM506.791 380.28C507.405 380.285 507.953 380.156 508.435 379.894C508.917 379.631 509.293 379.247 509.564 378.743C509.848 378.238 509.993 377.646 509.998 376.966C510.004 376.273 509.869 375.678 509.593 375.183C509.33 374.674 508.96 374.284 508.482 374.014C508.004 373.743 507.466 373.606 506.866 373.601C506.252 373.596 505.704 373.725 505.222 373.987C504.754 374.25 504.377 374.634 504.093 375.138C503.809 375.629 503.664 376.222 503.659 376.915C503.653 377.595 503.788 378.189 504.064 378.698C504.34 379.207 504.71 379.597 505.175 379.867C505.653 380.138 506.191 380.275 506.791 380.28ZM521.723 382.601C521.71 382.601 521.65 382.601 521.543 382.6C521.45 382.599 521.356 382.598 521.263 382.598C521.183 382.597 521.13 382.596 521.103 382.596C518.85 382.551 517.107 382.051 515.875 381.094C514.643 380.124 514.034 378.752 514.048 376.979C514.062 375.219 514.693 373.877 515.941 372.954C517.188 372.031 518.959 371.565 521.252 371.557C521.279 371.557 521.332 371.558 521.412 371.558C521.506 371.559 521.592 371.56 521.672 371.56C521.766 371.561 521.819 371.562 521.832 371.562C524.139 371.58 525.928 372.068 527.201 373.025C528.486 373.969 529.122 375.328 529.108 377.101C529.093 378.887 528.435 380.255 527.134 381.205C525.847 382.155 524.043 382.62 521.723 382.601ZM521.66 380.521C522.793 380.53 523.727 380.411 524.463 380.163C525.198 379.903 525.748 379.52 526.112 379.017C526.476 378.5 526.661 377.854 526.668 377.081C526.674 376.321 526.499 375.693 526.143 375.197C525.787 374.687 525.243 374.309 524.512 374.064C523.781 373.804 522.849 373.67 521.715 373.661C521.689 373.661 521.622 373.66 521.515 373.659C521.422 373.659 521.362 373.658 521.335 373.658C520.229 373.649 519.321 373.775 518.612 374.036C517.903 374.283 517.374 374.652 517.023 375.143C516.686 375.634 516.514 376.252 516.508 376.999C516.502 377.759 516.663 378.394 516.993 378.903C517.335 379.412 517.859 379.803 518.563 380.076C519.281 380.348 520.187 380.495 521.28 380.518C521.306 380.518 521.366 380.518 521.46 380.519C521.566 380.52 521.633 380.52 521.66 380.521ZM520.313 386.27L520.465 367.551L522.825 367.57L522.673 386.289L520.313 386.27ZM531.487 382.48L531.574 371.801L534.073 371.821L534.017 378.861L539.973 371.869L542.253 371.887L542.167 382.567L539.667 382.546L539.724 375.507L533.787 382.499L531.487 382.48ZM543.97 382.561L544.107 380.462C544.2 380.476 544.287 380.49 544.367 380.504C544.446 380.518 544.52 380.526 544.586 380.526C545 380.53 545.321 380.405 545.549 380.154C545.778 379.902 545.948 379.564 546.058 379.138C546.181 378.699 546.265 378.213 546.309 377.68C546.367 377.134 546.412 376.587 546.443 376.041L546.656 371.923L555.296 371.993L555.209 382.672L552.709 382.652L552.784 373.412L553.359 374.097L548.279 374.056L548.824 373.36L548.662 376.179C548.614 377.125 548.527 378.005 548.4 378.817C548.287 379.616 548.108 380.315 547.863 380.913C547.632 381.511 547.308 381.975 546.892 382.305C546.489 382.635 545.975 382.797 545.348 382.792C545.148 382.791 544.928 382.769 544.689 382.727C544.462 382.685 544.223 382.63 543.97 382.561ZM563.994 375.583C565.367 375.594 566.411 375.909 567.126 376.528C567.841 377.148 568.194 378.017 568.185 379.137C568.176 380.297 567.769 381.2 566.963 381.847C566.158 382.481 565.029 382.785 563.576 382.76L558.576 382.699L558.663 372.02L561.162 372.04L561.134 375.54L563.994 375.583ZM563.371 380.918C564.104 380.937 564.665 380.789 565.054 380.472C565.444 380.155 565.641 379.69 565.646 379.077C565.651 378.463 565.461 378.022 565.076 377.752C564.705 377.469 564.146 377.318 563.4 377.298L561.12 377.26L561.091 380.88L563.371 380.918Z" fill="white"/>
<rect x="193.098" y="75.1411" width="267" height="74" rx="22" transform="rotate(-5.83434 193.098 75.1411)" fill="#06BD1B"/>
<path d="M244.604 94.8072L249.259 94.3314L251.821 119.401L247.165 119.877L244.604 94.8072ZM234.201 121.201L229.545 121.677L226.983 96.6076L231.639 96.1319L234.201 121.201ZM246.426 109.096L232.709 110.498L232.303 106.522L246.019 105.121L246.426 109.096ZM269.956 117.548L269.56 113.68L269.226 112.882L268.534 106.113C268.4 104.8 267.902 103.826 267.041 103.19C266.177 102.53 264.946 102.282 263.346 102.446C262.272 102.555 261.226 102.831 260.21 103.273C259.218 103.712 258.394 104.266 257.738 104.936L255.65 101.857C256.597 100.964 257.755 100.255 259.124 99.7286C260.515 99.1764 261.975 98.8222 263.503 98.666C266.272 98.383 268.478 98.8332 270.118 100.017C271.781 101.174 272.753 103.137 273.036 105.906L274.182 117.116L269.956 117.548ZM263.965 118.413C262.532 118.56 261.254 118.449 260.131 118.081C259.005 117.69 258.1 117.095 257.415 116.296C256.752 115.471 256.364 114.51 256.252 113.411C256.142 112.337 256.294 111.344 256.708 110.434C257.145 109.521 257.923 108.753 259.042 108.133C260.161 107.512 261.687 107.102 263.621 106.905L269.172 106.337L269.476 109.31L264.247 109.844C262.719 110 261.718 110.356 261.244 110.911C260.767 111.442 260.566 112.066 260.639 112.782C260.722 113.594 261.11 114.206 261.804 114.617C262.497 115.029 263.417 115.176 264.563 115.059C265.661 114.947 266.614 114.596 267.423 114.007C268.255 113.415 268.812 112.611 269.094 111.593L270.12 114.202C269.805 115.368 269.118 116.319 268.06 117.054C267.025 117.787 265.66 118.24 263.965 118.413ZM279.721 116.55L277.767 97.4256L287.114 96.4705C289.43 96.2338 291.289 96.4782 292.69 97.2035C294.115 97.9264 294.908 99.0758 295.069 100.652C295.227 102.203 294.731 103.485 293.58 104.495C292.426 105.481 290.822 106.079 288.769 106.289L289.193 105.124C291.509 104.887 293.272 105.141 294.482 105.886C295.713 106.605 296.412 107.776 296.578 109.399C296.751 111.095 296.254 112.484 295.086 113.569C293.916 114.629 292.041 115.291 289.463 115.555L279.721 116.55ZM283.65 112.856L288.771 112.332C289.989 112.208 290.889 111.923 291.47 111.477C292.05 111.008 292.298 110.368 292.215 109.556C292.127 108.696 291.776 108.093 291.161 107.745C290.547 107.398 289.631 107.287 288.413 107.411L283.149 107.949L283.65 112.856ZM282.845 104.977L287.537 104.497C288.683 104.38 289.521 104.089 290.053 103.625C290.606 103.134 290.843 102.507 290.765 101.743C290.685 100.955 290.327 100.4 289.691 100.079C289.079 99.7558 288.2 99.6526 287.053 99.7698L282.362 100.249L282.845 104.977ZM301.895 114.284L299.941 95.1599L304.417 94.7024L305.706 107.309L314.982 93.6229L319.065 93.2057L321.019 112.33L316.543 112.788L315.254 100.181L306.013 113.863L301.895 114.284ZM327.041 111.715L325.087 92.5903L339.771 91.09L340.159 94.8862L328.913 96.0353L329.849 94.9264L331.518 111.257L327.041 111.715ZM356.587 108.696L356.191 104.828L355.856 104.03L355.165 97.2611C355.031 95.9479 354.533 94.9734 353.672 94.3377C352.808 93.678 351.577 93.4299 349.977 93.5934C348.903 93.7032 347.857 93.9789 346.841 94.4205C345.848 94.8596 345.025 95.4143 344.369 96.0844L342.281 93.0046C343.228 92.1118 344.385 91.4025 345.755 90.8765C347.146 90.3242 348.606 89.97 350.134 89.8139C352.903 89.5309 355.109 89.9811 356.749 91.1644C358.412 92.3214 359.384 94.2847 359.667 97.0543L360.813 108.264L356.587 108.696ZM350.596 109.561C349.163 109.708 347.885 109.597 346.762 109.229C345.636 108.838 344.731 108.243 344.046 107.444C343.383 106.619 342.995 105.658 342.883 104.559C342.773 103.485 342.925 102.492 343.339 101.582C343.776 100.668 344.554 99.9013 345.673 99.2804C346.792 98.6595 348.318 98.2502 350.252 98.0526L355.803 97.4854L356.107 100.458L350.878 100.992C349.35 101.148 348.349 101.504 347.875 102.059C347.398 102.59 347.197 103.214 347.27 103.93C347.353 104.742 347.741 105.354 348.434 105.765C349.128 106.177 350.048 106.324 351.194 106.207C352.292 106.095 353.245 105.744 354.054 105.155C354.886 104.563 355.443 103.758 355.725 102.741L356.751 105.35C356.436 106.516 355.749 107.467 354.691 108.202C353.656 108.935 352.291 109.388 350.596 109.561ZM366.352 107.698L364.398 88.5735L368.875 88.116L370.441 103.444L379.573 102.511L378.007 87.1829L382.484 86.7254L384.438 105.85L366.352 107.698ZM383.584 110.243L383.138 105.874L384.187 105.875L379.961 106.307L379.573 102.511L386.951 101.757L387.774 109.815L383.584 110.243ZM391.324 105.146L389.37 86.0218L393.846 85.5644L395.134 98.1708L404.411 84.4848L408.494 84.0677L410.448 103.192L405.971 103.65L404.683 91.0432L395.442 104.725L391.324 105.146ZM428.611 101.336L427.945 94.8181L428.666 95.5043L422.936 96.0899C420.31 96.3582 418.189 96.0201 416.572 95.0755C414.977 94.1046 414.072 92.5686 413.858 90.4676C413.628 88.2233 414.242 86.4357 415.698 85.1047C417.178 83.7714 419.243 82.9693 421.894 82.6985L430.668 81.8019L432.622 100.926L428.611 101.336ZM414.859 102.741L419.269 94.9085L423.853 94.4401L419.658 102.251L414.859 102.741ZM427.798 93.3856L426.92 84.7903L427.686 85.9063L422.421 86.4443C421.036 86.5858 419.989 86.9582 419.278 87.5615C418.589 88.1385 418.304 89.0001 418.421 90.1461C418.64 92.2949 420.147 93.2266 422.94 92.9411L428.348 92.3886L427.798 93.3856Z" fill="white"/>
</svg>
