<svg width="294" height="46" viewBox="0 0 294 46" fill="none" xmlns="http://www.w3.org/2000/svg">
<path d="M13.564 39.882C11.5604 39.882 9.63509 39.5683 7.78822 38.9411C5.94135 38.3139 4.32969 37.4166 2.95325 36.2492C1.57681 35.0644 0.592393 33.6618 0 32.0415L5.09632 30.1336C5.39251 30.9699 5.95877 31.7191 6.79509 32.3812C7.64883 33.0259 8.65938 33.5312 9.82675 33.897C11.0115 34.2629 12.2573 34.4459 13.564 34.4459C14.9579 34.4459 16.2647 34.2194 17.4843 33.7664C18.7213 33.3134 19.7145 32.6861 20.4637 31.8847C21.2303 31.0832 21.6136 30.1423 21.6136 29.0621C21.6136 27.947 21.2129 27.0323 20.4114 26.3179C19.6274 25.6036 18.6168 25.0373 17.3798 24.6191C16.1601 24.201 14.8882 23.8874 13.564 23.6783C11.0028 23.2601 8.70294 22.6503 6.66442 21.8488C4.64331 21.0474 3.04037 19.9236 1.85558 18.4774C0.688221 17.0313 0.10454 15.1496 0.10454 12.8323C0.10454 10.6544 0.723067 8.75521 1.96012 7.13485C3.2146 5.51448 4.8611 4.26 6.89963 3.37141C8.95558 2.4654 11.1771 2.01239 13.564 2.01239C15.5329 2.01239 17.432 2.32601 19.2615 2.95325C21.1083 3.56307 22.7287 4.46037 24.1226 5.64515C25.5339 6.81252 26.5444 8.23252 27.1542 9.90515L22.0056 11.7607C21.7094 10.907 21.1432 10.1665 20.3069 9.53926C19.4705 8.8946 18.46 8.38933 17.2752 8.02343C16.1078 7.65755 14.8708 7.4746 13.564 7.4746C12.1702 7.45718 10.8634 7.68368 9.6438 8.15411C8.44159 8.60712 7.45718 9.23436 6.69055 10.0358C5.92392 10.8373 5.54061 11.7694 5.54061 12.8323C5.54061 14.139 5.89779 15.1321 6.61215 15.8117C7.3265 16.4912 8.28478 16.9964 9.48699 17.3275C10.7066 17.6411 12.0656 17.9286 13.564 18.1899C15.9685 18.5732 18.1899 19.2092 20.2285 20.0978C22.2844 20.9864 23.9309 22.1712 25.168 23.6521C26.4224 25.1157 27.0497 26.919 27.0497 29.0621C27.0497 31.2226 26.4224 33.1217 25.168 34.7595C23.9309 36.3799 22.2844 37.6431 20.2285 38.5491C18.1899 39.4377 15.9685 39.882 13.564 39.882Z" fill="white"/>
<path d="M46.225 18.5036H40.7366L40.7105 39.2024H35.2744L35.3006 18.5036H31.1451V13.0675H35.3006L35.2744 4.86111H40.7105L40.7366 13.0675H46.225V18.5036Z" fill="white"/>
<path d="M49.8586 29.4018V13.0675H55.2946V28.069C55.2946 29.2363 55.5821 30.2991 56.1571 31.2574C56.7321 32.2157 57.4987 32.9823 58.457 33.5573C59.4153 34.1148 60.4694 34.3936 61.6193 34.3936C62.7867 34.3936 63.8408 34.1148 64.7816 33.5573C65.7399 32.9823 66.4978 32.2157 67.0554 31.2574C67.6303 30.2991 67.9178 29.2363 67.9178 28.069V13.0675H73.3539L73.38 39.2024H67.944L67.9178 36.3799C67.0292 37.4601 65.9229 38.3139 64.5987 38.9411C63.2745 39.5683 61.8545 39.882 60.3387 39.882C58.4047 39.882 56.6449 39.4115 55.0594 38.4707C53.4739 37.5298 52.2107 36.2666 51.2699 34.6811C50.329 33.0956 49.8586 31.3358 49.8586 29.4018Z" fill="white"/>
<path d="M98.6231 0H104.059V39.2024H98.6231V35.3606C97.7694 36.7196 96.6543 37.8173 95.2779 38.6536C93.9014 39.4725 92.2898 39.882 90.4429 39.882C88.5438 39.882 86.7666 39.5248 85.1114 38.8104C83.4561 38.0961 81.9926 37.1116 80.7207 35.8572C79.4662 34.5853 78.4818 33.1217 77.7674 31.4665C77.0531 29.8113 76.6959 28.0341 76.6959 26.135C76.6959 24.2358 77.0531 22.4586 77.7674 20.8034C78.4818 19.1308 79.4662 17.6672 80.7207 16.4128C81.9926 15.1409 83.4561 14.1477 85.1114 13.4334C86.7666 12.719 88.5438 12.3618 90.4429 12.3618C92.2898 12.3618 93.9014 12.78 95.2779 13.6163C96.6543 14.4352 97.7694 15.5155 98.6231 16.8571V0ZM90.4952 34.6288C92.0284 34.6288 93.37 34.2542 94.52 33.505C95.6699 32.7384 96.5585 31.7104 97.1857 30.4211C97.8304 29.1318 98.1527 27.7031 98.1527 26.135C98.1527 24.5494 97.8304 23.112 97.1857 21.8227C96.5411 20.5334 95.6438 19.5141 94.4938 18.7649C93.3613 17.9983 92.0284 17.615 90.4952 17.615C88.9793 17.615 87.5942 17.9983 86.3397 18.7649C85.1026 19.5315 84.1095 20.5595 83.3603 21.8488C82.6285 23.1382 82.2626 24.5669 82.2626 26.135C82.2626 27.7205 82.6373 29.1579 83.3865 30.4472C84.1531 31.7191 85.1549 32.7384 86.392 33.505C87.6464 34.2542 89.0142 34.6288 90.4952 34.6288Z" fill="white"/>
<path d="M110.32 13.0675H115.756V39.2024H110.32V13.0675ZM113.09 9.27791C112.254 9.27791 111.557 9.00785 111 8.46773C110.442 7.92761 110.163 7.2481 110.163 6.4292C110.163 5.62773 110.442 4.95693 111 4.41681C111.557 3.85926 112.245 3.58049 113.064 3.58049C113.866 3.58049 114.545 3.85926 115.103 4.41681C115.66 4.95693 115.939 5.62773 115.939 6.4292C115.939 7.2481 115.66 7.92761 115.103 8.46773C114.563 9.00785 113.892 9.27791 113.09 9.27791Z" fill="white"/>
<path d="M196.5 39.5422H189.444L178.546 24.4623L176.324 27.1542V39.5422H170.888V2.95325H176.324V18.7126L189.496 2.95325H196.605L182.126 20.2285L196.5 39.5422Z" fill="white"/>
<path d="M200.596 39.5422V13.4072H206.032V16.1775C206.938 15.0973 208.053 14.2436 209.377 13.6163C210.702 12.9891 212.13 12.6755 213.664 12.6755C214.639 12.6755 215.606 12.8061 216.565 13.0675L214.395 18.5558C213.716 18.2945 213.036 18.1638 212.357 18.1638C211.207 18.1638 210.153 18.4513 209.195 19.0263C208.236 19.5838 207.47 20.3417 206.895 21.3C206.32 22.2583 206.032 23.3211 206.032 24.4885V39.5422H200.596Z" fill="white"/>
<path d="M238.693 13.4072H244.129V39.5422H238.667L238.458 35.7526C237.691 37.0942 236.654 38.1745 235.347 38.9934C234.041 39.8123 232.499 40.2217 230.722 40.2217C228.805 40.2217 227.002 39.8645 225.312 39.1502C223.622 38.4184 222.132 37.4078 220.843 36.1185C219.571 34.8292 218.577 33.3482 217.863 31.6756C217.149 29.9855 216.792 28.1735 216.792 26.2395C216.792 24.3752 217.14 22.6242 217.837 20.9864C218.534 19.3312 219.501 17.885 220.738 16.648C221.975 15.4109 223.404 14.4439 225.024 13.747C226.662 13.0326 228.413 12.6755 230.277 12.6755C232.176 12.6755 233.849 13.111 235.295 13.9822C236.759 14.836 237.97 15.9336 238.928 17.2752L238.693 13.4072ZM230.591 34.9686C232.124 34.9686 233.466 34.594 234.616 33.8448C235.766 33.0782 236.654 32.0502 237.281 30.7608C237.926 29.4715 238.248 28.0428 238.248 26.4747C238.248 24.8892 237.926 23.4518 237.281 22.1624C236.637 20.8731 235.739 19.8539 234.59 19.1047C233.457 18.338 232.124 17.9547 230.591 17.9547C229.075 17.9547 227.69 18.338 226.435 19.1047C225.181 19.8713 224.188 20.8993 223.456 22.1886C222.724 23.4779 222.358 24.9066 222.358 26.4747C222.358 28.0602 222.733 29.4977 223.482 30.787C224.249 32.0589 225.251 33.0782 226.488 33.8448C227.742 34.594 229.11 34.9686 230.591 34.9686Z" fill="white"/>
<path d="M266.123 13.4072H271.925L259.94 45.5814H254.164L256.558 39.5422L247.176 13.4072H253.108L259.276 32.0937L266.123 13.4072Z" fill="white"/>
<path d="M283.677 40.0388C282.3 39.9516 280.959 39.6729 279.652 39.2024C278.345 38.732 277.195 38.0961 276.202 37.2946C275.226 36.4757 274.495 35.5174 274.007 34.4198L278.633 32.4335C278.859 32.9039 279.251 33.3656 279.809 33.8186C280.384 34.2716 281.055 34.6463 281.821 34.9424C282.588 35.2212 283.389 35.3606 284.226 35.3606C285.044 35.3606 285.802 35.2474 286.499 35.0209C287.214 34.7769 287.797 34.411 288.25 33.9232C288.703 33.4353 288.93 32.8517 288.93 32.1721C288.93 31.4055 288.668 30.8131 288.146 30.395C287.641 29.9594 287.005 29.6283 286.238 29.4018C285.471 29.1753 284.705 28.9575 283.938 28.7485C282.231 28.3651 280.662 27.8424 279.234 27.1804C277.822 26.5009 276.699 25.6384 275.862 24.593C275.026 23.5302 274.608 22.2321 274.608 20.6989C274.608 19.0263 275.061 17.5801 275.967 16.3605C276.873 15.1234 278.058 14.1739 279.521 13.5118C281.002 12.8497 282.579 12.5186 284.252 12.5186C286.342 12.5186 288.259 12.9629 290.001 13.8515C291.744 14.7401 293.077 15.9598 294 17.5104L289.688 20.0717C289.426 19.549 289.034 19.0785 288.512 18.6604C287.989 18.2422 287.397 17.9112 286.734 17.6672C286.072 17.4059 285.384 17.2578 284.67 17.2229C283.781 17.1881 282.954 17.2926 282.187 17.5366C281.438 17.7631 280.837 18.129 280.384 18.6342C279.931 19.1395 279.704 19.7842 279.704 20.5682C279.704 21.3348 279.974 21.9098 280.514 22.2931C281.055 22.659 281.734 22.9552 282.553 23.1817C283.389 23.4082 284.243 23.6609 285.114 23.9396C286.665 24.4275 288.12 25.0286 289.479 25.7429C290.838 26.4399 291.935 27.3023 292.772 28.3303C293.608 29.3583 294.009 30.6128 293.974 32.0937C293.974 33.7315 293.477 35.169 292.484 36.406C291.508 37.6431 290.237 38.5839 288.668 39.2286C287.1 39.8732 285.436 40.1433 283.677 40.0388Z" fill="white"/>
<rect x="120.234" y="8.23529" width="31.8431" height="31.8431" rx="15.9216" fill="white"/>
<path d="M136.046 37.9776C133.642 37.9776 131.446 37.3591 129.46 36.1221C127.491 34.885 125.914 33.2298 124.73 31.1564C123.562 29.0656 122.979 26.757 122.979 24.2307C122.979 22.3141 123.318 20.5282 123.998 18.873C124.677 17.2003 125.609 15.7368 126.794 14.4823C127.996 13.2104 129.39 12.2173 130.976 11.5029C132.561 10.7886 134.251 10.4314 136.046 10.4314C138.45 10.4314 140.637 11.0499 142.606 12.287C144.592 13.524 146.169 15.188 147.336 17.2788C148.521 19.3696 149.113 21.6869 149.113 24.2307C149.113 26.1298 148.774 27.907 148.094 29.5622C147.415 31.2174 146.474 32.681 145.272 33.9529C144.087 35.2073 142.702 36.1918 141.116 36.9061C139.548 37.6205 137.858 37.9776 136.046 37.9776ZM136.046 32.5416C137.492 32.5416 138.79 32.1583 139.94 31.3916C141.09 30.625 141.996 29.6145 142.658 28.36C143.338 27.0881 143.677 25.7116 143.677 24.2307C143.677 22.7148 143.329 21.321 142.632 20.0491C141.952 18.7772 141.038 17.7666 139.888 17.0174C138.738 16.2508 137.457 15.8675 136.046 15.8675C134.617 15.8675 133.319 16.2508 132.152 17.0174C131.002 17.784 130.087 18.8033 129.408 20.0752C128.746 21.3471 128.415 22.7323 128.415 24.2307C128.415 25.7813 128.763 27.1839 129.46 28.4384C130.157 29.6929 131.08 30.6947 132.23 31.4439C133.398 32.1757 134.67 32.5416 136.046 32.5416Z" fill="#080808"/>
</svg>
