<svg width="662" height="628" viewBox="0 0 662 628" fill="none" xmlns="http://www.w3.org/2000/svg">
<g clip-path="url(#clip0_443_3852)">
<rect y="0.0625" width="662" height="627" rx="27" fill="#0F0F0F"/>
<g clip-path="url(#clip1_443_3852)">
<rect x="117" y="36.0625" width="428" height="875" rx="25" fill="#EEEEEE"/>
<rect x="117" y="36.0625" width="428" height="75" rx="30" fill="white"/>
<path d="M141.464 77.9585L142.136 76.4385C142.616 76.7692 143.139 77.0252 143.704 77.2065C144.28 77.3772 144.851 77.4678 145.416 77.4785C145.981 77.4892 146.493 77.4252 146.952 77.2865C147.421 77.1478 147.795 76.9398 148.072 76.6625C148.349 76.3852 148.488 76.0385 148.488 75.6225C148.488 75.1212 148.28 74.7478 147.864 74.5025C147.459 74.2465 146.904 74.1185 146.2 74.1185H143.592V72.4865H146.04C146.669 72.4865 147.155 72.3585 147.496 72.1025C147.848 71.8465 148.024 71.4998 148.024 71.0625C148.024 70.6998 147.907 70.4012 147.672 70.1665C147.448 69.9318 147.139 69.7558 146.744 69.6385C146.36 69.5212 145.923 69.4678 145.432 69.4785C144.952 69.4785 144.451 69.5532 143.928 69.7025C143.405 69.8412 142.909 70.0492 142.44 70.3265L141.784 68.6465C142.488 68.2732 143.224 68.0118 143.992 67.8625C144.771 67.7132 145.523 67.6705 146.248 67.7345C146.973 67.7985 147.624 67.9638 148.2 68.2305C148.787 68.4972 149.256 68.8492 149.608 69.2865C149.96 69.7132 150.136 70.2198 150.136 70.8065C150.136 71.3398 149.992 71.8145 149.704 72.2305C149.427 72.6358 149.043 72.9505 148.552 73.1745C148.061 73.3985 147.491 73.5105 146.84 73.5105L146.92 72.9985C147.656 72.9985 148.296 73.1265 148.84 73.3825C149.395 73.6278 149.821 73.9692 150.12 74.4065C150.429 74.8438 150.584 75.3505 150.584 75.9265C150.584 76.4705 150.445 76.9558 150.168 77.3825C149.891 77.7985 149.512 78.1505 149.032 78.4385C148.552 78.7158 148.003 78.9238 147.384 79.0625C146.765 79.1905 146.115 79.2385 145.432 79.2065C144.749 79.1745 144.067 79.0572 143.384 78.8545C142.712 78.6518 142.072 78.3532 141.464 77.9585ZM157.919 79.0625V77.3345L157.807 76.9665V73.9425C157.807 73.3558 157.631 72.9025 157.279 72.5825C156.927 72.2518 156.393 72.0865 155.679 72.0865C155.199 72.0865 154.724 72.1612 154.255 72.3105C153.796 72.4598 153.407 72.6678 153.087 72.9345L152.303 71.4785C152.761 71.1265 153.305 70.8652 153.935 70.6945C154.575 70.5132 155.236 70.4225 155.919 70.4225C157.156 70.4225 158.111 70.7212 158.783 71.3185C159.465 71.9052 159.807 72.8172 159.807 74.0545V79.0625H157.919ZM155.231 79.1745C154.591 79.1745 154.031 79.0678 153.551 78.8545C153.071 78.6305 152.697 78.3265 152.431 77.9425C152.175 77.5478 152.047 77.1052 152.047 76.6145C152.047 76.1345 152.159 75.7025 152.383 75.3185C152.617 74.9345 152.996 74.6305 153.519 74.4065C154.041 74.1825 154.735 74.0705 155.599 74.0705H158.079V75.3985H155.743C155.06 75.3985 154.601 75.5105 154.367 75.7345C154.132 75.9478 154.015 76.2145 154.015 76.5345C154.015 76.8972 154.159 77.1852 154.447 77.3985C154.735 77.6118 155.135 77.7185 155.647 77.7185C156.137 77.7185 156.575 77.6065 156.959 77.3825C157.353 77.1585 157.636 76.8278 157.807 76.3905L158.143 77.5905C157.951 78.0918 157.604 78.4812 157.103 78.7585C156.612 79.0358 155.988 79.1745 155.231 79.1745ZM168.41 79.0625L165.322 74.9665L166.954 73.9585L170.762 79.0625H168.41ZM162.282 79.0625V70.5185H164.282V79.0625H162.282ZM163.69 75.6385V73.9745H166.586V75.6385H163.69ZM167.146 75.0305L165.274 74.8065L168.41 70.5185H170.554L167.146 75.0305ZM177.2 79.0625V77.3345L177.088 76.9665V73.9425C177.088 73.3558 176.912 72.9025 176.56 72.5825C176.208 72.2518 175.675 72.0865 174.96 72.0865C174.48 72.0865 174.005 72.1612 173.536 72.3105C173.077 72.4598 172.688 72.6678 172.368 72.9345L171.584 71.4785C172.043 71.1265 172.587 70.8652 173.216 70.6945C173.856 70.5132 174.517 70.4225 175.2 70.4225C176.437 70.4225 177.392 70.7212 178.064 71.3185C178.747 71.9052 179.088 72.8172 179.088 74.0545V79.0625H177.2ZM174.512 79.1745C173.872 79.1745 173.312 79.0678 172.832 78.8545C172.352 78.6305 171.979 78.3265 171.712 77.9425C171.456 77.5478 171.328 77.1052 171.328 76.6145C171.328 76.1345 171.44 75.7025 171.664 75.3185C171.899 74.9345 172.277 74.6305 172.8 74.4065C173.323 74.1825 174.016 74.0705 174.88 74.0705H177.36V75.3985H175.024C174.341 75.3985 173.883 75.5105 173.648 75.7345C173.413 75.9478 173.296 76.2145 173.296 76.5345C173.296 76.8972 173.44 77.1852 173.728 77.3985C174.016 77.6118 174.416 77.7185 174.928 77.7185C175.419 77.7185 175.856 77.6065 176.24 77.3825C176.635 77.1585 176.917 76.8278 177.088 76.3905L177.424 77.5905C177.232 78.0918 176.885 78.4812 176.384 78.7585C175.893 79.0358 175.269 79.1745 174.512 79.1745ZM184.157 79.2065C183.507 79.2065 182.861 79.1318 182.221 78.9825C181.592 78.8225 181.021 78.5985 180.509 78.3105L181.069 76.8225C181.485 77.0572 181.955 77.2385 182.477 77.3665C183 77.4945 183.523 77.5585 184.045 77.5585C184.493 77.5585 184.877 77.5158 185.197 77.4305C185.517 77.3345 185.763 77.1958 185.933 77.0145C186.115 76.8332 186.205 76.6252 186.205 76.3905C186.205 76.0492 186.056 75.7932 185.757 75.6225C185.469 75.4412 185.053 75.3505 184.509 75.3505H182.861V74.0065H184.349C184.691 74.0065 184.979 73.9692 185.213 73.8945C185.459 73.8198 185.645 73.7078 185.773 73.5585C185.901 73.4092 185.965 73.2332 185.965 73.0305C185.965 72.8278 185.885 72.6518 185.725 72.5025C185.576 72.3425 185.357 72.2252 185.069 72.1505C184.781 72.0652 184.435 72.0225 184.029 72.0225C183.603 72.0225 183.16 72.0758 182.701 72.1825C182.253 72.2892 181.795 72.4438 181.325 72.6465L180.813 71.1745C181.357 70.9292 181.885 70.7425 182.397 70.6145C182.92 70.4758 183.437 70.4012 183.949 70.3905C184.728 70.3585 185.421 70.4385 186.029 70.6305C186.637 70.8225 187.117 71.0998 187.469 71.4625C187.821 71.8252 187.997 72.2518 187.997 72.7425C187.997 73.1478 187.869 73.5158 187.613 73.8465C187.368 74.1665 187.027 74.4172 186.589 74.5985C186.163 74.7798 185.672 74.8705 185.117 74.8705L185.181 74.4385C186.131 74.4385 186.877 74.6305 187.421 75.0145C187.965 75.3878 188.237 75.8998 188.237 76.5505C188.237 77.0732 188.061 77.5372 187.709 77.9425C187.357 78.3372 186.872 78.6465 186.253 78.8705C185.645 79.0945 184.947 79.2065 184.157 79.2065Z" fill="black"/>
<path d="M221.144 79.0625L226.184 67.8625H228.232L233.288 79.0625H231.112L226.776 68.9665H227.608L223.288 79.0625H221.144ZM223.464 76.4705L224.024 74.8385H230.072L230.632 76.4705H223.464ZM234.782 79.0625V70.5185H236.782V73.9905H241.086V70.5185H243.086V79.0625H241.086V75.6865H236.782V79.0625H234.782ZM251.894 79.0625L248.806 74.9665L250.438 73.9585L254.246 79.0625H251.894ZM245.766 79.0625V70.5185H247.766V79.0625H245.766ZM247.174 75.6385V73.9745H250.07V75.6385H247.174ZM250.63 75.0305L248.758 74.8065L251.894 70.5185H254.038L250.63 75.0305ZM259.359 79.1745C258.41 79.1745 257.578 78.9878 256.863 78.6145C256.159 78.2305 255.61 77.7078 255.215 77.0465C254.831 76.3852 254.639 75.6332 254.639 74.7905C254.639 73.9372 254.826 73.1852 255.199 72.5345C255.583 71.8732 256.106 71.3558 256.767 70.9825C257.439 70.6092 258.202 70.4225 259.055 70.4225C259.887 70.4225 260.629 70.6038 261.279 70.9665C261.93 71.3292 262.442 71.8412 262.815 72.5025C263.189 73.1638 263.375 73.9425 263.375 74.8385C263.375 74.9238 263.37 75.0198 263.359 75.1265C263.359 75.2332 263.354 75.3345 263.343 75.4305H256.223V74.1025H262.287L261.503 74.5185C261.514 74.0278 261.413 73.5958 261.199 73.2225C260.986 72.8492 260.693 72.5558 260.319 72.3425C259.957 72.1292 259.535 72.0225 259.055 72.0225C258.565 72.0225 258.133 72.1292 257.759 72.3425C257.397 72.5558 257.109 72.8545 256.895 73.2385C256.693 73.6118 256.591 74.0545 256.591 74.5665V74.8865C256.591 75.3985 256.709 75.8518 256.943 76.2465C257.178 76.6412 257.509 76.9452 257.935 77.1585C258.362 77.3718 258.853 77.4785 259.407 77.4785C259.887 77.4785 260.319 77.4038 260.703 77.2545C261.087 77.1052 261.429 76.8705 261.727 76.5505L262.799 77.7825C262.415 78.2305 261.93 78.5772 261.343 78.8225C260.767 79.0572 260.106 79.1745 259.359 79.1745ZM267.011 79.0625V71.7345L267.475 72.2145H264.003V70.5185H272.003V72.2145H268.547L269.011 71.7345V79.0625H267.011ZM278.637 79.0625V77.3345L278.525 76.9665V73.9425C278.525 73.3558 278.349 72.9025 277.997 72.5825C277.645 72.2518 277.112 72.0865 276.397 72.0865C275.917 72.0865 275.443 72.1612 274.973 72.3105C274.515 72.4598 274.125 72.6678 273.805 72.9345L273.021 71.4785C273.48 71.1265 274.024 70.8652 274.653 70.6945C275.293 70.5132 275.955 70.4225 276.637 70.4225C277.875 70.4225 278.829 70.7212 279.501 71.3185C280.184 71.9052 280.525 72.8172 280.525 74.0545V79.0625H278.637ZM275.949 79.1745C275.309 79.1745 274.749 79.0678 274.269 78.8545C273.789 78.6305 273.416 78.3265 273.149 77.9425C272.893 77.5478 272.765 77.1052 272.765 76.6145C272.765 76.1345 272.877 75.7025 273.101 75.3185C273.336 74.9345 273.715 74.6305 274.237 74.4065C274.76 74.1825 275.453 74.0705 276.317 74.0705H278.797V75.3985H276.461C275.779 75.3985 275.32 75.5105 275.085 75.7345C274.851 75.9478 274.733 76.2145 274.733 76.5345C274.733 76.8972 274.877 77.1852 275.165 77.3985C275.453 77.6118 275.853 77.7185 276.365 77.7185C276.856 77.7185 277.293 77.6065 277.677 77.3825C278.072 77.1585 278.355 76.8278 278.525 76.3905L278.861 77.5905C278.669 78.0918 278.323 78.4812 277.821 78.7585C277.331 79.0358 276.707 79.1745 275.949 79.1745Z" fill="black" fill-opacity="0.55"/>
<path d="M320.768 79.2225C319.893 79.2225 319.088 79.0785 318.352 78.7905C317.616 78.5025 316.976 78.1025 316.432 77.5905C315.888 77.0678 315.467 76.4598 315.168 75.7665C314.869 75.0625 314.72 74.2945 314.72 73.4625C314.72 72.6305 314.869 71.8678 315.168 71.1745C315.467 70.4705 315.888 69.8625 316.432 69.3505C316.976 68.8278 317.616 68.4225 318.352 68.1345C319.088 67.8465 319.888 67.7025 320.752 67.7025C321.627 67.7025 322.427 67.8465 323.152 68.1345C323.888 68.4225 324.528 68.8278 325.072 69.3505C325.616 69.8625 326.037 70.4705 326.336 71.1745C326.635 71.8678 326.784 72.6305 326.784 73.4625C326.784 74.2945 326.635 75.0625 326.336 75.7665C326.037 76.4705 325.616 77.0785 325.072 77.5905C324.528 78.1025 323.888 78.5025 323.152 78.7905C322.427 79.0785 321.632 79.2225 320.768 79.2225ZM320.752 77.3985C321.317 77.3985 321.84 77.3025 322.32 77.1105C322.8 76.9185 323.216 76.6465 323.568 76.2945C323.92 75.9318 324.192 75.5158 324.384 75.0465C324.587 74.5665 324.688 74.0385 324.688 73.4625C324.688 72.8865 324.587 72.3638 324.384 71.8945C324.192 71.4145 323.92 70.9985 323.568 70.6465C323.216 70.2838 322.8 70.0065 322.32 69.8145C321.84 69.6225 321.317 69.5265 320.752 69.5265C320.187 69.5265 319.664 69.6225 319.184 69.8145C318.715 70.0065 318.299 70.2838 317.936 70.6465C317.584 70.9985 317.307 71.4145 317.104 71.8945C316.912 72.3638 316.816 72.8865 316.816 73.4625C316.816 74.0278 316.912 74.5505 317.104 75.0305C317.307 75.5105 317.584 75.9318 317.936 76.2945C318.288 76.6465 318.704 76.9185 319.184 77.1105C319.664 77.3025 320.187 77.3985 320.752 77.3985ZM330.495 79.0625V71.7345L330.959 72.2145H327.487V70.5185H335.487V72.2145H332.031L332.495 71.7345V79.0625H330.495ZM339.501 79.2065C338.85 79.2065 338.205 79.1318 337.565 78.9825C336.936 78.8225 336.365 78.5985 335.853 78.3105L336.413 76.8225C336.829 77.0572 337.298 77.2385 337.821 77.3665C338.344 77.4945 338.866 77.5585 339.389 77.5585C339.837 77.5585 340.221 77.5158 340.541 77.4305C340.861 77.3345 341.106 77.1958 341.277 77.0145C341.458 76.8332 341.549 76.6252 341.549 76.3905C341.549 76.0492 341.4 75.7932 341.101 75.6225C340.813 75.4412 340.397 75.3505 339.853 75.3505H338.205V74.0065H339.693C340.034 74.0065 340.322 73.9692 340.557 73.8945C340.802 73.8198 340.989 73.7078 341.117 73.5585C341.245 73.4092 341.309 73.2332 341.309 73.0305C341.309 72.8278 341.229 72.6518 341.069 72.5025C340.92 72.3425 340.701 72.2252 340.413 72.1505C340.125 72.0652 339.778 72.0225 339.373 72.0225C338.946 72.0225 338.504 72.0758 338.045 72.1825C337.597 72.2892 337.138 72.4438 336.669 72.6465L336.157 71.1745C336.701 70.9292 337.229 70.7425 337.741 70.6145C338.264 70.4758 338.781 70.4012 339.293 70.3905C340.072 70.3585 340.765 70.4385 341.373 70.6305C341.981 70.8225 342.461 71.0998 342.813 71.4625C343.165 71.8252 343.341 72.2518 343.341 72.7425C343.341 73.1478 343.213 73.5158 342.957 73.8465C342.712 74.1665 342.37 74.4172 341.933 74.5985C341.506 74.7798 341.016 74.8705 340.461 74.8705L340.525 74.4385C341.474 74.4385 342.221 74.6305 342.765 75.0145C343.309 75.3878 343.581 75.8998 343.581 76.5505C343.581 77.0732 343.405 77.5372 343.053 77.9425C342.701 78.3372 342.216 78.6465 341.597 78.8705C340.989 79.0945 340.29 79.2065 339.501 79.2065ZM354.265 79.0625V70.5185H356.265V79.0625H354.265ZM349.801 73.3345C350.9 73.3345 351.732 73.5798 352.297 74.0705C352.873 74.5612 353.161 75.2545 353.161 76.1505C353.161 77.0785 352.841 77.8038 352.201 78.3265C351.572 78.8385 350.676 79.0892 349.513 79.0785L345.641 79.0625V70.5185H347.641V73.3185L349.801 73.3345ZM349.337 77.6065C349.924 77.6172 350.372 77.4945 350.681 77.2385C350.99 76.9825 351.145 76.6092 351.145 76.1185C351.145 75.6278 350.99 75.2758 350.681 75.0625C350.382 74.8385 349.934 74.7212 349.337 74.7105L347.641 74.6945V77.5905L349.337 77.6065ZM358.953 79.0625V70.5185H363.129C364.164 70.5185 364.975 70.7105 365.561 71.0945C366.159 71.4785 366.457 72.0225 366.457 72.7265C366.457 73.4198 366.18 73.9638 365.625 74.3585C365.071 74.7425 364.335 74.9345 363.417 74.9345L363.657 74.4385C364.692 74.4385 365.46 74.6305 365.961 75.0145C366.473 75.3878 366.729 75.9372 366.729 76.6625C366.729 77.4198 366.447 78.0118 365.881 78.4385C365.316 78.8545 364.457 79.0625 363.305 79.0625H358.953ZM360.857 77.6065H363.145C363.689 77.6065 364.1 77.5212 364.377 77.3505C364.655 77.1692 364.793 76.8972 364.793 76.5345C364.793 76.1505 364.665 75.8678 364.409 75.6865C364.153 75.5052 363.753 75.4145 363.209 75.4145H360.857V77.6065ZM360.857 74.0865H362.953C363.465 74.0865 363.849 73.9958 364.105 73.8145C364.372 73.6225 364.505 73.3558 364.505 73.0145C364.505 72.6625 364.372 72.4012 364.105 72.2305C363.849 72.0598 363.465 71.9745 362.953 71.9745H360.857V74.0865ZM377.484 79.0625V70.5185H379.484V79.0625H377.484ZM373.02 73.3345C374.118 73.3345 374.95 73.5798 375.516 74.0705C376.092 74.5612 376.38 75.2545 376.38 76.1505C376.38 77.0785 376.06 77.8038 375.42 78.3265C374.79 78.8385 373.894 79.0892 372.732 79.0785L368.86 79.0625V70.5185H370.86V73.3185L373.02 73.3345ZM372.556 77.6065C373.142 77.6172 373.59 77.4945 373.9 77.2385C374.209 76.9825 374.364 76.6092 374.364 76.1185C374.364 75.6278 374.209 75.2758 373.9 75.0625C373.601 74.8385 373.153 74.7212 372.556 74.7105L370.86 74.6945V77.5905L372.556 77.6065Z" fill="black" fill-opacity="0.55"/>
<path d="M520.5 65.0625V80.5625" stroke="black" stroke-width="2" stroke-linecap="round"/>
<path d="M515.707 73.7696C516.098 73.3791 516.098 72.7459 515.707 72.3554L509.343 65.9914C508.953 65.6009 508.319 65.6009 507.929 65.9914C507.538 66.382 507.538 67.0151 507.929 67.4056L513.586 73.0625L507.929 78.7194C507.538 79.1099 507.538 79.743 507.929 80.1336C508.319 80.5241 508.953 80.5241 509.343 80.1336L515.707 73.7696ZM499 74.0625H515V72.0625H499V74.0625Z" fill="black"/>
<path d="M117 151.063C117 134.494 130.431 121.062 147 121.062H515C531.569 121.062 545 134.494 545 151.062V1152.06H117V151.063Z" fill="white"/>
<path d="M142.98 164.062V150.062H149.24C150.813 150.062 152.04 150.376 152.92 151.002C153.8 151.616 154.24 152.502 154.24 153.662C154.24 154.809 153.82 155.696 152.98 156.322C152.14 156.936 151.033 157.242 149.66 157.242L150.02 156.522C151.58 156.522 152.787 156.836 153.64 157.462C154.493 158.089 154.92 158.996 154.92 160.182C154.92 161.396 154.473 162.349 153.58 163.042C152.687 163.722 151.367 164.062 149.62 164.062H142.98ZM145.54 162.062H149.54C150.447 162.062 151.133 161.896 151.6 161.562C152.067 161.216 152.3 160.689 152.3 159.982C152.3 159.276 152.067 158.762 151.6 158.442C151.133 158.109 150.447 157.942 149.54 157.942H145.54V162.062ZM145.54 156.042H149.02C149.86 156.042 150.5 155.876 150.94 155.542C151.38 155.196 151.6 154.702 151.6 154.062C151.6 153.396 151.38 152.896 150.94 152.562C150.5 152.229 149.86 152.062 149.02 152.062H145.54V156.042ZM168.382 164.062V153.382H170.882V164.062H168.382ZM162.802 156.902C164.175 156.902 165.215 157.209 165.922 157.822C166.642 158.436 167.002 159.302 167.002 160.422C167.002 161.582 166.602 162.489 165.802 163.142C165.015 163.782 163.895 164.096 162.442 164.083L157.602 164.062V153.382H160.102V156.882L162.802 156.902ZM162.222 162.242C162.955 162.256 163.515 162.102 163.902 161.782C164.289 161.462 164.482 160.996 164.482 160.382C164.482 159.769 164.289 159.329 163.902 159.062C163.529 158.782 162.969 158.636 162.222 158.622L160.102 158.602V162.222L162.222 162.242ZM179.343 164.263C178.463 164.263 177.676 164.129 176.983 163.862C176.289 163.596 175.689 163.189 175.183 162.642C174.689 162.082 174.309 161.376 174.043 160.522C173.776 159.669 173.643 158.656 173.643 157.482C173.643 156.629 173.716 155.849 173.863 155.142C174.009 154.436 174.229 153.802 174.523 153.242C174.816 152.669 175.183 152.162 175.623 151.722C176.076 151.282 176.603 150.916 177.203 150.622C177.803 150.329 178.483 150.102 179.243 149.942L184.203 148.882L184.563 151.122L180.063 152.042C179.809 152.096 179.503 152.176 179.143 152.282C178.796 152.376 178.436 152.522 178.063 152.722C177.703 152.909 177.363 153.182 177.043 153.542C176.736 153.889 176.483 154.342 176.283 154.902C176.096 155.449 176.003 156.136 176.003 156.962C176.003 157.216 176.009 157.409 176.023 157.542C176.049 157.662 176.069 157.796 176.083 157.942C176.109 158.076 176.123 158.276 176.123 158.542L175.183 157.562C175.449 156.882 175.816 156.302 176.283 155.822C176.763 155.329 177.316 154.956 177.943 154.702C178.583 154.436 179.276 154.302 180.023 154.302C181.023 154.302 181.909 154.509 182.683 154.922C183.456 155.336 184.063 155.916 184.503 156.662C184.943 157.409 185.163 158.256 185.163 159.202C185.163 160.189 184.923 161.062 184.443 161.822C183.963 162.582 183.283 163.182 182.403 163.622C181.536 164.049 180.516 164.263 179.343 164.263ZM179.543 162.242C180.143 162.242 180.669 162.116 181.123 161.862C181.589 161.596 181.949 161.236 182.203 160.782C182.469 160.329 182.603 159.822 182.603 159.262C182.603 158.702 182.469 158.216 182.203 157.802C181.949 157.376 181.589 157.036 181.123 156.782C180.669 156.529 180.129 156.402 179.503 156.402C178.903 156.402 178.363 156.522 177.883 156.762C177.416 157.002 177.049 157.336 176.783 157.762C176.529 158.176 176.403 158.656 176.403 159.202C176.403 159.762 176.536 160.276 176.803 160.742C177.069 161.209 177.436 161.576 177.903 161.842C178.383 162.109 178.929 162.242 179.543 162.242ZM192.562 164.203C191.376 164.203 190.336 163.969 189.442 163.502C188.562 163.022 187.876 162.369 187.382 161.542C186.902 160.716 186.662 159.776 186.662 158.722C186.662 157.656 186.896 156.716 187.362 155.902C187.842 155.076 188.496 154.429 189.322 153.963C190.162 153.496 191.116 153.262 192.182 153.262C193.222 153.262 194.149 153.489 194.962 153.942C195.776 154.396 196.416 155.036 196.882 155.862C197.349 156.689 197.582 157.662 197.582 158.783C197.582 158.889 197.576 159.009 197.562 159.142C197.562 159.276 197.556 159.402 197.542 159.522H188.642V157.862H196.222L195.242 158.382C195.256 157.769 195.129 157.229 194.862 156.762C194.596 156.296 194.229 155.929 193.762 155.662C193.309 155.396 192.782 155.262 192.182 155.262C191.569 155.262 191.029 155.396 190.562 155.662C190.109 155.929 189.749 156.302 189.482 156.782C189.229 157.249 189.102 157.802 189.102 158.442V158.842C189.102 159.482 189.249 160.049 189.542 160.542C189.836 161.036 190.249 161.416 190.782 161.682C191.316 161.949 191.929 162.082 192.622 162.082C193.222 162.082 193.762 161.989 194.242 161.802C194.722 161.616 195.149 161.322 195.522 160.922L196.862 162.462C196.382 163.022 195.776 163.456 195.042 163.762C194.322 164.056 193.496 164.203 192.562 164.203ZM206.237 164.203C205.37 164.203 204.577 164.002 203.857 163.602C203.15 163.202 202.583 162.602 202.157 161.802C201.743 160.989 201.537 159.962 201.537 158.722C201.537 157.469 201.737 156.442 202.137 155.642C202.55 154.842 203.11 154.249 203.817 153.862C204.523 153.462 205.33 153.262 206.237 153.262C207.29 153.262 208.217 153.489 209.017 153.942C209.83 154.396 210.47 155.029 210.937 155.842C211.417 156.656 211.657 157.616 211.657 158.722C211.657 159.829 211.417 160.796 210.937 161.622C210.47 162.436 209.83 163.069 209.017 163.522C208.217 163.976 207.29 164.203 206.237 164.203ZM200.317 167.943V153.382H202.697V155.902L202.617 158.742L202.817 161.582V167.943H200.317ZM205.957 162.062C206.557 162.062 207.09 161.929 207.557 161.662C208.037 161.396 208.417 161.009 208.697 160.502C208.977 159.996 209.117 159.402 209.117 158.722C209.117 158.029 208.977 157.436 208.697 156.942C208.417 156.436 208.037 156.049 207.557 155.782C207.09 155.516 206.557 155.382 205.957 155.382C205.357 155.382 204.817 155.516 204.337 155.782C203.857 156.049 203.477 156.436 203.197 156.942C202.917 157.436 202.777 158.029 202.777 158.722C202.777 159.402 202.917 159.996 203.197 160.502C203.477 161.009 203.857 161.396 204.337 161.662C204.817 161.929 205.357 162.062 205.957 162.062ZM214.145 164.062V153.382H216.645V160.422L222.545 153.382H224.825V164.062H222.325V157.022L216.445 164.062H214.145ZM230.408 164.062V154.902L230.988 155.502H226.648V153.382H236.648V155.502H232.328L232.908 154.902V164.062H230.408ZM242.973 164.203C241.786 164.203 240.746 163.969 239.853 163.502C238.973 163.022 238.286 162.369 237.793 161.542C237.313 160.716 237.073 159.776 237.073 158.722C237.073 157.656 237.306 156.716 237.773 155.902C238.253 155.076 238.906 154.429 239.733 153.963C240.573 153.496 241.526 153.262 242.593 153.262C243.633 153.262 244.559 153.489 245.373 153.942C246.186 154.396 246.826 155.036 247.293 155.862C247.759 156.689 247.993 157.662 247.993 158.783C247.993 158.889 247.986 159.009 247.973 159.142C247.973 159.276 247.966 159.402 247.953 159.522H239.053V157.862H246.633L245.653 158.382C245.666 157.769 245.539 157.229 245.273 156.762C245.006 156.296 244.639 155.929 244.173 155.662C243.719 155.396 243.193 155.262 242.593 155.262C241.979 155.262 241.439 155.396 240.973 155.662C240.519 155.929 240.159 156.302 239.893 156.782C239.639 157.249 239.513 157.802 239.513 158.442V158.842C239.513 159.482 239.659 160.049 239.953 160.542C240.246 161.036 240.659 161.416 241.193 161.682C241.726 161.949 242.339 162.082 243.033 162.082C243.633 162.082 244.173 161.989 244.653 161.802C245.133 161.616 245.559 161.322 245.933 160.922L247.273 162.462C246.793 163.022 246.186 163.456 245.453 163.762C244.733 164.056 243.906 164.203 242.973 164.203ZM256.254 164.062V153.382H266.494V164.062H264.014V154.922L264.594 155.502H258.174L258.754 154.922V164.062H256.254ZM269.868 164.062V153.382H272.368V160.422L278.268 153.382H280.548V164.062H278.048V157.022L272.168 164.062H269.868ZM286.13 164.062V154.902L286.71 155.502H282.37V153.382H292.37V155.502H288.05L288.63 154.902V164.062H286.13ZM298.475 164.203C297.382 164.203 296.408 163.969 295.555 163.502C294.702 163.022 294.028 162.369 293.535 161.542C293.042 160.716 292.795 159.776 292.795 158.722C292.795 157.656 293.042 156.716 293.535 155.902C294.028 155.076 294.702 154.429 295.555 153.963C296.408 153.496 297.382 153.262 298.475 153.262C299.582 153.262 300.562 153.496 301.415 153.963C302.282 154.429 302.955 155.069 303.435 155.882C303.928 156.696 304.175 157.642 304.175 158.722C304.175 159.776 303.928 160.716 303.435 161.542C302.955 162.369 302.282 163.022 301.415 163.502C300.562 163.969 299.582 164.203 298.475 164.203ZM298.475 162.062C299.088 162.062 299.635 161.929 300.115 161.662C300.595 161.396 300.968 161.009 301.235 160.502C301.515 159.996 301.655 159.402 301.655 158.722C301.655 158.029 301.515 157.436 301.235 156.942C300.968 156.436 300.595 156.049 300.115 155.782C299.635 155.516 299.095 155.382 298.495 155.382C297.882 155.382 297.335 155.516 296.855 155.782C296.388 156.049 296.015 156.436 295.735 156.942C295.455 157.436 295.315 158.029 295.315 158.722C295.315 159.402 295.455 159.996 295.735 160.502C296.015 161.009 296.388 161.396 296.855 161.662C297.335 161.929 297.875 162.062 298.475 162.062ZM306.645 164.062V153.382H309.265L313.565 160.962H312.525L317.045 153.382H319.385L319.405 164.062H317.145V156.062L317.545 156.322L313.545 162.942H312.465L308.445 156.142L308.925 156.022V164.062H306.645ZM322.758 164.062V153.382H325.258V161.942H330.358V153.382H332.858V164.062H322.758ZM332.138 166.443V164.002L332.718 164.062H330.358V161.942H334.478V166.443H332.138ZM343.183 164.062V161.902L343.043 161.442V157.662C343.043 156.929 342.823 156.362 342.383 155.962C341.943 155.549 341.277 155.342 340.383 155.342C339.783 155.342 339.19 155.436 338.603 155.622C338.03 155.809 337.543 156.069 337.143 156.402L336.163 154.582C336.737 154.142 337.417 153.816 338.203 153.602C339.003 153.376 339.83 153.262 340.683 153.262C342.23 153.262 343.423 153.636 344.263 154.382C345.117 155.116 345.543 156.256 345.543 157.802V164.062H343.183ZM339.823 164.203C339.023 164.203 338.323 164.069 337.723 163.802C337.123 163.522 336.657 163.142 336.323 162.662C336.003 162.169 335.843 161.616 335.843 161.002C335.843 160.402 335.983 159.862 336.263 159.382C336.557 158.902 337.03 158.522 337.683 158.242C338.337 157.962 339.203 157.822 340.283 157.822H343.383V159.482H340.463C339.61 159.482 339.037 159.622 338.743 159.902C338.45 160.169 338.303 160.502 338.303 160.902C338.303 161.356 338.483 161.716 338.843 161.982C339.203 162.249 339.703 162.382 340.343 162.382C340.957 162.382 341.503 162.242 341.983 161.962C342.477 161.682 342.83 161.269 343.043 160.722L343.463 162.222C343.223 162.849 342.79 163.336 342.163 163.682C341.55 164.029 340.77 164.203 339.823 164.203Z" fill="#151414"/>
<path d="M143.16 310.862C143.893 311.116 144.54 311.182 145.1 311.062C145.66 310.942 146.16 310.536 146.6 309.842L147.28 308.782L147.54 308.502L152.42 299.062H154.98L148.9 310.362C148.407 311.309 147.82 312.029 147.14 312.522C146.46 313.016 145.727 313.289 144.94 313.343C144.167 313.409 143.36 313.263 142.52 312.902L143.16 310.862ZM147.48 310.742L141.24 299.062H144.02L148.9 308.742L147.48 310.742ZM160.567 313.203C159.447 313.203 158.447 312.969 157.567 312.502C156.701 312.022 156.021 311.369 155.527 310.542C155.034 309.716 154.787 308.776 154.787 307.722C154.787 306.656 155.034 305.716 155.527 304.902C156.021 304.076 156.701 303.429 157.567 302.963C158.447 302.496 159.447 302.262 160.567 302.262C161.607 302.262 162.521 302.476 163.307 302.902C164.107 303.316 164.714 303.929 165.127 304.742L163.207 305.862C162.887 305.356 162.494 304.982 162.027 304.742C161.574 304.502 161.081 304.382 160.547 304.382C159.934 304.382 159.381 304.516 158.887 304.782C158.394 305.049 158.007 305.436 157.727 305.942C157.447 306.436 157.307 307.029 157.307 307.722C157.307 308.416 157.447 309.016 157.727 309.522C158.007 310.016 158.394 310.396 158.887 310.662C159.381 310.929 159.934 311.062 160.547 311.062C161.081 311.062 161.574 310.942 162.027 310.702C162.494 310.462 162.887 310.089 163.207 309.582L165.127 310.702C164.714 311.502 164.107 312.122 163.307 312.562C162.521 312.989 161.607 313.203 160.567 313.203ZM165.515 313.042L165.635 310.942C165.728 310.956 165.815 310.969 165.895 310.982C165.975 310.996 166.048 311.002 166.115 311.002C166.528 311.002 166.848 310.876 167.075 310.622C167.301 310.369 167.468 310.029 167.575 309.602C167.695 309.162 167.775 308.676 167.815 308.142C167.868 307.596 167.908 307.049 167.935 306.502L168.115 302.382H176.755V313.062H174.255V303.822L174.835 304.502H169.755L170.295 303.802L170.155 306.622C170.115 307.569 170.035 308.449 169.915 309.262C169.808 310.062 169.635 310.762 169.395 311.362C169.168 311.962 168.848 312.429 168.435 312.762C168.035 313.096 167.521 313.263 166.895 313.263C166.695 313.263 166.475 313.243 166.235 313.203C166.008 313.163 165.768 313.109 165.515 313.042ZM181.081 317.083C180.561 317.083 180.041 316.996 179.521 316.823C179.001 316.649 178.568 316.409 178.221 316.103L179.221 314.263C179.475 314.489 179.761 314.669 180.081 314.803C180.401 314.936 180.728 315.003 181.061 315.003C181.515 315.003 181.881 314.889 182.161 314.663C182.441 314.436 182.701 314.056 182.941 313.523L183.561 312.122L183.761 311.822L187.801 302.382H190.201L185.201 313.923C184.868 314.723 184.495 315.356 184.081 315.823C183.681 316.289 183.228 316.616 182.721 316.803C182.228 316.989 181.681 317.083 181.081 317.083ZM183.281 313.443L178.461 302.382H181.061L184.981 311.602L183.281 313.443ZM191.938 313.062V302.382H200.138V304.502H193.858L194.438 303.942V313.062H191.938ZM208.437 313.062V310.902L208.297 310.442V306.662C208.297 305.929 208.077 305.362 207.637 304.962C207.197 304.549 206.531 304.342 205.637 304.342C205.037 304.342 204.444 304.436 203.857 304.622C203.284 304.809 202.797 305.069 202.397 305.402L201.417 303.582C201.991 303.142 202.671 302.816 203.457 302.602C204.257 302.376 205.084 302.262 205.937 302.262C207.484 302.262 208.677 302.636 209.517 303.382C210.371 304.116 210.797 305.256 210.797 306.802V313.062H208.437ZM205.077 313.203C204.277 313.203 203.577 313.069 202.977 312.802C202.377 312.522 201.911 312.142 201.577 311.662C201.257 311.169 201.097 310.616 201.097 310.002C201.097 309.402 201.237 308.862 201.517 308.382C201.811 307.902 202.284 307.522 202.937 307.242C203.591 306.962 204.457 306.822 205.537 306.822H208.637V308.482H205.717C204.864 308.482 204.291 308.622 203.997 308.902C203.704 309.169 203.557 309.502 203.557 309.902C203.557 310.356 203.737 310.716 204.097 310.982C204.457 311.249 204.957 311.382 205.597 311.382C206.211 311.382 206.757 311.242 207.237 310.962C207.731 310.682 208.084 310.269 208.297 309.722L208.717 311.222C208.477 311.849 208.044 312.336 207.417 312.682C206.804 313.029 206.024 313.203 205.077 313.203Z" fill="#151414"/>
<path d="M152.26 511.862V501.262H146.78L146.68 503.742C146.64 504.676 146.58 505.562 146.5 506.402C146.433 507.229 146.32 507.982 146.16 508.662C146.013 509.342 145.807 509.909 145.54 510.362C145.273 510.816 144.947 511.116 144.56 511.262L141.76 510.862C142.267 510.889 142.68 510.716 143 510.342C143.333 509.969 143.593 509.449 143.78 508.782C143.967 508.116 144.107 507.336 144.2 506.442C144.293 505.536 144.36 504.556 144.4 503.502L144.56 499.062H154.82V511.862H152.26ZM141.28 516.043L141.3 510.862H156.84V516.043H154.44V513.062H143.7V516.043H141.28ZM165.488 513.062V510.902L165.348 510.442V506.662C165.348 505.929 165.128 505.362 164.688 504.962C164.248 504.549 163.581 504.342 162.688 504.342C162.088 504.342 161.495 504.436 160.908 504.622C160.335 504.809 159.848 505.069 159.448 505.402L158.468 503.582C159.041 503.142 159.721 502.816 160.508 502.602C161.308 502.376 162.135 502.262 162.988 502.262C164.535 502.262 165.728 502.636 166.568 503.382C167.421 504.116 167.848 505.256 167.848 506.802V513.062H165.488ZM162.128 513.203C161.328 513.203 160.628 513.069 160.028 512.802C159.428 512.522 158.961 512.142 158.628 511.662C158.308 511.169 158.148 510.616 158.148 510.002C158.148 509.402 158.288 508.862 158.568 508.382C158.861 507.902 159.335 507.522 159.988 507.242C160.641 506.962 161.508 506.822 162.588 506.822H165.688V508.482H162.768C161.915 508.482 161.341 508.622 161.048 508.902C160.755 509.169 160.608 509.502 160.608 509.902C160.608 510.356 160.788 510.716 161.148 510.982C161.508 511.249 162.008 511.382 162.648 511.382C163.261 511.382 163.808 511.242 164.288 510.962C164.781 510.682 165.135 510.269 165.348 509.722L165.768 511.222C165.528 511.849 165.095 512.336 164.468 512.682C163.855 513.029 163.075 513.203 162.128 513.203ZM173.162 513.062V503.902L173.742 504.502H169.402V502.382H179.402V504.502H175.082L175.662 503.902V513.062H173.162ZM191.995 513.062V502.382H194.495V513.062H191.995ZM186.415 505.902C187.788 505.902 188.828 506.209 189.535 506.822C190.255 507.436 190.615 508.302 190.615 509.422C190.615 510.582 190.215 511.489 189.415 512.142C188.628 512.782 187.508 513.096 186.055 513.083L181.215 513.062V502.382H183.715V505.882L186.415 505.902ZM185.835 511.242C186.568 511.256 187.128 511.102 187.515 510.782C187.902 510.462 188.095 509.996 188.095 509.382C188.095 508.769 187.902 508.329 187.515 508.062C187.142 507.782 186.582 507.636 185.835 507.622L183.715 507.602V511.222L185.835 511.242ZM208.143 513.203C207.05 513.203 206.076 512.969 205.223 512.502C204.37 512.022 203.696 511.369 203.203 510.542C202.71 509.716 202.463 508.776 202.463 507.722C202.463 506.656 202.71 505.716 203.203 504.902C203.696 504.076 204.37 503.429 205.223 502.963C206.076 502.496 207.05 502.262 208.143 502.262C209.25 502.262 210.23 502.496 211.083 502.963C211.95 503.429 212.623 504.069 213.103 504.882C213.596 505.696 213.843 506.642 213.843 507.722C213.843 508.776 213.596 509.716 213.103 510.542C212.623 511.369 211.95 512.022 211.083 512.502C210.23 512.969 209.25 513.203 208.143 513.203ZM208.143 511.062C208.756 511.062 209.303 510.929 209.783 510.662C210.263 510.396 210.636 510.009 210.903 509.502C211.183 508.996 211.323 508.402 211.323 507.722C211.323 507.029 211.183 506.436 210.903 505.942C210.636 505.436 210.263 505.049 209.783 504.782C209.303 504.516 208.763 504.382 208.163 504.382C207.55 504.382 207.003 504.516 206.523 504.782C206.056 505.049 205.683 505.436 205.403 505.942C205.123 506.436 204.983 507.029 204.983 507.722C204.983 508.402 205.123 508.996 205.403 509.502C205.683 510.009 206.056 510.396 206.523 510.662C207.003 510.929 207.543 511.062 208.143 511.062ZM221.413 513.263C220.533 513.263 219.746 513.129 219.053 512.862C218.359 512.596 217.759 512.189 217.253 511.642C216.759 511.082 216.379 510.376 216.113 509.522C215.846 508.669 215.713 507.656 215.713 506.482C215.713 505.629 215.786 504.849 215.933 504.142C216.079 503.436 216.299 502.802 216.593 502.242C216.886 501.669 217.253 501.162 217.693 500.722C218.146 500.282 218.673 499.916 219.273 499.622C219.873 499.329 220.553 499.102 221.313 498.942L226.273 497.882L226.633 500.122L222.133 501.042C221.879 501.096 221.573 501.176 221.213 501.282C220.866 501.376 220.506 501.522 220.133 501.722C219.773 501.909 219.433 502.182 219.113 502.542C218.806 502.889 218.553 503.342 218.353 503.902C218.166 504.449 218.073 505.136 218.073 505.962C218.073 506.216 218.079 506.409 218.093 506.542C218.119 506.662 218.139 506.796 218.153 506.942C218.179 507.076 218.193 507.276 218.193 507.542L217.253 506.562C217.519 505.882 217.886 505.302 218.353 504.822C218.833 504.329 219.386 503.956 220.013 503.702C220.653 503.436 221.346 503.302 222.093 503.302C223.093 503.302 223.979 503.509 224.753 503.922C225.526 504.336 226.133 504.916 226.573 505.662C227.013 506.409 227.233 507.256 227.233 508.202C227.233 509.189 226.993 510.062 226.513 510.822C226.033 511.582 225.353 512.182 224.473 512.622C223.606 513.049 222.586 513.263 221.413 513.263ZM221.613 511.242C222.213 511.242 222.739 511.116 223.193 510.862C223.659 510.596 224.019 510.236 224.273 509.782C224.539 509.329 224.673 508.822 224.673 508.262C224.673 507.702 224.539 507.216 224.273 506.802C224.019 506.376 223.659 506.036 223.193 505.782C222.739 505.529 222.199 505.402 221.573 505.402C220.973 505.402 220.433 505.522 219.953 505.762C219.486 506.002 219.119 506.336 218.853 506.762C218.599 507.176 218.473 507.656 218.473 508.202C218.473 508.762 218.606 509.276 218.873 509.742C219.139 510.209 219.506 510.576 219.973 510.842C220.453 511.109 220.999 511.242 221.613 511.242ZM235.573 513.203C234.706 513.203 233.913 513.002 233.193 512.602C232.486 512.202 231.919 511.602 231.493 510.802C231.079 509.989 230.873 508.962 230.873 507.722C230.873 506.469 231.073 505.442 231.473 504.642C231.886 503.842 232.446 503.249 233.153 502.862C233.859 502.462 234.666 502.262 235.573 502.262C236.626 502.262 237.553 502.489 238.353 502.942C239.166 503.396 239.806 504.029 240.273 504.842C240.753 505.656 240.993 506.616 240.993 507.722C240.993 508.829 240.753 509.796 240.273 510.622C239.806 511.436 239.166 512.069 238.353 512.522C237.553 512.976 236.626 513.203 235.573 513.203ZM229.653 516.943V502.382H232.033V504.902L231.953 507.742L232.153 510.582V516.943H229.653ZM235.293 511.062C235.893 511.062 236.426 510.929 236.893 510.662C237.373 510.396 237.753 510.009 238.033 509.502C238.313 508.996 238.453 508.402 238.453 507.722C238.453 507.029 238.313 506.436 238.033 505.942C237.753 505.436 237.373 505.049 236.893 504.782C236.426 504.516 235.893 504.382 235.293 504.382C234.693 504.382 234.153 504.516 233.673 504.782C233.193 505.049 232.813 505.436 232.533 505.942C232.253 506.436 232.113 507.029 232.113 507.722C232.113 508.402 232.253 508.996 232.533 509.502C232.813 510.009 233.193 510.396 233.673 510.662C234.153 510.929 234.693 511.062 235.293 511.062ZM249.824 513.062V510.902L249.684 510.442V506.662C249.684 505.929 249.464 505.362 249.024 504.962C248.584 504.549 247.917 504.342 247.024 504.342C246.424 504.342 245.831 504.436 245.244 504.622C244.671 504.809 244.184 505.069 243.784 505.402L242.804 503.582C243.377 503.142 244.057 502.816 244.844 502.602C245.644 502.376 246.471 502.262 247.324 502.262C248.871 502.262 250.064 502.636 250.904 503.382C251.757 504.116 252.184 505.256 252.184 506.802V513.062H249.824ZM246.464 513.203C245.664 513.203 244.964 513.069 244.364 512.802C243.764 512.522 243.297 512.142 242.964 511.662C242.644 511.169 242.484 510.616 242.484 510.002C242.484 509.402 242.624 508.862 242.904 508.382C243.197 507.902 243.671 507.522 244.324 507.242C244.977 506.962 245.844 506.822 246.924 506.822H250.024V508.482H247.104C246.251 508.482 245.677 508.622 245.384 508.902C245.091 509.169 244.944 509.502 244.944 509.902C244.944 510.356 245.124 510.716 245.484 510.982C245.844 511.249 246.344 511.382 246.984 511.382C247.597 511.382 248.144 511.242 248.624 510.962C249.117 510.682 249.471 510.269 249.684 509.722L250.104 511.222C249.864 511.849 249.431 512.336 248.804 512.682C248.191 513.029 247.411 513.203 246.464 513.203ZM262.458 510.942L261.918 511.542V502.382H264.418V511.542L263.818 510.942H269.098L268.518 511.542V502.382H271.018V513.062H255.278V502.382H257.778V511.542L257.198 510.942H262.458ZM270.218 515.263V512.442L270.798 513.062H268.438V510.942H272.558V515.263H270.218ZM279.359 513.203C278.173 513.203 277.133 512.969 276.239 512.502C275.359 512.022 274.673 511.369 274.179 510.542C273.699 509.716 273.459 508.776 273.459 507.722C273.459 506.656 273.693 505.716 274.159 504.902C274.639 504.076 275.293 503.429 276.119 502.963C276.959 502.496 277.913 502.262 278.979 502.262C280.019 502.262 280.946 502.489 281.759 502.942C282.573 503.396 283.213 504.036 283.679 504.862C284.146 505.689 284.379 506.662 284.379 507.783C284.379 507.889 284.373 508.009 284.359 508.142C284.359 508.276 284.353 508.402 284.339 508.522H275.439V506.862H283.019L282.039 507.382C282.053 506.769 281.926 506.229 281.659 505.762C281.393 505.296 281.026 504.929 280.559 504.662C280.106 504.396 279.579 504.262 278.979 504.262C278.366 504.262 277.826 504.396 277.359 504.662C276.906 504.929 276.546 505.302 276.279 505.782C276.026 506.249 275.899 506.802 275.899 507.442V507.842C275.899 508.482 276.046 509.049 276.339 509.542C276.633 510.036 277.046 510.416 277.579 510.682C278.113 510.949 278.726 511.082 279.419 511.082C280.019 511.082 280.559 510.989 281.039 510.802C281.519 510.616 281.946 510.322 282.319 509.922L283.659 511.462C283.179 512.022 282.573 512.456 281.839 512.762C281.119 513.056 280.293 513.203 279.359 513.203ZM287.114 513.062V502.382H289.614V506.722H294.994V502.382H297.494V513.062H294.994V508.842H289.614V513.062H287.114ZM300.844 513.062V502.382H303.344V509.422L309.244 502.382H311.524V513.062H309.024V506.022L303.144 513.062H300.844ZM321.667 513.062V509.422L322.027 509.842H318.827C317.36 509.842 316.207 509.536 315.367 508.922C314.54 508.296 314.127 507.396 314.127 506.222C314.127 504.969 314.567 504.016 315.447 503.362C316.34 502.709 317.527 502.382 319.007 502.382H323.907V513.062H321.667ZM313.987 513.062L316.867 508.982H319.427L316.667 513.062H313.987ZM321.667 508.622V503.822L322.027 504.482H319.087C318.314 504.482 317.714 504.629 317.287 504.922C316.874 505.202 316.667 505.662 316.667 506.302C316.667 507.502 317.447 508.102 319.007 508.102H322.027L321.667 508.622Z" fill="#151414"/>
<rect x="141" y="183.062" width="380" height="62" rx="20" fill="#EEEEEE"/>
<path d="M167.776 208.862H169.376V220.062H167.776V208.862ZM161.344 220.062H159.744V208.862H161.344V220.062ZM167.92 215.07H161.184V213.678H167.92V215.07ZM176.389 220.159C175.482 220.159 174.682 219.972 173.989 219.598C173.306 219.225 172.773 218.713 172.389 218.062C172.016 217.412 171.829 216.665 171.829 215.822C171.829 214.98 172.01 214.233 172.373 213.582C172.746 212.932 173.253 212.425 173.893 212.062C174.544 211.689 175.274 211.502 176.085 211.502C176.906 211.502 177.632 211.684 178.261 212.046C178.89 212.409 179.381 212.921 179.733 213.582C180.096 214.233 180.277 214.996 180.277 215.87C180.277 215.934 180.272 216.009 180.261 216.094C180.261 216.18 180.256 216.26 180.245 216.334H173.029V215.23H179.445L178.821 215.614C178.832 215.07 178.72 214.585 178.485 214.158C178.25 213.732 177.925 213.401 177.509 213.166C177.104 212.921 176.629 212.798 176.085 212.798C175.552 212.798 175.077 212.921 174.661 213.166C174.245 213.401 173.92 213.737 173.685 214.174C173.45 214.601 173.333 215.092 173.333 215.646V215.902C173.333 216.468 173.461 216.974 173.717 217.422C173.984 217.86 174.352 218.201 174.821 218.446C175.29 218.692 175.829 218.814 176.437 218.814C176.938 218.814 177.392 218.729 177.797 218.558C178.213 218.388 178.576 218.132 178.885 217.79L179.733 218.782C179.349 219.23 178.869 219.572 178.293 219.806C177.728 220.041 177.093 220.159 176.389 220.159ZM186.957 220.062V211.582H190.893C191.885 211.582 192.663 211.774 193.229 212.158C193.805 212.532 194.093 213.065 194.093 213.758C194.093 214.452 193.821 214.99 193.277 215.374C192.743 215.748 192.034 215.934 191.149 215.934L191.389 215.518C192.402 215.518 193.154 215.705 193.645 216.078C194.135 216.452 194.381 217.001 194.381 217.726C194.381 218.462 194.103 219.038 193.549 219.454C193.005 219.86 192.167 220.062 191.037 220.062H186.957ZM188.461 218.878H190.925C191.565 218.878 192.045 218.782 192.365 218.59C192.685 218.388 192.845 218.068 192.845 217.63C192.845 217.182 192.695 216.857 192.397 216.654C192.109 216.441 191.65 216.334 191.021 216.334H188.461V218.878ZM188.461 215.23H190.765C191.351 215.23 191.794 215.124 192.093 214.91C192.402 214.686 192.557 214.377 192.557 213.982C192.557 213.577 192.402 213.273 192.093 213.07C191.794 212.868 191.351 212.766 190.765 212.766H188.461V215.23ZM205.169 220.062V211.582H206.705V220.062H205.169ZM200.609 214.462C201.686 214.473 202.502 214.718 203.057 215.198C203.622 215.678 203.905 216.356 203.905 217.23C203.905 218.148 203.596 218.857 202.977 219.358C202.369 219.849 201.494 220.089 200.353 220.079L196.785 220.062V211.582H198.321V214.446L200.609 214.462ZM200.241 218.91C200.924 218.921 201.446 218.782 201.809 218.494C202.172 218.206 202.353 217.78 202.353 217.214C202.353 216.66 202.172 216.254 201.809 215.998C201.457 215.742 200.934 215.609 200.241 215.598L198.321 215.566V218.894L200.241 218.91ZM213.611 220.191C212.907 220.191 212.283 220.079 211.739 219.854C211.206 219.63 210.747 219.3 210.363 218.862C209.979 218.414 209.686 217.854 209.483 217.182C209.291 216.5 209.195 215.7 209.195 214.782C209.195 214.057 209.259 213.406 209.387 212.83C209.515 212.254 209.696 211.742 209.931 211.294C210.176 210.846 210.475 210.457 210.827 210.126C211.19 209.796 211.595 209.524 212.043 209.31C212.502 209.086 213.003 208.916 213.547 208.798L217.419 207.934L217.643 209.358L214.075 210.126C213.862 210.169 213.606 210.233 213.307 210.318C213.008 210.404 212.704 210.537 212.395 210.718C212.086 210.889 211.798 211.129 211.531 211.438C211.264 211.748 211.051 212.153 210.891 212.654C210.731 213.145 210.651 213.753 210.651 214.478C210.651 214.681 210.656 214.836 210.667 214.942C210.678 215.049 210.688 215.156 210.699 215.262C210.72 215.369 210.736 215.529 210.747 215.742L210.107 215.086C210.278 214.5 210.55 213.988 210.923 213.55C211.296 213.113 211.744 212.777 212.267 212.542C212.8 212.297 213.382 212.174 214.011 212.174C214.8 212.174 215.499 212.345 216.107 212.686C216.726 213.028 217.211 213.497 217.563 214.094C217.915 214.692 218.091 215.374 218.091 216.142C218.091 216.921 217.904 217.62 217.531 218.238C217.168 218.846 216.651 219.326 215.979 219.678C215.307 220.02 214.518 220.191 213.611 220.191ZM213.755 218.91C214.299 218.91 214.779 218.793 215.195 218.558C215.611 218.313 215.936 217.988 216.171 217.582C216.406 217.166 216.523 216.702 216.523 216.19C216.523 215.678 216.406 215.225 216.171 214.83C215.936 214.436 215.611 214.126 215.195 213.902C214.779 213.668 214.288 213.55 213.723 213.55C213.19 213.55 212.71 213.662 212.283 213.886C211.856 214.1 211.526 214.404 211.291 214.798C211.056 215.182 210.939 215.63 210.939 216.142C210.939 216.654 211.056 217.124 211.291 217.55C211.536 217.966 211.867 218.297 212.283 218.542C212.71 218.788 213.2 218.91 213.755 218.91ZM224.781 220.159C224.077 220.159 223.432 219.998 222.845 219.678C222.269 219.348 221.805 218.862 221.453 218.222C221.112 217.582 220.941 216.782 220.941 215.822C220.941 214.862 221.106 214.062 221.437 213.422C221.778 212.782 222.237 212.302 222.813 211.983C223.4 211.662 224.056 211.502 224.781 211.502C225.613 211.502 226.349 211.684 226.989 212.046C227.629 212.409 228.136 212.916 228.509 213.566C228.882 214.206 229.069 214.958 229.069 215.822C229.069 216.686 228.882 217.444 228.509 218.094C228.136 218.745 227.629 219.252 226.989 219.614C226.349 219.977 225.613 220.159 224.781 220.159ZM220.285 223.167V211.582H221.757V213.87L221.661 215.839L221.821 217.806V223.167H220.285ZM224.653 218.814C225.197 218.814 225.682 218.692 226.109 218.446C226.546 218.201 226.888 217.854 227.133 217.406C227.389 216.948 227.517 216.42 227.517 215.822C227.517 215.214 227.389 214.692 227.133 214.254C226.888 213.806 226.546 213.46 226.109 213.214C225.682 212.969 225.197 212.846 224.653 212.846C224.12 212.846 223.634 212.969 223.197 213.214C222.77 213.46 222.429 213.806 222.173 214.254C221.928 214.692 221.805 215.214 221.805 215.822C221.805 216.42 221.928 216.948 222.173 217.406C222.429 217.854 222.77 218.201 223.197 218.446C223.634 218.692 224.12 218.814 224.653 218.814ZM236.422 220.062V218.27L236.342 217.934V214.878C236.342 214.228 236.15 213.726 235.766 213.374C235.393 213.012 234.828 212.83 234.07 212.83C233.569 212.83 233.078 212.916 232.598 213.086C232.118 213.246 231.713 213.465 231.382 213.742L230.742 212.59C231.18 212.238 231.702 211.972 232.31 211.79C232.929 211.598 233.574 211.502 234.246 211.502C235.409 211.502 236.305 211.785 236.934 212.35C237.564 212.916 237.878 213.78 237.878 214.942V220.062H236.422ZM233.638 220.159C233.009 220.159 232.454 220.052 231.974 219.838C231.505 219.625 231.142 219.332 230.886 218.958C230.63 218.574 230.502 218.142 230.502 217.662C230.502 217.204 230.609 216.788 230.822 216.414C231.046 216.041 231.404 215.742 231.894 215.518C232.396 215.294 233.068 215.182 233.91 215.182H236.598V216.286H233.974C233.206 216.286 232.689 216.414 232.422 216.67C232.156 216.926 232.022 217.236 232.022 217.598C232.022 218.014 232.188 218.35 232.518 218.606C232.849 218.852 233.308 218.974 233.894 218.974C234.47 218.974 234.972 218.846 235.398 218.59C235.836 218.334 236.15 217.961 236.342 217.47L236.646 218.526C236.444 219.028 236.086 219.428 235.574 219.726C235.062 220.014 234.417 220.159 233.638 220.159ZM240.644 220.062V211.582H242.18V215.182H247.012V211.582H248.548V220.062H247.012V216.51H242.18V220.062H240.644ZM255.167 220.159C254.314 220.159 253.556 219.972 252.895 219.598C252.234 219.225 251.711 218.713 251.327 218.062C250.943 217.401 250.751 216.654 250.751 215.822C250.751 214.98 250.943 214.233 251.327 213.582C251.711 212.932 252.234 212.425 252.895 212.062C253.556 211.689 254.314 211.502 255.167 211.502C256.01 211.502 256.762 211.689 257.423 212.062C258.095 212.425 258.618 212.932 258.991 213.582C259.375 214.222 259.567 214.969 259.567 215.822C259.567 216.665 259.375 217.412 258.991 218.062C258.618 218.713 258.095 219.225 257.423 219.598C256.762 219.972 256.01 220.159 255.167 220.159ZM255.167 218.814C255.711 218.814 256.196 218.692 256.623 218.446C257.06 218.201 257.402 217.854 257.647 217.406C257.892 216.948 258.015 216.42 258.015 215.822C258.015 215.214 257.892 214.692 257.647 214.254C257.402 213.806 257.06 213.46 256.623 213.214C256.196 212.969 255.711 212.846 255.167 212.846C254.623 212.846 254.138 212.969 253.711 213.214C253.284 213.46 252.943 213.806 252.687 214.254C252.431 214.692 252.303 215.214 252.303 215.822C252.303 216.42 252.431 216.948 252.687 217.406C252.943 217.854 253.284 218.201 253.711 218.446C254.138 218.692 254.623 218.814 255.167 218.814Z" fill="#151414" fill-opacity="0.44"/>
<path d="M504 212.062L499.603 215.831C498.105 217.115 495.895 217.115 494.397 215.831L490 212.062" stroke="black" stroke-width="2" stroke-linecap="round"/>
<path d="M181.18 351.062V337.062H187.2C188.72 337.062 189.913 337.369 190.78 337.982C191.647 338.596 192.08 339.489 192.08 340.662C192.08 341.809 191.667 342.689 190.84 343.302C190.013 343.902 188.927 344.202 187.58 344.202L187.94 343.602C189.5 343.602 190.693 343.916 191.52 344.542C192.36 345.156 192.78 346.056 192.78 347.242C192.78 348.442 192.34 349.382 191.46 350.062C190.593 350.729 189.3 351.062 187.58 351.062H181.18ZM183.16 349.482H187.54C188.607 349.482 189.407 349.289 189.94 348.902C190.487 348.502 190.76 347.896 190.76 347.082C190.76 346.269 190.487 345.676 189.94 345.302C189.407 344.929 188.607 344.742 187.54 344.742H183.16V349.482ZM183.16 343.222H187.06C188.033 343.222 188.773 343.029 189.28 342.642C189.8 342.256 190.06 341.689 190.06 340.942C190.06 340.182 189.8 339.609 189.28 339.222C188.773 338.836 188.033 338.642 187.06 338.642H183.16V343.222ZM206.281 351.062V340.462H208.201V351.062H206.281ZM200.581 344.062C201.928 344.076 202.948 344.382 203.641 344.982C204.348 345.582 204.701 346.429 204.701 347.522C204.701 348.669 204.315 349.556 203.541 350.182C202.781 350.796 201.688 351.096 200.261 351.083L195.801 351.062V340.462H197.721V344.042L200.581 344.062ZM200.121 349.622C200.975 349.636 201.628 349.462 202.081 349.102C202.535 348.742 202.761 348.209 202.761 347.502C202.761 346.809 202.535 346.302 202.081 345.982C201.641 345.662 200.988 345.496 200.121 345.482L197.721 345.442V349.602L200.121 349.622ZM211.934 351.062V340.462H219.734V342.142H213.394L213.854 341.702V351.062H211.934ZM222.24 355.063C221.733 355.063 221.24 354.976 220.76 354.803C220.28 354.643 219.867 354.403 219.52 354.083L220.34 352.643C220.607 352.896 220.9 353.089 221.22 353.223C221.54 353.356 221.88 353.423 222.24 353.423C222.707 353.423 223.093 353.303 223.4 353.063C223.707 352.823 223.993 352.396 224.26 351.783L224.92 350.322L225.12 350.082L229.28 340.462H231.16L226.02 352.123C225.713 352.869 225.367 353.456 224.98 353.883C224.607 354.309 224.193 354.609 223.74 354.783C223.287 354.969 222.787 355.063 222.24 355.063ZM224.76 351.403L219.92 340.462H221.92L226.04 349.902L224.76 351.403ZM230.819 351.042L230.939 349.422C231.032 349.436 231.119 349.449 231.199 349.462C231.279 349.476 231.352 349.482 231.419 349.482C231.845 349.482 232.179 349.336 232.419 349.042C232.672 348.749 232.859 348.362 232.979 347.882C233.099 347.389 233.185 346.836 233.239 346.222C233.292 345.609 233.332 344.996 233.359 344.382L233.539 340.462H241.679V351.062H239.759V341.582L240.219 342.142H234.779L235.219 341.562L235.079 344.502C235.039 345.436 234.965 346.309 234.859 347.122C234.752 347.936 234.585 348.649 234.359 349.262C234.145 349.876 233.845 350.356 233.459 350.702C233.085 351.049 232.599 351.223 231.999 351.223C231.825 351.223 231.639 351.203 231.439 351.163C231.252 351.136 231.045 351.096 230.819 351.042ZM250.762 351.062V340.462H260.582V351.062H258.662V341.662L259.122 342.142H252.222L252.682 341.662V351.062H250.762ZM264.298 351.062V340.462H266.218V348.182L272.717 340.462H274.458V351.062H272.537V343.342L266.058 351.062H264.298ZM280.284 351.062V341.642L280.764 342.142H276.404V340.462H286.084V342.142H281.744L282.204 341.642V351.062H280.284ZM292.119 351.183C291.052 351.183 290.105 350.949 289.279 350.482C288.452 350.016 287.799 349.376 287.319 348.562C286.839 347.736 286.599 346.802 286.599 345.762C286.599 344.709 286.839 343.776 287.319 342.962C287.799 342.149 288.452 341.516 289.279 341.062C290.105 340.596 291.052 340.362 292.119 340.362C293.172 340.362 294.112 340.596 294.939 341.062C295.779 341.516 296.432 342.149 296.899 342.962C297.379 343.762 297.619 344.696 297.619 345.762C297.619 346.816 297.379 347.749 296.899 348.562C296.432 349.376 295.779 350.016 294.939 350.482C294.112 350.949 293.172 351.183 292.119 351.183ZM292.119 349.502C292.799 349.502 293.405 349.349 293.939 349.042C294.485 348.736 294.912 348.302 295.219 347.742C295.525 347.169 295.679 346.509 295.679 345.762C295.679 345.002 295.525 344.349 295.219 343.802C294.912 343.242 294.485 342.809 293.939 342.502C293.405 342.196 292.799 342.042 292.119 342.042C291.439 342.042 290.832 342.196 290.299 342.502C289.765 342.809 289.339 343.242 289.019 343.802C288.699 344.349 288.539 345.002 288.539 345.762C288.539 346.509 288.699 347.169 289.019 347.742C289.339 348.302 289.765 348.736 290.299 349.042C290.832 349.349 291.439 349.502 292.119 349.502ZM300.391 351.062V340.462H302.371L306.931 348.302H306.131L310.811 340.462H312.611V351.062H310.871V342.622L311.191 342.802L306.911 349.862H306.071L301.771 342.662L302.151 342.582V351.062H300.391ZM316.348 351.062V340.462H318.268V349.382H324.068V340.462H325.988V351.062H316.348ZM325.848 353.523V350.962L326.328 351.062H324.068V349.382H327.668V353.523H325.848ZM336.657 351.062V348.822L336.557 348.402V344.582C336.557 343.769 336.317 343.142 335.837 342.702C335.37 342.249 334.664 342.022 333.717 342.022C333.09 342.022 332.477 342.129 331.877 342.342C331.277 342.542 330.77 342.816 330.357 343.162L329.557 341.722C330.104 341.282 330.757 340.949 331.517 340.722C332.29 340.482 333.097 340.362 333.937 340.362C335.39 340.362 336.51 340.716 337.297 341.422C338.084 342.129 338.477 343.209 338.477 344.662V351.062H336.657ZM333.177 351.183C332.39 351.183 331.697 351.049 331.097 350.782C330.51 350.516 330.057 350.149 329.737 349.682C329.417 349.202 329.257 348.662 329.257 348.062C329.257 347.489 329.39 346.969 329.657 346.502C329.937 346.036 330.384 345.662 330.997 345.382C331.624 345.102 332.464 344.962 333.517 344.962H336.877V346.342H333.597C332.637 346.342 331.99 346.502 331.657 346.822C331.324 347.142 331.157 347.529 331.157 347.982C331.157 348.502 331.364 348.922 331.777 349.242C332.19 349.549 332.764 349.702 333.497 349.702C334.217 349.702 334.844 349.542 335.377 349.222C335.924 348.902 336.317 348.436 336.557 347.822L336.937 349.142C336.684 349.769 336.237 350.269 335.597 350.642C334.957 351.002 334.15 351.183 333.177 351.183Z" fill="#151414"/>
<circle cx="153" cy="344.062" r="12" fill="#5F79FF"/>
<path d="M181.18 389.062V375.062H193.24V389.062H191.28V376.282L191.76 376.802H182.66L183.16 376.282V389.062H181.18ZM202.006 389.183C200.872 389.183 199.872 388.949 199.006 388.482C198.152 388.016 197.486 387.376 197.006 386.562C196.539 385.749 196.306 384.816 196.306 383.762C196.306 382.709 196.532 381.776 196.986 380.962C197.452 380.149 198.086 379.516 198.886 379.062C199.699 378.596 200.612 378.362 201.626 378.362C202.652 378.362 203.559 378.589 204.346 379.042C205.132 379.496 205.746 380.136 206.186 380.962C206.639 381.776 206.866 382.729 206.866 383.822C206.866 383.902 206.859 383.996 206.846 384.102C206.846 384.209 206.839 384.309 206.826 384.402H197.806V383.022H205.826L205.046 383.502C205.059 382.822 204.919 382.216 204.626 381.682C204.332 381.149 203.926 380.736 203.406 380.442C202.899 380.136 202.306 379.982 201.626 379.982C200.959 379.982 200.366 380.136 199.846 380.442C199.326 380.736 198.919 381.156 198.626 381.702C198.332 382.236 198.186 382.849 198.186 383.542V383.862C198.186 384.569 198.346 385.202 198.666 385.762C198.999 386.309 199.459 386.736 200.046 387.042C200.632 387.349 201.306 387.502 202.066 387.502C202.692 387.502 203.259 387.396 203.766 387.182C204.286 386.969 204.739 386.649 205.126 386.222L206.186 387.462C205.706 388.022 205.106 388.449 204.386 388.742C203.679 389.036 202.886 389.183 202.006 389.183ZM215.464 389.183C214.584 389.183 213.778 388.982 213.044 388.582C212.324 388.169 211.744 387.562 211.304 386.762C210.878 385.962 210.664 384.962 210.664 383.762C210.664 382.562 210.871 381.562 211.284 380.762C211.711 379.962 212.284 379.362 213.004 378.963C213.738 378.562 214.558 378.362 215.464 378.362C216.504 378.362 217.424 378.589 218.224 379.042C219.024 379.496 219.658 380.129 220.124 380.942C220.591 381.742 220.824 382.682 220.824 383.762C220.824 384.842 220.591 385.789 220.124 386.602C219.658 387.416 219.024 388.049 218.224 388.502C217.424 388.956 216.504 389.183 215.464 389.183ZM209.844 392.943V378.462H211.684V381.322L211.564 383.783L211.764 386.242V392.943H209.844ZM215.304 387.502C215.984 387.502 216.591 387.349 217.124 387.042C217.671 386.736 218.098 386.302 218.404 385.742C218.724 385.169 218.884 384.509 218.884 383.762C218.884 383.002 218.724 382.349 218.404 381.802C218.098 381.242 217.671 380.809 217.124 380.502C216.591 380.196 215.984 380.042 215.304 380.042C214.638 380.042 214.031 380.196 213.484 380.502C212.951 380.809 212.524 381.242 212.204 381.802C211.898 382.349 211.744 383.002 211.744 383.762C211.744 384.509 211.898 385.169 212.204 385.742C212.524 386.302 212.951 386.736 213.484 387.042C214.031 387.349 214.638 387.502 215.304 387.502ZM228.334 389.183C227.201 389.183 226.201 388.949 225.334 388.482C224.481 388.016 223.814 387.376 223.334 386.562C222.867 385.749 222.634 384.816 222.634 383.762C222.634 382.709 222.861 381.776 223.314 380.962C223.781 380.149 224.414 379.516 225.214 379.062C226.027 378.596 226.941 378.362 227.954 378.362C228.981 378.362 229.887 378.589 230.674 379.042C231.461 379.496 232.074 380.136 232.514 380.962C232.967 381.776 233.194 382.729 233.194 383.822C233.194 383.902 233.187 383.996 233.174 384.102C233.174 384.209 233.167 384.309 233.154 384.402H224.134V383.022H232.154L231.374 383.502C231.387 382.822 231.247 382.216 230.954 381.682C230.661 381.149 230.254 380.736 229.734 380.442C229.227 380.136 228.634 379.982 227.954 379.982C227.287 379.982 226.694 380.136 226.174 380.442C225.654 380.736 225.247 381.156 224.954 381.702C224.661 382.236 224.514 382.849 224.514 383.542V383.862C224.514 384.569 224.674 385.202 224.994 385.762C225.327 386.309 225.787 386.736 226.374 387.042C226.961 387.349 227.634 387.502 228.394 387.502C229.021 387.502 229.587 387.396 230.094 387.182C230.614 386.969 231.067 386.649 231.454 386.222L232.514 387.462C232.034 388.022 231.434 388.449 230.714 388.742C230.007 389.036 229.214 389.183 228.334 389.183ZM243.237 388.162V380.142H238.637L238.537 382.182C238.51 382.849 238.463 383.496 238.397 384.122C238.343 384.736 238.25 385.302 238.117 385.822C237.997 386.342 237.817 386.769 237.577 387.102C237.337 387.436 237.017 387.642 236.617 387.722L234.717 387.382C235.13 387.396 235.463 387.262 235.717 386.982C235.97 386.689 236.163 386.289 236.297 385.782C236.443 385.276 236.55 384.702 236.617 384.062C236.683 383.409 236.737 382.736 236.777 382.042L236.937 378.462H245.157V388.162H243.237ZM234.297 391.523V387.382H246.777V391.523H244.977V389.062H236.117V391.523H234.297ZM253.998 389.183C252.865 389.183 251.865 388.949 250.998 388.482C250.145 388.016 249.478 387.376 248.998 386.562C248.531 385.749 248.298 384.816 248.298 383.762C248.298 382.709 248.525 381.776 248.978 380.962C249.445 380.149 250.078 379.516 250.878 379.062C251.691 378.596 252.605 378.362 253.618 378.362C254.645 378.362 255.551 378.589 256.338 379.042C257.125 379.496 257.738 380.136 258.178 380.962C258.631 381.776 258.858 382.729 258.858 383.822C258.858 383.902 258.851 383.996 258.838 384.102C258.838 384.209 258.831 384.309 258.818 384.402H249.798V383.022H257.818L257.038 383.502C257.051 382.822 256.911 382.216 256.618 381.682C256.325 381.149 255.918 380.736 255.398 380.442C254.891 380.136 254.298 379.982 253.618 379.982C252.951 379.982 252.358 380.136 251.838 380.442C251.318 380.736 250.911 381.156 250.618 381.702C250.325 382.236 250.178 382.849 250.178 383.542V383.862C250.178 384.569 250.338 385.202 250.658 385.762C250.991 386.309 251.451 386.736 252.038 387.042C252.625 387.349 253.298 387.502 254.058 387.502C254.685 387.502 255.251 387.396 255.758 387.182C256.278 386.969 256.731 386.649 257.118 386.222L258.178 387.462C257.698 388.022 257.098 388.449 256.378 388.742C255.671 389.036 254.878 389.183 253.998 389.183ZM267.457 389.183C266.577 389.183 265.77 388.982 265.037 388.582C264.317 388.169 263.737 387.562 263.297 386.762C262.87 385.962 262.657 384.962 262.657 383.762C262.657 382.562 262.863 381.562 263.277 380.762C263.703 379.962 264.277 379.362 264.997 378.963C265.73 378.562 266.55 378.362 267.457 378.362C268.497 378.362 269.417 378.589 270.217 379.042C271.017 379.496 271.65 380.129 272.117 380.942C272.583 381.742 272.817 382.682 272.817 383.762C272.817 384.842 272.583 385.789 272.117 386.602C271.65 387.416 271.017 388.049 270.217 388.502C269.417 388.956 268.497 389.183 267.457 389.183ZM261.837 392.943V378.462H263.677V381.322L263.557 383.783L263.757 386.242V392.943H261.837ZM267.297 387.502C267.977 387.502 268.583 387.349 269.117 387.042C269.663 386.736 270.09 386.302 270.397 385.742C270.717 385.169 270.877 384.509 270.877 383.762C270.877 383.002 270.717 382.349 270.397 381.802C270.09 381.242 269.663 380.809 269.117 380.502C268.583 380.196 267.977 380.042 267.297 380.042C266.63 380.042 266.023 380.196 265.477 380.502C264.943 380.809 264.517 381.242 264.197 381.802C263.89 382.349 263.737 383.002 263.737 383.762C263.737 384.509 263.89 385.169 264.197 385.742C264.517 386.302 264.943 386.736 265.477 387.042C266.023 387.349 266.63 387.502 267.297 387.502ZM287.835 389.062L284.455 383.902L286.035 382.942L290.115 389.062H287.835ZM282.255 384.582V382.942H285.695V384.582H282.255ZM286.215 383.982L284.395 383.742L287.775 378.462H289.835L286.215 383.982ZM275.935 389.062H273.655L277.715 382.942L279.295 383.902L275.935 389.062ZM282.835 389.062H280.915V378.462H282.835V389.062ZM281.495 384.582H278.075V382.942H281.495V384.582ZM277.555 383.982L273.935 378.462H275.975L279.355 383.742L277.555 383.982ZM299.907 389.062L295.807 383.902L297.387 382.942L302.167 389.062H299.907ZM292.227 389.062V378.462H294.147V389.062H292.227ZM293.567 384.582V382.942H297.067V384.582H293.567ZM297.547 383.982L295.767 383.742L299.827 378.462H301.887L297.547 383.982ZM310.485 389.062V386.822L310.385 386.402V382.582C310.385 381.769 310.145 381.142 309.665 380.702C309.198 380.249 308.492 380.022 307.545 380.022C306.918 380.022 306.305 380.129 305.705 380.342C305.105 380.542 304.598 380.816 304.185 381.162L303.385 379.722C303.932 379.282 304.585 378.949 305.345 378.722C306.118 378.482 306.925 378.362 307.765 378.362C309.218 378.362 310.338 378.716 311.125 379.422C311.912 380.129 312.305 381.209 312.305 382.662V389.062H310.485ZM307.005 389.183C306.218 389.183 305.525 389.049 304.925 388.782C304.338 388.516 303.885 388.149 303.565 387.682C303.245 387.202 303.085 386.662 303.085 386.062C303.085 385.489 303.218 384.969 303.485 384.502C303.765 384.036 304.212 383.662 304.825 383.382C305.452 383.102 306.292 382.962 307.345 382.962H310.705V384.342H307.425C306.465 384.342 305.818 384.502 305.485 384.822C305.152 385.142 304.985 385.529 304.985 385.982C304.985 386.502 305.192 386.922 305.605 387.242C306.018 387.549 306.592 387.702 307.325 387.702C308.045 387.702 308.672 387.542 309.205 387.222C309.752 386.902 310.145 386.436 310.385 385.822L310.765 387.142C310.512 387.769 310.065 388.269 309.425 388.642C308.785 389.002 307.978 389.183 307.005 389.183ZM321.673 393.063C321.167 393.063 320.673 392.976 320.193 392.803C319.713 392.643 319.3 392.403 318.953 392.083L319.773 390.643C320.04 390.896 320.333 391.089 320.653 391.223C320.973 391.356 321.313 391.423 321.673 391.423C322.14 391.423 322.527 391.303 322.833 391.063C323.14 390.823 323.427 390.396 323.693 389.783L324.353 388.322L324.553 388.082L328.713 378.462H330.593L325.453 390.123C325.147 390.869 324.8 391.456 324.413 391.883C324.04 392.309 323.627 392.609 323.173 392.783C322.72 392.969 322.22 393.063 321.673 393.063ZM324.193 389.403L319.353 378.462H321.353L325.473 387.902L324.193 389.403ZM342.55 389.183C341.47 389.183 340.504 388.949 339.65 388.482C338.81 388.016 338.15 387.376 337.67 386.562C337.19 385.749 336.95 384.816 336.95 383.762C336.95 382.709 337.19 381.776 337.67 380.962C338.15 380.149 338.81 379.516 339.65 379.062C340.504 378.596 341.47 378.362 342.55 378.362C343.51 378.362 344.364 378.556 345.11 378.942C345.87 379.316 346.457 379.876 346.87 380.622L345.41 381.562C345.064 381.042 344.637 380.662 344.13 380.422C343.637 380.169 343.104 380.042 342.53 380.042C341.837 380.042 341.217 380.196 340.67 380.502C340.124 380.809 339.69 381.242 339.37 381.802C339.05 382.349 338.89 383.002 338.89 383.762C338.89 384.522 339.05 385.182 339.37 385.742C339.69 386.302 340.124 386.736 340.67 387.042C341.217 387.349 341.837 387.502 342.53 387.502C343.104 387.502 343.637 387.382 344.13 387.142C344.637 386.889 345.064 386.502 345.41 385.982L346.87 386.902C346.457 387.636 345.87 388.202 345.11 388.602C344.364 388.989 343.51 389.183 342.55 389.183ZM349.356 389.062V378.462H351.276V386.182L357.776 378.462H359.516V389.062H357.596V381.342L351.116 389.062H349.356ZM365.343 389.062V379.642L365.823 380.142H361.463V378.462H371.143V380.142H366.803L367.263 379.642V389.062H365.343ZM375.401 389.062V379.642L375.881 380.142H371.521V378.462H381.201V380.142H376.861L377.321 379.642V389.062H375.401ZM387.416 389.183C386.283 389.183 385.283 388.949 384.416 388.482C383.563 388.016 382.896 387.376 382.416 386.562C381.949 385.749 381.716 384.816 381.716 383.762C381.716 382.709 381.943 381.776 382.396 380.962C382.863 380.149 383.496 379.516 384.296 379.062C385.109 378.596 386.023 378.362 387.036 378.362C388.063 378.362 388.969 378.589 389.756 379.042C390.543 379.496 391.156 380.136 391.596 380.962C392.049 381.776 392.276 382.729 392.276 383.822C392.276 383.902 392.269 383.996 392.256 384.102C392.256 384.209 392.249 384.309 392.236 384.402H383.216V383.022H391.236L390.456 383.502C390.469 382.822 390.329 382.216 390.036 381.682C389.743 381.149 389.336 380.736 388.816 380.442C388.309 380.136 387.716 379.982 387.036 379.982C386.369 379.982 385.776 380.136 385.256 380.442C384.736 380.736 384.329 381.156 384.036 381.702C383.743 382.236 383.596 382.849 383.596 383.542V383.862C383.596 384.569 383.756 385.202 384.076 385.762C384.409 386.309 384.869 386.736 385.456 387.042C386.043 387.349 386.716 387.502 387.476 387.502C388.103 387.502 388.669 387.396 389.176 387.182C389.696 386.969 390.149 386.649 390.536 386.222L391.596 387.462C391.116 388.022 390.516 388.449 389.796 388.742C389.089 389.036 388.296 389.183 387.416 389.183ZM400.875 389.183C399.995 389.183 399.188 388.982 398.455 388.582C397.735 388.169 397.155 387.562 396.715 386.762C396.288 385.962 396.075 384.962 396.075 383.762C396.075 382.562 396.281 381.562 396.695 380.762C397.121 379.962 397.695 379.362 398.415 378.963C399.148 378.562 399.968 378.362 400.875 378.362C401.915 378.362 402.835 378.589 403.635 379.042C404.435 379.496 405.068 380.129 405.535 380.942C406.001 381.742 406.235 382.682 406.235 383.762C406.235 384.842 406.001 385.789 405.535 386.602C405.068 387.416 404.435 388.049 403.635 388.502C402.835 388.956 401.915 389.183 400.875 389.183ZM395.255 392.943V378.462H397.095V381.322L396.975 383.783L397.175 386.242V392.943H395.255ZM400.715 387.502C401.395 387.502 402.001 387.349 402.535 387.042C403.081 386.736 403.508 386.302 403.815 385.742C404.135 385.169 404.295 384.509 404.295 383.762C404.295 383.002 404.135 382.349 403.815 381.802C403.508 381.242 403.081 380.809 402.535 380.502C402.001 380.196 401.395 380.042 400.715 380.042C400.048 380.042 399.441 380.196 398.895 380.502C398.361 380.809 397.935 381.242 397.615 381.802C397.308 382.349 397.155 383.002 397.155 383.762C397.155 384.509 397.308 385.169 397.615 385.742C397.935 386.302 398.361 386.736 398.895 387.042C399.441 387.349 400.048 387.502 400.715 387.502ZM415.426 389.062V386.822L415.326 386.402V382.582C415.326 381.769 415.086 381.142 414.606 380.702C414.14 380.249 413.433 380.022 412.486 380.022C411.86 380.022 411.246 380.129 410.646 380.342C410.046 380.542 409.54 380.816 409.126 381.162L408.326 379.722C408.873 379.282 409.526 378.949 410.286 378.722C411.06 378.482 411.866 378.362 412.706 378.362C414.16 378.362 415.28 378.716 416.066 379.422C416.853 380.129 417.246 381.209 417.246 382.662V389.062H415.426ZM411.946 389.183C411.16 389.183 410.466 389.049 409.866 388.782C409.28 388.516 408.826 388.149 408.506 387.682C408.186 387.202 408.026 386.662 408.026 386.062C408.026 385.489 408.16 384.969 408.426 384.502C408.706 384.036 409.153 383.662 409.766 383.382C410.393 383.102 411.233 382.962 412.286 382.962H415.646V384.342H412.366C411.406 384.342 410.76 384.502 410.426 384.822C410.093 385.142 409.926 385.529 409.926 385.982C409.926 386.502 410.133 386.922 410.546 387.242C410.96 387.549 411.533 387.702 412.266 387.702C412.986 387.702 413.613 387.542 414.146 387.222C414.693 386.902 415.086 386.436 415.326 385.822L415.706 387.142C415.453 387.769 415.006 388.269 414.366 388.642C413.726 389.002 412.92 389.183 411.946 389.183Z" fill="#151414"/>
<circle cx="153" cy="382.062" r="12" fill="#5F79FF"/>
<path d="M191.22 413.062H193.22V427.062H191.22V413.062ZM183.18 427.062H181.18V413.062H183.18V427.062ZM191.4 420.822H182.98V419.082H191.4V420.822ZM204.046 427.062V423.342L204.346 423.702H200.966C199.553 423.702 198.446 423.402 197.646 422.802C196.86 422.202 196.466 421.329 196.466 420.182C196.466 418.956 196.886 418.029 197.726 417.402C198.58 416.776 199.713 416.462 201.126 416.462H205.766V427.062H204.046ZM196.366 427.062L199.246 423.002H201.226L198.426 427.062H196.366ZM204.046 422.742V417.602L204.346 418.142H201.186C200.306 418.142 199.626 418.309 199.146 418.642C198.666 418.962 198.426 419.496 198.426 420.242C198.426 421.629 199.32 422.322 201.106 422.322H204.346L204.046 422.742ZM209.512 427.062V416.462H211.432V420.962H217.472V416.462H219.392V427.062H217.472V422.622H211.432V427.062H209.512ZM229.906 427.062V423.342L230.206 423.702H226.826C225.412 423.702 224.306 423.402 223.506 422.802C222.719 422.202 222.326 421.329 222.326 420.182C222.326 418.956 222.746 418.029 223.586 417.402C224.439 416.776 225.572 416.462 226.986 416.462H231.626V427.062H229.906ZM222.226 427.062L225.106 423.002H227.086L224.286 427.062H222.226ZM229.906 422.742V417.602L230.206 418.142H227.046C226.166 418.142 225.486 418.309 225.006 418.642C224.526 418.962 224.286 419.496 224.286 420.242C224.286 421.629 225.179 422.322 226.966 422.322H230.206L229.906 422.742ZM240.743 427.062V416.462H242.663V420.962H248.703V416.462H250.623V427.062H248.703V422.622H242.663V427.062H240.743ZM260.856 427.062V424.822L260.756 424.402V420.582C260.756 419.769 260.516 419.142 260.036 418.702C259.569 418.249 258.863 418.022 257.916 418.022C257.289 418.022 256.676 418.129 256.076 418.342C255.476 418.542 254.969 418.816 254.556 419.162L253.756 417.722C254.303 417.282 254.956 416.949 255.716 416.722C256.489 416.482 257.296 416.362 258.136 416.362C259.589 416.362 260.709 416.716 261.496 417.422C262.283 418.129 262.676 419.209 262.676 420.662V427.062H260.856ZM257.376 427.183C256.589 427.183 255.896 427.049 255.296 426.782C254.709 426.516 254.256 426.149 253.936 425.682C253.616 425.202 253.456 424.662 253.456 424.062C253.456 423.489 253.589 422.969 253.856 422.502C254.136 422.036 254.583 421.662 255.196 421.382C255.823 421.102 256.663 420.962 257.716 420.962H261.076V422.342H257.796C256.836 422.342 256.189 422.502 255.856 422.822C255.523 423.142 255.356 423.529 255.356 423.982C255.356 424.502 255.563 424.922 255.976 425.242C256.389 425.549 256.963 425.702 257.696 425.702C258.416 425.702 259.043 425.542 259.576 425.222C260.123 424.902 260.516 424.436 260.756 423.822L261.136 425.142C260.883 425.769 260.436 426.269 259.796 426.642C259.156 427.002 258.349 427.183 257.376 427.183ZM278.745 426.162V418.142H274.145L274.045 420.182C274.018 420.849 273.971 421.496 273.905 422.122C273.851 422.736 273.758 423.302 273.625 423.822C273.505 424.342 273.325 424.769 273.085 425.102C272.845 425.436 272.525 425.642 272.125 425.722L270.225 425.382C270.638 425.396 270.971 425.262 271.225 424.982C271.478 424.689 271.671 424.289 271.805 423.782C271.951 423.276 272.058 422.702 272.125 422.062C272.191 421.409 272.245 420.736 272.285 420.042L272.445 416.462H280.665V426.162H278.745ZM269.805 429.523V425.382H282.285V429.523H280.485V427.062H271.625V429.523H269.805ZM289.326 427.183C288.259 427.183 287.312 426.949 286.486 426.482C285.659 426.016 285.006 425.376 284.526 424.562C284.046 423.736 283.806 422.802 283.806 421.762C283.806 420.709 284.046 419.776 284.526 418.962C285.006 418.149 285.659 417.516 286.486 417.062C287.312 416.596 288.259 416.362 289.326 416.362C290.379 416.362 291.319 416.596 292.146 417.062C292.986 417.516 293.639 418.149 294.106 418.962C294.586 419.762 294.826 420.696 294.826 421.762C294.826 422.816 294.586 423.749 294.106 424.562C293.639 425.376 292.986 426.016 292.146 426.482C291.319 426.949 290.379 427.183 289.326 427.183ZM289.326 425.502C290.006 425.502 290.612 425.349 291.146 425.042C291.692 424.736 292.119 424.302 292.426 423.742C292.732 423.169 292.886 422.509 292.886 421.762C292.886 421.002 292.732 420.349 292.426 419.802C292.119 419.242 291.692 418.809 291.146 418.502C290.612 418.196 290.006 418.042 289.326 418.042C288.646 418.042 288.039 418.196 287.506 418.502C286.972 418.809 286.546 419.242 286.226 419.802C285.906 420.349 285.746 421.002 285.746 421.762C285.746 422.509 285.906 423.169 286.226 423.742C286.546 424.302 286.972 424.736 287.506 425.042C288.039 425.349 288.646 425.502 289.326 425.502ZM297.598 427.062V416.462H299.578L304.138 424.302H303.338L308.018 416.462H309.818V427.062H308.078V418.622L308.398 418.802L304.118 425.862H303.278L298.978 418.662L299.358 418.582V427.062H297.598ZM314.095 431.063C313.589 431.063 313.095 430.976 312.615 430.803C312.135 430.643 311.722 430.403 311.375 430.083L312.195 428.643C312.462 428.896 312.755 429.089 313.075 429.223C313.395 429.356 313.735 429.423 314.095 429.423C314.562 429.423 314.949 429.303 315.255 429.063C315.562 428.823 315.849 428.396 316.115 427.783L316.775 426.322L316.975 426.082L321.135 416.462H323.015L317.875 428.123C317.569 428.869 317.222 429.456 316.835 429.883C316.462 430.309 316.049 430.609 315.595 430.783C315.142 430.969 314.642 431.063 314.095 431.063ZM316.615 427.403L311.775 416.462H313.775L317.895 425.902L316.615 427.403Z" fill="#151414"/>
<circle cx="153" cy="420.062" r="11.5" stroke="#D9D9D9"/>
<path d="M181.18 465.062V451.062H193.24V465.062H191.28V452.282L191.76 452.802H182.66L183.16 452.282V465.062H181.18ZM202.006 465.183C200.872 465.183 199.872 464.949 199.006 464.482C198.152 464.016 197.486 463.376 197.006 462.562C196.539 461.749 196.306 460.816 196.306 459.762C196.306 458.709 196.532 457.776 196.986 456.962C197.452 456.149 198.086 455.516 198.886 455.062C199.699 454.596 200.612 454.362 201.626 454.362C202.652 454.362 203.559 454.589 204.346 455.042C205.132 455.496 205.746 456.136 206.186 456.962C206.639 457.776 206.866 458.729 206.866 459.822C206.866 459.902 206.859 459.996 206.846 460.102C206.846 460.209 206.839 460.309 206.826 460.402H197.806V459.022H205.826L205.046 459.502C205.059 458.822 204.919 458.216 204.626 457.682C204.332 457.149 203.926 456.736 203.406 456.442C202.899 456.136 202.306 455.982 201.626 455.982C200.959 455.982 200.366 456.136 199.846 456.442C199.326 456.736 198.919 457.156 198.626 457.702C198.332 458.236 198.186 458.849 198.186 459.542V459.862C198.186 460.569 198.346 461.202 198.666 461.762C198.999 462.309 199.459 462.736 200.046 463.042C200.632 463.349 201.306 463.502 202.066 463.502C202.692 463.502 203.259 463.396 203.766 463.182C204.286 462.969 204.739 462.649 205.126 462.222L206.186 463.462C205.706 464.022 205.106 464.449 204.386 464.742C203.679 465.036 202.886 465.183 202.006 465.183ZM215.464 465.183C214.584 465.183 213.778 464.982 213.044 464.582C212.324 464.169 211.744 463.562 211.304 462.762C210.878 461.962 210.664 460.962 210.664 459.762C210.664 458.562 210.871 457.562 211.284 456.762C211.711 455.962 212.284 455.362 213.004 454.963C213.738 454.562 214.558 454.362 215.464 454.362C216.504 454.362 217.424 454.589 218.224 455.042C219.024 455.496 219.658 456.129 220.124 456.942C220.591 457.742 220.824 458.682 220.824 459.762C220.824 460.842 220.591 461.789 220.124 462.602C219.658 463.416 219.024 464.049 218.224 464.502C217.424 464.956 216.504 465.183 215.464 465.183ZM209.844 468.943V454.462H211.684V457.322L211.564 459.783L211.764 462.242V468.943H209.844ZM215.304 463.502C215.984 463.502 216.591 463.349 217.124 463.042C217.671 462.736 218.098 462.302 218.404 461.742C218.724 461.169 218.884 460.509 218.884 459.762C218.884 459.002 218.724 458.349 218.404 457.802C218.098 457.242 217.671 456.809 217.124 456.502C216.591 456.196 215.984 456.042 215.304 456.042C214.638 456.042 214.031 456.196 213.484 456.502C212.951 456.809 212.524 457.242 212.204 457.802C211.898 458.349 211.744 459.002 211.744 459.762C211.744 460.509 211.898 461.169 212.204 461.742C212.524 462.302 212.951 462.736 213.484 463.042C214.031 463.349 214.638 463.502 215.304 463.502ZM228.334 465.183C227.201 465.183 226.201 464.949 225.334 464.482C224.481 464.016 223.814 463.376 223.334 462.562C222.867 461.749 222.634 460.816 222.634 459.762C222.634 458.709 222.861 457.776 223.314 456.962C223.781 456.149 224.414 455.516 225.214 455.062C226.027 454.596 226.941 454.362 227.954 454.362C228.981 454.362 229.887 454.589 230.674 455.042C231.461 455.496 232.074 456.136 232.514 456.962C232.967 457.776 233.194 458.729 233.194 459.822C233.194 459.902 233.187 459.996 233.174 460.102C233.174 460.209 233.167 460.309 233.154 460.402H224.134V459.022H232.154L231.374 459.502C231.387 458.822 231.247 458.216 230.954 457.682C230.661 457.149 230.254 456.736 229.734 456.442C229.227 456.136 228.634 455.982 227.954 455.982C227.287 455.982 226.694 456.136 226.174 456.442C225.654 456.736 225.247 457.156 224.954 457.702C224.661 458.236 224.514 458.849 224.514 459.542V459.862C224.514 460.569 224.674 461.202 224.994 461.762C225.327 462.309 225.787 462.736 226.374 463.042C226.961 463.349 227.634 463.502 228.394 463.502C229.021 463.502 229.587 463.396 230.094 463.182C230.614 462.969 231.067 462.649 231.454 462.222L232.514 463.462C232.034 464.022 231.434 464.449 230.714 464.742C230.007 465.036 229.214 465.183 228.334 465.183ZM236.173 465.062V454.462H241.093C242.333 454.462 243.306 454.702 244.013 455.182C244.733 455.649 245.093 456.316 245.093 457.182C245.093 458.049 244.753 458.722 244.073 459.202C243.406 459.669 242.519 459.902 241.413 459.902L241.713 459.382C242.979 459.382 243.919 459.616 244.533 460.082C245.146 460.549 245.453 461.236 245.453 462.142C245.453 463.062 245.106 463.782 244.412 464.302C243.733 464.809 242.686 465.062 241.273 465.062H236.173ZM238.053 463.582H241.133C241.933 463.582 242.533 463.462 242.933 463.222C243.333 462.969 243.533 462.569 243.533 462.022C243.533 461.462 243.346 461.056 242.973 460.802C242.613 460.536 242.039 460.402 241.253 460.402H238.053V463.582ZM238.053 459.022H240.933C241.666 459.022 242.219 458.889 242.593 458.622C242.979 458.342 243.173 457.956 243.173 457.462C243.173 456.956 242.979 456.576 242.593 456.322C242.219 456.069 241.666 455.942 240.933 455.942H238.053V459.022ZM252.998 465.183C251.931 465.183 250.984 464.949 250.158 464.482C249.331 464.016 248.678 463.376 248.198 462.562C247.718 461.736 247.478 460.802 247.478 459.762C247.478 458.709 247.718 457.776 248.198 456.962C248.678 456.149 249.331 455.516 250.158 455.062C250.984 454.596 251.931 454.362 252.998 454.362C254.051 454.362 254.991 454.596 255.818 455.062C256.658 455.516 257.311 456.149 257.778 456.962C258.258 457.762 258.498 458.696 258.498 459.762C258.498 460.816 258.258 461.749 257.778 462.562C257.311 463.376 256.658 464.016 255.818 464.482C254.991 464.949 254.051 465.183 252.998 465.183ZM252.998 463.502C253.678 463.502 254.284 463.349 254.818 463.042C255.364 462.736 255.791 462.302 256.098 461.742C256.404 461.169 256.558 460.509 256.558 459.762C256.558 459.002 256.404 458.349 256.098 457.802C255.791 457.242 255.364 456.809 254.818 456.502C254.284 456.196 253.678 456.042 252.998 456.042C252.318 456.042 251.711 456.196 251.178 456.502C250.644 456.809 250.218 457.242 249.898 457.802C249.578 458.349 249.418 459.002 249.418 459.762C249.418 460.509 249.578 461.169 249.898 461.742C250.218 462.302 250.644 462.736 251.178 463.042C251.711 463.349 252.318 463.502 252.998 463.502ZM264.253 465.203C263.453 465.203 262.666 465.103 261.893 464.902C261.133 464.689 260.453 464.389 259.853 464.002L260.433 462.542C260.94 462.862 261.52 463.116 262.173 463.302C262.826 463.476 263.486 463.562 264.153 463.562C264.766 463.562 265.293 463.489 265.733 463.342C266.186 463.196 266.533 462.996 266.773 462.742C267.013 462.476 267.133 462.169 267.133 461.822C267.133 461.329 266.913 460.949 266.473 460.682C266.033 460.416 265.42 460.282 264.633 460.282H262.713V458.902H264.513C264.98 458.902 265.386 458.849 265.733 458.742C266.08 458.636 266.346 458.476 266.533 458.262C266.733 458.036 266.833 457.776 266.833 457.482C266.833 457.162 266.72 456.889 266.493 456.662C266.266 456.436 265.946 456.262 265.533 456.142C265.133 456.022 264.66 455.962 264.113 455.962C263.58 455.976 263.033 456.049 262.473 456.182C261.926 456.316 261.366 456.522 260.793 456.802L260.273 455.302C260.913 454.996 261.54 454.762 262.153 454.602C262.78 454.429 263.4 454.336 264.013 454.322C264.933 454.296 265.753 454.402 266.473 454.642C267.193 454.869 267.76 455.202 268.173 455.642C268.6 456.082 268.813 456.602 268.813 457.202C268.813 457.709 268.653 458.162 268.333 458.562C268.013 458.949 267.586 459.256 267.053 459.482C266.52 459.709 265.906 459.822 265.213 459.822L265.293 459.362C266.48 459.362 267.413 459.596 268.093 460.062C268.773 460.529 269.113 461.162 269.113 461.962C269.113 462.602 268.9 463.169 268.473 463.662C268.046 464.142 267.466 464.522 266.733 464.802C266.013 465.069 265.186 465.203 264.253 465.203ZM279.712 465.062L275.612 459.902L277.192 458.942L281.972 465.062H279.712ZM272.032 465.062V454.462H273.952V465.062H272.032ZM273.372 460.582V458.942H276.872V460.582H273.372ZM277.352 459.982L275.572 459.742L279.632 454.462H281.692L277.352 459.982ZM290.29 465.062V462.822L290.19 462.402V458.582C290.19 457.769 289.95 457.142 289.47 456.702C289.003 456.249 288.296 456.022 287.35 456.022C286.723 456.022 286.11 456.129 285.51 456.342C284.91 456.542 284.403 456.816 283.99 457.162L283.19 455.722C283.736 455.282 284.39 454.949 285.15 454.722C285.923 454.482 286.73 454.362 287.57 454.362C289.023 454.362 290.143 454.716 290.93 455.422C291.716 456.129 292.11 457.209 292.11 458.662V465.062H290.29ZM286.81 465.183C286.023 465.183 285.33 465.049 284.73 464.782C284.143 464.516 283.69 464.149 283.37 463.682C283.05 463.202 282.89 462.662 282.89 462.062C282.89 461.489 283.023 460.969 283.29 460.502C283.57 460.036 284.016 459.662 284.63 459.382C285.256 459.102 286.096 458.962 287.15 458.962H290.51V460.342H287.23C286.27 460.342 285.623 460.502 285.29 460.822C284.956 461.142 284.79 461.529 284.79 461.982C284.79 462.502 284.996 462.922 285.41 463.242C285.823 463.549 286.396 463.702 287.13 463.702C287.85 463.702 288.476 463.542 289.01 463.222C289.556 462.902 289.95 462.436 290.19 461.822L290.57 463.142C290.316 463.769 289.87 464.269 289.23 464.642C288.59 465.002 287.783 465.183 286.81 465.183ZM300.938 465.062V454.462H310.758V465.062H308.838V455.662L309.298 456.142H302.398L302.858 455.662V465.062H300.938ZM314.473 465.062V454.462H316.393V462.182L322.893 454.462H324.633V465.062H322.713V457.342L316.233 465.062H314.473ZM330.46 465.062V455.642L330.94 456.142H326.58V454.462H336.26V456.142H331.92L332.38 455.642V465.062H330.46ZM342.295 465.183C341.228 465.183 340.281 464.949 339.455 464.482C338.628 464.016 337.975 463.376 337.495 462.562C337.015 461.736 336.775 460.802 336.775 459.762C336.775 458.709 337.015 457.776 337.495 456.962C337.975 456.149 338.628 455.516 339.455 455.062C340.281 454.596 341.228 454.362 342.295 454.362C343.348 454.362 344.288 454.596 345.115 455.062C345.955 455.516 346.608 456.149 347.075 456.962C347.555 457.762 347.795 458.696 347.795 459.762C347.795 460.816 347.555 461.749 347.075 462.562C346.608 463.376 345.955 464.016 345.115 464.482C344.288 464.949 343.348 465.183 342.295 465.183ZM342.295 463.502C342.975 463.502 343.581 463.349 344.115 463.042C344.661 462.736 345.088 462.302 345.395 461.742C345.701 461.169 345.855 460.509 345.855 459.762C345.855 459.002 345.701 458.349 345.395 457.802C345.088 457.242 344.661 456.809 344.115 456.502C343.581 456.196 342.975 456.042 342.295 456.042C341.615 456.042 341.008 456.196 340.475 456.502C339.941 456.809 339.515 457.242 339.195 457.802C338.875 458.349 338.715 459.002 338.715 459.762C338.715 460.509 338.875 461.169 339.195 461.742C339.515 462.302 339.941 462.736 340.475 463.042C341.008 463.349 341.615 463.502 342.295 463.502ZM350.567 465.062V454.462H352.547L357.107 462.302H356.307L360.987 454.462H362.787V465.062H361.047V456.622L361.367 456.802L357.087 463.862H356.247L351.947 456.662L352.327 456.582V465.062H350.567ZM366.524 465.062V454.462H368.444V463.382H374.244V454.462H376.164V465.062H366.524ZM376.024 467.523V464.962L376.504 465.062H374.244V463.382H377.844V467.523H376.024ZM386.833 465.062V462.822L386.733 462.402V458.582C386.733 457.769 386.493 457.142 386.013 456.702C385.546 456.249 384.839 456.022 383.893 456.022C383.266 456.022 382.653 456.129 382.053 456.342C381.453 456.542 380.946 456.816 380.533 457.162L379.733 455.722C380.279 455.282 380.933 454.949 381.693 454.722C382.466 454.482 383.273 454.362 384.113 454.362C385.566 454.362 386.686 454.716 387.473 455.422C388.259 456.129 388.653 457.209 388.653 458.662V465.062H386.833ZM383.353 465.183C382.566 465.183 381.873 465.049 381.273 464.782C380.686 464.516 380.233 464.149 379.913 463.682C379.593 463.202 379.433 462.662 379.433 462.062C379.433 461.489 379.566 460.969 379.833 460.502C380.113 460.036 380.559 459.662 381.173 459.382C381.799 459.102 382.639 458.962 383.693 458.962H387.053V460.342H383.773C382.813 460.342 382.166 460.502 381.833 460.822C381.499 461.142 381.333 461.529 381.333 461.982C381.333 462.502 381.539 462.922 381.953 463.242C382.366 463.549 382.939 463.702 383.673 463.702C384.393 463.702 385.019 463.542 385.553 463.222C386.099 462.902 386.493 462.436 386.733 461.822L387.113 463.142C386.859 463.769 386.413 464.269 385.773 464.642C385.133 465.002 384.326 465.183 383.353 465.183Z" fill="#151414"/>
<circle cx="153" cy="458.062" r="11.5" stroke="#D9D9D9"/>
<path d="M148 344.062L150.951 347.014C151.941 348.003 153.615 347.696 154.189 346.42L157.5 339.062" stroke="white" stroke-width="2" stroke-linecap="round"/>
<path d="M148 382.062L150.951 385.014C151.941 386.003 153.615 385.696 154.189 384.42L157.5 377.062" stroke="white" stroke-width="2" stroke-linecap="round"/>
<rect x="141.5" y="532.562" width="183" height="51" rx="9.5" stroke="#252424" stroke-opacity="0.53"/>
<path d="M159.656 564.062V553.502L160.344 554.254H157.128V552.862H161.24V564.062H159.656ZM165.578 564.062V553.502L166.266 554.254H163.05V552.862H167.162V564.062H165.578ZM180.053 564.062V561.086L180.293 561.374H177.589C176.458 561.374 175.573 561.134 174.933 560.654C174.303 560.174 173.989 559.476 173.989 558.558C173.989 557.577 174.325 556.836 174.997 556.334C175.679 555.833 176.586 555.582 177.717 555.582H181.429V564.062H180.053ZM173.909 564.062L176.213 560.814H177.797L175.557 564.062H173.909ZM180.053 560.606V556.494L180.293 556.926H177.765C177.061 556.926 176.517 557.06 176.133 557.326C175.749 557.582 175.557 558.009 175.557 558.606C175.557 559.716 176.271 560.27 177.701 560.27H180.293L180.053 560.606ZM184.426 564.062V555.582H185.962V559.182H190.794V555.582H192.33V564.062H190.794V560.51H185.962V564.062H184.426ZM195.316 564.062V555.582H199.252C200.244 555.582 201.023 555.774 201.588 556.158C202.164 556.532 202.452 557.065 202.452 557.758C202.452 558.452 202.18 558.99 201.636 559.374C201.103 559.748 200.393 559.934 199.508 559.934L199.748 559.518C200.761 559.518 201.513 559.705 202.004 560.078C202.495 560.452 202.74 561.001 202.74 561.726C202.74 562.462 202.463 563.038 201.908 563.454C201.364 563.86 200.527 564.062 199.396 564.062H195.316ZM196.82 562.878H199.284C199.924 562.878 200.404 562.782 200.724 562.59C201.044 562.388 201.204 562.068 201.204 561.63C201.204 561.182 201.055 560.857 200.756 560.654C200.468 560.441 200.009 560.334 199.38 560.334H196.82V562.878ZM196.82 559.23H199.124C199.711 559.23 200.153 559.124 200.452 558.91C200.761 558.686 200.916 558.377 200.916 557.982C200.916 557.577 200.761 557.273 200.452 557.07C200.153 556.868 199.711 556.766 199.124 556.766H196.82V559.23ZM204.504 566.431L205.304 563.198L205.512 564.127C205.203 564.127 204.942 564.03 204.728 563.838C204.526 563.646 204.424 563.385 204.424 563.054C204.424 562.734 204.526 562.473 204.728 562.27C204.942 562.068 205.198 561.966 205.496 561.966C205.806 561.966 206.056 562.073 206.248 562.286C206.44 562.489 206.536 562.745 206.536 563.054C206.536 563.161 206.526 563.268 206.504 563.374C206.494 563.47 206.467 563.588 206.424 563.726C206.392 563.854 206.339 564.014 206.264 564.207L205.512 566.431H204.504ZM218.41 560.59C217.962 560.804 217.498 560.974 217.018 561.102C216.549 561.22 216.063 561.278 215.562 561.278C214.538 561.278 213.727 561.038 213.13 560.558C212.543 560.078 212.25 559.337 212.25 558.334V555.582H213.786V558.238C213.786 558.846 213.973 559.294 214.346 559.582C214.73 559.87 215.242 560.014 215.882 560.014C216.287 560.014 216.703 559.961 217.13 559.854C217.567 559.748 217.994 559.598 218.41 559.406V560.59ZM218.298 564.062V555.582H219.834V564.062H218.298ZM224.496 564.062V556.526L224.88 556.926H221.392V555.582H229.136V556.926H225.664L226.032 556.526V564.062H224.496Z" fill="black"/>
<rect x="292.5" y="550.562" width="16" height="15" rx="3.5" stroke="#262424"/>
<rect x="299.398" y="559.062" width="2.2" height="4" fill="#262424"/>
<rect x="295" y="553.062" width="2.2" height="4" fill="#262424"/>
<rect x="299.398" y="553.062" width="2.2" height="4" fill="#262424"/>
<rect x="303.797" y="553.062" width="2.2" height="4" fill="#262424"/>
<rect x="303.797" y="559.062" width="2.2" height="4" fill="#262424"/>
<rect x="295" y="559.062" width="2.2" height="4" fill="#262424"/>
<path d="M292 550.062V553.562L293 552.062L294 551.062L295.5 550.562H298.5H302H304.5L306 551.062L307.5 551.562L309 553.562V550.062H292Z" fill="#262424"/>
<rect x="296" y="549.062" width="4" height="2" fill="#262424"/>
<rect x="301" y="549.062" width="4" height="2" fill="#262424"/>
<rect x="337.5" y="532.562" width="183" height="51" rx="9.5" stroke="#252424" stroke-opacity="0.53"/>
<path d="M355.656 564.062V553.502L356.344 554.254H353.128V552.862H357.24V564.062H355.656ZM361.626 564.062L366.378 553.534L366.794 554.254H360.138L360.938 553.47V556.254H359.402V552.862H367.85V553.95L363.322 564.062H361.626ZM379.693 564.062V561.086L379.933 561.374H377.229C376.099 561.374 375.213 561.134 374.573 560.654C373.944 560.174 373.629 559.476 373.629 558.558C373.629 557.577 373.965 556.836 374.637 556.334C375.32 555.833 376.227 555.582 377.357 555.582H381.069V564.062H379.693ZM373.549 564.062L375.853 560.814H377.437L375.197 564.062H373.549ZM379.693 560.606V556.494L379.933 556.926H377.405C376.701 556.926 376.157 557.06 375.773 557.326C375.389 557.582 375.197 558.009 375.197 558.606C375.197 559.716 375.912 560.27 377.341 560.27H379.933L379.693 560.606ZM384.066 564.062V555.582H385.602V559.182H390.434V555.582H391.97V564.062H390.434V560.51H385.602V564.062H384.066ZM394.957 564.062V555.582H398.893C399.885 555.582 400.663 555.774 401.229 556.158C401.805 556.532 402.093 557.065 402.093 557.758C402.093 558.452 401.821 558.99 401.277 559.374C400.743 559.748 400.034 559.934 399.149 559.934L399.389 559.518C400.402 559.518 401.154 559.705 401.645 560.078C402.135 560.452 402.381 561.001 402.381 561.726C402.381 562.462 402.103 563.038 401.549 563.454C401.005 563.86 400.167 564.062 399.037 564.062H394.957ZM396.461 562.878H398.925C399.565 562.878 400.045 562.782 400.365 562.59C400.685 562.388 400.845 562.068 400.845 561.63C400.845 561.182 400.695 560.857 400.397 560.654C400.109 560.441 399.65 560.334 399.021 560.334H396.461V562.878ZM396.461 559.23H398.765C399.351 559.23 399.794 559.124 400.093 558.91C400.402 558.686 400.557 558.377 400.557 557.982C400.557 557.577 400.402 557.273 400.093 557.07C399.794 556.868 399.351 556.766 398.765 556.766H396.461V559.23ZM404.145 566.431L404.945 563.198L405.153 564.127C404.844 564.127 404.582 564.03 404.369 563.838C404.166 563.646 404.065 563.385 404.065 563.054C404.065 562.734 404.166 562.473 404.369 562.27C404.582 562.068 404.838 561.966 405.137 561.966C405.446 561.966 405.697 562.073 405.889 562.286C406.081 562.489 406.177 562.745 406.177 563.054C406.177 563.161 406.166 563.268 406.145 563.374C406.134 563.47 406.108 563.588 406.065 563.726C406.033 563.854 405.98 564.014 405.905 564.207L405.153 566.431H404.145ZM416.403 564.159C415.539 564.159 414.765 563.972 414.083 563.598C413.411 563.225 412.883 562.713 412.499 562.062C412.115 561.412 411.923 560.665 411.923 559.822C411.923 558.98 412.115 558.233 412.499 557.582C412.883 556.932 413.411 556.425 414.083 556.062C414.765 555.689 415.539 555.502 416.403 555.502C417.171 555.502 417.853 555.657 418.451 555.966C419.059 556.265 419.528 556.713 419.859 557.31L418.691 558.062C418.413 557.646 418.072 557.342 417.667 557.15C417.272 556.948 416.845 556.846 416.387 556.846C415.832 556.846 415.336 556.969 414.899 557.214C414.461 557.46 414.115 557.806 413.859 558.254C413.603 558.692 413.475 559.214 413.475 559.822C413.475 560.43 413.603 560.958 413.859 561.406C414.115 561.854 414.461 562.201 414.899 562.446C415.336 562.692 415.832 562.814 416.387 562.814C416.845 562.814 417.272 562.718 417.667 562.526C418.072 562.324 418.413 562.014 418.691 561.598L419.859 562.334C419.528 562.921 419.059 563.374 418.451 563.694C417.853 564.004 417.171 564.159 416.403 564.159ZM426.343 564.159C425.639 564.159 424.994 563.998 424.407 563.678C423.831 563.348 423.367 562.862 423.015 562.222C422.674 561.582 422.503 560.782 422.503 559.822C422.503 558.862 422.669 558.062 422.999 557.422C423.341 556.782 423.799 556.302 424.375 555.983C424.962 555.662 425.618 555.502 426.343 555.502C427.175 555.502 427.911 555.684 428.551 556.046C429.191 556.409 429.698 556.916 430.071 557.566C430.445 558.206 430.631 558.958 430.631 559.822C430.631 560.686 430.445 561.444 430.071 562.094C429.698 562.745 429.191 563.252 428.551 563.614C427.911 563.977 427.175 564.159 426.343 564.159ZM421.847 567.167V555.582H423.319V557.87L423.223 559.839L423.383 561.806V567.167H421.847ZM426.215 562.814C426.759 562.814 427.245 562.692 427.671 562.446C428.109 562.201 428.45 561.854 428.695 561.406C428.951 560.948 429.079 560.42 429.079 559.822C429.079 559.214 428.951 558.692 428.695 558.254C428.45 557.806 428.109 557.46 427.671 557.214C427.245 556.969 426.759 556.846 426.215 556.846C425.682 556.846 425.197 556.969 424.759 557.214C424.333 557.46 423.991 557.806 423.735 558.254C423.49 558.692 423.367 559.214 423.367 559.822C423.367 560.42 423.49 560.948 423.735 561.406C423.991 561.854 424.333 562.201 424.759 562.446C425.197 562.692 425.682 562.814 426.215 562.814Z" fill="black"/>
<rect x="488.5" y="550.562" width="16" height="15" rx="3.5" stroke="#262424"/>
<rect x="495.398" y="559.062" width="2.2" height="4" fill="#262424"/>
<rect x="491" y="553.062" width="2.2" height="4" fill="#262424"/>
<rect x="495.398" y="553.062" width="2.2" height="4" fill="#262424"/>
<rect x="499.797" y="553.062" width="2.2" height="4" fill="#262424"/>
<rect x="499.797" y="559.062" width="2.2" height="4" fill="#262424"/>
<rect x="491" y="559.062" width="2.2" height="4" fill="#262424"/>
<path d="M488 550.062V553.562L489 552.062L490 551.062L491.5 550.562H494.5H498H500.5L502 551.062L503.5 551.562L505 553.562V550.062H488Z" fill="#262424"/>
<rect x="492" y="549.062" width="4" height="2" fill="#262424"/>
<rect x="497" y="549.062" width="4" height="2" fill="#262424"/>
</g>
</g>
<defs>
<clipPath id="clip0_443_3852">
<rect y="0.0625" width="662" height="627" rx="27" fill="white"/>
</clipPath>
<clipPath id="clip1_443_3852">
<rect x="117" y="36.0625" width="428" height="875" rx="25" fill="white"/>
</clipPath>
</defs>
</svg>
