<svg width="319" height="246" viewBox="0 0 319 246" fill="none" xmlns="http://www.w3.org/2000/svg">
<rect y="0.0625" width="319" height="245" rx="25" fill="white"/>
<path d="M22.376 43.0625V26.2625H29.888C31.776 26.2625 33.248 26.6385 34.304 27.3905C35.36 28.1265 35.888 29.1905 35.888 30.5825C35.888 31.9585 35.384 33.0225 34.376 33.7745C33.368 34.5105 32.04 34.8785 30.392 34.8785L30.824 34.0145C32.696 34.0145 34.144 34.3905 35.168 35.1425C36.192 35.8945 36.704 36.9825 36.704 38.4065C36.704 39.8625 36.168 41.0065 35.096 41.8385C34.024 42.6545 32.44 43.0625 30.344 43.0625H22.376ZM25.448 40.6625H30.248C31.336 40.6625 32.16 40.4625 32.72 40.0625C33.28 39.6465 33.56 39.0145 33.56 38.1665C33.56 37.3185 33.28 36.7025 32.72 36.3185C32.16 35.9185 31.336 35.7185 30.248 35.7185H25.448V40.6625ZM25.448 33.4385H29.624C30.632 33.4385 31.4 33.2385 31.928 32.8385C32.456 32.4225 32.72 31.8305 32.72 31.0625C32.72 30.2625 32.456 29.6625 31.928 29.2625C31.4 28.8625 30.632 28.6625 29.624 28.6625H25.448V33.4385ZM52.8583 43.0625V30.2465H55.8583V43.0625H52.8583ZM46.1623 34.4705C47.8103 34.4705 49.0583 34.8385 49.9062 35.5745C50.7703 36.3105 51.2023 37.3505 51.2023 38.6945C51.2023 40.0865 50.7223 41.1745 49.7623 41.9585C48.8183 42.7265 47.4743 43.1025 45.7303 43.0865L39.9223 43.0625V30.2465H42.9223V34.4465L46.1623 34.4705ZM45.4663 40.8785C46.3463 40.8945 47.0183 40.7105 47.4823 40.3265C47.9463 39.9425 48.1783 39.3825 48.1783 38.6465C48.1783 37.9105 47.9463 37.3825 47.4823 37.0625C47.0343 36.7265 46.3623 36.5505 45.4663 36.5345L42.9223 36.5105V40.8545L45.4663 40.8785ZM59.891 43.0625V30.2465H69.731V32.7905H62.195L62.891 32.1185V43.0625H59.891ZM73.0899 47.8865C72.4659 47.8865 71.8419 47.7825 71.2179 47.5745C70.5939 47.3665 70.0739 47.0785 69.6579 46.7105L70.8579 44.5025C71.1619 44.7745 71.5059 44.9905 71.8899 45.1505C72.2739 45.3105 72.6659 45.3905 73.0659 45.3905C73.6099 45.3905 74.0499 45.2545 74.3859 44.9825C74.7219 44.7105 75.0339 44.2545 75.3219 43.6145L76.0659 41.9345L76.3059 41.5745L81.1539 30.2465H84.0339L78.0339 44.0945C77.6339 45.0545 77.1859 45.8145 76.6899 46.3745C76.2099 46.9345 75.6659 47.3265 75.0579 47.5505C74.4659 47.7745 73.8099 47.8865 73.0899 47.8865ZM75.7299 43.5185L69.9459 30.2465H73.0659L77.7699 41.3105L75.7299 43.5185ZM83.4721 43.0385L83.6161 40.5185C83.7281 40.5345 83.8321 40.5505 83.9281 40.5665C84.0241 40.5825 84.1121 40.5905 84.1921 40.5905C84.6881 40.5905 85.0721 40.4385 85.3441 40.1345C85.6161 39.8305 85.8161 39.4225 85.9441 38.9105C86.0881 38.3825 86.1841 37.7985 86.2321 37.1585C86.2961 36.5025 86.3441 35.8465 86.3761 35.1905L86.5921 30.2465H96.9601V43.0625H93.9601V31.9745L94.6561 32.7905H88.5601L89.2081 31.9505L89.0401 35.3345C88.9921 36.4705 88.8961 37.5265 88.7521 38.5025C88.6241 39.4625 88.4161 40.3025 88.1281 41.0225C87.8561 41.7425 87.4721 42.3025 86.9761 42.7025C86.4961 43.1025 85.8801 43.3025 85.1281 43.3025C84.8881 43.3025 84.6241 43.2785 84.3361 43.2305C84.0641 43.1825 83.7761 43.1185 83.4721 43.0385ZM109.136 43.0625V38.6945L109.568 39.1985H105.728C103.968 39.1985 102.584 38.8305 101.576 38.0945C100.584 37.3425 100.088 36.2625 100.088 34.8545C100.088 33.3505 100.616 32.2065 101.672 31.4225C102.744 30.6385 104.168 30.2465 105.944 30.2465H111.824V43.0625H109.136ZM99.9204 43.0625L103.376 38.1665H106.448L103.136 43.0625H99.9204ZM109.136 37.7345V31.9745L109.568 32.7665H106.04C105.112 32.7665 104.392 32.9425 103.88 33.2945C103.384 33.6305 103.136 34.1825 103.136 34.9505C103.136 36.3905 104.072 37.1105 105.944 37.1105H109.568L109.136 37.7345ZM118.524 43.0625V32.0705L119.22 32.7905H114.012V30.2465H126.012V32.7905H120.828L121.524 32.0705V43.0625H118.524ZM134.62 34.4705C136.268 34.4705 137.524 34.8385 138.388 35.5745C139.252 36.3105 139.684 37.3505 139.684 38.6945C139.684 40.0865 139.204 41.1745 138.244 41.9585C137.284 42.7265 135.932 43.1025 134.188 43.0865L128.188 43.0625V30.2465H131.188V34.4465L134.62 34.4705ZM133.924 40.8785C134.804 40.8945 135.476 40.7105 135.94 40.3265C136.404 39.9425 136.636 39.3825 136.636 38.6465C136.636 37.9105 136.404 37.3825 135.94 37.0625C135.492 36.7265 134.82 36.5505 133.924 36.5345L131.188 36.5105V40.8545L133.924 40.8785ZM148.954 43.0625V30.2465H161.242V43.0625H158.266V32.0945L158.962 32.7905H151.258L151.954 32.0945V43.0625H148.954ZM165.289 43.0625V30.2465H168.289V38.6945L175.369 30.2465H178.105V43.0625H175.105V34.6145L168.049 43.0625H165.289ZM184.805 43.0625V32.0705L185.501 32.7905H180.293V30.2465H192.293V32.7905H187.109L187.805 32.0705V43.0625H184.805ZM199.619 43.2305C198.307 43.2305 197.139 42.9505 196.115 42.3905C195.091 41.8145 194.283 41.0305 193.691 40.0385C193.099 39.0465 192.803 37.9185 192.803 36.6545C192.803 35.3745 193.099 34.2465 193.691 33.2705C194.283 32.2785 195.091 31.5025 196.115 30.9425C197.139 30.3825 198.307 30.1025 199.619 30.1025C200.947 30.1025 202.123 30.3825 203.147 30.9425C204.187 31.5025 204.995 32.2705 205.571 33.2465C206.163 34.2225 206.459 35.3585 206.459 36.6545C206.459 37.9185 206.163 39.0465 205.571 40.0385C204.995 41.0305 204.187 41.8145 203.147 42.3905C202.123 42.9505 200.947 43.2305 199.619 43.2305ZM199.619 40.6625C200.355 40.6625 201.011 40.5025 201.587 40.1825C202.163 39.8625 202.611 39.3985 202.931 38.7905C203.267 38.1825 203.435 37.4705 203.435 36.6545C203.435 35.8225 203.267 35.1105 202.931 34.5185C202.611 33.9105 202.163 33.4465 201.587 33.1265C201.011 32.8065 200.363 32.6465 199.643 32.6465C198.907 32.6465 198.251 32.8065 197.675 33.1265C197.115 33.4465 196.667 33.9105 196.331 34.5185C195.995 35.1105 195.827 35.8225 195.827 36.6545C195.827 37.4705 195.995 38.1825 196.331 38.7905C196.667 39.3985 197.115 39.8625 197.675 40.1825C198.251 40.5025 198.899 40.6625 199.619 40.6625ZM209.422 43.0625V30.2465H212.566L217.726 39.3425H216.478L221.902 30.2465H224.71L224.734 43.0625H222.022V33.4625L222.502 33.7745L217.702 41.7185H216.406L211.582 33.5585L212.158 33.4145V43.0625H209.422ZM228.758 43.0625V30.2465H231.758V40.5185H237.878V30.2465H240.878V43.0625H228.758ZM240.014 45.9185V42.9905L240.71 43.0625H237.878V40.5185H242.822V45.9185H240.014ZM253.269 43.0625V40.4705L253.101 39.9185V35.3825C253.101 34.5025 252.837 33.8225 252.309 33.3425C251.781 32.8465 250.981 32.5985 249.909 32.5985C249.189 32.5985 248.477 32.7105 247.773 32.9345C247.085 33.1585 246.501 33.4705 246.021 33.8705L244.845 31.6865C245.533 31.1585 246.349 30.7665 247.293 30.5105C248.253 30.2385 249.245 30.1025 250.269 30.1025C252.125 30.1025 253.557 30.5505 254.565 31.4465C255.589 32.3265 256.101 33.6945 256.101 35.5505V43.0625H253.269ZM249.237 43.2305C248.277 43.2305 247.437 43.0705 246.717 42.7505C245.997 42.4145 245.437 41.9585 245.037 41.3825C244.653 40.7905 244.461 40.1265 244.461 39.3905C244.461 38.6705 244.629 38.0225 244.965 37.4465C245.317 36.8705 245.885 36.4145 246.669 36.0785C247.453 35.7425 248.493 35.5745 249.789 35.5745H253.509V37.5665H250.005C248.981 37.5665 248.293 37.7345 247.941 38.0705C247.589 38.3905 247.413 38.7905 247.413 39.2705C247.413 39.8145 247.629 40.2465 248.061 40.5665C248.493 40.8865 249.093 41.0465 249.861 41.0465C250.597 41.0465 251.253 40.8785 251.829 40.5425C252.421 40.2065 252.845 39.7105 253.101 39.0545L253.605 40.8545C253.317 41.6065 252.797 42.1905 252.045 42.6065C251.309 43.0225 250.373 43.2305 249.237 43.2305Z" fill="#151414"/>
<ellipse cx="206" cy="222.062" rx="93" ry="15" fill="#D9D9D9" fill-opacity="0.59"/>
<path d="M227.652 86.9935C225.084 82.9265 227.652 76.5585 229.258 73.8828L230.06 75.7558L233.003 79.7693V81.1071L227.652 86.9935Z" fill="#8E5555"/>
<path d="M227.663 87.0092C225.094 82.9422 229.531 70.6756 229.268 74.9688L230.07 75.7715L233.013 79.785V81.1228L227.663 87.0092Z" stroke="black" stroke-width="1.60539"/>
<path d="M233.276 80.8395L229.981 75.6357C229.424 74.756 230.324 73.6793 231.288 74.0717L243.979 79.2341H258.16L269.405 74.044C270.312 73.6253 271.247 74.5675 270.822 75.4714L267.792 81.9097C284.274 93.8967 289.465 117.585 290 127.931L285.184 124.988C294.816 144.788 276.889 167.798 270.735 178.768C265.812 187.545 264.403 200.085 264.314 205.257C265.295 206.595 267.364 209.967 267.792 212.749C268.327 216.228 264.581 215.96 260.3 216.228C256.019 216.495 252.541 215.693 250.935 214.355C249.651 213.284 246.476 202.493 245.049 197.231L243.176 210.609L245.049 213.552C248.527 218.368 246.387 221.044 245.852 221.847C245.317 222.649 240.768 222.114 233.811 221.847C228.246 221.633 223.644 201.779 222.038 191.879C216.259 193.164 205.895 187.42 201.436 184.387C195.014 186.314 191.803 199.639 191.001 206.06C193.141 207.933 192.874 209.271 193.141 213.017C193.409 216.763 188.593 215.96 183.509 215.96C178.425 215.96 176.82 214.89 175.749 213.017C174.893 211.519 173.252 199.906 172.539 194.287C169.542 196.642 167.366 206.328 166.652 210.876C169.595 214.89 169.328 220.509 167.723 221.579C166.117 222.649 161.033 222.649 154.879 222.382C148.725 222.114 148.458 205.793 148.19 200.441C147.923 195.09 147.388 191.879 151.134 186.528C154.13 182.247 151.847 167.977 150.331 161.377C148.405 145.965 156.663 135.334 161.033 131.945C153.756 127.878 153.72 114.731 154.612 108.666L157.555 112.145C158.411 101.87 167.009 95.734 171.201 93.9502L170.131 97.9637C177.836 94.1107 187.611 95.6448 191.536 96.8934C204.165 102.245 205.895 117.853 205.182 124.988H210.533C209.891 108.934 225.428 88.8664 233.276 80.8395Z" fill="white"/>
<path d="M239.697 98.2384C237.557 98.0244 235.684 99.5716 235.148 102.252C235.148 102.787 235.844 103.965 238.627 104.393C241.409 104.821 243.175 103.144 243.711 102.252C243.265 101.003 241.838 98.4525 239.697 98.2384Z" fill="black"/>
<path d="M260.834 98.2384C262.975 98.0244 264.848 99.5716 265.383 102.252C265.383 102.787 264.687 103.965 261.904 104.393C259.122 104.821 257.356 103.144 256.821 102.252C257.267 101.003 258.694 98.4525 260.834 98.2384Z" fill="black"/>
<path d="M249.871 114.707C248.403 115.492 245.391 116.431 243.181 114.823C242.408 114.261 241.801 113.754 241.306 113.341C239.92 112.183 239.422 111.767 238.633 112.951C237.575 114.537 242.268 125.273 249.871 125.52V125.524C249.915 125.524 249.96 125.524 250.004 125.523C250.049 125.524 250.093 125.524 250.138 125.524V125.52C257.74 125.273 262.434 114.537 261.376 112.951C260.587 111.767 260.089 112.183 258.702 113.341C258.208 113.754 257.601 114.261 256.827 114.823C254.617 116.431 251.605 115.492 250.138 114.707V114.556C250.095 114.581 250.051 114.607 250.004 114.634C249.958 114.607 249.913 114.581 249.871 114.556V114.707Z" fill="black"/>
<path d="M250.133 111.875V115.888" stroke="black" stroke-width="1.60539"/>
<path d="M254.681 108.668C254.681 110.737 252.349 113.216 250.133 113.216C247.916 113.216 245.852 110.737 245.852 108.668C245.852 106.599 247.916 105.992 250.133 105.992C252.349 105.992 254.681 106.599 254.681 108.668Z" fill="black"/>
<path d="M245.586 122.047C246.121 121.333 247.833 119.906 250.402 119.906C252.971 119.906 254.683 121.333 255.218 122.047C255.218 122.517 254.599 122.901 253.768 123.199C251.61 123.973 249.194 123.973 247.036 123.199C246.206 122.901 245.586 122.517 245.586 122.047Z" fill="#FF2727"/>
<path d="M156.214 178.771C157.071 174.061 152.647 164.144 150.328 159.773V162.717L151.933 172.884L152.469 181.981L151.933 185.46L150.328 188.135L148.188 191.881V195.895V200.979V204.992L148.99 209.273L150.328 217.568L151.666 220.243L152.469 221.581L154.342 222.384H161.566H166.917C167.541 221.849 168.79 220.35 168.79 218.638C168.79 216.497 163.439 218.37 158.087 217.568C152.736 216.765 153.539 197.5 152.469 194.022C151.398 190.543 155.144 184.657 156.214 178.771Z" fill="#E6E6E6"/>
<path d="M185.911 206.598C184.413 195.039 193.849 185.996 197.417 183.32L192.601 176.898L191.263 178.504L187.784 181.447L182.968 183.32L178.687 187.601L173.871 192.417L172.266 195.093L173.068 198.304L174.941 209.541L176.012 212.752L176.814 214.09L178.152 215.428L182.433 215.963H188.587C189.301 214.179 189.336 210.398 189.122 209.541C188.908 208.685 186.447 207.49 185.911 206.598Z" fill="#E6E6E6"/>
<path d="M221.506 183.048C212.944 182.834 202.063 174.932 197.693 171.008L195.285 173.683L192.609 177.162V178.767L198.228 183.583L207.058 188.132L213.479 191.343L219.634 192.413H222.309L221.506 183.048Z" fill="#E6E6E6"/>
<path d="M222.256 193.215C222.699 193.239 223.077 192.899 223.101 192.456C223.125 192.014 222.785 191.636 222.342 191.612L222.256 193.215ZM191.137 177.887C191.8 178.845 193.136 180.22 194.957 181.741C196.792 183.274 199.161 184.989 201.925 186.617C207.445 189.868 214.595 192.804 222.256 193.215L222.342 191.612C215.02 191.22 208.123 188.404 202.74 185.233C200.052 183.65 197.755 181.987 195.986 180.509C194.204 179.021 192.998 177.754 192.457 176.973L191.137 177.887Z" fill="black"/>
<path d="M171.734 195.621C171.913 194.462 173.661 190.966 179.226 186.256C186.183 180.37 199.026 176.892 203.575 157.359" stroke="black" stroke-width="1.60539" stroke-linecap="round"/>
<path d="M193.407 116.426C178.637 107.007 170.307 117.852 168.523 124.452L174.677 122.847L178.958 121.777H184.31L191.534 123.65L197.421 126.861L201.702 131.677C202.13 124.399 196.35 118.477 193.407 116.426Z" fill="#E6E6E6"/>
<path d="M201.706 131.943C193.357 126.592 180.3 125.521 169.062 124.986C170.775 123.06 178.606 121.686 182.173 121.508L189.13 122.311L194.749 124.986L201.706 131.943Z" fill="#B3B3B3" fill-opacity="0.49"/>
<path d="M205.449 124.446C205.365 125.96 204.583 129.378 202.16 131.558C201.924 131.77 201.56 131.704 201.384 131.44C197.486 125.613 186.178 116.749 169.328 124.446" stroke="black" stroke-width="1.60539" stroke-linecap="round"/>
<path d="M205.18 125.523C206.339 124.898 209.3 124.024 211.869 125.523" stroke="black" stroke-width="2.14052"/>
<path d="M223.955 116.915C220.68 121.775 217.149 132.76 215.613 138.365L214.543 135.689V131.675L215.078 127.662L216.951 122.311L216.416 121.24L213.205 122.846L210.797 124.986V119.367L213.205 111.34L217.754 101.173L224.978 90.2027L233.005 81.6406C229.413 85.8314 221.51 103.682 217.277 113.813C217.06 114.333 217.798 114.919 218.317 114.699C220.017 113.979 221.794 114.008 223.237 114.304C224.361 114.535 224.596 115.963 223.955 116.915Z" fill="#E6E6E6"/>
<path d="M216.57 142.844C216.826 143.206 217.327 143.291 217.689 143.034C218.05 142.778 218.135 142.277 217.879 141.915L216.57 142.844ZM216.847 122.117L217.591 122.419L216.847 122.117ZM211.808 125.839C212.218 124.882 213.727 122.836 216.471 122.188L216.102 120.626C212.758 121.416 210.897 123.89 210.333 125.207L211.808 125.839ZM216.104 121.814C215.128 124.216 214.093 127.813 213.867 131.622C213.641 135.424 214.217 139.529 216.57 142.844L217.879 141.915C215.818 139.012 215.255 135.323 215.469 131.717C215.683 128.118 216.666 124.693 217.591 122.419L216.104 121.814ZM216.471 122.188C216.418 122.201 216.35 122.199 216.283 122.174C216.22 122.15 216.174 122.111 216.143 122.072C216.084 121.996 216.071 121.896 216.104 121.814L217.591 122.419C217.782 121.95 217.69 121.448 217.413 121.09C217.129 120.722 216.638 120.499 216.102 120.626L216.471 122.188Z" fill="black"/>
<path d="M264.042 165.926C253.768 173.846 247.275 187.599 245.312 193.485V197.231L246.115 201.245L249.058 210.074L250.664 214.088L253.072 215.693L256.283 216.228L263.507 215.693L259.493 205.793C259.226 202.582 262.972 187.866 265.112 183.853C266.825 180.642 272.247 174.845 274.745 172.348L278.758 165.123L282.237 159.504L287.053 146.126L287.855 139.437V132.48L286.25 128.734C283.128 137.832 274.317 158.006 264.042 165.926Z" fill="#E6E6E6"/>
<path d="M245.047 200.439V193.482C249.952 191.609 260.138 187.114 261.636 184.117" stroke="black" stroke-width="1.60539" stroke-linecap="round"/>
<path d="M223.912 169.138C222.2 169.994 221.236 179.127 220.969 183.587L222.307 193.487L223.912 200.711L226.32 211.681L230.601 219.708L233.009 221.849H235.417L242.909 222.384C242.909 219.976 242.642 214.892 241.571 213.822C240.501 212.751 236.309 212.84 234.347 213.019C228.193 208.47 226.052 168.068 223.912 169.138Z" fill="#E6E6E6"/>
<path d="M273.677 86.1947C276.032 81.9137 273.053 75.8488 271.269 73.3516L271.002 74.957L268.861 78.4353L268.594 81.111L268.861 81.9137L271.002 84.3218L273.677 86.1947Z" fill="#8E5555"/>
<path d="M210.533 124.988C209.907 109.323 224.685 89.8361 232.693 81.4437C233.036 81.0846 233.089 80.5433 232.823 80.1241L229.087 74.2241C228.808 73.7842 229.258 73.2459 229.74 73.4421L243.979 79.2341H258.16L270.739 73.4282C271.193 73.2189 271.66 73.69 271.447 74.142L268.169 81.109C267.95 81.5737 268.095 82.1279 268.503 82.4393C283.917 94.1953 289.14 116.272 289.936 126.918C289.968 127.348 289.501 127.626 289.134 127.402L286.744 125.941C286.288 125.662 285.728 126.164 285.93 126.66C293.821 146.068 276.717 168.106 270.735 178.768C265.812 187.545 264.403 200.085 264.314 205.257C265.295 206.595 267.364 209.967 267.792 212.749C268.327 216.228 264.581 215.96 260.3 216.228C256.019 216.495 252.541 215.693 250.935 214.355C249.651 213.284 246.476 202.493 245.049 197.231L243.176 210.609L245.049 213.552C248.527 218.368 246.387 221.044 245.852 221.847C245.317 222.649 240.768 222.114 233.811 221.847C228.246 221.633 223.644 201.779 222.038 191.879M205.449 124.988C206.163 117.853 204.165 102.245 191.536 96.8934C187.792 95.7023 178.725 94.2516 171.209 97.4646C170.785 97.6458 170.318 97.2615 170.437 96.8159L170.918 95.0099C171.033 94.5792 170.608 94.2119 170.211 94.4136C165.99 96.5549 159.023 102.086 157.705 110.86C157.634 111.331 157.028 111.522 156.72 111.158L155.377 109.571C155.08 109.219 154.512 109.383 154.461 109.841C153.751 116.288 154.196 128.123 161.033 131.945C156.663 135.334 148.405 145.965 150.331 161.377C151.847 167.977 154.13 182.247 151.134 186.528C147.388 191.879 147.923 195.09 148.19 200.441C148.458 205.793 148.725 222.114 154.879 222.382C161.033 222.649 166.117 222.649 167.723 221.579C169.328 220.509 169.595 214.89 166.652 210.876C167.311 206.674 169.219 198.086 171.869 194.947C172.137 194.629 172.605 194.808 172.659 195.221C173.423 201.099 174.938 211.597 175.749 213.017C176.82 214.89 178.425 215.96 183.509 215.96C188.593 215.96 193.409 216.763 193.141 213.017C192.874 209.271 193.141 207.933 191.001 206.06C191.803 199.639 194.212 186.849 200.633 184.923" stroke="black" stroke-width="1.60539"/>
<path d="M221.224 179.031C221.046 182.956 222.027 191.607 223.097 197.761" stroke="black" stroke-width="1.60539" stroke-linecap="round"/>
<path d="M270.734 73.3516C272.607 75.7597 275.765 82.4488 273.41 86.7298" stroke="black" stroke-width="1.60539"/>
<ellipse cx="241.117" cy="100.916" rx="1.07026" ry="1.33783" fill="#FFFAFA"/>
<ellipse cx="259.312" cy="100.916" rx="1.07026" ry="1.33783" fill="#FFFAFA"/>
<rect x="20" y="178.062" width="108" height="42" rx="10" fill="#5F79FF"/>
<path d="M37.584 205.062V193.862H47.488V205.062H45.44V195.11L45.92 195.622H39.152L39.632 195.11V205.062H37.584ZM54.4061 205.175C53.4568 205.175 52.6248 204.988 51.9101 204.614C51.2061 204.23 50.6568 203.708 50.2621 203.046C49.8781 202.385 49.6861 201.633 49.6861 200.79C49.6861 199.937 49.8728 199.185 50.2461 198.534C50.6301 197.873 51.1528 197.356 51.8141 196.983C52.4861 196.609 53.2488 196.422 54.1021 196.422C54.9341 196.422 55.6755 196.604 56.3261 196.966C56.9768 197.329 57.4888 197.841 57.8621 198.502C58.2355 199.164 58.4221 199.942 58.4221 200.839C58.4221 200.924 58.4168 201.02 58.4061 201.126C58.4061 201.233 58.4008 201.334 58.3901 201.43H51.2701V200.102H57.3341L56.5501 200.518C56.5608 200.028 56.4595 199.596 56.2461 199.222C56.0328 198.849 55.7395 198.556 55.3661 198.342C55.0035 198.129 54.5821 198.022 54.1021 198.022C53.6115 198.022 53.1795 198.129 52.8061 198.342C52.4435 198.556 52.1555 198.854 51.9421 199.238C51.7395 199.612 51.6381 200.054 51.6381 200.566V200.886C51.6381 201.398 51.7555 201.852 51.9901 202.246C52.2248 202.641 52.5555 202.945 52.9821 203.158C53.4088 203.372 53.8995 203.478 54.4541 203.478C54.9341 203.478 55.3661 203.404 55.7501 203.254C56.1341 203.105 56.4755 202.87 56.7741 202.55L57.8461 203.782C57.4621 204.23 56.9768 204.577 56.3901 204.822C55.8141 205.057 55.1528 205.175 54.4061 205.175ZM65.3456 205.175C64.6523 205.175 64.0176 205.014 63.4416 204.694C62.8763 204.374 62.423 203.894 62.0816 203.254C61.751 202.604 61.5856 201.782 61.5856 200.79C61.5856 199.788 61.7456 198.966 62.0656 198.326C62.3963 197.686 62.8443 197.212 63.4096 196.902C63.975 196.582 64.6203 196.422 65.3456 196.422C66.1883 196.422 66.9296 196.604 67.5696 196.966C68.2203 197.329 68.7323 197.836 69.1056 198.486C69.4896 199.137 69.6816 199.905 69.6816 200.79C69.6816 201.676 69.4896 202.449 69.1056 203.11C68.7323 203.761 68.2203 204.268 67.5696 204.63C66.9296 204.993 66.1883 205.175 65.3456 205.175ZM60.6096 208.167V196.518H62.5136V198.534L62.4496 200.806L62.6096 203.078V208.167H60.6096ZM65.1216 203.462C65.6016 203.462 66.0283 203.356 66.4016 203.142C66.7856 202.929 67.0896 202.62 67.3136 202.214C67.5376 201.809 67.6496 201.334 67.6496 200.79C67.6496 200.236 67.5376 199.761 67.3136 199.366C67.0896 198.961 66.7856 198.652 66.4016 198.438C66.0283 198.225 65.6016 198.118 65.1216 198.118C64.6416 198.118 64.2096 198.225 63.8256 198.438C63.4416 198.652 63.1376 198.961 62.9136 199.366C62.6896 199.761 62.5776 200.236 62.5776 200.79C62.5776 201.334 62.6896 201.809 62.9136 202.214C63.1376 202.62 63.4416 202.929 63.8256 203.142C64.2096 203.356 64.6416 203.462 65.1216 203.462ZM75.6561 205.175C74.7068 205.175 73.8748 204.988 73.1601 204.614C72.4561 204.23 71.9068 203.708 71.5121 203.046C71.1281 202.385 70.9361 201.633 70.9361 200.79C70.9361 199.937 71.1228 199.185 71.4961 198.534C71.8801 197.873 72.4028 197.356 73.0641 196.983C73.7361 196.609 74.4988 196.422 75.3521 196.422C76.1841 196.422 76.9255 196.604 77.5761 196.966C78.2268 197.329 78.7388 197.841 79.1121 198.502C79.4855 199.164 79.6721 199.942 79.6721 200.839C79.6721 200.924 79.6668 201.02 79.6561 201.126C79.6561 201.233 79.6508 201.334 79.6401 201.43H72.5201V200.102H78.5841L77.8001 200.518C77.8108 200.028 77.7095 199.596 77.4961 199.222C77.2828 198.849 76.9895 198.556 76.6161 198.342C76.2535 198.129 75.8321 198.022 75.3521 198.022C74.8615 198.022 74.4295 198.129 74.0561 198.342C73.6935 198.556 73.4055 198.854 73.1921 199.238C72.9895 199.612 72.8881 200.054 72.8881 200.566V200.886C72.8881 201.398 73.0055 201.852 73.2401 202.246C73.4748 202.641 73.8055 202.945 74.2321 203.158C74.6588 203.372 75.1495 203.478 75.7041 203.478C76.1841 203.478 76.6161 203.404 77.0001 203.254C77.3841 203.105 77.7255 202.87 78.0241 202.55L79.0961 203.782C78.7121 204.23 78.2268 204.577 77.6401 204.822C77.0641 205.057 76.4028 205.175 75.6561 205.175ZM81.8596 205.062V196.518H83.8596V202.15L88.5796 196.518H90.4036V205.062H88.4036V199.43L83.6996 205.062H81.8596ZM86.0036 195.51C85.1503 195.51 84.4943 195.313 84.0356 194.918C83.577 194.513 83.3423 193.926 83.3316 193.158H84.6596C84.6703 193.542 84.7876 193.846 85.0116 194.07C85.2463 194.294 85.5716 194.406 85.9876 194.406C86.393 194.406 86.713 194.294 86.9476 194.07C87.193 193.846 87.321 193.542 87.3316 193.158H88.6916C88.681 193.926 88.441 194.513 87.9716 194.918C87.513 195.313 86.857 195.51 86.0036 195.51ZM94.87 205.062V197.734L95.334 198.214H91.862V196.518H99.862V198.214H96.406L96.87 197.734V205.062H94.87ZM101.313 205.062V196.518H103.313V202.15L108.033 196.518H109.857V205.062H107.857V199.43L103.153 205.062H101.313Z" fill="white"/>
</svg>
