<svg width="319" height="246" viewBox="0 0 319 246" fill="none" xmlns="http://www.w3.org/2000/svg">
<rect y="0.0625" width="319" height="245" rx="25" fill="white"/>
<path d="M22.376 43.0625V26.2625H37.232V43.0625H34.16V28.1345L34.88 28.9025H24.728L25.448 28.1345V43.0625H22.376ZM47.6092 43.2305C46.1852 43.2305 44.9372 42.9505 43.8652 42.3905C42.8092 41.8145 41.9852 41.0305 41.3932 40.0385C40.8172 39.0465 40.5292 37.9185 40.5292 36.6545C40.5292 35.3745 40.8092 34.2465 41.3692 33.2705C41.9452 32.2785 42.7292 31.5025 43.7212 30.9425C44.7292 30.3825 45.8732 30.1025 47.1532 30.1025C48.4012 30.1025 49.5132 30.3745 50.4892 30.9185C51.4652 31.4625 52.2332 32.2305 52.7932 33.2225C53.3532 34.2145 53.6332 35.3825 53.6332 36.7265C53.6332 36.8545 53.6252 36.9985 53.6092 37.1585C53.6092 37.3185 53.6012 37.4705 53.5852 37.6145H42.9052V35.6225H52.0012L50.8252 36.2465C50.8412 35.5105 50.6892 34.8625 50.3692 34.3025C50.0492 33.7425 49.6092 33.3025 49.0492 32.9825C48.5052 32.6625 47.8732 32.5025 47.1532 32.5025C46.4172 32.5025 45.7692 32.6625 45.2092 32.9825C44.6652 33.3025 44.2332 33.7505 43.9132 34.3265C43.6092 34.8865 43.4572 35.5505 43.4572 36.3185V36.7985C43.4572 37.5665 43.6332 38.2465 43.9852 38.8385C44.3372 39.4305 44.8332 39.8865 45.4732 40.2065C46.1132 40.5265 46.8492 40.6865 47.6812 40.6865C48.4012 40.6865 49.0492 40.5745 49.6252 40.3505C50.2012 40.1265 50.7132 39.7745 51.1612 39.2945L52.7692 41.1425C52.1932 41.8145 51.4652 42.3345 50.5852 42.7025C49.7212 43.0545 48.7292 43.2305 47.6092 43.2305ZM64.0184 43.2305C62.9784 43.2305 62.0264 42.9905 61.1624 42.5105C60.3144 42.0305 59.6344 41.3105 59.1224 40.3505C58.6264 39.3745 58.3784 38.1425 58.3784 36.6545C58.3784 35.1505 58.6184 33.9185 59.0984 32.9585C59.5944 31.9985 60.2664 31.2865 61.1144 30.8225C61.9624 30.3425 62.9304 30.1025 64.0184 30.1025C65.2824 30.1025 66.3944 30.3745 67.3544 30.9185C68.3304 31.4625 69.0984 32.2225 69.6584 33.1985C70.2344 34.1745 70.5224 35.3265 70.5224 36.6545C70.5224 37.9825 70.2344 39.1425 69.6584 40.1345C69.0984 41.1105 68.3304 41.8705 67.3544 42.4145C66.3944 42.9585 65.2824 43.2305 64.0184 43.2305ZM56.9144 47.7185V30.2465H59.7704V33.2705L59.6744 36.6785L59.9144 40.0865V47.7185H56.9144ZM63.6824 40.6625C64.4024 40.6625 65.0424 40.5025 65.6024 40.1825C66.1784 39.8625 66.6344 39.3985 66.9704 38.7905C67.3064 38.1825 67.4744 37.4705 67.4744 36.6545C67.4744 35.8225 67.3064 35.1105 66.9704 34.5185C66.6344 33.9105 66.1784 33.4465 65.6024 33.1265C65.0424 32.8065 64.4024 32.6465 63.6824 32.6465C62.9624 32.6465 62.3144 32.8065 61.7384 33.1265C61.1624 33.4465 60.7064 33.9105 60.3704 34.5185C60.0344 35.1105 59.8664 35.8225 59.8664 36.6545C59.8664 37.4705 60.0344 38.1825 60.3704 38.7905C60.7064 39.3985 61.1624 39.8625 61.7384 40.1825C62.3144 40.5025 62.9624 40.6625 63.6824 40.6625ZM79.4842 43.2305C78.0602 43.2305 76.8122 42.9505 75.7402 42.3905C74.6842 41.8145 73.8602 41.0305 73.2682 40.0385C72.6922 39.0465 72.4042 37.9185 72.4042 36.6545C72.4042 35.3745 72.6842 34.2465 73.2442 33.2705C73.8202 32.2785 74.6042 31.5025 75.5962 30.9425C76.6042 30.3825 77.7482 30.1025 79.0282 30.1025C80.2762 30.1025 81.3882 30.3745 82.3642 30.9185C83.3402 31.4625 84.1082 32.2305 84.6682 33.2225C85.2282 34.2145 85.5082 35.3825 85.5082 36.7265C85.5082 36.8545 85.5002 36.9985 85.4842 37.1585C85.4842 37.3185 85.4762 37.4705 85.4602 37.6145H74.7802V35.6225H83.8762L82.7002 36.2465C82.7162 35.5105 82.5642 34.8625 82.2442 34.3025C81.9242 33.7425 81.4842 33.3025 80.9242 32.9825C80.3802 32.6625 79.7482 32.5025 79.0282 32.5025C78.2922 32.5025 77.6442 32.6625 77.0842 32.9825C76.5402 33.3025 76.1082 33.7505 75.7882 34.3265C75.4842 34.8865 75.3322 35.5505 75.3322 36.3185V36.7985C75.3322 37.5665 75.5082 38.2465 75.8602 38.8385C76.2122 39.4305 76.7082 39.8865 77.3482 40.2065C77.9882 40.5265 78.7242 40.6865 79.5562 40.6865C80.2762 40.6865 80.9242 40.5745 81.5002 40.3505C82.0762 40.1265 82.5882 39.7745 83.0362 39.2945L84.6442 41.1425C84.0682 41.8145 83.3402 42.3345 82.4602 42.7025C81.5962 43.0545 80.6042 43.2305 79.4842 43.2305ZM88.7894 43.0625V30.2465H95.0534C96.6054 30.2465 97.8214 30.5345 98.7014 31.1105C99.5974 31.6865 100.045 32.5025 100.045 33.5585C100.045 34.5985 99.6294 35.4145 98.7974 36.0065C97.9654 36.5825 96.8614 36.8705 95.4854 36.8705L95.8454 36.1265C97.3974 36.1265 98.5494 36.4145 99.3014 36.9905C100.069 37.5505 100.453 38.3745 100.453 39.4625C100.453 40.5985 100.029 41.4865 99.1814 42.1265C98.3334 42.7505 97.0454 43.0625 95.3174 43.0625H88.7894ZM91.6454 40.8785H95.0774C95.8934 40.8785 96.5094 40.7505 96.9254 40.4945C97.3414 40.2225 97.5494 39.8145 97.5494 39.2705C97.5494 38.6945 97.3574 38.2705 96.9734 37.9985C96.5894 37.7265 95.9894 37.5905 95.1734 37.5905H91.6454V40.8785ZM91.6454 35.5985H94.7894C95.5574 35.5985 96.1334 35.4625 96.5174 35.1905C96.9174 34.9025 97.1174 34.5025 97.1174 33.9905C97.1174 33.4625 96.9174 33.0705 96.5174 32.8145C96.1334 32.5585 95.5574 32.4305 94.7894 32.4305H91.6454V35.5985ZM109.361 43.2305C108.049 43.2305 106.881 42.9505 105.857 42.3905C104.833 41.8145 104.025 41.0305 103.433 40.0385C102.841 39.0465 102.545 37.9185 102.545 36.6545C102.545 35.3745 102.841 34.2465 103.433 33.2705C104.025 32.2785 104.833 31.5025 105.857 30.9425C106.881 30.3825 108.049 30.1025 109.361 30.1025C110.689 30.1025 111.865 30.3825 112.889 30.9425C113.929 31.5025 114.737 32.2705 115.313 33.2465C115.905 34.2225 116.201 35.3585 116.201 36.6545C116.201 37.9185 115.905 39.0465 115.313 40.0385C114.737 41.0305 113.929 41.8145 112.889 42.3905C111.865 42.9505 110.689 43.2305 109.361 43.2305ZM109.361 40.6625C110.097 40.6625 110.753 40.5025 111.329 40.1825C111.905 39.8625 112.353 39.3985 112.673 38.7905C113.009 38.1825 113.177 37.4705 113.177 36.6545C113.177 35.8225 113.009 35.1105 112.673 34.5185C112.353 33.9105 111.905 33.4465 111.329 33.1265C110.753 32.8065 110.105 32.6465 109.385 32.6465C108.649 32.6465 107.993 32.8065 107.417 33.1265C106.857 33.4465 106.409 33.9105 106.073 34.5185C105.737 35.1105 105.569 35.8225 105.569 36.6545C105.569 37.4705 105.737 38.1825 106.073 38.7905C106.409 39.3985 106.857 39.8625 107.417 40.1825C107.993 40.5025 108.641 40.6625 109.361 40.6625ZM123.033 43.2785C122.057 43.2785 121.089 43.1665 120.129 42.9425C119.185 42.7025 118.329 42.3665 117.561 41.9345L118.401 39.7025C119.025 40.0545 119.729 40.3265 120.513 40.5185C121.297 40.7105 122.081 40.8065 122.865 40.8065C123.537 40.8065 124.113 40.7425 124.593 40.6145C125.073 40.4705 125.441 40.2625 125.697 39.9905C125.969 39.7185 126.105 39.4065 126.105 39.0545C126.105 38.5425 125.881 38.1585 125.433 37.9025C125.001 37.6305 124.377 37.4945 123.561 37.4945H121.089V35.4785H123.321C123.833 35.4785 124.265 35.4225 124.617 35.3105C124.985 35.1985 125.265 35.0305 125.457 34.8065C125.649 34.5825 125.745 34.3185 125.745 34.0145C125.745 33.7105 125.625 33.4465 125.385 33.2225C125.161 32.9825 124.833 32.8065 124.401 32.6945C123.969 32.5665 123.449 32.5025 122.841 32.5025C122.201 32.5025 121.537 32.5825 120.849 32.7425C120.177 32.9025 119.489 33.1345 118.785 33.4385L118.017 31.2305C118.833 30.8625 119.625 30.5825 120.393 30.3905C121.177 30.1825 121.953 30.0705 122.721 30.0545C123.889 30.0065 124.929 30.1265 125.841 30.4145C126.753 30.7025 127.473 31.1185 128.001 31.6625C128.529 32.2065 128.793 32.8465 128.793 33.5825C128.793 34.1905 128.601 34.7425 128.217 35.2385C127.849 35.7185 127.337 36.0945 126.681 36.3665C126.041 36.6385 125.305 36.7745 124.473 36.7745L124.569 36.1265C125.993 36.1265 127.113 36.4145 127.929 36.9905C128.745 37.5505 129.153 38.3185 129.153 39.2945C129.153 40.0785 128.889 40.7745 128.361 41.3825C127.833 41.9745 127.105 42.4385 126.177 42.7745C125.265 43.1105 124.217 43.2785 123.033 43.2785ZM141.435 43.0625L136.803 36.9185L139.251 35.4065L144.963 43.0625H141.435ZM132.243 43.0625V30.2465H135.243V43.0625H132.243ZM134.355 37.9265V35.4305H138.699V37.9265H134.355ZM139.539 37.0145L136.731 36.6785L141.435 30.2465H144.651L139.539 37.0145ZM154.62 43.0625V40.4705L154.452 39.9185V35.3825C154.452 34.5025 154.188 33.8225 153.66 33.3425C153.132 32.8465 152.332 32.5985 151.26 32.5985C150.54 32.5985 149.828 32.7105 149.124 32.9345C148.436 33.1585 147.852 33.4705 147.372 33.8705L146.196 31.6865C146.884 31.1585 147.7 30.7665 148.644 30.5105C149.604 30.2385 150.596 30.1025 151.62 30.1025C153.476 30.1025 154.908 30.5505 155.916 31.4465C156.94 32.3265 157.452 33.6945 157.452 35.5505V43.0625H154.62ZM150.588 43.2305C149.628 43.2305 148.788 43.0705 148.068 42.7505C147.348 42.4145 146.788 41.9585 146.388 41.3825C146.004 40.7905 145.812 40.1265 145.812 39.3905C145.812 38.6705 145.98 38.0225 146.316 37.4465C146.668 36.8705 147.236 36.4145 148.02 36.0785C148.804 35.7425 149.844 35.5745 151.14 35.5745H154.86V37.5665H151.356C150.332 37.5665 149.644 37.7345 149.292 38.0705C148.94 38.3905 148.764 38.7905 148.764 39.2705C148.764 39.8145 148.98 40.2465 149.412 40.5665C149.844 40.8865 150.444 41.0465 151.212 41.0465C151.948 41.0465 152.604 40.8785 153.18 40.5425C153.772 40.2065 154.196 39.7105 154.452 39.0545L154.956 40.8545C154.668 41.6065 154.148 42.1905 153.396 42.6065C152.66 43.0225 151.724 43.2305 150.588 43.2305ZM37.304 72.0625L33.56 65.9185L36.008 64.4065L40.88 72.0625H37.304ZM31.136 66.9265V64.4305H35.432V66.9265H31.136ZM36.296 66.0145L33.464 65.6785L37.352 59.2465H40.544L36.296 66.0145ZM23.768 72.0625H20.216L25.064 64.4065L27.512 65.9185L23.768 72.0625ZM32.024 72.0625H29.048V59.2465H32.024V72.0625ZM29.936 66.9265H25.664V64.4305H29.936V66.9265ZM24.776 66.0145L20.528 59.2465H23.72L27.584 65.6785L24.776 66.0145ZM43.1098 72.0625V59.2465H46.1098V67.6945L53.1898 59.2465H55.9258V72.0625H52.9258V63.6145L45.8698 72.0625H43.1098ZM59.9613 72.0625V59.2465H66.2253C67.7773 59.2465 68.9933 59.5345 69.8733 60.1105C70.7693 60.6865 71.2173 61.5025 71.2173 62.5585C71.2173 63.5985 70.8013 64.4145 69.9693 65.0065C69.1373 65.5825 68.0333 65.8705 66.6573 65.8705L67.0173 65.1265C68.5693 65.1265 69.7213 65.4145 70.4733 65.9905C71.2413 66.5505 71.6253 67.3745 71.6253 68.4625C71.6253 69.5985 71.2013 70.4865 70.3533 71.1265C69.5053 71.7505 68.2173 72.0625 66.4893 72.0625H59.9613ZM62.8173 69.8785H66.2493C67.0653 69.8785 67.6813 69.7505 68.0973 69.4945C68.5133 69.2225 68.7213 68.8145 68.7213 68.2705C68.7213 67.6945 68.5293 67.2705 68.1453 66.9985C67.7613 66.7265 67.1613 66.5905 66.3453 66.5905H62.8173V69.8785ZM62.8173 64.5985H65.9613C66.7293 64.5985 67.3053 64.4625 67.6893 64.1905C68.0893 63.9025 68.2893 63.5025 68.2893 62.9905C68.2893 62.4625 68.0893 62.0705 67.6893 61.8145C67.3053 61.5585 66.7293 61.4305 65.9613 61.4305H62.8173V64.5985ZM80.5327 72.2305C79.2207 72.2305 78.0527 71.9505 77.0287 71.3905C76.0047 70.8145 75.1967 70.0305 74.6047 69.0385C74.0127 68.0465 73.7167 66.9185 73.7167 65.6545C73.7167 64.3745 74.0127 63.2465 74.6047 62.2705C75.1967 61.2785 76.0047 60.5025 77.0287 59.9425C78.0527 59.3825 79.2207 59.1025 80.5327 59.1025C81.8607 59.1025 83.0367 59.3825 84.0607 59.9425C85.1007 60.5025 85.9087 61.2705 86.4847 62.2465C87.0767 63.2225 87.3727 64.3585 87.3727 65.6545C87.3727 66.9185 87.0767 68.0465 86.4847 69.0385C85.9087 70.0305 85.1007 70.8145 84.0607 71.3905C83.0367 71.9505 81.8607 72.2305 80.5327 72.2305ZM80.5327 69.6625C81.2687 69.6625 81.9247 69.5025 82.5007 69.1825C83.0767 68.8625 83.5247 68.3985 83.8447 67.7905C84.1807 67.1825 84.3487 66.4705 84.3487 65.6545C84.3487 64.8225 84.1807 64.1105 83.8447 63.5185C83.5247 62.9105 83.0767 62.4465 82.5007 62.1265C81.9247 61.8065 81.2767 61.6465 80.5567 61.6465C79.8207 61.6465 79.1647 61.8065 78.5887 62.1265C78.0287 62.4465 77.5807 62.9105 77.2447 63.5185C76.9087 64.1105 76.7407 64.8225 76.7407 65.6545C76.7407 66.4705 76.9087 67.1825 77.2447 67.7905C77.5807 68.3985 78.0287 68.8625 78.5887 69.1825C79.1647 69.5025 79.8127 69.6625 80.5327 69.6625ZM92.5316 72.0625V61.0705L93.2276 61.7905H88.0196V59.2465H100.02V61.7905H94.8356L95.5316 61.0705V72.0625H92.5316ZM102.196 72.0625V59.2465H105.196V64.4545H111.652V59.2465H114.652V72.0625H111.652V66.9985H105.196V72.0625H102.196ZM131.608 72.0625V59.2465H134.608V72.0625H131.608ZM124.912 63.4705C126.56 63.4705 127.808 63.8385 128.656 64.5745C129.52 65.3105 129.952 66.3505 129.952 67.6945C129.952 69.0865 129.472 70.1745 128.512 70.9585C127.568 71.7265 126.224 72.1025 124.48 72.0865L118.672 72.0625V59.2465H121.672V63.4465L124.912 63.4705ZM124.216 69.8785C125.096 69.8945 125.768 69.7105 126.232 69.3265C126.696 68.9425 126.928 68.3825 126.928 67.6465C126.928 66.9105 126.696 66.3825 126.232 66.0625C125.784 65.7265 125.112 65.5505 124.216 65.5345L121.672 65.5105V69.8545L124.216 69.8785ZM136.745 72.0625L142.385 64.7185L142.337 66.3265L136.961 59.2465H140.297L144.065 64.2865H142.793L146.585 59.2465H149.825L144.401 66.3265L144.425 64.7185L150.041 72.0625H146.657L142.697 66.7105L143.945 66.8785L140.057 72.0625H136.745Z" fill="#151414"/>
<ellipse cx="202" cy="222.062" rx="93" ry="15" fill="#D9D9D9" fill-opacity="0.59"/>
<path d="M156.545 209.066H139.877C133.405 216.517 137.997 223.283 141.102 225.734H152.378C156.888 225.734 158.343 222.793 158.506 221.322L175.42 221.077C176.008 223.234 178.28 225.08 179.342 225.734H192.824C199.442 223.773 198.172 215.903 197.726 213.233C197.236 210.291 195.275 208.437 192.824 208.33C189.065 208.167 181.107 208.085 179.342 209.066C177.136 210.291 174.93 213.968 172.969 213.233C171.4 212.644 171.171 208.739 171.253 206.859H161.938C162.722 210.977 160.14 212.824 158.751 213.233C158.947 212.056 157.362 209.964 156.545 209.066Z" fill="white"/>
<path d="M220.123 209.066H203.455C196.984 216.517 201.576 223.283 204.68 225.734H215.956C220.467 225.734 221.921 222.793 222.084 221.322L238.998 221.077C239.586 223.234 241.858 225.08 242.92 225.734H256.402C263.02 223.773 261.75 215.903 261.304 213.233C260.814 210.291 258.853 208.437 256.402 208.33C252.643 208.167 244.685 208.085 242.92 209.066C240.714 210.291 238.508 213.968 236.547 213.233C234.978 212.644 234.749 208.739 234.831 206.859H225.516C226.301 210.977 223.719 212.824 222.33 213.233C222.526 212.056 220.94 209.964 220.123 209.066Z" fill="white"/>
<path d="M120.517 163.491C121.89 169.962 127.462 174.685 130.077 176.238C135.372 176.238 152.22 182.768 159.982 186.034C168.023 197.015 178.53 198.944 182.779 198.535C194.3 198.372 217.979 197.898 220.528 197.309C223.078 196.721 226.33 194.45 227.637 193.387C227.833 195.544 229.68 196.901 230.579 197.309C237.638 199.466 248.718 196.411 253.375 194.613C263.572 190.887 267.429 180.477 268.083 175.738C270.779 164.953 268.083 151.716 257.052 139.215C248.228 129.213 229.026 129.328 220.528 130.635L218.567 126.958L217.587 114.958C216.852 104.908 211.459 88.2391 201.654 88.7293C193.81 89.1215 187.11 98.0431 184.74 102.455C180.818 101.965 170.768 101.278 161.943 102.455C150.913 103.926 145.03 109.564 135.47 116.917C125.91 124.271 121.988 136.527 120.517 141.92C119.046 147.313 118.801 155.402 120.517 163.491Z" fill="white"/>
<path d="M192.815 208.336C190.691 208.581 186.54 210.64 186.932 216.915C187.422 224.759 191.589 225.74 192.815 225.74" stroke="black" stroke-width="1.47075"/>
<path d="M256.393 208.336C254.269 208.581 250.118 210.64 250.51 216.915C251.001 224.759 255.167 225.74 256.393 225.74" stroke="black" stroke-width="1.47075"/>
<path d="M158.752 213.241C156.79 212.749 153.601 212.496 153.602 216.425C153.602 221.328 156.547 221.574 158.753 221.329" stroke="black" stroke-width="1.47075"/>
<path d="M222.322 213.241C220.36 212.749 217.171 212.496 217.172 216.425C217.173 221.328 220.118 221.574 222.323 221.329" stroke="black" stroke-width="1.47075"/>
<path d="M177.383 210.539C176.076 212.255 173.854 216.765 175.422 221.079" stroke="black" stroke-width="1.47075"/>
<path d="M240.954 210.539C239.646 212.255 237.424 216.765 238.993 221.079" stroke="black" stroke-width="1.47075"/>
<path d="M156.545 209.066H139.877C133.405 216.517 137.997 223.283 141.102 225.734H152.378C156.888 225.734 158.343 222.793 158.506 221.322L175.42 221.077C176.008 223.234 178.28 225.08 179.342 225.734H192.824C199.442 223.773 198.172 215.903 197.726 213.233C197.236 210.291 195.275 208.437 192.824 208.33C189.065 208.167 181.107 208.085 179.342 209.066C177.136 210.291 174.93 213.968 172.969 213.233C171.4 212.644 171.171 208.739 171.253 206.859H161.938C162.722 210.977 160.14 212.824 158.751 213.233C158.947 212.056 157.362 209.964 156.545 209.066Z" stroke="black" stroke-width="1.47075"/>
<path d="M220.123 209.066H203.455C196.984 216.517 201.576 223.283 204.68 225.734H215.956C220.467 225.734 221.921 222.793 222.084 221.322L238.998 221.077C239.586 223.234 241.858 225.08 242.92 225.734H256.402C263.02 223.773 261.75 215.903 261.304 213.233C260.814 210.291 258.853 208.437 256.402 208.33C252.643 208.167 244.685 208.085 242.92 209.066C240.714 210.291 238.508 213.968 236.547 213.233C234.978 212.644 234.749 208.739 234.831 206.859H225.516C226.301 210.977 223.719 212.824 222.33 213.233C222.526 212.056 220.94 209.964 220.123 209.066Z" stroke="black" stroke-width="1.47075"/>
<path d="M151.888 209.078C149.028 211.203 145.171 217.51 152.623 225.747" stroke="black" stroke-width="1.47075"/>
<path d="M215.458 209.078C212.598 211.203 208.742 217.51 216.193 225.747" stroke="black" stroke-width="1.47075"/>
<path d="M227.637 193.879C227.31 191.264 229.108 185.692 238.913 184.319C234.582 182.031 227.832 174.024 235.48 160.297" stroke="black" stroke-width="1.47075"/>
<path d="M220.282 129.891C226.557 175.778 174.198 183.328 147.234 181.367L159.736 186.27L165.619 192.153C170.129 197.447 178.774 198.444 182.532 198.281C179.003 187.299 185.637 183.083 189.396 182.347L206.31 178.671C212.193 177.2 218.811 170.581 222.488 164.944C226.165 159.306 224.939 149.746 224.939 146.804C224.939 144.451 221.834 134.548 220.282 129.891Z" fill="black" fill-opacity="0.23"/>
<path d="M148.706 88.4718C137.724 88.6679 132.691 110.125 131.547 120.828L140.862 112.981L147.97 108.079L153.118 104.647L162.188 102.199C162.269 97.5415 159.687 88.2757 148.706 88.4718Z" fill="white"/>
<path d="M184.738 102.195C183.431 104.156 180.914 108.667 181.307 111.02" stroke="black" stroke-width="1.47075"/>
<path d="M202.389 101.209C199.644 101.602 194.382 109.871 192.094 113.956C196.212 120.623 204.432 121.473 208.027 121.065C208.19 118.369 208.419 112.044 208.027 108.318C207.537 103.661 205.821 100.719 202.389 101.209Z" fill="#C4C4C4"/>
<path d="M144.781 110.045C152.233 102.593 153.279 92.7225 152.87 88.7188L155.077 89.6993L158.508 92.3956L160.469 94.6018L162.185 100.485V102.691L159.244 103.181L153.851 104.652L144.781 110.045Z" fill="#C4C4C4"/>
<path d="M187.678 198.28C186.942 196.809 185.913 193.475 187.678 191.906" stroke="black" stroke-width="1.47075"/>
<path d="M194.785 198.531C194.295 197.061 193.314 195.835 194.295 192.648" stroke="black" stroke-width="1.47075"/>
<path d="M234.498 130.386C228.026 130.582 224.611 138.311 223.712 142.152L222.977 138.965L221.751 135.288L221.016 131.366V130.386L226.163 130.141L234.498 130.386Z" fill="#C4C4C4"/>
<path d="M271.021 145.829C267.883 145.633 264.648 147.218 263.422 148.035L264.402 149.75L267.834 156.858C268.406 155.96 270.187 154.946 272.737 158.084C275.923 162.006 284.258 166.909 292.592 166.173C300.926 165.438 303.622 159.8 302.887 154.162C302.152 148.524 297.004 148.769 288.915 151.956C280.826 155.143 274.943 146.074 271.021 145.829Z" fill="white"/>
<path d="M287.939 166.166C284.213 164.008 285.406 156.279 286.468 152.684L289.409 151.948L291.86 150.723L294.801 149.987L297.498 149.742H298.723L300.684 150.723L302.155 151.948L302.645 154.154V157.831L301.42 161.753L296.272 165.43L291.86 166.166H287.939Z" fill="#C4C4C4"/>
<path d="M138.162 175.976C120.121 174.211 118.062 185.373 119.287 191.174C119.287 200.39 128.929 205.146 133.75 206.372H178.608C196.665 207.353 236.408 208.333 250.92 204.411C269.059 199.509 272.246 187.988 273.961 182.35C275.334 177.84 270.775 176.549 268.324 176.467C263.421 193.92 245.2 197.629 236.702 197.303C220.524 198.447 185.765 200.048 176.156 197.303C164.145 193.871 160.713 178.182 138.162 175.976Z" fill="white"/>
<path d="M267.835 177.689L268.816 176.953H270.777L273.228 178.424L273.963 181.365L272.493 187.003L270.041 191.17L266.61 196.073L261.217 200.485L252.147 204.162L246.019 205.633L228.615 206.613H186.699C176.648 207.349 162.157 198.069 158.019 194.602C148.949 187.003 144.116 183.081 133.261 183.081C119.289 183.081 120.596 191.334 119.289 194.602V184.797" stroke="black" stroke-width="1.47075"/>
<path d="M138.162 175.976C120.121 174.211 118.062 185.373 119.287 191.174C119.287 200.39 128.929 205.146 133.75 206.372H178.608C196.665 207.353 236.408 208.333 250.92 204.411C269.059 199.509 272.246 187.988 273.961 182.35C275.334 177.84 270.775 176.549 268.324 176.467C263.421 193.92 245.2 197.629 236.702 197.303C220.524 198.447 185.765 200.048 176.156 197.303C164.145 193.871 160.713 178.182 138.162 175.976Z" stroke="black" stroke-width="1.47075"/>
<path d="M194.536 216.669C194.536 217.574 194.315 218.358 193.995 218.891C193.666 219.438 193.315 219.611 193.066 219.611C192.816 219.611 192.465 219.438 192.136 218.891C191.816 218.358 191.595 217.574 191.595 216.669C191.595 215.764 191.816 214.98 192.136 214.447C192.465 213.9 192.816 213.728 193.066 213.728C193.315 213.728 193.666 213.9 193.995 214.447C194.315 214.98 194.536 215.764 194.536 216.669Z" stroke="black" stroke-width="1.47075"/>
<path d="M258.114 216.669C258.114 217.574 257.893 218.358 257.573 218.891C257.244 219.438 256.893 219.611 256.644 219.611C256.394 219.611 256.043 219.438 255.714 218.891C255.394 218.358 255.173 217.574 255.173 216.669C255.173 215.764 255.394 214.98 255.714 214.447C256.043 213.9 256.394 213.728 256.644 213.728C256.893 213.728 257.244 213.9 257.573 214.447C257.893 214.98 258.114 215.764 258.114 216.669Z" stroke="black" stroke-width="1.47075"/>
<ellipse cx="140.615" cy="148.285" rx="7.59889" ry="8.82452" fill="#484F87"/>
<ellipse cx="179.833" cy="148.285" rx="7.59889" ry="8.82452" fill="#484F87"/>
<ellipse cx="138.163" cy="145.828" rx="3.18663" ry="3.92201" fill="white"/>
<ellipse cx="177.382" cy="145.828" rx="3.18663" ry="3.92201" fill="white"/>
<ellipse cx="141.591" cy="151.219" rx="1.71588" ry="1.961" fill="white"/>
<ellipse cx="180.81" cy="151.219" rx="1.71588" ry="1.961" fill="white"/>
<path d="M160.468 153.168C159.095 151.795 156.464 152.353 155.32 152.925C155.32 153.906 156.595 155.62 157.772 155.62C158.948 155.62 160.223 153.904 160.468 153.168Z" fill="black"/>
<path d="M157.773 155.391V159.313" stroke="black" stroke-width="1.47075"/>
<path d="M149.188 158.328C150.168 160.453 153.257 163.574 157.767 159.064C159.728 161.106 164.581 163.819 168.307 158.328" stroke="black" stroke-width="1.47075"/>
<path d="M158.754 174.257C154.048 174.846 153.525 165.841 153.852 161.266L154.832 161.021L155.813 160.53L157.039 159.795L157.774 159.305L159.49 160.53L160.961 161.266L162.186 161.511H164.392L165.618 161.021L166.844 160.04C166.353 167.639 164.637 173.522 158.754 174.257Z" fill="#150920"/>
<path d="M166.35 163.969C159.682 164.557 158.016 171.077 158.016 174.264L159.977 174.019L161.938 173.284L163.408 171.813L164.634 170.342L165.369 168.381L166.105 165.93L166.35 163.969Z" fill="#FF6969"/>
<path d="M158.754 174.257C154.048 174.846 153.525 165.841 153.852 161.266L154.832 161.021L155.813 160.53L157.039 159.795L157.774 159.305L159.49 160.53L160.961 161.266L162.186 161.511H164.392L165.618 161.021L166.844 160.04C166.353 167.639 164.637 173.522 158.754 174.257Z" stroke="#150920" stroke-width="1.47075"/>
<path d="M183.753 198.778C181.628 196.245 178.654 189.953 183.753 185.051C190.126 178.923 200.176 182.845 211.942 175.981C223.708 169.118 229.101 157.106 220.521 130.633" stroke="black" stroke-width="1.47075"/>
<path d="M271.021 145.829C267.883 145.633 264.648 147.218 263.422 148.035L264.402 149.75L267.834 156.858C268.406 155.96 270.187 154.946 272.737 158.084C275.923 162.006 284.258 166.909 292.592 166.173C300.926 165.438 303.622 159.8 302.887 154.162C302.152 148.524 297.004 148.769 288.915 151.956C280.826 155.143 274.943 146.074 271.021 145.829Z" stroke="black" stroke-width="1.47075"/>
<path d="M148.706 88.4718C137.724 88.6679 132.691 110.125 131.547 120.828L140.862 112.981L147.97 108.079L153.118 104.647L162.188 102.199C162.269 97.5415 159.687 88.2757 148.706 88.4718Z" stroke="black" stroke-width="1.47075"/>
<path d="M130.077 176.238C127.462 174.685 121.89 169.962 120.517 163.491C118.801 155.402 119.046 147.313 120.517 141.92C121.988 136.527 125.91 124.271 135.47 116.917C145.03 109.564 150.913 103.926 161.943 102.455C170.768 101.278 180.818 101.965 184.74 102.455C187.11 98.0431 193.81 89.1215 201.654 88.7293C211.459 88.2391 216.852 104.908 217.587 114.958L218.567 126.958L220.528 130.635C229.026 129.328 248.228 129.213 257.052 139.215C268.083 151.716 270.779 164.953 268.083 175.738C267.429 180.477 263.572 190.887 253.375 194.613C248.718 196.411 237.638 199.466 230.579 197.309C229.68 196.901 227.833 195.544 227.637 193.387C226.33 194.45 223.078 196.721 220.528 197.309C217.979 197.898 194.3 198.372 182.779 198.535" stroke="black" stroke-width="1.47075"/>
<path d="M233.227 197.31C232.41 196.166 231.021 193.437 232.001 191.672" stroke="black" stroke-width="1.47075"/>
<path d="M239.847 197.059C239.112 196.16 237.739 193.921 238.132 192.156" stroke="black" stroke-width="1.47075"/>
<rect x="20" y="178.062" width="108" height="42" rx="10" fill="#5F79FF"/>
<path d="M37.584 205.062V193.862H47.488V205.062H45.44V195.11L45.92 195.622H39.152L39.632 195.11V205.062H37.584ZM54.4061 205.175C53.4568 205.175 52.6248 204.988 51.9101 204.614C51.2061 204.23 50.6568 203.708 50.2621 203.046C49.8781 202.385 49.6861 201.633 49.6861 200.79C49.6861 199.937 49.8728 199.185 50.2461 198.534C50.6301 197.873 51.1528 197.356 51.8141 196.983C52.4861 196.609 53.2488 196.422 54.1021 196.422C54.9341 196.422 55.6755 196.604 56.3261 196.966C56.9768 197.329 57.4888 197.841 57.8621 198.502C58.2355 199.164 58.4221 199.942 58.4221 200.839C58.4221 200.924 58.4168 201.02 58.4061 201.126C58.4061 201.233 58.4008 201.334 58.3901 201.43H51.2701V200.102H57.3341L56.5501 200.518C56.5608 200.028 56.4595 199.596 56.2461 199.222C56.0328 198.849 55.7395 198.556 55.3661 198.342C55.0035 198.129 54.5821 198.022 54.1021 198.022C53.6115 198.022 53.1795 198.129 52.8061 198.342C52.4435 198.556 52.1555 198.854 51.9421 199.238C51.7395 199.612 51.6381 200.054 51.6381 200.566V200.886C51.6381 201.398 51.7555 201.852 51.9901 202.246C52.2248 202.641 52.5555 202.945 52.9821 203.158C53.4088 203.372 53.8995 203.478 54.4541 203.478C54.9341 203.478 55.3661 203.404 55.7501 203.254C56.1341 203.105 56.4755 202.87 56.7741 202.55L57.8461 203.782C57.4621 204.23 56.9768 204.577 56.3901 204.822C55.8141 205.057 55.1528 205.175 54.4061 205.175ZM65.3456 205.175C64.6523 205.175 64.0176 205.014 63.4416 204.694C62.8763 204.374 62.423 203.894 62.0816 203.254C61.751 202.604 61.5856 201.782 61.5856 200.79C61.5856 199.788 61.7456 198.966 62.0656 198.326C62.3963 197.686 62.8443 197.212 63.4096 196.902C63.975 196.582 64.6203 196.422 65.3456 196.422C66.1883 196.422 66.9296 196.604 67.5696 196.966C68.2203 197.329 68.7323 197.836 69.1056 198.486C69.4896 199.137 69.6816 199.905 69.6816 200.79C69.6816 201.676 69.4896 202.449 69.1056 203.11C68.7323 203.761 68.2203 204.268 67.5696 204.63C66.9296 204.993 66.1883 205.175 65.3456 205.175ZM60.6096 208.167V196.518H62.5136V198.534L62.4496 200.806L62.6096 203.078V208.167H60.6096ZM65.1216 203.462C65.6016 203.462 66.0283 203.356 66.4016 203.142C66.7856 202.929 67.0896 202.62 67.3136 202.214C67.5376 201.809 67.6496 201.334 67.6496 200.79C67.6496 200.236 67.5376 199.761 67.3136 199.366C67.0896 198.961 66.7856 198.652 66.4016 198.438C66.0283 198.225 65.6016 198.118 65.1216 198.118C64.6416 198.118 64.2096 198.225 63.8256 198.438C63.4416 198.652 63.1376 198.961 62.9136 199.366C62.6896 199.761 62.5776 200.236 62.5776 200.79C62.5776 201.334 62.6896 201.809 62.9136 202.214C63.1376 202.62 63.4416 202.929 63.8256 203.142C64.2096 203.356 64.6416 203.462 65.1216 203.462ZM75.6561 205.175C74.7068 205.175 73.8748 204.988 73.1601 204.614C72.4561 204.23 71.9068 203.708 71.5121 203.046C71.1281 202.385 70.9361 201.633 70.9361 200.79C70.9361 199.937 71.1228 199.185 71.4961 198.534C71.8801 197.873 72.4028 197.356 73.0641 196.983C73.7361 196.609 74.4988 196.422 75.3521 196.422C76.1841 196.422 76.9255 196.604 77.5761 196.966C78.2268 197.329 78.7388 197.841 79.1121 198.502C79.4855 199.164 79.6721 199.942 79.6721 200.839C79.6721 200.924 79.6668 201.02 79.6561 201.126C79.6561 201.233 79.6508 201.334 79.6401 201.43H72.5201V200.102H78.5841L77.8001 200.518C77.8108 200.028 77.7095 199.596 77.4961 199.222C77.2828 198.849 76.9895 198.556 76.6161 198.342C76.2535 198.129 75.8321 198.022 75.3521 198.022C74.8615 198.022 74.4295 198.129 74.0561 198.342C73.6935 198.556 73.4055 198.854 73.1921 199.238C72.9895 199.612 72.8881 200.054 72.8881 200.566V200.886C72.8881 201.398 73.0055 201.852 73.2401 202.246C73.4748 202.641 73.8055 202.945 74.2321 203.158C74.6588 203.372 75.1495 203.478 75.7041 203.478C76.1841 203.478 76.6161 203.404 77.0001 203.254C77.3841 203.105 77.7255 202.87 78.0241 202.55L79.0961 203.782C78.7121 204.23 78.2268 204.577 77.6401 204.822C77.0641 205.057 76.4028 205.175 75.6561 205.175ZM81.8596 205.062V196.518H83.8596V202.15L88.5796 196.518H90.4036V205.062H88.4036V199.43L83.6996 205.062H81.8596ZM86.0036 195.51C85.1503 195.51 84.4943 195.313 84.0356 194.918C83.577 194.513 83.3423 193.926 83.3316 193.158H84.6596C84.6703 193.542 84.7876 193.846 85.0116 194.07C85.2463 194.294 85.5716 194.406 85.9876 194.406C86.393 194.406 86.713 194.294 86.9476 194.07C87.193 193.846 87.321 193.542 87.3316 193.158H88.6916C88.681 193.926 88.441 194.513 87.9716 194.918C87.513 195.313 86.857 195.51 86.0036 195.51ZM94.87 205.062V197.734L95.334 198.214H91.862V196.518H99.862V198.214H96.406L96.87 197.734V205.062H94.87ZM101.313 205.062V196.518H103.313V202.15L108.033 196.518H109.857V205.062H107.857V199.43L103.153 205.062H101.313Z" fill="white"/>
</svg>
