<svg width="1340" height="638" viewBox="0 0 1340 638" fill="none" xmlns="http://www.w3.org/2000/svg">
<g clip-path="url(#clip0_4_4163)">
<rect width="1340" height="638" rx="20" fill="#202020"/>
<g clip-path="url(#clip1_4_4163)">
<rect x="32" y="-1613" width="1276" height="4038.01" rx="32" fill="white"/>
<path d="M91.3906 63.8674V41.3248H79.7365L79.5238 46.5989C79.4387 48.5838 79.3111 50.4694 79.141 52.2558C78.9992 54.0139 78.7582 55.616 78.4179 57.0621C78.106 58.5082 77.6665 59.7133 77.0994 60.6774C76.5323 61.6415 75.8376 62.2795 75.0153 62.5914L69.0606 61.7408C70.1381 61.7975 71.0171 61.4289 71.6977 60.6349C72.4066 59.8409 72.9595 58.7351 73.3565 57.3173C73.7534 55.8995 74.0512 54.2407 74.2497 52.3409C74.4482 50.4127 74.5899 48.3286 74.675 46.0885L75.0153 36.6461H96.8349V63.8674H91.3906ZM68.0398 72.7569L68.0823 61.7408H101.131V72.7569H96.0267V66.4194H73.1863V72.7569H68.0398ZM115.491 66.7172C113.166 66.7172 111.096 66.2209 109.281 65.2285C107.466 64.2077 106.034 62.8183 104.985 61.0602C103.936 59.3022 103.411 57.3031 103.411 55.063C103.411 52.7946 103.936 50.7955 104.985 49.0658C106.034 47.3078 107.466 45.9325 109.281 44.9401C111.096 43.9477 113.166 43.4514 115.491 43.4514C117.844 43.4514 119.928 43.9477 121.743 44.9401C123.586 45.9325 125.018 47.2936 126.039 49.0233C127.088 50.753 127.613 52.7662 127.613 55.063C127.613 57.3031 127.088 59.3022 126.039 61.0602C125.018 62.8183 123.586 64.2077 121.743 65.2285C119.928 66.2209 117.844 66.7172 115.491 66.7172ZM115.491 62.1661C116.795 62.1661 117.958 61.8825 118.978 61.3154C119.999 60.7483 120.793 59.926 121.36 58.8485C121.956 57.771 122.254 56.5092 122.254 55.063C122.254 53.5885 121.956 52.3267 121.36 51.2776C120.793 50.2001 119.999 49.3777 118.978 48.8106C117.958 48.2435 116.809 47.96 115.533 47.96C114.229 47.96 113.066 48.2435 112.046 48.8106C111.053 49.3777 110.259 50.2001 109.664 51.2776C109.068 52.3267 108.77 53.5885 108.77 55.063C108.77 56.5092 109.068 57.771 109.664 58.8485C110.259 59.926 111.053 60.7483 112.046 61.3154C113.066 61.8825 114.215 62.1661 115.491 62.1661ZM132.865 66.4194V43.7066H154.642V66.4194H149.368V46.9817L150.601 48.2152H136.948L138.182 46.9817V66.4194H132.865ZM171.939 66.7172C169.614 66.7172 167.544 66.2209 165.729 65.2285C163.914 64.2077 162.482 62.8183 161.433 61.0602C160.384 59.3022 159.859 57.3031 159.859 55.063C159.859 52.7946 160.384 50.7955 161.433 49.0658C162.482 47.3078 163.914 45.9325 165.729 44.9401C167.544 43.9477 169.614 43.4514 171.939 43.4514C174.292 43.4514 176.376 43.9477 178.191 44.9401C180.034 45.9325 181.466 47.2936 182.487 49.0233C183.536 50.753 184.061 52.7662 184.061 55.063C184.061 57.3031 183.536 59.3022 182.487 61.0602C181.466 62.8183 180.034 64.2077 178.191 65.2285C176.376 66.2209 174.292 66.7172 171.939 66.7172ZM171.939 62.1661C173.243 62.1661 174.406 61.8825 175.426 61.3154C176.447 60.7483 177.241 59.926 177.808 58.8485C178.404 57.771 178.702 56.5092 178.702 55.063C178.702 53.5885 178.404 52.3267 177.808 51.2776C177.241 50.2001 176.447 49.3777 175.426 48.8106C174.406 48.2435 173.257 47.96 171.981 47.96C170.677 47.96 169.514 48.2435 168.494 48.8106C167.501 49.3777 166.707 50.2001 166.112 51.2776C165.516 52.3267 165.218 53.5885 165.218 55.063C165.218 56.5092 165.516 57.771 166.112 58.8485C166.707 59.926 167.501 60.7483 168.494 61.3154C169.514 61.8825 170.663 62.1661 171.939 62.1661ZM185.746 66.3769L186.001 61.9109C186.2 61.9393 186.384 61.9676 186.554 61.996C186.724 62.0243 186.88 62.0385 187.022 62.0385C187.901 62.0385 188.582 61.7691 189.064 61.2304C189.546 60.6916 189.9 59.9685 190.127 59.0612C190.382 58.1254 190.552 57.0905 190.637 55.9562C190.751 54.7937 190.836 53.6311 190.893 52.4685L191.275 43.7066H209.65V66.4194H204.333V46.769L205.567 48.2152H194.763L195.912 46.7265L195.614 52.7237C195.529 54.7369 195.359 56.6084 195.103 58.3381C194.877 60.0394 194.508 61.5281 193.998 62.8041C193.516 64.0801 192.835 65.0725 191.956 65.7814C191.105 66.4903 190.014 66.8448 188.681 66.8448C188.256 66.8448 187.788 66.8022 187.277 66.7172C186.795 66.6321 186.285 66.5187 185.746 66.3769ZM216.81 66.4194V43.7066H222.127V52.9364H233.568V43.7066H238.885V66.4194H233.568V57.4449H222.127V66.4194H216.81ZM246.01 66.4194V43.7066H251.327V58.6784L263.874 43.7066H268.723V66.4194H263.406V51.4477L250.902 66.4194H246.01ZM280.596 66.4194V46.9392L281.83 48.2152H272.6V43.7066H293.867V48.2152H284.679L285.913 46.9392V66.4194H280.596ZM307.317 66.7172C304.793 66.7172 302.582 66.2209 300.682 65.2285C298.81 64.2077 297.35 62.8183 296.301 61.0602C295.28 59.3022 294.77 57.3031 294.77 55.063C294.77 52.7946 295.266 50.7955 296.258 49.0658C297.279 47.3078 298.669 45.9325 300.427 44.9401C302.213 43.9477 304.24 43.4514 306.509 43.4514C308.721 43.4514 310.691 43.9335 312.421 44.8976C314.151 45.8617 315.512 47.2227 316.504 48.9808C317.497 50.7388 317.993 52.8088 317.993 55.1906C317.993 55.4175 317.979 55.6727 317.95 55.9562C317.95 56.2398 317.936 56.5092 317.908 56.7644H298.98V53.2341H315.101L313.016 54.34C313.045 53.0356 312.775 51.8872 312.208 50.8948C311.641 49.9023 310.861 49.1225 309.869 48.5554C308.905 47.9883 307.785 47.7048 306.509 47.7048C305.205 47.7048 304.056 47.9883 303.064 48.5554C302.1 49.1225 301.334 49.9165 300.767 50.9373C300.228 51.9297 299.959 53.1065 299.959 54.4676V55.3182C299.959 56.6793 300.271 57.8844 300.894 58.9336C301.518 59.9827 302.397 60.7909 303.532 61.358C304.666 61.9251 305.97 62.2086 307.445 62.2086C308.721 62.2086 309.869 62.0101 310.89 61.6132C311.911 61.2162 312.818 60.5924 313.612 59.7417L316.462 63.0168C315.441 64.2077 314.151 65.1293 312.591 65.7814C311.06 66.4053 309.302 66.7172 307.317 66.7172ZM320.2 66.3769L320.455 61.9109C320.653 61.9393 320.838 61.9676 321.008 61.996C321.178 62.0243 321.334 62.0385 321.476 62.0385C322.355 62.0385 323.035 61.7691 323.517 61.2304C323.999 60.6916 324.354 59.9685 324.581 59.0612C324.836 58.1254 325.006 57.0905 325.091 55.9562C325.204 54.7937 325.289 53.6311 325.346 52.4685L325.729 43.7066H344.103V66.4194H338.787V46.769L340.02 48.2152H329.217L330.365 46.7265L330.067 52.7237C329.982 54.7369 329.812 56.6084 329.557 58.3381C329.33 60.0394 328.962 61.5281 328.451 62.8041C327.969 64.0801 327.289 65.0725 326.41 65.7814C325.559 66.4903 324.467 66.8448 323.134 66.8448C322.709 66.8448 322.241 66.8022 321.731 66.7172C321.249 66.6321 320.738 66.5187 320.2 66.3769ZM362.663 51.1925C365.583 51.1925 367.809 51.8447 369.34 53.149C370.871 54.4534 371.637 56.2965 371.637 58.6784C371.637 61.1453 370.786 63.0735 369.085 64.4629C367.384 65.824 364.988 66.4903 361.897 66.462L351.264 66.4194V43.7066H356.58V51.15L362.663 51.1925ZM361.429 62.5489C362.989 62.5773 364.18 62.2512 365.002 61.5706C365.824 60.8901 366.235 59.8977 366.235 58.5933C366.235 57.2889 365.824 56.3532 365.002 55.7861C364.208 55.1906 363.017 54.8787 361.429 54.8504L356.58 54.8078V62.5064L361.429 62.5489ZM376.31 66.4194V43.7066H381.627V52.9364H393.068V43.7066H398.385V66.4194H393.068V57.4449H381.627V66.4194H376.31ZM428.436 66.4194V43.7066H433.752V66.4194H428.436ZM416.569 51.1925C419.489 51.1925 421.701 51.8447 423.204 53.149C424.735 54.4534 425.501 56.2965 425.501 58.6784C425.501 61.1453 424.65 63.0735 422.949 64.4629C421.276 65.824 418.894 66.4903 415.803 66.462L405.51 66.4194V43.7066H410.827V51.15L416.569 51.1925ZM415.335 62.5489C416.895 62.5773 418.086 62.2512 418.908 61.5706C419.731 60.8901 420.142 59.8977 420.142 58.5933C420.142 57.2889 419.731 56.3532 418.908 55.7861C418.114 55.1906 416.923 54.8787 415.335 54.8504L410.827 54.8078V62.5064L415.335 62.5489ZM451.49 66.7172C448.966 66.7172 446.755 66.2209 444.855 65.2285C442.983 64.2077 441.523 62.8183 440.474 61.0602C439.453 59.3022 438.943 57.3031 438.943 55.063C438.943 52.7946 439.439 50.7955 440.431 49.0658C441.452 47.3078 442.842 45.9325 444.6 44.9401C446.386 43.9477 448.413 43.4514 450.682 43.4514C452.894 43.4514 454.864 43.9335 456.594 44.8976C458.324 45.8617 459.685 47.2227 460.677 48.9808C461.67 50.7388 462.166 52.8088 462.166 55.1906C462.166 55.4175 462.152 55.6727 462.123 55.9562C462.123 56.2398 462.109 56.5092 462.081 56.7644H443.154V53.2341H459.274L457.19 54.34C457.218 53.0356 456.948 51.8872 456.381 50.8948C455.814 49.9023 455.034 49.1225 454.042 48.5554C453.078 47.9883 451.958 47.7048 450.682 47.7048C449.378 47.7048 448.229 47.9883 447.237 48.5554C446.273 49.1225 445.507 49.9165 444.94 50.9373C444.401 51.9297 444.132 53.1065 444.132 54.4676V55.3182C444.132 56.6793 444.444 57.8844 445.068 58.9336C445.691 59.9827 446.57 60.7909 447.705 61.358C448.839 61.9251 450.143 62.2086 451.618 62.2086C452.894 62.2086 454.042 62.0101 455.063 61.6132C456.084 61.2162 456.991 60.5924 457.785 59.7417L460.635 63.0168C459.614 64.2077 458.324 65.1293 456.764 65.7814C455.233 66.4053 453.475 66.7172 451.49 66.7172ZM481.777 74.9686C480.672 74.9686 479.566 74.7843 478.46 74.4157C477.354 74.0471 476.432 73.5367 475.695 72.8845L477.822 68.9714C478.361 69.4535 478.97 69.8363 479.651 70.1198C480.331 70.4034 481.026 70.5452 481.735 70.5452C482.699 70.5452 483.479 70.3041 484.074 69.8221C484.67 69.3401 485.223 68.5319 485.733 67.3977L487.052 64.4204L487.477 63.7824L496.069 43.7066H501.173L490.539 68.2484C489.83 69.9497 489.036 71.2966 488.157 72.289C487.307 73.2815 486.343 73.9762 485.265 74.3732C484.216 74.7701 483.053 74.9686 481.777 74.9686ZM486.456 67.2276L476.206 43.7066H481.735L490.071 63.3145L486.456 67.2276ZM514.578 66.7172C512.196 66.7172 510.069 66.2209 508.198 65.2285C506.355 64.2077 504.909 62.8183 503.86 61.0602C502.81 59.3022 502.286 57.3031 502.286 55.063C502.286 52.7946 502.81 50.7955 503.86 49.0658C504.909 47.3078 506.355 45.9325 508.198 44.9401C510.069 43.9477 512.196 43.4514 514.578 43.4514C516.79 43.4514 518.732 43.9051 520.405 44.8125C522.106 45.6915 523.397 46.9959 524.276 48.7256L520.192 51.1074C519.512 50.0299 518.675 49.236 517.683 48.7256C516.719 48.2152 515.67 47.96 514.535 47.96C513.231 47.96 512.054 48.2435 511.005 48.8106C509.956 49.3777 509.134 50.2001 508.538 51.2776C507.943 52.3267 507.645 53.5885 507.645 55.063C507.645 56.5375 507.943 57.8135 508.538 58.891C509.134 59.9402 509.956 60.7483 511.005 61.3154C512.054 61.8825 513.231 62.1661 514.535 62.1661C515.67 62.1661 516.719 61.9109 517.683 61.4005C518.675 60.8901 519.512 60.0961 520.192 59.0186L524.276 61.4005C523.397 63.1018 522.106 64.4204 520.405 65.3561C518.732 66.2635 516.79 66.7172 514.578 66.7172ZM525.099 66.3769L525.354 61.9109C525.553 61.9393 525.737 61.9676 525.907 61.996C526.077 62.0243 526.233 62.0385 526.375 62.0385C527.254 62.0385 527.935 61.7691 528.417 61.2304C528.899 60.6916 529.253 59.9685 529.48 59.0612C529.735 58.1254 529.905 57.0905 529.99 55.9562C530.104 54.7937 530.189 53.6311 530.245 52.4685L530.628 43.7066H549.003V66.4194H543.686V46.769L544.919 48.2152H534.116L535.264 46.7265L534.967 52.7237C534.882 54.7369 534.711 56.6084 534.456 58.3381C534.229 60.0394 533.861 61.5281 533.35 62.8041C532.868 64.0801 532.188 65.0725 531.309 65.7814C530.458 66.4903 529.366 66.8448 528.034 66.8448C527.608 66.8448 527.141 66.8022 526.63 66.7172C526.148 66.6321 525.638 66.5187 525.099 66.3769ZM558.205 74.9686C557.099 74.9686 555.993 74.7843 554.887 74.4157C553.781 74.0471 552.859 73.5367 552.122 72.8845L554.249 68.9714C554.788 69.4535 555.397 69.8363 556.078 70.1198C556.758 70.4034 557.453 70.5452 558.162 70.5452C559.126 70.5452 559.906 70.3041 560.501 69.8221C561.097 69.3401 561.65 68.5319 562.16 67.3977L563.479 64.4204L563.904 63.7824L572.496 43.7066H577.6L566.966 68.2484C566.257 69.9497 565.464 71.2966 564.585 72.289C563.734 73.2815 562.77 73.9762 561.692 74.3732C560.643 74.7701 559.481 74.9686 558.205 74.9686ZM562.883 67.2276L552.633 43.7066H558.162L566.499 63.3145L562.883 67.2276ZM581.292 66.4194V43.7066H598.731V48.2152H585.376L586.609 47.0242V66.4194H581.292ZM602.601 66.4194V43.7066H607.917V58.6784L620.465 43.7066H625.313V66.4194H619.997V51.4477L607.492 66.4194H602.601Z" fill="#151414"/>
<g clip-path="url(#clip2_4_4163)">
<rect x="67.4451" y="106.056" width="487.361" height="497.995" rx="23.0389" fill="#F7F7F7"/>
<path d="M553.986 551.116C568.434 572.787 552.266 585.944 542.377 589.814H526.898L508.838 625.932C566.886 643.991 631.383 583.364 592.685 534.346C553.986 485.329 578.495 484.039 587.525 458.24C594.748 437.601 575.055 435.021 564.306 436.311C485.619 458.24 535.927 524.027 553.986 551.116Z" fill="#F7F7F7" stroke="#5F79FF" stroke-width="2.57988"/>
<path d="M553.986 551.116C568.434 572.787 552.266 585.944 542.377 589.814H526.898L508.838 625.932C566.886 643.991 631.383 583.364 592.685 534.346C553.986 485.329 578.495 484.039 587.525 458.24C594.748 437.601 575.055 435.021 564.306 436.311C485.619 458.24 535.927 524.027 553.986 551.116Z" stroke="#5F79FF" stroke-width="7.73963"/>
<path d="M542.38 566.599C551.409 607.877 502.392 631.096 499.812 633.675C474.013 633.675 415.45 633.159 387.587 631.096C352.759 628.516 351.469 600.137 360.498 584.658C367.722 572.275 370.388 550.26 370.818 540.8C298.581 495.652 314.06 464.693 320.51 455.664C325.67 448.44 352.759 462.973 365.658 471.143C365.658 459.534 320.51 449.896 320.51 415.676C320.51 393.907 329.11 359.348 338.569 340.859C338.569 320.22 334.699 267.333 350.179 264.753C362.562 262.688 398.336 296.571 414.676 313.77H437.895C449.504 273.782 466.273 254.433 486.912 264.753C503.424 273.008 511.851 320.65 514.001 343.439C535.672 406.388 498.952 454.804 477.883 465.983C495.942 490.492 533.35 525.32 542.38 566.599Z" fill="#F7F7F7" stroke="#5F79FF" stroke-width="2.57988"/>
<path d="M542.38 566.599C547.504 590.023 533.935 607.631 520.768 618.953C508.316 629.659 490.596 633.697 474.175 633.553C445.649 633.303 408.209 632.623 387.587 631.096C352.759 628.516 351.469 600.137 360.498 584.658C367.722 572.275 370.388 550.26 370.818 540.8C298.581 495.652 306.321 458.244 320.51 455.664C329.244 454.076 352.759 462.973 365.658 471.143C365.658 459.534 320.51 449.896 320.51 415.676C320.51 393.907 329.11 359.348 338.569 340.859C338.569 320.22 334.699 267.333 350.179 264.753C362.562 262.688 398.336 296.571 414.676 313.77H437.895C449.504 273.782 466.273 254.433 486.912 264.753C503.424 273.008 511.851 320.65 514.001 343.439C535.672 406.388 498.952 454.804 477.883 465.983C495.942 490.492 533.35 525.32 542.38 566.599Z" stroke="#5F79FF" stroke-width="7.73963"/>
<path d="M432.732 643.992C453.371 645.024 468.851 597.125 474.01 573.046C457.671 553.697 423.703 520.416 418.543 542.087C412.093 569.176 406.934 642.702 432.732 643.992Z" fill="#F7F7F7"/>
<path d="M474.01 573.05C468.851 597.129 453.371 645.029 432.732 643.997C406.934 642.707 412.093 569.18 418.543 542.091" stroke="#5F79FF" stroke-width="7.73963"/>
<path d="M414.672 393.749C414.672 398.579 415.654 402.888 417.18 405.941C418.746 409.072 420.67 410.518 422.412 410.518C424.153 410.518 426.077 409.072 427.643 405.941C429.17 402.888 430.151 398.579 430.151 393.749C430.151 388.919 429.17 384.61 427.643 381.556C426.077 378.425 424.153 376.979 422.412 376.979C420.67 376.979 418.746 378.425 417.18 381.556C415.654 384.61 414.672 388.919 414.672 393.749Z" fill="#5F79FF" stroke="#5F79FF" stroke-width="2.57988"/>
<path d="M357.921 393.749C357.921 398.579 358.903 402.888 360.429 405.941C361.995 409.072 363.919 410.518 365.661 410.518C367.402 410.518 369.326 409.072 370.892 405.941C372.419 402.888 373.4 398.579 373.4 393.749C373.4 388.919 372.419 384.61 370.892 381.556C369.326 378.425 367.402 376.979 365.661 376.979C363.919 376.979 361.995 378.425 360.429 381.556C358.903 384.61 357.921 388.919 357.921 393.749Z" fill="#5F79FF" stroke="#5F79FF" stroke-width="2.57988"/>
<path d="M99.7829 158.641C97.7626 158.641 96.0294 158.216 94.5832 157.365C93.1371 156.493 92.0312 155.239 91.2656 153.601C90.5 151.964 90.1172 149.943 90.1172 147.54C90.1172 144.988 90.5745 142.829 91.4889 141.064C92.4247 139.299 93.7113 137.959 95.3488 137.045C97.0076 136.13 98.911 135.673 101.059 135.673C102.186 135.673 103.26 135.79 104.281 136.024C105.323 136.258 106.205 136.62 106.929 137.109L105.397 140.235C104.781 139.831 104.111 139.554 103.388 139.406C102.686 139.235 101.941 139.15 101.155 139.15C99.0492 139.15 97.3798 139.799 96.1463 141.096C94.9129 142.394 94.2961 144.308 94.2961 146.838C94.2961 147.242 94.3068 147.721 94.328 148.274C94.3493 148.805 94.4237 149.348 94.5513 149.901L93.2753 148.497C93.6581 147.625 94.1792 146.902 94.8384 146.328C95.519 145.732 96.3165 145.286 97.2309 144.988C98.1667 144.69 99.1768 144.541 100.261 144.541C101.729 144.541 103.037 144.829 104.185 145.403C105.334 145.956 106.248 146.753 106.929 147.795C107.609 148.816 107.949 150.018 107.949 151.4C107.949 152.867 107.588 154.143 106.865 155.228C106.142 156.313 105.163 157.153 103.93 157.748C102.696 158.344 101.314 158.641 99.7829 158.641ZM99.5596 155.387C100.41 155.387 101.165 155.239 101.825 154.941C102.484 154.622 102.994 154.175 103.356 153.601C103.739 153.027 103.93 152.357 103.93 151.591C103.93 150.422 103.526 149.497 102.718 148.816C101.91 148.136 100.825 147.795 99.4639 147.795C98.5707 147.795 97.7839 147.965 97.1033 148.306C96.4441 148.625 95.9124 149.071 95.5083 149.645C95.1255 150.22 94.9341 150.879 94.9341 151.623C94.9341 152.304 95.1149 152.931 95.4764 153.505C95.838 154.08 96.359 154.537 97.0395 154.877C97.7413 155.217 98.5814 155.387 99.5596 155.387ZM119.432 158.641C117.667 158.641 116.072 158.195 114.647 157.301C113.243 156.408 112.137 155.111 111.329 153.41C110.521 151.687 110.117 149.603 110.117 147.157C110.117 144.712 110.521 142.638 111.329 140.937C112.137 139.214 113.243 137.906 114.647 137.013C116.072 136.12 117.667 135.673 119.432 135.673C121.218 135.673 122.813 136.12 124.217 137.013C125.62 137.906 126.726 139.214 127.534 140.937C128.364 142.638 128.779 144.712 128.779 147.157C128.779 149.603 128.364 151.687 127.534 153.41C126.726 155.111 125.62 156.408 124.217 157.301C122.813 158.195 121.218 158.641 119.432 158.641ZM119.432 155.037C120.474 155.037 121.378 154.76 122.143 154.207C122.909 153.633 123.504 152.761 123.93 151.591C124.376 150.422 124.6 148.944 124.6 147.157C124.6 145.35 124.376 143.872 123.93 142.723C123.504 141.553 122.909 140.692 122.143 140.139C121.378 139.565 120.474 139.278 119.432 139.278C118.432 139.278 117.539 139.565 116.752 140.139C115.987 140.692 115.381 141.553 114.934 142.723C114.509 143.872 114.296 145.35 114.296 147.157C114.296 148.944 114.509 150.422 114.934 151.591C115.381 152.761 115.987 153.633 116.752 154.207C117.539 154.76 118.432 155.037 119.432 155.037ZM141.673 158.322V141.288H145.852L152.711 153.378H151.052L158.261 141.288H161.993L162.025 158.322H158.421V145.562L159.059 145.977L152.679 156.536H150.956L144.544 145.69L145.31 145.498V158.322H141.673ZM167.374 158.322V141.288H171.361V152.516L180.772 141.288H184.408V158.322H180.421V147.093L171.042 158.322H167.374ZM189.772 158.322V141.288H193.76V148.21H202.341V141.288H206.328V158.322H202.341V151.591H193.76V158.322H189.772ZM213.204 164.734C212.374 164.734 211.545 164.596 210.715 164.319C209.886 164.043 209.195 163.66 208.642 163.171L210.237 160.236C210.641 160.598 211.098 160.885 211.609 161.098C212.119 161.31 212.64 161.417 213.172 161.417C213.895 161.417 214.48 161.236 214.926 160.874C215.373 160.513 215.788 159.907 216.17 159.056L217.159 156.823L217.478 156.344L223.922 141.288H227.75L219.775 159.694C219.243 160.97 218.648 161.98 217.989 162.724C217.351 163.469 216.628 163.99 215.819 164.288C215.033 164.585 214.161 164.734 213.204 164.734ZM216.713 158.928L209.025 141.288H213.172L219.424 155.994L216.713 158.928ZM234.092 158.322V143.712L235.017 144.669H228.094V141.288H244.044V144.669H237.154L238.079 143.712V158.322H234.092ZM255.753 158.322V141.288H272.086V158.322H268.13V143.744L269.055 144.669H258.815L259.74 143.744V158.322H255.753ZM286.909 158.546C285.526 158.546 284.261 158.227 283.112 157.589C281.985 156.951 281.082 155.994 280.401 154.718C279.742 153.42 279.412 151.783 279.412 149.805C279.412 147.806 279.731 146.168 280.369 144.892C281.028 143.616 281.922 142.67 283.049 142.053C284.176 141.415 285.462 141.096 286.909 141.096C288.589 141.096 290.067 141.458 291.343 142.181C292.64 142.904 293.661 143.914 294.405 145.211C295.171 146.509 295.553 148.04 295.553 149.805C295.553 151.57 295.171 153.112 294.405 154.43C293.661 155.728 292.64 156.738 291.343 157.461C290.067 158.184 288.589 158.546 286.909 158.546ZM277.466 164.511V141.288H281.262V145.307L281.135 149.837L281.454 154.367V164.511H277.466ZM286.462 155.132C287.419 155.132 288.27 154.92 289.014 154.494C289.78 154.069 290.386 153.452 290.832 152.644C291.279 151.836 291.502 150.89 291.502 149.805C291.502 148.699 291.279 147.753 290.832 146.966C290.386 146.158 289.78 145.541 289.014 145.116C288.27 144.69 287.419 144.478 286.462 144.478C285.505 144.478 284.644 144.69 283.878 145.116C283.112 145.541 282.506 146.158 282.06 146.966C281.613 147.753 281.39 148.699 281.39 149.805C281.39 150.89 281.613 151.836 282.06 152.644C282.506 153.452 283.112 154.069 283.878 154.494C284.644 154.92 285.505 155.132 286.462 155.132ZM307.114 158.546C305.37 158.546 303.818 158.173 302.457 157.429C301.096 156.663 300.022 155.621 299.235 154.303C298.448 152.984 298.055 151.485 298.055 149.805C298.055 148.104 298.448 146.604 299.235 145.307C300.022 143.989 301.096 142.957 302.457 142.213C303.818 141.468 305.37 141.096 307.114 141.096C308.879 141.096 310.442 141.468 311.804 142.213C313.186 142.957 314.26 143.978 315.025 145.275C315.812 146.572 316.206 148.082 316.206 149.805C316.206 151.485 315.812 152.984 315.025 154.303C314.26 155.621 313.186 156.663 311.804 157.429C310.442 158.173 308.879 158.546 307.114 158.546ZM307.114 155.132C308.092 155.132 308.964 154.92 309.73 154.494C310.496 154.069 311.091 153.452 311.516 152.644C311.963 151.836 312.186 150.89 312.186 149.805C312.186 148.699 311.963 147.753 311.516 146.966C311.091 146.158 310.496 145.541 309.73 145.116C308.964 144.69 308.103 144.478 307.146 144.478C306.168 144.478 305.296 144.69 304.53 145.116C303.786 145.541 303.191 146.158 302.744 146.966C302.297 147.753 302.074 148.699 302.074 149.805C302.074 150.89 302.297 151.836 302.744 152.644C303.191 153.452 303.786 154.069 304.53 154.494C305.296 154.92 306.157 155.132 307.114 155.132ZM320.145 158.322V141.288H333.224V144.669H323.207L324.132 143.776V158.322H320.145ZM337.688 164.734C336.859 164.734 336.03 164.596 335.2 164.319C334.371 164.043 333.68 163.66 333.127 163.171L334.722 160.236C335.126 160.598 335.583 160.885 336.093 161.098C336.604 161.31 337.125 161.417 337.656 161.417C338.38 161.417 338.964 161.236 339.411 160.874C339.858 160.513 340.272 159.907 340.655 159.056L341.644 156.823L341.963 156.344L348.407 141.288H352.235L344.26 159.694C343.728 160.97 343.133 161.98 342.473 162.724C341.835 163.469 341.112 163.99 340.304 164.288C339.517 164.585 338.645 164.734 337.688 164.734ZM341.197 158.928L333.509 141.288H337.656L343.909 155.994L341.197 158.928ZM351.488 158.29L351.68 154.941C351.828 154.962 351.967 154.983 352.094 155.005C352.222 155.026 352.339 155.037 352.445 155.037C353.104 155.037 353.615 154.835 353.976 154.43C354.338 154.026 354.604 153.484 354.774 152.804C354.965 152.102 355.093 151.326 355.157 150.475C355.242 149.603 355.305 148.731 355.348 147.859L355.635 141.288H369.416V158.322H365.428V143.584L366.354 144.669H358.251L359.112 143.553L358.889 148.05C358.825 149.56 358.698 150.964 358.506 152.261C358.336 153.537 358.06 154.654 357.677 155.611C357.315 156.568 356.805 157.312 356.146 157.844C355.508 158.375 354.689 158.641 353.689 158.641C353.37 158.641 353.019 158.609 352.637 158.546C352.275 158.482 351.892 158.397 351.488 158.29ZM387.004 158.322L380.847 150.156L384.101 148.146L391.693 158.322H387.004ZM374.786 158.322V141.288H378.774V158.322H374.786ZM377.593 151.496V148.178H383.367V151.496H377.593ZM384.484 150.283L380.751 149.837L387.004 141.288H391.278L384.484 150.283ZM394.506 158.322V141.288H398.493V152.516L407.904 141.288H411.54V158.322H407.553V147.093L398.174 158.322H394.506Z" fill="#151414"/>
<path d="M97.8441 576.423C96.294 576.423 94.914 576.093 93.7042 575.431C92.4944 574.75 91.5397 573.824 90.8403 572.652C90.1409 571.48 89.7911 570.147 89.7911 568.654C89.7911 567.142 90.1409 565.809 90.8403 564.656C91.5397 563.484 92.4944 562.567 93.7042 561.905C94.914 561.244 96.294 560.913 97.8441 560.913C99.4131 560.913 100.803 561.244 102.012 561.905C103.241 562.567 104.196 563.474 104.876 564.627C105.576 565.781 105.925 567.123 105.925 568.654C105.925 570.147 105.576 571.48 104.876 572.652C104.196 573.824 103.241 574.75 102.012 575.431C100.803 576.093 99.4131 576.423 97.8441 576.423ZM97.8441 573.389C98.7137 573.389 99.4887 573.2 100.169 572.822C100.85 572.444 101.379 571.896 101.757 571.178C102.154 570.459 102.353 569.618 102.353 568.654C102.353 567.671 102.154 566.83 101.757 566.13C101.379 565.412 100.85 564.864 100.169 564.486C99.4887 564.108 98.7231 563.919 97.8725 563.919C97.0029 563.919 96.2278 564.108 95.5473 564.486C94.8857 564.864 94.3564 565.412 93.9594 566.13C93.5624 566.83 93.3639 567.671 93.3639 568.654C93.3639 569.618 93.5624 570.459 93.9594 571.178C94.3564 571.896 94.8857 572.444 95.5473 572.822C96.2278 573.2 96.9934 573.389 97.8441 573.389ZM112.021 576.225V563.238L112.843 564.089H106.69V561.083H120.867V564.089H114.743L115.565 563.238V576.225H112.021ZM133.317 576.225V557.794L134.933 559.467H129.12V556.376H137.003V576.225H133.317ZM147.519 576.508C146.12 576.508 144.749 576.31 143.407 575.913C142.084 575.497 140.969 574.93 140.061 574.212L141.621 571.348C142.339 571.934 143.209 572.406 144.23 572.765C145.269 573.125 146.347 573.304 147.462 573.304C148.766 573.304 149.787 573.03 150.525 572.482C151.281 571.934 151.659 571.196 151.659 570.27C151.659 569.646 151.498 569.098 151.177 568.626C150.874 568.153 150.326 567.794 149.532 567.548C148.757 567.302 147.689 567.179 146.328 567.179H141.536L142.557 556.376H154.211V559.467H143.918L145.846 557.709L145.08 565.79L143.152 564.06H147.15C149.116 564.06 150.695 564.325 151.886 564.854C153.095 565.365 153.974 566.083 154.523 567.009C155.09 567.917 155.373 568.956 155.373 570.128C155.373 571.282 155.09 572.34 154.523 573.304C153.956 574.268 153.086 575.043 151.914 575.629C150.761 576.215 149.296 576.508 147.519 576.508ZM165.779 576.508C164.21 576.508 162.793 576.111 161.526 575.317C160.278 574.524 159.295 573.37 158.577 571.858C157.859 570.327 157.5 568.474 157.5 566.3C157.5 564.126 157.859 562.283 158.577 560.771C159.295 559.24 160.278 558.077 161.526 557.283C162.793 556.489 164.21 556.092 165.779 556.092C167.367 556.092 168.785 556.489 170.033 557.283C171.28 558.077 172.263 559.24 172.982 560.771C173.719 562.283 174.088 564.126 174.088 566.3C174.088 568.474 173.719 570.327 172.982 571.858C172.263 573.37 171.28 574.524 170.033 575.317C168.785 576.111 167.367 576.508 165.779 576.508ZM165.779 573.304C166.706 573.304 167.509 573.058 168.19 572.567C168.87 572.057 169.399 571.282 169.777 570.242C170.174 569.202 170.373 567.888 170.373 566.3C170.373 564.694 170.174 563.38 169.777 562.359C169.399 561.319 168.87 560.554 168.19 560.062C167.509 559.552 166.706 559.297 165.779 559.297C164.891 559.297 164.097 559.552 163.397 560.062C162.717 560.554 162.178 561.319 161.781 562.359C161.403 563.38 161.214 564.694 161.214 566.3C161.214 567.888 161.403 569.202 161.781 570.242C162.178 571.282 162.717 572.057 163.397 572.567C164.097 573.058 164.891 573.304 165.779 573.304ZM184.858 576.508C183.289 576.508 181.872 576.111 180.605 575.317C179.357 574.524 178.374 573.37 177.656 571.858C176.938 570.327 176.579 568.474 176.579 566.3C176.579 564.126 176.938 562.283 177.656 560.771C178.374 559.24 179.357 558.077 180.605 557.283C181.872 556.489 183.289 556.092 184.858 556.092C186.446 556.092 187.864 556.489 189.112 557.283C190.359 558.077 191.342 559.24 192.061 560.771C192.798 562.283 193.167 564.126 193.167 566.3C193.167 568.474 192.798 570.327 192.061 571.858C191.342 573.37 190.359 574.524 189.112 575.317C187.864 576.111 186.446 576.508 184.858 576.508ZM184.858 573.304C185.785 573.304 186.588 573.058 187.269 572.567C187.949 572.057 188.479 571.282 188.857 570.242C189.254 569.202 189.452 567.888 189.452 566.3C189.452 564.694 189.254 563.38 188.857 562.359C188.479 561.319 187.949 560.554 187.269 560.062C186.588 559.552 185.785 559.297 184.858 559.297C183.97 559.297 183.176 559.552 182.477 560.062C181.796 560.554 181.257 561.319 180.86 562.359C180.482 563.38 180.293 564.694 180.293 566.3C180.293 567.888 180.482 569.202 180.86 570.242C181.257 571.282 181.796 572.057 182.477 572.567C183.176 573.058 183.97 573.304 184.858 573.304ZM205.185 576.423C203.956 576.423 202.832 576.14 201.811 575.573C200.809 575.006 200.006 574.155 199.401 573.021C198.815 571.868 198.522 570.412 198.522 568.654C198.522 566.877 198.805 565.421 199.372 564.287C199.958 563.153 200.752 562.312 201.754 561.764C202.756 561.196 203.9 560.913 205.185 560.913C206.679 560.913 207.992 561.234 209.127 561.877C210.28 562.52 211.187 563.418 211.849 564.571C212.529 565.724 212.87 567.085 212.87 568.654C212.87 570.223 212.529 571.593 211.849 572.765C211.187 573.919 210.28 574.817 209.127 575.459C207.992 576.102 206.679 576.423 205.185 576.423ZM196.792 581.726V561.083H200.166V564.656L200.053 568.682L200.336 572.709V581.726H196.792ZM204.788 573.389C205.639 573.389 206.395 573.2 207.057 572.822C207.737 572.444 208.276 571.896 208.673 571.178C209.07 570.459 209.268 569.618 209.268 568.654C209.268 567.671 209.07 566.83 208.673 566.13C208.276 565.412 207.737 564.864 207.057 564.486C206.395 564.108 205.639 563.919 204.788 563.919C203.938 563.919 203.172 564.108 202.491 564.486C201.811 564.864 201.272 565.412 200.875 566.13C200.478 566.83 200.28 567.671 200.28 568.654C200.28 569.618 200.478 570.459 200.875 571.178C201.272 571.896 201.811 572.444 202.491 572.822C203.172 573.2 203.938 573.389 204.788 573.389Z" fill="#5F79FF"/>
</g>
<g clip-path="url(#clip3_4_4163)">
<rect x="1070.52" y="106.056" width="487.361" height="497.995" rx="23.0389" fill="#F7F7F7"/>
<path d="M1271.49 439.203C1261.79 414.255 1267.34 376.832 1275.65 375.446C1283.97 374.06 1313.08 385.148 1336.64 411.483H1403.17C1400.4 397.622 1399.29 369.902 1417.03 369.902C1439.2 369.902 1483.56 404.553 1493.26 464.152" stroke="#5F79FF" stroke-width="8.31617"/>
<path d="M1454.45 558.398C1411.95 581.037 1317.23 608.85 1278.42 538.994C1276.11 532.064 1272.88 515.154 1278.42 502.957C1285.35 487.711 1282.58 468.306 1274.27 444.744" stroke="#5F79FF" stroke-width="8.31617"/>
<path d="M1293.67 562.568C1280.74 572.733 1258.19 595.279 1271.5 604.149C1288.13 615.237 1325.55 616.624 1358.82 584.745" stroke="#5F79FF" stroke-width="8.31617"/>
<path d="M1301.98 519.58C1307.53 514.96 1323.05 511.264 1340.79 533.441" stroke="#5F79FF" stroke-width="8.31617"/>
<path d="M1100.92 576.423C1099.37 576.423 1097.99 576.093 1096.78 575.431C1095.57 574.75 1094.62 573.824 1093.92 572.652C1093.22 571.48 1092.87 570.147 1092.87 568.654C1092.87 567.142 1093.22 565.809 1093.92 564.656C1094.62 563.484 1095.57 562.567 1096.78 561.905C1097.99 561.244 1099.37 560.913 1100.92 560.913C1102.49 560.913 1103.88 561.244 1105.09 561.905C1106.32 562.567 1107.27 563.474 1107.95 564.627C1108.65 565.781 1109 567.123 1109 568.654C1109 570.147 1108.65 571.48 1107.95 572.652C1107.27 573.824 1106.32 574.75 1105.09 575.431C1103.88 576.093 1102.49 576.423 1100.92 576.423ZM1100.92 573.389C1101.79 573.389 1102.57 573.2 1103.25 572.822C1103.93 572.444 1104.46 571.896 1104.83 571.178C1105.23 570.459 1105.43 569.618 1105.43 568.654C1105.43 567.671 1105.23 566.83 1104.83 566.13C1104.46 565.412 1103.93 564.864 1103.25 564.486C1102.57 564.108 1101.8 563.919 1100.95 563.919C1100.08 563.919 1099.3 564.108 1098.62 564.486C1097.96 564.864 1097.43 565.412 1097.04 566.13C1096.64 566.83 1096.44 567.671 1096.44 568.654C1096.44 569.618 1096.64 570.459 1097.04 571.178C1097.43 571.896 1097.96 572.444 1098.62 572.822C1099.3 573.2 1100.07 573.389 1100.92 573.389ZM1115.1 576.225V563.238L1115.92 564.089H1109.77V561.083H1123.94V564.089H1117.82L1118.64 563.238V576.225H1115.1ZM1136.39 576.225V557.794L1138.01 559.467H1132.2V556.376H1140.08V576.225H1136.39ZM1150.6 576.508C1149.2 576.508 1147.83 576.31 1146.48 575.913C1145.16 575.497 1144.05 574.93 1143.14 574.212L1144.7 571.348C1145.42 571.934 1146.29 572.406 1147.31 572.765C1148.35 573.125 1149.42 573.304 1150.54 573.304C1151.84 573.304 1152.86 573.03 1153.6 572.482C1154.36 571.934 1154.74 571.196 1154.74 570.27C1154.74 569.646 1154.57 569.098 1154.25 568.626C1153.95 568.153 1153.4 567.794 1152.61 567.548C1151.83 567.302 1150.77 567.179 1149.4 567.179H1144.61L1145.63 556.376H1157.29V559.467H1146.99L1148.92 557.709L1148.16 565.79L1146.23 564.06H1150.23C1152.19 564.06 1153.77 564.325 1154.96 564.854C1156.17 565.365 1157.05 566.083 1157.6 567.009C1158.17 567.917 1158.45 568.956 1158.45 570.128C1158.45 571.282 1158.17 572.34 1157.6 573.304C1157.03 574.268 1156.16 575.043 1154.99 575.629C1153.84 576.215 1152.37 576.508 1150.6 576.508ZM1168.86 576.508C1167.29 576.508 1165.87 576.111 1164.6 575.317C1163.35 574.524 1162.37 573.37 1161.65 571.858C1160.94 570.327 1160.58 568.474 1160.58 566.3C1160.58 564.126 1160.94 562.283 1161.65 560.771C1162.37 559.24 1163.35 558.077 1164.6 557.283C1165.87 556.489 1167.29 556.092 1168.86 556.092C1170.44 556.092 1171.86 556.489 1173.11 557.283C1174.36 558.077 1175.34 559.24 1176.06 560.771C1176.8 562.283 1177.16 564.126 1177.16 566.3C1177.16 568.474 1176.8 570.327 1176.06 571.858C1175.34 573.37 1174.36 574.524 1173.11 575.317C1171.86 576.111 1170.44 576.508 1168.86 576.508ZM1168.86 573.304C1169.78 573.304 1170.59 573.058 1171.27 572.567C1171.95 572.057 1172.48 571.282 1172.85 570.242C1173.25 569.202 1173.45 567.888 1173.45 566.3C1173.45 564.694 1173.25 563.38 1172.85 562.359C1172.48 561.319 1171.95 560.554 1171.27 560.062C1170.59 559.552 1169.78 559.297 1168.86 559.297C1167.97 559.297 1167.17 559.552 1166.47 560.062C1165.79 560.554 1165.25 561.319 1164.86 562.359C1164.48 563.38 1164.29 564.694 1164.29 566.3C1164.29 567.888 1164.48 569.202 1164.86 570.242C1165.25 571.282 1165.79 572.057 1166.47 572.567C1167.17 573.058 1167.97 573.304 1168.86 573.304ZM1187.93 576.508C1186.37 576.508 1184.95 576.111 1183.68 575.317C1182.43 574.524 1181.45 573.37 1180.73 571.858C1180.01 570.327 1179.66 568.474 1179.66 566.3C1179.66 564.126 1180.01 562.283 1180.73 560.771C1181.45 559.24 1182.43 558.077 1183.68 557.283C1184.95 556.489 1186.37 556.092 1187.93 556.092C1189.52 556.092 1190.94 556.489 1192.19 557.283C1193.44 558.077 1194.42 559.24 1195.14 560.771C1195.87 562.283 1196.24 564.126 1196.24 566.3C1196.24 568.474 1195.87 570.327 1195.14 571.858C1194.42 573.37 1193.44 574.524 1192.19 575.317C1190.94 576.111 1189.52 576.508 1187.93 576.508ZM1187.93 573.304C1188.86 573.304 1189.66 573.058 1190.35 572.567C1191.03 572.057 1191.55 571.282 1191.93 570.242C1192.33 569.202 1192.53 567.888 1192.53 566.3C1192.53 564.694 1192.33 563.38 1191.93 562.359C1191.55 561.319 1191.03 560.554 1190.35 560.062C1189.66 559.552 1188.86 559.297 1187.93 559.297C1187.05 559.297 1186.25 559.552 1185.55 560.062C1184.87 560.554 1184.33 561.319 1183.94 562.359C1183.56 563.38 1183.37 564.694 1183.37 566.3C1183.37 567.888 1183.56 569.202 1183.94 570.242C1184.33 571.282 1184.87 572.057 1185.55 572.567C1186.25 573.058 1187.05 573.304 1187.93 573.304ZM1208.26 576.423C1207.03 576.423 1205.91 576.14 1204.89 575.573C1203.89 575.006 1203.08 574.155 1202.48 573.021C1201.89 571.868 1201.6 570.412 1201.6 568.654C1201.6 566.877 1201.88 565.421 1202.45 564.287C1203.03 563.153 1203.83 562.312 1204.83 561.764C1205.83 561.196 1206.98 560.913 1208.26 560.913C1209.75 560.913 1211.07 561.234 1212.2 561.877C1213.36 562.52 1214.26 563.418 1214.93 564.571C1215.61 565.724 1215.95 567.085 1215.95 568.654C1215.95 570.223 1215.61 571.593 1214.93 572.765C1214.26 573.919 1213.36 574.817 1212.2 575.459C1211.07 576.102 1209.75 576.423 1208.26 576.423ZM1199.87 581.726V561.083H1203.24V564.656L1203.13 568.682L1203.41 572.709V581.726H1199.87ZM1207.86 573.389C1208.72 573.389 1209.47 573.2 1210.13 572.822C1210.81 572.444 1211.35 571.896 1211.75 571.178C1212.15 570.459 1212.34 569.618 1212.34 568.654C1212.34 567.671 1212.15 566.83 1211.75 566.13C1211.35 565.412 1210.81 564.864 1210.13 564.486C1209.47 564.108 1208.72 563.919 1207.86 563.919C1207.01 563.919 1206.25 564.108 1205.57 564.486C1204.89 564.864 1204.35 565.412 1203.95 566.13C1203.55 566.83 1203.36 567.671 1203.36 568.654C1203.36 569.618 1203.55 570.459 1203.95 571.178C1204.35 571.896 1204.89 572.444 1205.57 572.822C1206.25 573.2 1207.01 573.389 1207.86 573.389Z" fill="#5F79FF"/>
<path d="M1095.24 154.813C1096.4 155.217 1097.44 155.324 1098.33 155.132C1099.22 154.941 1100.02 154.292 1100.72 153.186L1101.81 151.496L1102.22 151.049L1110 135.992H1114.09L1104.39 154.016C1103.6 155.526 1102.67 156.674 1101.58 157.461C1100.5 158.248 1099.33 158.684 1098.07 158.769C1096.84 158.875 1095.55 158.641 1094.21 158.067L1095.24 154.813ZM1102.13 154.622L1092.17 135.992H1096.61L1104.39 151.432L1102.13 154.622ZM1113.41 158.322L1120.91 148.561L1120.85 150.698L1113.7 141.288H1118.13L1123.14 147.987H1121.45L1126.49 141.288H1130.8L1123.59 150.698L1123.62 148.561L1131.09 158.322H1126.59L1121.32 151.209L1122.98 151.432L1117.82 158.322H1113.41ZM1140.97 158.546C1139.23 158.546 1137.67 158.173 1136.31 157.429C1134.95 156.663 1133.88 155.621 1133.09 154.303C1132.3 152.984 1131.91 151.485 1131.91 149.805C1131.91 148.104 1132.3 146.604 1133.09 145.307C1133.88 143.989 1134.95 142.957 1136.31 142.213C1137.67 141.468 1139.23 141.096 1140.97 141.096C1142.74 141.096 1144.3 141.468 1145.66 142.213C1147.04 142.957 1148.12 143.978 1148.88 145.275C1149.67 146.572 1150.06 148.082 1150.06 149.805C1150.06 151.485 1149.67 152.984 1148.88 154.303C1148.12 155.621 1147.04 156.663 1145.66 157.429C1144.3 158.173 1142.74 158.546 1140.97 158.546ZM1140.97 155.132C1141.95 155.132 1142.82 154.92 1143.59 154.494C1144.35 154.069 1144.95 153.452 1145.37 152.644C1145.82 151.836 1146.04 150.89 1146.04 149.805C1146.04 148.699 1145.82 147.753 1145.37 146.966C1144.95 146.158 1144.35 145.541 1143.59 145.116C1142.82 144.69 1141.96 144.478 1141 144.478C1140.02 144.478 1139.15 144.69 1138.39 145.116C1137.64 145.541 1137.05 146.158 1136.6 146.966C1136.15 147.753 1135.93 148.699 1135.93 149.805C1135.93 150.89 1136.15 151.836 1136.6 152.644C1137.05 153.452 1137.64 154.069 1138.39 154.494C1139.15 154.92 1140.01 155.132 1140.97 155.132ZM1165.49 156.472V144.669H1158.95L1158.86 147.412C1158.81 148.391 1158.75 149.337 1158.66 150.252C1158.58 151.145 1158.44 151.974 1158.25 152.74C1158.06 153.484 1157.78 154.101 1157.42 154.59C1157.06 155.079 1156.58 155.398 1155.98 155.547L1152.03 154.941C1152.67 154.941 1153.18 154.739 1153.56 154.335C1153.96 153.909 1154.27 153.335 1154.48 152.612C1154.72 151.868 1154.89 151.028 1155 150.092C1155.1 149.135 1155.18 148.146 1155.22 147.125L1155.44 141.288H1169.48V156.472H1165.49ZM1151.42 162.118V154.941H1172V162.118H1168.27V158.322H1155.12V162.118H1151.42ZM1184.38 158.322V141.288H1188.36V152.516L1197.77 141.288H1201.41V158.322H1197.42V147.093L1188.04 158.322H1184.38ZM1220.98 158.609C1219.68 158.609 1218.4 158.46 1217.12 158.163C1215.87 157.844 1214.73 157.397 1213.71 156.823L1214.82 153.856C1215.65 154.324 1216.59 154.686 1217.63 154.941C1218.67 155.196 1219.72 155.324 1220.76 155.324C1221.65 155.324 1222.42 155.239 1223.05 155.068C1223.69 154.877 1224.18 154.601 1224.52 154.239C1224.88 153.878 1225.06 153.463 1225.06 152.995C1225.06 152.314 1224.77 151.804 1224.17 151.464C1223.6 151.102 1222.77 150.921 1221.68 150.921H1218.4V148.242H1221.36C1222.04 148.242 1222.62 148.167 1223.09 148.019C1223.58 147.87 1223.95 147.646 1224.2 147.349C1224.46 147.051 1224.59 146.7 1224.59 146.296C1224.59 145.892 1224.43 145.541 1224.11 145.243C1223.81 144.924 1223.37 144.69 1222.8 144.541C1222.23 144.371 1221.53 144.286 1220.73 144.286C1219.88 144.286 1218.99 144.393 1218.08 144.605C1217.18 144.818 1216.27 145.126 1215.33 145.53L1214.31 142.596C1215.4 142.106 1216.45 141.734 1217.47 141.479C1218.51 141.203 1219.55 141.054 1220.57 141.032C1222.12 140.969 1223.5 141.128 1224.71 141.511C1225.93 141.894 1226.88 142.447 1227.58 143.17C1228.29 143.893 1228.64 144.743 1228.64 145.722C1228.64 146.53 1228.38 147.264 1227.87 147.923C1227.38 148.561 1226.7 149.061 1225.83 149.422C1224.98 149.784 1224 149.964 1222.9 149.964L1223.02 149.103C1224.92 149.103 1226.4 149.486 1227.49 150.252C1228.57 150.996 1229.12 152.017 1229.12 153.314C1229.12 154.356 1228.76 155.281 1228.06 156.089C1227.36 156.876 1226.39 157.493 1225.16 157.939C1223.95 158.386 1222.55 158.609 1220.98 158.609ZM1243.56 158.322V154.877L1243.33 154.143V148.114C1243.33 146.945 1242.98 146.041 1242.28 145.403C1241.58 144.743 1240.52 144.414 1239.09 144.414C1238.13 144.414 1237.19 144.563 1236.25 144.86C1235.34 145.158 1234.56 145.573 1233.92 146.105L1232.36 143.202C1233.28 142.5 1234.36 141.979 1235.61 141.639C1236.89 141.277 1238.21 141.096 1239.57 141.096C1242.04 141.096 1243.94 141.692 1245.28 142.883C1246.64 144.052 1247.32 145.871 1247.32 148.338V158.322H1243.56ZM1238.2 158.546C1236.92 158.546 1235.81 158.333 1234.85 157.908C1233.89 157.461 1233.15 156.855 1232.62 156.089C1232.11 155.302 1231.85 154.42 1231.85 153.442C1231.85 152.485 1232.07 151.623 1232.52 150.858C1232.99 150.092 1233.74 149.486 1234.79 149.039C1235.83 148.593 1237.21 148.369 1238.93 148.369H1243.88V151.017H1239.22C1237.86 151.017 1236.94 151.24 1236.48 151.687C1236.01 152.112 1235.77 152.644 1235.77 153.282C1235.77 154.005 1236.06 154.579 1236.64 155.005C1237.21 155.43 1238.01 155.643 1239.03 155.643C1240.01 155.643 1240.88 155.419 1241.64 154.973C1242.43 154.526 1242.99 153.867 1243.33 152.995L1244 155.387C1243.62 156.387 1242.93 157.163 1241.93 157.716C1240.95 158.269 1239.71 158.546 1238.2 158.546ZM1260.39 158.641C1258.99 158.641 1257.73 158.429 1256.63 158.003C1255.52 157.578 1254.56 156.929 1253.76 156.057C1252.97 155.164 1252.36 154.037 1251.94 152.676C1251.51 151.315 1251.3 149.699 1251.3 147.827C1251.3 146.466 1251.42 145.222 1251.65 144.095C1251.88 142.968 1252.23 141.958 1252.7 141.064C1253.17 140.15 1253.76 139.342 1254.46 138.64C1255.18 137.938 1256.02 137.353 1256.98 136.885C1257.93 136.418 1259.02 136.056 1260.23 135.801L1268.14 134.11L1268.72 137.683L1261.54 139.15C1261.14 139.235 1260.65 139.363 1260.07 139.533C1259.52 139.682 1258.94 139.916 1258.35 140.235C1257.77 140.533 1257.23 140.969 1256.72 141.543C1256.23 142.096 1255.83 142.819 1255.51 143.712C1255.21 144.584 1255.06 145.679 1255.06 146.998C1255.06 147.402 1255.07 147.71 1255.1 147.923C1255.14 148.114 1255.17 148.327 1255.19 148.561C1255.23 148.774 1255.25 149.093 1255.25 149.518L1253.76 147.955C1254.18 146.87 1254.77 145.945 1255.51 145.179C1256.28 144.393 1257.16 143.797 1258.16 143.393C1259.18 142.968 1260.28 142.755 1261.48 142.755C1263.07 142.755 1264.48 143.085 1265.72 143.744C1266.95 144.403 1267.92 145.328 1268.62 146.519C1269.32 147.71 1269.67 149.061 1269.67 150.571C1269.67 152.144 1269.29 153.537 1268.53 154.749C1267.76 155.962 1266.68 156.919 1265.27 157.62C1263.89 158.301 1262.26 158.641 1260.39 158.641ZM1260.71 155.419C1261.67 155.419 1262.51 155.217 1263.23 154.813C1263.97 154.388 1264.55 153.814 1264.95 153.091C1265.38 152.368 1265.59 151.559 1265.59 150.666C1265.59 149.773 1265.38 148.997 1264.95 148.338C1264.55 147.657 1263.97 147.115 1263.23 146.711C1262.51 146.307 1261.65 146.105 1260.65 146.105C1259.69 146.105 1258.83 146.296 1258.06 146.679C1257.32 147.062 1256.73 147.593 1256.31 148.274C1255.9 148.933 1255.7 149.699 1255.7 150.571C1255.7 151.464 1255.91 152.283 1256.34 153.027C1256.76 153.771 1257.35 154.356 1258.09 154.781C1258.86 155.207 1259.73 155.419 1260.71 155.419ZM1281.13 158.546C1279.38 158.546 1277.83 158.173 1276.47 157.429C1275.11 156.663 1274.03 155.621 1273.25 154.303C1272.46 152.984 1272.07 151.485 1272.07 149.805C1272.07 148.104 1272.46 146.604 1273.25 145.307C1274.03 143.989 1275.11 142.957 1276.47 142.213C1277.83 141.468 1279.38 141.096 1281.13 141.096C1282.89 141.096 1284.45 141.468 1285.81 142.213C1287.2 142.957 1288.27 143.978 1289.04 145.275C1289.82 146.572 1290.22 148.082 1290.22 149.805C1290.22 151.485 1289.82 152.984 1289.04 154.303C1288.27 155.621 1287.2 156.663 1285.81 157.429C1284.45 158.173 1282.89 158.546 1281.13 158.546ZM1281.13 155.132C1282.1 155.132 1282.98 154.92 1283.74 154.494C1284.51 154.069 1285.1 153.452 1285.53 152.644C1285.97 151.836 1286.2 150.89 1286.2 149.805C1286.2 148.699 1285.97 147.753 1285.53 146.966C1285.1 146.158 1284.51 145.541 1283.74 145.116C1282.98 144.69 1282.11 144.478 1281.16 144.478C1280.18 144.478 1279.31 144.69 1278.54 145.116C1277.8 145.541 1277.2 146.158 1276.76 146.966C1276.31 147.753 1276.09 148.699 1276.09 149.805C1276.09 150.89 1276.31 151.836 1276.76 152.644C1277.2 153.452 1277.8 154.069 1278.54 154.494C1279.31 154.92 1280.17 155.132 1281.13 155.132ZM1297.07 158.322V143.712L1298 144.669H1291.08V141.288H1307.03V144.669H1300.14L1301.06 143.712V158.322H1297.07ZM1320.25 158.322V154.877L1320.03 154.143V148.114C1320.03 146.945 1319.68 146.041 1318.98 145.403C1318.28 144.743 1317.21 144.414 1315.79 144.414C1314.83 144.414 1313.89 144.563 1312.95 144.86C1312.04 145.158 1311.26 145.573 1310.62 146.105L1309.06 143.202C1309.97 142.5 1311.06 141.979 1312.31 141.639C1313.59 141.277 1314.91 141.096 1316.27 141.096C1318.73 141.096 1320.64 141.692 1321.98 142.883C1323.34 144.052 1324.02 145.871 1324.02 148.338V158.322H1320.25ZM1314.9 158.546C1313.62 158.546 1312.5 158.333 1311.55 157.908C1310.59 157.461 1309.84 156.855 1309.31 156.089C1308.8 155.302 1308.55 154.42 1308.55 153.442C1308.55 152.485 1308.77 151.623 1309.22 150.858C1309.69 150.092 1310.44 149.486 1311.48 149.039C1312.52 148.593 1313.91 148.369 1315.63 148.369H1320.57V151.017H1315.92C1314.56 151.017 1313.64 151.24 1313.17 151.687C1312.71 152.112 1312.47 152.644 1312.47 153.282C1312.47 154.005 1312.76 154.579 1313.33 155.005C1313.91 155.43 1314.7 155.643 1315.73 155.643C1316.7 155.643 1317.58 155.419 1318.34 154.973C1319.13 154.526 1319.69 153.867 1320.03 152.995L1320.7 155.387C1320.32 156.387 1319.63 157.163 1318.63 157.716C1317.65 158.269 1316.41 158.546 1314.9 158.546Z" fill="#151414"/>
</g>
<g clip-path="url(#clip4_4_4163)">
<rect x="568.987" y="106.056" width="487.361" height="497.995" rx="23.0389" fill="#F7F7F7"/>
<path d="M1009.55 331.714C996.533 355.75 1020.82 457.735 1034.59 505.723L979.508 430.611C924.426 301.669 1022.07 255.35 1057.12 279.136C1092.18 302.921 1080.91 349.24 1057.12 352.996C1033.34 356.751 1025.83 301.67 1009.55 331.714Z" fill="#F7F7F7" stroke="#5F79FF" stroke-width="2.50372"/>
<path d="M1009.55 331.714C996.533 355.75 1020.82 457.735 1034.59 505.723L979.508 430.611C924.426 301.669 1022.07 255.35 1057.12 279.136C1092.18 302.921 1080.91 349.24 1057.12 352.996C1033.34 356.751 1025.83 301.67 1009.55 331.714Z" stroke="#5F79FF" stroke-width="7.51116"/>
<path d="M945.71 623.401C961.734 625.404 971.582 595.026 974.503 579.586L978.259 554.549L944.459 535.771L928.184 555.801C924.429 575.831 925.681 620.898 945.71 623.401Z" fill="#F7F7F7" stroke="#5F79FF" stroke-width="2.50372"/>
<path d="M904.39 613.376C911.4 605.364 911.483 569.978 910.649 553.287L875.597 539.516L874.345 550.783L873.093 560.798L879.352 624.643C891.871 624.643 895.627 623.391 904.39 613.376Z" fill="#F7F7F7" stroke="#5F79FF" stroke-width="2.50372"/>
<path d="M945.71 623.401C961.734 625.404 971.582 595.026 974.503 579.586L978.259 554.549L944.459 535.771L928.184 555.801C924.429 575.831 925.681 620.898 945.71 623.401Z" stroke="#5F79FF" stroke-width="7.51116"/>
<path d="M904.39 613.376C911.4 605.364 911.483 569.978 910.649 553.287L875.597 539.516L874.345 550.783L873.093 560.798L879.352 624.643C891.871 624.643 895.627 623.391 904.39 613.376Z" stroke="#5F79FF" stroke-width="7.51116"/>
<path d="M1020.81 459.41C990.769 408.334 921.499 418.934 890.62 430.618C904.391 406.832 903.139 363.017 903.139 336.728C903.139 310.439 890.62 277.891 871.842 276.639C856.82 275.637 854.734 297.086 855.568 307.935C853.064 294.582 842.799 268.126 821.768 269.128C800.737 270.129 789.637 308.77 786.716 327.965C771.276 337.98 739.646 364.77 736.641 391.81C733.637 418.85 768.772 440.633 786.716 448.144C786.716 453.986 789.971 481.443 802.99 544.537C819.264 623.404 839.294 644.686 863.079 642.182C882.108 640.179 877.684 578.755 873.094 548.293C893.124 558.308 935.687 547.041 951.961 548.293C964.981 549.294 969.905 567.905 970.739 577.085C984.51 635.923 987.013 635.923 1012.05 634.671C1037.09 633.419 1058.37 523.255 1020.81 459.41Z" fill="#F7F7F7" stroke="#5F79FF" stroke-width="2.50372"/>
<path d="M1020.81 459.41C990.769 408.334 921.499 418.934 890.62 430.618C904.391 406.832 903.139 363.017 903.139 336.728C903.139 310.439 890.62 277.891 871.842 276.639C856.82 275.637 854.734 297.086 855.568 307.935C853.064 294.582 842.799 268.126 821.768 269.128C800.737 270.129 789.637 308.77 786.716 327.965C771.276 337.98 739.646 364.77 736.641 391.81C733.637 418.85 768.772 440.633 786.716 448.144C786.716 453.986 789.971 481.443 802.99 544.537C819.264 623.404 839.294 644.686 863.079 642.182C882.108 640.179 877.684 578.755 873.094 548.293C893.124 558.308 935.687 547.041 951.961 548.293C964.981 549.294 969.905 567.905 970.739 577.085C984.51 635.923 987.013 635.923 1012.05 634.671C1037.09 633.419 1058.37 523.255 1020.81 459.41Z" stroke="#5F79FF" stroke-width="7.51116"/>
<path d="M854.324 304.177C857.663 312.941 863.838 331.969 861.835 337.978" stroke="#5F79FF" stroke-width="7.51116"/>
<path d="M890.629 429.355C887.708 431.859 881.365 439.62 879.362 450.637" stroke="#5F79FF" stroke-width="7.51116"/>
<path d="M772.669 367.758C771.332 370.836 770.882 373.888 771.179 376.302C771.48 378.749 772.496 380.296 773.836 380.878C775.175 381.46 776.999 381.147 778.993 379.697C780.961 378.267 782.885 375.856 784.222 372.778C785.56 369.7 786.009 366.648 785.712 364.234C785.412 361.787 784.396 360.24 783.056 359.658C781.716 359.076 779.893 359.389 777.898 360.839C775.931 362.269 774.007 364.68 772.669 367.758Z" fill="#5F79FF" stroke="#5F79FF" stroke-width="2.50372"/>
<path d="M599.381 576.423C597.831 576.423 596.451 576.093 595.241 575.431C594.031 574.75 593.077 573.824 592.377 572.652C591.678 571.48 591.328 570.147 591.328 568.654C591.328 567.142 591.678 565.809 592.377 564.656C593.077 563.484 594.031 562.567 595.241 561.905C596.451 561.244 597.831 560.913 599.381 560.913C600.95 560.913 602.34 561.244 603.549 561.905C604.778 562.567 605.733 563.474 606.413 564.627C607.113 565.781 607.463 567.123 607.463 568.654C607.463 570.147 607.113 571.48 606.413 572.652C605.733 573.824 604.778 574.75 603.549 575.431C602.34 576.093 600.95 576.423 599.381 576.423ZM599.381 573.389C600.251 573.389 601.026 573.2 601.706 572.822C602.387 572.444 602.916 571.896 603.294 571.178C603.691 570.459 603.89 569.618 603.89 568.654C603.89 567.671 603.691 566.83 603.294 566.13C602.916 565.412 602.387 564.864 601.706 564.486C601.026 564.108 600.26 563.919 599.41 563.919C598.54 563.919 597.765 564.108 597.084 564.486C596.423 564.864 595.893 565.412 595.497 566.13C595.1 566.83 594.901 567.671 594.901 568.654C594.901 569.618 595.1 570.459 595.497 571.178C595.893 571.896 596.423 572.444 597.084 572.822C597.765 573.2 598.531 573.389 599.381 573.389ZM613.558 576.225V563.238L614.38 564.089H608.227V561.083H622.405V564.089H616.28L617.102 563.238V576.225H613.558ZM634.854 576.225V557.794L636.47 559.467H630.657V556.376H638.54V576.225H634.854ZM649.056 576.508C647.657 576.508 646.287 576.31 644.944 575.913C643.621 575.497 642.506 574.93 641.598 574.212L643.158 571.348C643.876 571.934 644.746 572.406 645.767 572.765C646.806 573.125 647.884 573.304 648.999 573.304C650.304 573.304 651.324 573.03 652.062 572.482C652.818 571.934 653.196 571.196 653.196 570.27C653.196 569.646 653.035 569.098 652.714 568.626C652.411 568.153 651.863 567.794 651.069 567.548C650.294 567.302 649.226 567.179 647.865 567.179H643.073L644.094 556.376H655.748V559.467H645.455L647.383 557.709L646.617 565.79L644.689 564.06H648.687C650.653 564.06 652.232 564.325 653.423 564.854C654.633 565.365 655.512 566.083 656.06 567.009C656.627 567.917 656.91 568.956 656.91 570.128C656.91 571.282 656.627 572.34 656.06 573.304C655.493 574.268 654.623 575.043 653.451 575.629C652.298 576.215 650.833 576.508 649.056 576.508ZM667.316 576.508C665.747 576.508 664.33 576.111 663.063 575.317C661.815 574.524 660.833 573.37 660.114 571.858C659.396 570.327 659.037 568.474 659.037 566.3C659.037 564.126 659.396 562.283 660.114 560.771C660.833 559.24 661.815 558.077 663.063 557.283C664.33 556.489 665.747 556.092 667.316 556.092C668.904 556.092 670.322 556.489 671.57 557.283C672.817 558.077 673.8 559.24 674.519 560.771C675.256 562.283 675.625 564.126 675.625 566.3C675.625 568.474 675.256 570.327 674.519 571.858C673.8 573.37 672.817 574.524 671.57 575.317C670.322 576.111 668.904 576.508 667.316 576.508ZM667.316 573.304C668.243 573.304 669.046 573.058 669.727 572.567C670.407 572.057 670.937 571.282 671.315 570.242C671.712 569.202 671.91 567.888 671.91 566.3C671.91 564.694 671.712 563.38 671.315 562.359C670.937 561.319 670.407 560.554 669.727 560.062C669.046 559.552 668.243 559.297 667.316 559.297C666.428 559.297 665.634 559.552 664.935 560.062C664.254 560.554 663.715 561.319 663.318 562.359C662.94 563.38 662.751 564.694 662.751 566.3C662.751 567.888 662.94 569.202 663.318 570.242C663.715 571.282 664.254 572.057 664.935 572.567C665.634 573.058 666.428 573.304 667.316 573.304ZM686.396 576.508C684.827 576.508 683.409 576.111 682.142 575.317C680.895 574.524 679.912 573.37 679.193 571.858C678.475 570.327 678.116 568.474 678.116 566.3C678.116 564.126 678.475 562.283 679.193 560.771C679.912 559.24 680.895 558.077 682.142 557.283C683.409 556.489 684.827 556.092 686.396 556.092C687.983 556.092 689.401 556.489 690.649 557.283C691.897 558.077 692.88 559.24 693.598 560.771C694.335 562.283 694.704 564.126 694.704 566.3C694.704 568.474 694.335 570.327 693.598 571.858C692.88 573.37 691.897 574.524 690.649 575.317C689.401 576.111 687.983 576.508 686.396 576.508ZM686.396 573.304C687.322 573.304 688.125 573.058 688.806 572.567C689.486 572.057 690.016 571.282 690.394 570.242C690.791 569.202 690.989 567.888 690.989 566.3C690.989 564.694 690.791 563.38 690.394 562.359C690.016 561.319 689.486 560.554 688.806 560.062C688.125 559.552 687.322 559.297 686.396 559.297C685.507 559.297 684.713 559.552 684.014 560.062C683.333 560.554 682.794 561.319 682.397 562.359C682.019 563.38 681.83 564.694 681.83 566.3C681.83 567.888 682.019 569.202 682.397 570.242C682.794 571.282 683.333 572.057 684.014 572.567C684.713 573.058 685.507 573.304 686.396 573.304ZM706.722 576.423C705.494 576.423 704.369 576.14 703.348 575.573C702.346 575.006 701.543 574.155 700.938 573.021C700.352 571.868 700.059 570.412 700.059 568.654C700.059 566.877 700.342 565.421 700.909 564.287C701.495 563.153 702.289 562.312 703.291 561.764C704.293 561.196 705.437 560.913 706.722 560.913C708.216 560.913 709.529 561.234 710.664 561.877C711.817 562.52 712.724 563.418 713.386 564.571C714.066 565.724 714.407 567.085 714.407 568.654C714.407 570.223 714.066 571.593 713.386 572.765C712.724 573.919 711.817 574.817 710.664 575.459C709.529 576.102 708.216 576.423 706.722 576.423ZM698.329 581.726V561.083H701.703V564.656L701.59 568.682L701.873 572.709V581.726H698.329ZM706.325 573.389C707.176 573.389 707.932 573.2 708.594 572.822C709.274 572.444 709.813 571.896 710.21 571.178C710.607 570.459 710.805 569.618 710.805 568.654C710.805 567.671 710.607 566.83 710.21 566.13C709.813 565.412 709.274 564.864 708.594 564.486C707.932 564.108 707.176 563.919 706.325 563.919C705.475 563.919 704.709 564.108 704.028 564.486C703.348 564.864 702.809 565.412 702.412 566.13C702.015 566.83 701.817 567.671 701.817 568.654C701.817 569.618 702.015 570.459 702.412 571.178C702.809 571.896 703.348 572.444 704.028 572.822C704.709 573.2 705.475 573.389 706.325 573.389Z" fill="#5F79FF"/>
<path d="M608.147 158.322L600.586 147.444L603.936 145.371L612.836 158.322H608.147ZM593.377 158.322V135.992H597.46V158.322H593.377ZM596.216 148.912V145.339H603.744V148.912H596.216ZM604.319 147.636L600.523 147.125L608.147 135.992H612.549L604.319 147.636ZM622.578 158.546C620.835 158.546 619.282 158.173 617.921 157.429C616.56 156.663 615.486 155.621 614.699 154.303C613.912 152.984 613.519 151.485 613.519 149.805C613.519 148.104 613.912 146.604 614.699 145.307C615.486 143.989 616.56 142.957 617.921 142.213C619.282 141.468 620.835 141.096 622.578 141.096C624.344 141.096 625.907 141.468 627.268 142.213C628.65 142.957 629.724 143.978 630.49 145.275C631.276 146.572 631.67 148.082 631.67 149.805C631.67 151.485 631.276 152.984 630.49 154.303C629.724 155.621 628.65 156.663 627.268 157.429C625.907 158.173 624.344 158.546 622.578 158.546ZM622.578 155.132C623.557 155.132 624.429 154.92 625.194 154.494C625.96 154.069 626.555 153.452 626.981 152.644C627.427 151.836 627.65 150.89 627.65 149.805C627.65 148.699 627.427 147.753 626.981 146.966C626.555 146.158 625.96 145.541 625.194 145.116C624.429 144.69 623.567 144.478 622.61 144.478C621.632 144.478 620.76 144.69 619.994 145.116C619.25 145.541 618.655 146.158 618.208 146.966C617.761 147.753 617.538 148.699 617.538 149.805C617.538 150.89 617.761 151.836 618.208 152.644C618.655 153.452 619.25 154.069 619.994 154.494C620.76 154.92 621.621 155.132 622.578 155.132ZM645.051 158.546C643.669 158.546 642.404 158.227 641.255 157.589C640.128 156.951 639.224 155.994 638.544 154.718C637.885 153.42 637.555 151.783 637.555 149.805C637.555 147.806 637.874 146.168 638.512 144.892C639.171 143.616 640.064 142.67 641.192 142.053C642.319 141.415 643.605 141.096 645.051 141.096C646.732 141.096 648.21 141.458 649.486 142.181C650.783 142.904 651.804 143.914 652.548 145.211C653.314 146.509 653.696 148.04 653.696 149.805C653.696 151.57 653.314 153.112 652.548 154.43C651.804 155.728 650.783 156.738 649.486 157.461C648.21 158.184 646.732 158.546 645.051 158.546ZM635.609 164.511V141.288H639.405V145.307L639.278 149.837L639.597 154.367V164.511H635.609ZM644.605 155.132C645.562 155.132 646.413 154.92 647.157 154.494C647.922 154.069 648.529 153.452 648.975 152.644C649.422 151.836 649.645 150.89 649.645 149.805C649.645 148.699 649.422 147.753 648.975 146.966C648.529 146.158 647.922 145.541 647.157 145.116C646.413 144.69 645.562 144.478 644.605 144.478C643.648 144.478 642.787 144.69 642.021 145.116C641.255 145.541 640.649 146.158 640.203 146.966C639.756 147.753 639.533 148.699 639.533 149.805C639.533 150.89 639.756 151.836 640.203 152.644C640.649 153.452 641.255 154.069 642.021 154.494C642.787 154.92 643.648 155.132 644.605 155.132ZM657.665 158.322V141.288H661.844L668.702 153.378H667.043L674.253 141.288H677.985L678.017 158.322H674.412V145.562L675.05 145.977L668.67 156.536H666.948L660.536 145.69L661.301 145.498V158.322H657.665ZM680.877 158.29L681.069 154.941C681.218 154.962 681.356 154.983 681.483 155.005C681.611 155.026 681.728 155.037 681.834 155.037C682.494 155.037 683.004 154.835 683.366 154.43C683.727 154.026 683.993 153.484 684.163 152.804C684.354 152.102 684.482 151.326 684.546 150.475C684.631 149.603 684.695 148.731 684.737 147.859L685.024 141.288H698.805V158.322H694.818V143.584L695.743 144.669H687.64L688.501 143.553L688.278 148.05C688.214 149.56 688.087 150.964 687.895 152.261C687.725 153.537 687.449 154.654 687.066 155.611C686.704 156.568 686.194 157.312 685.535 157.844C684.897 158.375 684.078 158.641 683.078 158.641C682.759 158.641 682.409 158.609 682.026 158.546C681.664 158.482 681.281 158.397 680.877 158.29ZM712.118 158.546C710.226 158.546 708.567 158.173 707.142 157.429C705.738 156.663 704.643 155.621 703.856 154.303C703.091 152.984 702.708 151.485 702.708 149.805C702.708 148.104 703.08 146.604 703.824 145.307C704.59 143.989 705.632 142.957 706.951 142.213C708.29 141.468 709.811 141.096 711.512 141.096C713.171 141.096 714.649 141.458 715.946 142.181C717.244 142.904 718.265 143.925 719.009 145.243C719.753 146.562 720.125 148.114 720.125 149.901C720.125 150.071 720.115 150.262 720.093 150.475C720.093 150.688 720.083 150.89 720.062 151.081H705.866V148.433H717.956L716.393 149.263C716.414 148.284 716.212 147.423 715.787 146.679C715.362 145.934 714.777 145.35 714.032 144.924C713.309 144.499 712.469 144.286 711.512 144.286C710.534 144.286 709.673 144.499 708.928 144.924C708.205 145.35 707.631 145.945 707.206 146.711C706.802 147.455 706.6 148.338 706.6 149.358V149.996C706.6 151.017 706.834 151.921 707.302 152.708C707.769 153.495 708.429 154.101 709.279 154.526C710.13 154.951 711.108 155.164 712.214 155.164C713.171 155.164 714.032 155.015 714.798 154.718C715.564 154.42 716.244 153.952 716.84 153.314L718.977 155.77C718.211 156.663 717.244 157.355 716.074 157.844C714.926 158.312 713.607 158.546 712.118 158.546ZM724.487 158.322V141.288H728.474V148.21H737.055V141.288H741.043V158.322H737.055V151.591H728.474V158.322H724.487ZM746.387 158.322V141.288H750.374V152.516L759.785 141.288H763.421V158.322H759.434V147.093L750.055 158.322H746.387ZM776.728 158.546C774.836 158.546 773.177 158.173 771.752 157.429C770.348 156.663 769.253 155.621 768.466 154.303C767.701 152.984 767.318 151.485 767.318 149.805C767.318 148.104 767.69 146.604 768.434 145.307C769.2 143.989 770.242 142.957 771.561 142.213C772.9 141.468 774.421 141.096 776.122 141.096C777.781 141.096 779.259 141.458 780.556 142.181C781.854 142.904 782.874 143.925 783.619 145.243C784.363 146.562 784.735 148.114 784.735 149.901C784.735 150.071 784.725 150.262 784.703 150.475C784.703 150.688 784.693 150.89 784.672 151.081H770.476V148.433H782.566L781.003 149.263C781.024 148.284 780.822 147.423 780.397 146.679C779.972 145.934 779.387 145.35 778.642 144.924C777.919 144.499 777.079 144.286 776.122 144.286C775.144 144.286 774.283 144.499 773.538 144.924C772.815 145.35 772.241 145.945 771.816 146.711C771.412 147.455 771.21 148.338 771.21 149.358V149.996C771.21 151.017 771.444 151.921 771.912 152.708C772.379 153.495 773.039 154.101 773.889 154.526C774.74 154.951 775.718 155.164 776.824 155.164C777.781 155.164 778.642 155.015 779.408 154.718C780.174 154.42 780.854 153.952 781.45 153.314L783.587 155.77C782.821 156.663 781.854 157.355 780.684 157.844C779.536 158.312 778.217 158.546 776.728 158.546ZM797.913 158.322V141.288H814.246V158.322H810.29V143.744L811.215 144.669H800.975L801.9 143.744V158.322H797.913ZM819.626 158.322V141.288H823.613V152.516L833.024 141.288H836.661V158.322H832.673V147.093L823.294 158.322H819.626ZM845.565 158.322V143.712L846.49 144.669H839.568V141.288H855.518V144.669H848.628L849.553 143.712V158.322H845.565ZM865.255 158.546C863.511 158.546 861.959 158.173 860.598 157.429C859.237 156.663 858.163 155.621 857.376 154.303C856.589 152.984 856.196 151.485 856.196 149.805C856.196 148.104 856.589 146.604 857.376 145.307C858.163 143.989 859.237 142.957 860.598 142.213C861.959 141.468 863.511 141.096 865.255 141.096C867.02 141.096 868.583 141.468 869.944 142.213C871.327 142.957 872.401 143.978 873.166 145.275C873.953 146.572 874.347 148.082 874.347 149.805C874.347 151.485 873.953 152.984 873.166 154.303C872.401 155.621 871.327 156.663 869.944 157.429C868.583 158.173 867.02 158.546 865.255 158.546ZM865.255 155.132C866.233 155.132 867.105 154.92 867.871 154.494C868.637 154.069 869.232 153.452 869.657 152.644C870.104 151.836 870.327 150.89 870.327 149.805C870.327 148.699 870.104 147.753 869.657 146.966C869.232 146.158 868.637 145.541 867.871 145.116C867.105 144.69 866.244 144.478 865.287 144.478C864.309 144.478 863.437 144.69 862.671 145.116C861.927 145.541 861.331 146.158 860.885 146.966C860.438 147.753 860.215 148.699 860.215 149.805C860.215 150.89 860.438 151.836 860.885 152.644C861.331 153.452 861.927 154.069 862.671 154.494C863.437 154.92 864.298 155.132 865.255 155.132ZM878.286 158.322V141.288H882.465L889.323 153.378H887.664L894.874 141.288H898.606L898.638 158.322H895.033V145.562L895.671 145.977L889.291 156.536H887.569L881.157 145.69L881.922 145.498V158.322H878.286ZM903.986 158.322V141.288H907.974V154.941H916.108V141.288H920.096V158.322H903.986ZM918.948 162.118V158.227L919.873 158.322H916.108V154.941H922.68V162.118H918.948ZM936.565 158.322V154.877L936.342 154.143V148.114C936.342 146.945 935.991 146.041 935.289 145.403C934.587 144.743 933.524 144.414 932.099 144.414C931.142 144.414 930.195 144.563 929.26 144.86C928.345 145.158 927.569 145.573 926.931 146.105L925.368 143.202C926.282 142.5 927.367 141.979 928.622 141.639C929.898 141.277 931.216 141.096 932.577 141.096C935.044 141.096 936.948 141.692 938.287 142.883C939.649 144.052 940.329 145.871 940.329 148.338V158.322H936.565ZM931.206 158.546C929.93 158.546 928.813 158.333 927.856 157.908C926.899 157.461 926.155 156.855 925.623 156.089C925.113 155.302 924.858 154.42 924.858 153.442C924.858 152.485 925.081 151.623 925.527 150.858C925.995 150.092 926.75 149.486 927.792 149.039C928.834 148.593 930.217 148.369 931.939 148.369H936.884V151.017H932.226C930.865 151.017 929.951 151.24 929.483 151.687C929.015 152.112 928.781 152.644 928.781 153.282C928.781 154.005 929.068 154.579 929.643 155.005C930.217 155.43 931.014 155.643 932.035 155.643C933.013 155.643 933.885 155.419 934.651 154.973C935.438 154.526 936.001 153.867 936.342 152.995L937.011 155.387C936.629 156.387 935.937 157.163 934.938 157.716C933.96 158.269 932.716 158.546 931.206 158.546Z" fill="#151414"/>
</g>
</g>
</g>
<defs>
<clipPath id="clip0_4_4163">
<rect width="1340" height="638" rx="20" fill="white"/>
</clipPath>
<clipPath id="clip1_4_4163">
<rect x="32" y="-1613" width="1276" height="4038.01" rx="32" fill="white"/>
</clipPath>
<clipPath id="clip2_4_4163">
<rect x="67.4451" y="106.056" width="487.361" height="497.995" rx="23.0389" fill="white"/>
</clipPath>
<clipPath id="clip3_4_4163">
<rect x="1070.52" y="106.056" width="487.361" height="497.995" rx="23.0389" fill="white"/>
</clipPath>
<clipPath id="clip4_4_4163">
<rect x="568.987" y="106.056" width="487.361" height="497.995" rx="23.0389" fill="white"/>
</clipPath>
</defs>
</svg>
