<svg width="318" height="246" viewBox="0 0 318 246" fill="none" xmlns="http://www.w3.org/2000/svg">
<rect y="0.0625" width="318" height="245" rx="25" fill="white"/>
<path d="M22.376 43.0625V26.2625H37.232V43.0625H34.16V28.1345L34.88 28.9025H24.728L25.448 28.1345V43.0625H22.376ZM47.3452 43.2305C46.0332 43.2305 44.8652 42.9505 43.8412 42.3905C42.8172 41.8145 42.0092 41.0305 41.4172 40.0385C40.8252 39.0465 40.5292 37.9185 40.5292 36.6545C40.5292 35.3745 40.8252 34.2465 41.4172 33.2705C42.0092 32.2785 42.8172 31.5025 43.8412 30.9425C44.8652 30.3825 46.0332 30.1025 47.3452 30.1025C48.6732 30.1025 49.8492 30.3825 50.8732 30.9425C51.9132 31.5025 52.7212 32.2705 53.2972 33.2465C53.8892 34.2225 54.1852 35.3585 54.1852 36.6545C54.1852 37.9185 53.8892 39.0465 53.2972 40.0385C52.7212 41.0305 51.9132 41.8145 50.8732 42.3905C49.8492 42.9505 48.6732 43.2305 47.3452 43.2305ZM47.3452 40.6625C48.0812 40.6625 48.7372 40.5025 49.3132 40.1825C49.8892 39.8625 50.3372 39.3985 50.6572 38.7905C50.9932 38.1825 51.1612 37.4705 51.1612 36.6545C51.1612 35.8225 50.9932 35.1105 50.6572 34.5185C50.3372 33.9105 49.8892 33.4465 49.3132 33.1265C48.7372 32.8065 48.0892 32.6465 47.3692 32.6465C46.6332 32.6465 45.9772 32.8065 45.4012 33.1265C44.8412 33.4465 44.3932 33.9105 44.0572 34.5185C43.7212 35.1105 43.5532 35.8225 43.5532 36.6545C43.5532 37.4705 43.7212 38.1825 44.0572 38.7905C44.3932 39.3985 44.8412 39.8625 45.4012 40.1825C45.9772 40.5025 46.6252 40.6625 47.3452 40.6625ZM57.1488 43.0625V30.2465H60.1488V35.4545H66.6048V30.2465H69.6048V43.0625H66.6048V37.9985H60.1488V43.0625H57.1488ZM81.7614 43.0625V38.6945L82.1934 39.1985H78.3534C76.5934 39.1985 75.2094 38.8305 74.2014 38.0945C73.2094 37.3425 72.7134 36.2625 72.7134 34.8545C72.7134 33.3505 73.2414 32.2065 74.2974 31.4225C75.3694 30.6385 76.7934 30.2465 78.5694 30.2465H84.4494V43.0625H81.7614ZM72.5454 43.0625L76.0014 38.1665H79.0734L75.7614 43.0625H72.5454ZM81.7614 37.7345V31.9745L82.1934 32.7665H78.6654C77.7374 32.7665 77.0174 32.9425 76.5054 33.2945C76.0094 33.6305 75.7614 34.1825 75.7614 34.9505C75.7614 36.3905 76.6974 37.1105 78.5694 37.1105H82.1934L81.7614 37.7345ZM88.4848 43.0625V30.2465H91.4848V35.4545H97.9408V30.2465H100.941V43.0625H97.9408V37.9985H91.4848V43.0625H88.4848ZM113.049 37.9985C112.441 38.2865 111.793 38.5265 111.105 38.7185C110.433 38.8945 109.721 38.9825 108.969 38.9825C107.353 38.9825 106.097 38.6065 105.201 37.8545C104.305 37.1025 103.857 35.9345 103.857 34.3505V30.2465H106.857V34.1585C106.857 35.0065 107.097 35.6225 107.577 36.0065C108.073 36.3905 108.753 36.5825 109.617 36.5825C110.193 36.5825 110.769 36.5105 111.345 36.3665C111.921 36.2225 112.489 36.0225 113.049 35.7665V37.9985ZM112.833 43.0625V30.2465H115.833V43.0625H112.833ZM119.868 43.0625V30.2465H122.868V38.6945L129.948 30.2465H132.684V43.0625H129.684V34.6145L122.628 43.0625H119.868ZM139.383 43.0625V32.0705L140.079 32.7905H134.871V30.2465H146.871V32.7905H141.687L142.383 32.0705V43.0625H139.383ZM155.479 34.4705C157.127 34.4705 158.383 34.8385 159.247 35.5745C160.111 36.3105 160.543 37.3505 160.543 38.6945C160.543 40.0865 160.063 41.1745 159.103 41.9585C158.143 42.7265 156.791 43.1025 155.047 43.0865L149.047 43.0625V30.2465H152.047V34.4465L155.479 34.4705ZM154.783 40.8785C155.663 40.8945 156.335 40.7105 156.799 40.3265C157.263 39.9425 157.495 39.3825 157.495 38.6465C157.495 37.9105 157.263 37.3825 156.799 37.0625C156.351 36.7265 155.679 36.5505 154.783 36.5345L152.047 36.5105V40.8545L154.783 40.8785ZM169.813 43.0625V30.2465H172.813V35.4545H179.269V30.2465H182.269V43.0625H179.269V37.9985H172.813V43.0625H169.813ZM194.065 43.0625V40.4705L193.897 39.9185V35.3825C193.897 34.5025 193.633 33.8225 193.105 33.3425C192.577 32.8465 191.777 32.5985 190.705 32.5985C189.985 32.5985 189.273 32.7105 188.569 32.9345C187.881 33.1585 187.297 33.4705 186.817 33.8705L185.641 31.6865C186.329 31.1585 187.145 30.7665 188.089 30.5105C189.049 30.2385 190.041 30.1025 191.065 30.1025C192.921 30.1025 194.353 30.5505 195.361 31.4465C196.385 32.3265 196.897 33.6945 196.897 35.5505V43.0625H194.065ZM190.033 43.2305C189.073 43.2305 188.233 43.0705 187.513 42.7505C186.793 42.4145 186.233 41.9585 185.833 41.3825C185.449 40.7905 185.257 40.1265 185.257 39.3905C185.257 38.6705 185.425 38.0225 185.761 37.4465C186.113 36.8705 186.681 36.4145 187.465 36.0785C188.249 35.7425 189.289 35.5745 190.585 35.5745H194.305V37.5665H190.801C189.777 37.5665 189.089 37.7345 188.737 38.0705C188.385 38.3905 188.209 38.7905 188.209 39.2705C188.209 39.8145 188.425 40.2465 188.857 40.5665C189.289 40.8865 189.889 41.0465 190.657 41.0465C191.393 41.0465 192.049 40.8785 192.625 40.5425C193.217 40.2065 193.641 39.7105 193.897 39.0545L194.401 40.8545C194.113 41.6065 193.593 42.1905 192.841 42.6065C192.105 43.0225 191.169 43.2305 190.033 43.2305ZM216.027 41.6705V32.7905H211.107L211.035 34.8545C211.003 35.5905 210.955 36.3025 210.891 36.9905C210.827 37.6625 210.723 38.2865 210.579 38.8625C210.435 39.4225 210.227 39.8865 209.955 40.2545C209.683 40.6225 209.323 40.8625 208.875 40.9745L205.899 40.5185C206.379 40.5185 206.763 40.3665 207.051 40.0625C207.355 39.7425 207.587 39.3105 207.747 38.7665C207.923 38.2065 208.051 37.5745 208.131 36.8705C208.211 36.1505 208.267 35.4065 208.299 34.6385L208.467 30.2465H219.027V41.6705H216.027ZM205.443 45.9185V40.5185H220.923V45.9185H218.115V43.0625H208.227V45.9185H205.443ZM229.314 43.2305C228.002 43.2305 226.834 42.9505 225.81 42.3905C224.786 41.8145 223.978 41.0305 223.386 40.0385C222.794 39.0465 222.498 37.9185 222.498 36.6545C222.498 35.3745 222.794 34.2465 223.386 33.2705C223.978 32.2785 224.786 31.5025 225.81 30.9425C226.834 30.3825 228.002 30.1025 229.314 30.1025C230.642 30.1025 231.818 30.3825 232.842 30.9425C233.882 31.5025 234.69 32.2705 235.266 33.2465C235.858 34.2225 236.154 35.3585 236.154 36.6545C236.154 37.9185 235.858 39.0465 235.266 40.0385C234.69 41.0305 233.882 41.8145 232.842 42.3905C231.818 42.9505 230.642 43.2305 229.314 43.2305ZM229.314 40.6625C230.05 40.6625 230.706 40.5025 231.282 40.1825C231.858 39.8625 232.306 39.3985 232.626 38.7905C232.962 38.1825 233.13 37.4705 233.13 36.6545C233.13 35.8225 232.962 35.1105 232.626 34.5185C232.306 33.9105 231.858 33.4465 231.282 33.1265C230.706 32.8065 230.058 32.6465 229.338 32.6465C228.602 32.6465 227.946 32.8065 227.37 33.1265C226.81 33.4465 226.362 33.9105 226.026 34.5185C225.69 35.1105 225.522 35.8225 225.522 36.6545C225.522 37.4705 225.69 38.1825 226.026 38.7905C226.362 39.3985 226.81 39.8625 227.37 40.1825C227.946 40.5025 228.594 40.6625 229.314 40.6625ZM239.118 43.0625V30.2465H242.262L247.422 39.3425H246.174L251.598 30.2465H254.406L254.43 43.0625H251.718V33.4625L252.198 33.7745L247.398 41.7185H246.102L241.278 33.5585L241.854 33.4145V43.0625H239.118ZM259.605 47.8865C258.982 47.8865 258.358 47.7825 257.734 47.5745C257.11 47.3665 256.59 47.0785 256.173 46.7105L257.374 44.5025C257.678 44.7745 258.022 44.9905 258.406 45.1505C258.79 45.3105 259.182 45.3905 259.582 45.3905C260.126 45.3905 260.566 45.2545 260.902 44.9825C261.238 44.7105 261.55 44.2545 261.838 43.6145L262.582 41.9345L262.822 41.5745L267.67 30.2465H270.549L264.55 44.0945C264.15 45.0545 263.702 45.8145 263.206 46.3745C262.726 46.9345 262.182 47.3265 261.574 47.5505C260.982 47.7745 260.326 47.8865 259.605 47.8865ZM262.246 43.5185L256.462 30.2465H259.582L264.286 41.3105L262.246 43.5185Z" fill="#151414"/>
<ellipse cx="175" cy="219.062" rx="120" ry="15" fill="#D9D9D9" fill-opacity="0.59"/>
<path d="M267.884 131.907C262.298 130.045 254.889 136.367 251.883 139.762L253.337 140.344L256.829 141.798L262.065 144.707L265.556 147.617L269.047 151.108L270.502 152.853C270.793 149.944 274.866 134.234 267.884 131.907Z" fill="white"/>
<path d="M267.884 131.907C262.298 130.045 254.889 136.367 251.883 139.762L253.337 140.344L256.829 141.798L262.065 144.707L265.556 147.617L269.047 151.108L270.502 152.853C270.793 149.944 274.866 134.234 267.884 131.907Z" stroke="black" stroke-width="1.74555"/>
<path d="M100.014 185.726C104.902 183.399 110.972 184.757 113.397 185.726C113.397 156.631 132.959 144.417 153.253 139.762C171 135.69 189.231 142.186 197.183 146.164C198.444 140.538 202.187 128.881 207.075 127.252C211.962 125.623 222.106 134.913 226.567 139.762C228.506 139.374 235.12 138.656 246.059 138.889C256.997 139.122 266.327 147.714 269.624 151.98C276.14 158.032 277.964 173.703 278.061 180.782C279.457 181.48 281.164 183.4 281.843 184.273C285.334 189.51 287.661 197.074 281.261 206.674C276.14 214.355 265.163 217.051 260.314 217.439H224.53H164.018H117.179C106.996 217.439 102.341 213.948 97.3957 209.875C93.4391 206.616 92.8379 198.819 93.0318 195.328C93.3228 193.097 95.1265 188.054 100.014 185.726Z" fill="white"/>
<path d="M230.637 217.441C229.008 182.53 261.572 178.457 278.058 180.784C278.756 181.015 280.676 183.015 281.549 183.987L283.295 186.896L284.168 188.641L284.749 190.387L285.331 193.878V195.624L285.04 197.66L283.877 201.733L280.967 207.261L278.058 210.17L275.44 212.206L272.531 213.952L267.876 215.988L262.639 217.152L260.603 217.441H257.111H243.147H230.637Z" fill="#E8E8E8"/>
<path d="M278.937 190.094L265.846 190.385C265.361 190.87 264.682 192.188 265.846 193.585C267.3 195.33 268.755 196.785 272.246 197.076C275.737 197.367 277.774 195.33 279.228 193.585C280.392 192.188 279.519 190.676 278.937 190.094Z" fill="black"/>
<path d="M236.75 174.094C239.756 177.973 247.223 183.403 253.042 174.094" stroke="black" stroke-width="1.74555"/>
<path d="M267.875 172.93C269.33 175.16 273.403 179.097 278.057 177.003" stroke="black" stroke-width="1.74555"/>
<path d="M276.317 166.529C269.335 145.117 241.406 140.928 228.314 141.51L226.859 140.054L227.15 139.763L228.896 139.472L232.969 139.182L239.369 138.891H246.06L249.843 139.182L251.588 139.763L253.915 140.345L258.57 142.673L264.68 146.746L267.589 149.655L270.498 152.855L271.953 154.892L274.28 159.255L275.153 161.874L276.317 166.529Z" fill="#E8E8E8"/>
<path d="M226.57 139.766C227.54 140.541 229.654 142.617 230.352 144.711" stroke="black" stroke-width="1.74555"/>
<path d="M113.398 185.727C113.495 186.89 113.98 189.625 115.144 191.254" stroke="black" stroke-width="1.74555"/>
<path d="M116.31 144.125C117.009 150.642 122.226 153.823 124.747 154.599L123.874 155.76L119.801 161.288L117.764 164.779L116.019 168.852L115.147 172.345C86.9269 150.817 115.438 135.979 116.31 144.125Z" fill="white"/>
<path d="M107.296 154.313C102.874 154.08 103.708 158.677 104.678 161.004L106.131 163.332L108.75 166.533L111.95 169.733L113.114 170.606L115.15 172.06L115.732 170.606L116.314 168.278L117.768 165.078C115.732 164.496 112.824 154.604 107.296 154.313Z" fill="#E8E8E8"/>
<path d="M116.31 144.125C117.009 150.642 122.226 153.823 124.747 154.599L123.874 155.76L119.801 161.288L117.764 164.779L116.019 168.852L115.147 172.345C86.9269 150.817 115.438 135.979 116.31 144.125Z" stroke="black" stroke-width="1.74555"/>
<path d="M103.504 198.82C101.874 190.907 107.674 186.213 110.777 184.855H109.614L107.868 184.273L104.668 184.564L101.468 185.146L99.7225 185.728L97.1042 187.765L95.3587 189.801L93.6131 192.71L93.0312 195.91V197.947L93.3222 200.274L93.6131 202.311L93.904 204.056L94.7768 205.802L95.6496 207.838L97.3951 209.875L100.304 212.202L103.505 214.239L107.868 216.275L111.36 217.148C120.669 210.166 105.54 208.711 103.504 198.82Z" fill="#E8E8E8"/>
<path d="M210.567 137.729C208.705 138.893 209.791 151.597 210.567 157.803C212.662 152.916 217.646 148.785 219.876 147.33C217.549 143.645 212.429 136.566 210.567 137.729Z" fill="#E8E8E8"/>
<path d="M162.28 201.146C159.022 193 168.487 188.442 173.626 187.181L170.136 186.308L166.354 185.727L161.118 186.308L157.627 188.054L154.135 190.381L152.099 193.291L150.644 196.491L150.062 200.564L150.353 204.346L151.226 206.964L152.972 210.164L155.008 211.91L159.663 214.528L164.318 216.274L168.682 217.147C171.591 208.71 166.353 211.328 162.28 201.146Z" fill="#E8E8E8"/>
<path d="M196.607 152.267C153.783 128.295 123.682 159.734 113.984 178.451V176.996L115.148 172.05L117.185 166.523L118.93 162.741L124.167 155.467L125.33 154.013L127.949 151.685L132.895 147.903L139.877 144.121L147.15 141.503L151.805 140.048L156.75 139.176L160.242 138.594H164.605H168.097L171.879 138.885L176.242 139.467L182.061 140.63L188.461 142.376L192.534 144.121L196.898 145.867H197.48L196.607 152.267Z" fill="#A1A1A1" fill-opacity="0.24"/>
<ellipse cx="245.767" cy="164.493" rx="7.56407" ry="4.94574" fill="#C7C1C1"/>
<path d="M269.637 165.367C268.326 162.486 271.957 160.521 274.289 161.294C274.987 161.527 276.328 164.786 276.328 167.404C274.001 167.986 271.092 168.568 269.637 165.367Z" fill="#C7C1C1"/>
<path d="M273.993 196.203C274.672 198.24 275.099 202.953 271.375 205.513" stroke="black" stroke-width="1.74555"/>
<path d="M177.986 188.927C173.525 186.406 162.741 182.992 155.293 189.509C145.984 197.655 150.93 209.583 155.293 212.202C159.657 214.82 166.641 217.729 175.368 217.438" stroke="black" stroke-width="1.74555"/>
<path d="M197.187 146.156C196.411 152.751 195.092 167.394 196.023 173.212" stroke="black" stroke-width="1.74555"/>
<path d="M100.014 185.726C104.902 183.399 110.972 184.757 113.397 185.726C113.397 156.631 132.959 144.417 153.253 139.762C171 135.69 189.231 142.186 197.183 146.164C198.444 140.538 202.187 128.881 207.075 127.252C211.962 125.623 222.106 134.913 226.567 139.762C228.506 139.374 235.12 138.656 246.059 138.889C256.998 139.122 266.327 147.714 269.624 151.98C276.14 158.032 277.964 173.703 278.061 180.782C279.457 181.48 281.164 183.4 281.843 184.273C285.334 189.51 287.661 197.074 281.261 206.674C276.14 214.355 265.163 217.051 260.314 217.439H224.53H164.018H117.179C106.996 217.439 101.355 213.133 97.3957 209.875C93.4382 206.617 92.8379 198.819 93.0319 195.328C93.3228 193.097 95.1265 188.054 100.014 185.726Z" stroke="black" stroke-width="1.74555"/>
<rect x="20" y="178.062" width="108" height="42" rx="10" fill="#5F79FF"/>
<path d="M37.584 205.062V193.862H47.488V205.062H45.44V195.11L45.92 195.622H39.152L39.632 195.11V205.062H37.584ZM54.4061 205.175C53.4568 205.175 52.6248 204.988 51.9101 204.614C51.2061 204.23 50.6568 203.708 50.2621 203.046C49.8781 202.385 49.6861 201.633 49.6861 200.79C49.6861 199.937 49.8728 199.185 50.2461 198.534C50.6301 197.873 51.1528 197.356 51.8141 196.983C52.4861 196.609 53.2488 196.422 54.1021 196.422C54.9341 196.422 55.6755 196.604 56.3261 196.966C56.9768 197.329 57.4888 197.841 57.8621 198.502C58.2355 199.164 58.4221 199.942 58.4221 200.839C58.4221 200.924 58.4168 201.02 58.4061 201.126C58.4061 201.233 58.4008 201.334 58.3901 201.43H51.2701V200.102H57.3341L56.5501 200.518C56.5608 200.028 56.4595 199.596 56.2461 199.222C56.0328 198.849 55.7395 198.556 55.3661 198.342C55.0035 198.129 54.5821 198.022 54.1021 198.022C53.6115 198.022 53.1795 198.129 52.8061 198.342C52.4435 198.556 52.1555 198.854 51.9421 199.238C51.7395 199.612 51.6381 200.054 51.6381 200.566V200.886C51.6381 201.398 51.7555 201.852 51.9901 202.246C52.2248 202.641 52.5555 202.945 52.9821 203.158C53.4088 203.372 53.8995 203.478 54.4541 203.478C54.9341 203.478 55.3661 203.404 55.7501 203.254C56.1341 203.105 56.4755 202.87 56.7741 202.55L57.8461 203.782C57.4621 204.23 56.9768 204.577 56.3901 204.822C55.8141 205.057 55.1528 205.175 54.4061 205.175ZM65.3456 205.175C64.6523 205.175 64.0176 205.014 63.4416 204.694C62.8763 204.374 62.423 203.894 62.0816 203.254C61.751 202.604 61.5856 201.782 61.5856 200.79C61.5856 199.788 61.7456 198.966 62.0656 198.326C62.3963 197.686 62.8443 197.212 63.4096 196.902C63.975 196.582 64.6203 196.422 65.3456 196.422C66.1883 196.422 66.9296 196.604 67.5696 196.966C68.2203 197.329 68.7323 197.836 69.1056 198.486C69.4896 199.137 69.6816 199.905 69.6816 200.79C69.6816 201.676 69.4896 202.449 69.1056 203.11C68.7323 203.761 68.2203 204.268 67.5696 204.63C66.9296 204.993 66.1883 205.175 65.3456 205.175ZM60.6096 208.167V196.518H62.5136V198.534L62.4496 200.806L62.6096 203.078V208.167H60.6096ZM65.1216 203.462C65.6016 203.462 66.0283 203.356 66.4016 203.142C66.7856 202.929 67.0896 202.62 67.3136 202.214C67.5376 201.809 67.6496 201.334 67.6496 200.79C67.6496 200.236 67.5376 199.761 67.3136 199.366C67.0896 198.961 66.7856 198.652 66.4016 198.438C66.0283 198.225 65.6016 198.118 65.1216 198.118C64.6416 198.118 64.2096 198.225 63.8256 198.438C63.4416 198.652 63.1376 198.961 62.9136 199.366C62.6896 199.761 62.5776 200.236 62.5776 200.79C62.5776 201.334 62.6896 201.809 62.9136 202.214C63.1376 202.62 63.4416 202.929 63.8256 203.142C64.2096 203.356 64.6416 203.462 65.1216 203.462ZM75.6561 205.175C74.7068 205.175 73.8748 204.988 73.1601 204.614C72.4561 204.23 71.9068 203.708 71.5121 203.046C71.1281 202.385 70.9361 201.633 70.9361 200.79C70.9361 199.937 71.1228 199.185 71.4961 198.534C71.8801 197.873 72.4028 197.356 73.0641 196.983C73.7361 196.609 74.4988 196.422 75.3521 196.422C76.1841 196.422 76.9255 196.604 77.5761 196.966C78.2268 197.329 78.7388 197.841 79.1121 198.502C79.4855 199.164 79.6721 199.942 79.6721 200.839C79.6721 200.924 79.6668 201.02 79.6561 201.126C79.6561 201.233 79.6508 201.334 79.6401 201.43H72.5201V200.102H78.5841L77.8001 200.518C77.8108 200.028 77.7095 199.596 77.4961 199.222C77.2828 198.849 76.9895 198.556 76.6161 198.342C76.2535 198.129 75.8321 198.022 75.3521 198.022C74.8615 198.022 74.4295 198.129 74.0561 198.342C73.6935 198.556 73.4055 198.854 73.1921 199.238C72.9895 199.612 72.8881 200.054 72.8881 200.566V200.886C72.8881 201.398 73.0055 201.852 73.2401 202.246C73.4748 202.641 73.8055 202.945 74.2321 203.158C74.6588 203.372 75.1495 203.478 75.7041 203.478C76.1841 203.478 76.6161 203.404 77.0001 203.254C77.3841 203.105 77.7255 202.87 78.0241 202.55L79.0961 203.782C78.7121 204.23 78.2268 204.577 77.6401 204.822C77.0641 205.057 76.4028 205.175 75.6561 205.175ZM81.8596 205.062V196.518H83.8596V202.15L88.5796 196.518H90.4036V205.062H88.4036V199.43L83.6996 205.062H81.8596ZM86.0036 195.51C85.1503 195.51 84.4943 195.313 84.0356 194.918C83.577 194.513 83.3423 193.926 83.3316 193.158H84.6596C84.6703 193.542 84.7876 193.846 85.0116 194.07C85.2463 194.294 85.5716 194.406 85.9876 194.406C86.393 194.406 86.713 194.294 86.9476 194.07C87.193 193.846 87.321 193.542 87.3316 193.158H88.6916C88.681 193.926 88.441 194.513 87.9716 194.918C87.513 195.313 86.857 195.51 86.0036 195.51ZM94.87 205.062V197.734L95.334 198.214H91.862V196.518H99.862V198.214H96.406L96.87 197.734V205.062H94.87ZM101.313 205.062V196.518H103.313V202.15L108.033 196.518H109.857V205.062H107.857V199.43L103.153 205.062H101.313Z" fill="white"/>
</svg>
