<svg width="319" height="246" viewBox="0 0 319 246" fill="none" xmlns="http://www.w3.org/2000/svg">
<rect y="0.0625" width="319" height="245" rx="25" fill="white"/>
<ellipse cx="193" cy="219.062" rx="90" ry="15" fill="#D9D9D9" fill-opacity="0.59"/>
<path d="M22.376 43.0625V26.2625H37.232V43.0625H34.16V28.1345L34.88 28.9025H24.728L25.448 28.1345V43.0625H22.376ZM47.6092 43.2305C46.1852 43.2305 44.9372 42.9505 43.8652 42.3905C42.8092 41.8145 41.9852 41.0305 41.3932 40.0385C40.8172 39.0465 40.5292 37.9185 40.5292 36.6545C40.5292 35.3745 40.8092 34.2465 41.3692 33.2705C41.9452 32.2785 42.7292 31.5025 43.7212 30.9425C44.7292 30.3825 45.8732 30.1025 47.1532 30.1025C48.4012 30.1025 49.5132 30.3745 50.4892 30.9185C51.4652 31.4625 52.2332 32.2305 52.7932 33.2225C53.3532 34.2145 53.6332 35.3825 53.6332 36.7265C53.6332 36.8545 53.6252 36.9985 53.6092 37.1585C53.6092 37.3185 53.6012 37.4705 53.5852 37.6145H42.9052V35.6225H52.0012L50.8252 36.2465C50.8412 35.5105 50.6892 34.8625 50.3692 34.3025C50.0492 33.7425 49.6092 33.3025 49.0492 32.9825C48.5052 32.6625 47.8732 32.5025 47.1532 32.5025C46.4172 32.5025 45.7692 32.6625 45.2092 32.9825C44.6652 33.3025 44.2332 33.7505 43.9132 34.3265C43.6092 34.8865 43.4572 35.5505 43.4572 36.3185V36.7985C43.4572 37.5665 43.6332 38.2465 43.9852 38.8385C44.3372 39.4305 44.8332 39.8865 45.4732 40.2065C46.1132 40.5265 46.8492 40.6865 47.6812 40.6865C48.4012 40.6865 49.0492 40.5745 49.6252 40.3505C50.2012 40.1265 50.7132 39.7745 51.1612 39.2945L52.7692 41.1425C52.1932 41.8145 51.4652 42.3345 50.5852 42.7025C49.7212 43.0545 48.7292 43.2305 47.6092 43.2305ZM64.0184 43.2305C62.9784 43.2305 62.0264 42.9905 61.1624 42.5105C60.3144 42.0305 59.6344 41.3105 59.1224 40.3505C58.6264 39.3745 58.3784 38.1425 58.3784 36.6545C58.3784 35.1505 58.6184 33.9185 59.0984 32.9585C59.5944 31.9985 60.2664 31.2865 61.1144 30.8225C61.9624 30.3425 62.9304 30.1025 64.0184 30.1025C65.2824 30.1025 66.3944 30.3745 67.3544 30.9185C68.3304 31.4625 69.0984 32.2225 69.6584 33.1985C70.2344 34.1745 70.5224 35.3265 70.5224 36.6545C70.5224 37.9825 70.2344 39.1425 69.6584 40.1345C69.0984 41.1105 68.3304 41.8705 67.3544 42.4145C66.3944 42.9585 65.2824 43.2305 64.0184 43.2305ZM56.9144 47.7185V30.2465H59.7704V33.2705L59.6744 36.6785L59.9144 40.0865V47.7185H56.9144ZM63.6824 40.6625C64.4024 40.6625 65.0424 40.5025 65.6024 40.1825C66.1784 39.8625 66.6344 39.3985 66.9704 38.7905C67.3064 38.1825 67.4744 37.4705 67.4744 36.6545C67.4744 35.8225 67.3064 35.1105 66.9704 34.5185C66.6344 33.9105 66.1784 33.4465 65.6024 33.1265C65.0424 32.8065 64.4024 32.6465 63.6824 32.6465C62.9624 32.6465 62.3144 32.8065 61.7384 33.1265C61.1624 33.4465 60.7064 33.9105 60.3704 34.5185C60.0344 35.1105 59.8664 35.8225 59.8664 36.6545C59.8664 37.4705 60.0344 38.1825 60.3704 38.7905C60.7064 39.3985 61.1624 39.8625 61.7384 40.1825C62.3144 40.5025 62.9624 40.6625 63.6824 40.6625ZM79.4842 43.2305C78.0602 43.2305 76.8122 42.9505 75.7402 42.3905C74.6842 41.8145 73.8602 41.0305 73.2682 40.0385C72.6922 39.0465 72.4042 37.9185 72.4042 36.6545C72.4042 35.3745 72.6842 34.2465 73.2442 33.2705C73.8202 32.2785 74.6042 31.5025 75.5962 30.9425C76.6042 30.3825 77.7482 30.1025 79.0282 30.1025C80.2762 30.1025 81.3882 30.3745 82.3642 30.9185C83.3402 31.4625 84.1082 32.2305 84.6682 33.2225C85.2282 34.2145 85.5082 35.3825 85.5082 36.7265C85.5082 36.8545 85.5002 36.9985 85.4842 37.1585C85.4842 37.3185 85.4762 37.4705 85.4602 37.6145H74.7802V35.6225H83.8762L82.7002 36.2465C82.7162 35.5105 82.5642 34.8625 82.2442 34.3025C81.9242 33.7425 81.4842 33.3025 80.9242 32.9825C80.3802 32.6625 79.7482 32.5025 79.0282 32.5025C78.2922 32.5025 77.6442 32.6625 77.0842 32.9825C76.5402 33.3025 76.1082 33.7505 75.7882 34.3265C75.4842 34.8865 75.3322 35.5505 75.3322 36.3185V36.7985C75.3322 37.5665 75.5082 38.2465 75.8602 38.8385C76.2122 39.4305 76.7082 39.8865 77.3482 40.2065C77.9882 40.5265 78.7242 40.6865 79.5562 40.6865C80.2762 40.6865 80.9242 40.5745 81.5002 40.3505C82.0762 40.1265 82.5882 39.7745 83.0362 39.2945L84.6442 41.1425C84.0682 41.8145 83.3402 42.3345 82.4602 42.7025C81.5962 43.0545 80.6042 43.2305 79.4842 43.2305ZM97.4094 41.6705V32.7905H92.4894L92.4174 34.8545C92.3854 35.5905 92.3374 36.3025 92.2734 36.9905C92.2094 37.6625 92.1054 38.2865 91.9614 38.8625C91.8174 39.4225 91.6094 39.8865 91.3374 40.2545C91.0654 40.6225 90.7054 40.8625 90.2574 40.9745L87.2814 40.5185C87.7614 40.5185 88.1454 40.3665 88.4334 40.0625C88.7374 39.7425 88.9694 39.3105 89.1294 38.7665C89.3054 38.2065 89.4334 37.5745 89.5134 36.8705C89.5934 36.1505 89.6494 35.4065 89.6814 34.6385L89.8494 30.2465H100.409V41.6705H97.4094ZM86.8254 45.9185V40.5185H102.305V45.9185H99.4974V43.0625H89.6094V45.9185H86.8254ZM110.961 43.2305C109.537 43.2305 108.289 42.9505 107.217 42.3905C106.161 41.8145 105.337 41.0305 104.745 40.0385C104.169 39.0465 103.881 37.9185 103.881 36.6545C103.881 35.3745 104.161 34.2465 104.721 33.2705C105.297 32.2785 106.081 31.5025 107.073 30.9425C108.081 30.3825 109.225 30.1025 110.505 30.1025C111.753 30.1025 112.865 30.3745 113.841 30.9185C114.817 31.4625 115.585 32.2305 116.145 33.2225C116.705 34.2145 116.985 35.3825 116.985 36.7265C116.985 36.8545 116.977 36.9985 116.961 37.1585C116.961 37.3185 116.953 37.4705 116.937 37.6145H106.257V35.6225H115.353L114.177 36.2465C114.193 35.5105 114.041 34.8625 113.721 34.3025C113.401 33.7425 112.961 33.3025 112.401 32.9825C111.857 32.6625 111.225 32.5025 110.505 32.5025C109.769 32.5025 109.121 32.6625 108.561 32.9825C108.017 33.3025 107.585 33.7505 107.265 34.3265C106.961 34.8865 106.809 35.5505 106.809 36.3185V36.7985C106.809 37.5665 106.985 38.2465 107.337 38.8385C107.689 39.4305 108.185 39.8865 108.825 40.2065C109.465 40.5265 110.201 40.6865 111.033 40.6865C111.753 40.6865 112.401 40.5745 112.977 40.3505C113.553 40.1265 114.065 39.7745 114.513 39.2945L116.121 41.1425C115.545 41.8145 114.817 42.3345 113.937 42.7025C113.073 43.0545 112.081 43.2305 110.961 43.2305ZM127.37 43.2305C126.33 43.2305 125.378 42.9905 124.514 42.5105C123.666 42.0305 122.986 41.3105 122.474 40.3505C121.978 39.3745 121.73 38.1425 121.73 36.6545C121.73 35.1505 121.97 33.9185 122.45 32.9585C122.946 31.9985 123.618 31.2865 124.466 30.8225C125.314 30.3425 126.282 30.1025 127.37 30.1025C128.634 30.1025 129.746 30.3745 130.706 30.9185C131.682 31.4625 132.45 32.2225 133.01 33.1985C133.586 34.1745 133.874 35.3265 133.874 36.6545C133.874 37.9825 133.586 39.1425 133.01 40.1345C132.45 41.1105 131.682 41.8705 130.706 42.4145C129.746 42.9585 128.634 43.2305 127.37 43.2305ZM120.266 47.7185V30.2465H123.122V33.2705L123.026 36.6785L123.266 40.0865V47.7185H120.266ZM127.034 40.6625C127.754 40.6625 128.394 40.5025 128.954 40.1825C129.53 39.8625 129.986 39.3985 130.322 38.7905C130.658 38.1825 130.826 37.4705 130.826 36.6545C130.826 35.8225 130.658 35.1105 130.322 34.5185C129.986 33.9105 129.53 33.4465 128.954 33.1265C128.394 32.8065 127.754 32.6465 127.034 32.6465C126.314 32.6465 125.666 32.8065 125.09 33.1265C124.514 33.4465 124.058 33.9105 123.722 34.5185C123.386 35.1105 123.218 35.8225 123.218 36.6545C123.218 37.4705 123.386 38.1825 123.722 38.7905C124.058 39.3985 124.514 39.8625 125.09 40.1825C125.666 40.5025 126.314 40.6625 127.034 40.6625ZM151.726 43.0625L147.982 36.9185L150.43 35.4065L155.302 43.0625H151.726ZM145.558 37.9265V35.4305H149.854V37.9265H145.558ZM150.718 37.0145L147.886 36.6785L151.774 30.2465H154.966L150.718 37.0145ZM138.19 43.0625H134.638L139.486 35.4065L141.934 36.9185L138.19 43.0625ZM146.446 43.0625H143.47V30.2465H146.446V43.0625ZM144.358 37.9265H140.086V35.4305H144.358V37.9265ZM139.198 37.0145L134.95 30.2465H138.142L142.006 36.6785L139.198 37.0145ZM165.073 43.0625V40.4705L164.905 39.9185V35.3825C164.905 34.5025 164.641 33.8225 164.113 33.3425C163.585 32.8465 162.785 32.5985 161.713 32.5985C160.993 32.5985 160.281 32.7105 159.577 32.9345C158.889 33.1585 158.305 33.4705 157.825 33.8705L156.649 31.6865C157.337 31.1585 158.153 30.7665 159.097 30.5105C160.057 30.2385 161.049 30.1025 162.073 30.1025C163.929 30.1025 165.361 30.5505 166.369 31.4465C167.393 32.3265 167.905 33.6945 167.905 35.5505V43.0625H165.073ZM161.041 43.2305C160.081 43.2305 159.241 43.0705 158.521 42.7505C157.801 42.4145 157.241 41.9585 156.841 41.3825C156.457 40.7905 156.265 40.1265 156.265 39.3905C156.265 38.6705 156.433 38.0225 156.769 37.4465C157.121 36.8705 157.689 36.4145 158.473 36.0785C159.257 35.7425 160.297 35.5745 161.593 35.5745H165.313V37.5665H161.809C160.785 37.5665 160.097 37.7345 159.745 38.0705C159.393 38.3905 159.217 38.7905 159.217 39.2705C159.217 39.8145 159.433 40.2465 159.865 40.5665C160.297 40.8865 160.897 41.0465 161.665 41.0465C162.401 41.0465 163.057 40.8785 163.633 40.5425C164.225 40.2065 164.649 39.7105 164.905 39.0545L165.409 40.8545C165.121 41.6065 164.601 42.1905 163.849 42.6065C163.113 43.0225 162.177 43.2305 161.041 43.2305ZM174.282 43.0625V32.0705L174.978 32.7905H169.77V30.2465H181.77V32.7905H176.586L177.282 32.0705V43.0625H174.282ZM190.378 34.4705C192.026 34.4705 193.282 34.8385 194.146 35.5745C195.01 36.3105 195.442 37.3505 195.442 38.6945C195.442 40.0865 194.962 41.1745 194.002 41.9585C193.042 42.7265 191.69 43.1025 189.946 43.0865L183.946 43.0625V30.2465H186.946V34.4465L190.378 34.4705ZM189.682 40.8785C190.562 40.8945 191.234 40.7105 191.698 40.3265C192.162 39.9425 192.394 39.3825 192.394 38.6465C192.394 37.9105 192.162 37.3825 191.698 37.0625C191.25 36.7265 190.578 36.5505 189.682 36.5345L186.946 36.5105V40.8545L189.682 40.8785ZM205.863 47.8865C205.239 47.8865 204.615 47.7825 203.991 47.5745C203.367 47.3665 202.847 47.0785 202.431 46.7105L203.631 44.5025C203.935 44.7745 204.279 44.9905 204.663 45.1505C205.047 45.3105 205.439 45.3905 205.839 45.3905C206.383 45.3905 206.823 45.2545 207.159 44.9825C207.495 44.7105 207.807 44.2545 208.095 43.6145L208.839 41.9345L209.079 41.5745L213.927 30.2465H216.807L210.807 44.0945C210.407 45.0545 209.959 45.8145 209.463 46.3745C208.983 46.9345 208.439 47.3265 207.831 47.5505C207.239 47.7745 206.583 47.8865 205.863 47.8865ZM208.503 43.5185L202.719 30.2465H205.839L210.543 41.3105L208.503 43.5185ZM231.356 43.2305C230.012 43.2305 228.812 42.9505 227.756 42.3905C226.716 41.8145 225.9 41.0305 225.308 40.0385C224.716 39.0465 224.42 37.9185 224.42 36.6545C224.42 35.3745 224.716 34.2465 225.308 33.2705C225.9 32.2785 226.716 31.5025 227.756 30.9425C228.812 30.3825 230.012 30.1025 231.356 30.1025C232.604 30.1025 233.7 30.3585 234.644 30.8705C235.604 31.3665 236.332 32.1025 236.828 33.0785L234.524 34.4225C234.14 33.8145 233.668 33.3665 233.108 33.0785C232.564 32.7905 231.972 32.6465 231.332 32.6465C230.596 32.6465 229.932 32.8065 229.34 33.1265C228.748 33.4465 228.284 33.9105 227.948 34.5185C227.612 35.1105 227.444 35.8225 227.444 36.6545C227.444 37.4865 227.612 38.2065 227.948 38.8145C228.284 39.4065 228.748 39.8625 229.34 40.1825C229.932 40.5025 230.596 40.6625 231.332 40.6625C231.972 40.6625 232.564 40.5185 233.108 40.2305C233.668 39.9425 234.14 39.4945 234.524 38.8865L236.828 40.2305C236.332 41.1905 235.604 41.9345 234.644 42.4625C233.7 42.9745 232.604 43.2305 231.356 43.2305ZM245.258 43.2305C243.834 43.2305 242.586 42.9505 241.514 42.3905C240.458 41.8145 239.634 41.0305 239.042 40.0385C238.466 39.0465 238.178 37.9185 238.178 36.6545C238.178 35.3745 238.458 34.2465 239.018 33.2705C239.594 32.2785 240.378 31.5025 241.37 30.9425C242.378 30.3825 243.522 30.1025 244.802 30.1025C246.05 30.1025 247.162 30.3745 248.138 30.9185C249.114 31.4625 249.882 32.2305 250.442 33.2225C251.002 34.2145 251.282 35.3825 251.282 36.7265C251.282 36.8545 251.274 36.9985 251.258 37.1585C251.258 37.3185 251.25 37.4705 251.234 37.6145H240.554V35.6225H249.65L248.474 36.2465C248.49 35.5105 248.338 34.8625 248.018 34.3025C247.698 33.7425 247.258 33.3025 246.698 32.9825C246.154 32.6625 245.522 32.5025 244.802 32.5025C244.066 32.5025 243.418 32.6625 242.858 32.9825C242.314 33.3025 241.882 33.7505 241.562 34.3265C241.258 34.8865 241.106 35.5505 241.106 36.3185V36.7985C241.106 37.5665 241.282 38.2465 241.634 38.8385C241.986 39.4305 242.482 39.8865 243.122 40.2065C243.762 40.5265 244.498 40.6865 245.33 40.6865C246.05 40.6865 246.698 40.5745 247.274 40.3505C247.85 40.1265 248.362 39.7745 248.81 39.2945L250.418 41.1425C249.842 41.8145 249.114 42.3345 248.234 42.7025C247.37 43.0545 246.378 43.2305 245.258 43.2305ZM260.683 43.3025C259.627 43.3025 258.683 43.1425 257.851 42.8225C257.019 42.5025 256.299 42.0145 255.691 41.3585C255.099 40.6865 254.643 39.8385 254.323 38.8145C254.003 37.7905 253.843 36.5745 253.843 35.1665C253.843 34.1425 253.931 33.2065 254.107 32.3585C254.283 31.5105 254.547 30.7505 254.899 30.0785C255.251 29.3905 255.691 28.7825 256.219 28.2545C256.763 27.7265 257.395 27.2865 258.115 26.9345C258.835 26.5825 259.651 26.3105 260.563 26.1185L266.515 24.8465L266.947 27.5345L261.547 28.6385C261.243 28.7025 260.875 28.7985 260.443 28.9265C260.027 29.0385 259.595 29.2145 259.147 29.4545C258.715 29.6785 258.307 30.0065 257.923 30.4385C257.555 30.8545 257.251 31.3985 257.011 32.0705C256.787 32.7265 256.675 33.5505 256.675 34.5425C256.675 34.8465 256.683 35.0785 256.699 35.2385C256.731 35.3825 256.755 35.5425 256.771 35.7185C256.803 35.8785 256.819 36.1185 256.819 36.4385L255.691 35.2625C256.011 34.4465 256.451 33.7505 257.011 33.1745C257.587 32.5825 258.251 32.1345 259.003 31.8305C259.771 31.5105 260.603 31.3505 261.499 31.3505C262.699 31.3505 263.763 31.5985 264.691 32.0945C265.619 32.5905 266.347 33.2865 266.875 34.1825C267.403 35.0785 267.667 36.0945 267.667 37.2305C267.667 38.4145 267.379 39.4625 266.803 40.3745C266.227 41.2865 265.411 42.0065 264.355 42.5345C263.315 43.0465 262.091 43.3025 260.683 43.3025ZM260.923 40.8785C261.643 40.8785 262.275 40.7265 262.819 40.4225C263.379 40.1025 263.811 39.6705 264.115 39.1265C264.435 38.5825 264.595 37.9745 264.595 37.3025C264.595 36.6305 264.435 36.0465 264.115 35.5505C263.811 35.0385 263.379 34.6305 262.819 34.3265C262.275 34.0225 261.627 33.8705 260.875 33.8705C260.155 33.8705 259.507 34.0145 258.931 34.3025C258.371 34.5905 257.931 34.9905 257.611 35.5025C257.307 35.9985 257.155 36.5745 257.155 37.2305C257.155 37.9025 257.315 38.5185 257.635 39.0785C257.955 39.6385 258.395 40.0785 258.955 40.3985C259.531 40.7185 260.187 40.8785 260.923 40.8785ZM278.285 43.0625V38.6945L278.717 39.1985H274.877C273.117 39.1985 271.733 38.8305 270.725 38.0945C269.733 37.3425 269.237 36.2625 269.237 34.8545C269.237 33.3505 269.765 32.2065 270.821 31.4225C271.893 30.6385 273.317 30.2465 275.093 30.2465H280.973V43.0625H278.285ZM269.069 43.0625L272.525 38.1665H275.597L272.285 43.0625H269.069ZM278.285 37.7345V31.9745L278.717 32.7665H275.189C274.261 32.7665 273.541 32.9425 273.029 33.2945C272.533 33.6305 272.285 34.1825 272.285 34.9505C272.285 36.3905 273.221 37.1105 275.093 37.1105H278.717L278.285 37.7345Z" fill="#151414"/>
<path d="M119.391 214.18C118.255 217.018 119.864 220.093 120.81 221.276L225.123 221.63C226.542 226.455 229.026 227.898 230.09 228.016C232.81 228.253 239.528 228.584 244.637 228.016C249.746 227.449 250.078 223.522 249.605 221.63C254.927 222.458 266.422 223.333 269.828 220.211C273.235 217.088 268.409 212.05 265.571 209.921C266.872 197.148 268.693 167.699 265.571 152.087C261.668 132.571 265.571 108.447 265.571 105.609C265.571 102.77 266.635 97.448 266.635 89.6423C266.635 81.8365 252.798 70.4814 248.895 69.417C244.992 68.3525 240.025 71.5458 235.412 79.7063C230.8 87.8669 225.833 84.6736 215.188 87.5121C206.673 89.7828 196.502 106.435 192.481 114.477L179.353 113.058C177.934 122.709 187.514 134.819 192.481 139.669C191.629 143.358 195.674 149.485 197.803 152.087C196.951 154.074 197.448 159.301 197.803 161.666H185.03V159.185C183.611 146.767 170.483 139.67 161.968 141.09C153.452 142.509 145.646 147.121 143.163 159.185C141.176 168.835 149.904 177.871 154.517 181.183C150.969 186.86 148.485 198.213 145.646 203.181C142.808 208.148 131.099 207.438 127.197 207.793C123.294 208.148 120.81 210.632 119.391 214.18Z" fill="white"/>
<path d="M237.898 216.661C232.221 217.371 231.157 217.016 225.125 221.983L226.189 224.112L227.254 226.241L228.673 227.306L230.092 228.015L232.931 228.37H239.672L244.639 228.015L247.478 226.951L248.897 225.532L249.607 224.112V221.629L248.897 219.5L246.059 217.726C244.355 216.59 239.909 216.543 237.898 216.661Z" fill="#ECE8E2"/>
<path d="M205.962 135.407C193.757 135.124 183.136 120.387 179.352 113.055L192.125 114.474L198.866 116.248C203.124 118.803 205.371 130.085 205.962 135.407Z" fill="#ECE8E2"/>
<path d="M247.477 214.889C246.91 215.741 248.187 218.319 248.897 219.502L249.606 221.63L251.38 221.985L255.638 222.34H258.831H262.379L265.927 221.985L268.056 221.276L269.83 220.211L270.894 218.792V216.663L268.766 212.76L265.927 210.277L264.153 209.922L258.831 210.277C255.283 211.459 248.045 214.038 247.477 214.889Z" fill="#ECE8E2"/>
<path d="M162.327 147.827C148.135 147.827 144.823 162.493 144.942 169.825L144.232 168.406L143.167 164.503L142.812 160.6L143.522 157.052L144.941 153.504L147.78 148.892L150.618 145.698L154.876 143.215L158.779 141.796L163.036 141.086H167.649L174.745 143.924L180.422 148.537L182.906 152.795L184.325 155.633L185.034 158.471V161.665V162.729V165.568L183.97 169.116L181.486 174.083L177.938 178.341L175.455 180.824L174.745 177.986C186.454 169.47 180.067 147.827 162.327 147.827Z" fill="#ECE8E2"/>
<path d="M218.031 200.695H197.807L196.388 206.372L193.904 210.985L190.356 215.597L185.034 219.855L182.195 221.629H225.127C225.411 216.236 220.514 205.426 218.031 200.695Z" stroke="black" stroke-width="2.12883"/>
<path d="M227.255 115.541C243.718 102.484 244.285 84.791 242.511 77.5767L247.123 75.093L253.865 72.6094L257.413 75.4478L260.251 78.2863L263.09 81.4795L265.928 86.092L266.638 90.7045L266.283 97.8006L265.573 105.961L265.218 108.445L264.864 111.993L264.509 116.96L264.154 120.153L263.799 127.604V133.991V136.829L264.154 139.668V141.797L264.509 143.925V145.345L264.864 147.828V148.893L265.573 151.376L265.928 154.215L266.283 156.344L266.638 160.601L266.992 163.44L267.347 171.245V175.503L266.992 177.987L266.283 181.89L265.573 185.083L263.09 192.889L261.315 196.791L257.413 203.178L252.8 208.855L247.123 213.112L244.994 214.532L244.64 212.403V201.049L246.414 186.502C255.64 171.245 252.8 160.601 246.414 151.731C242.022 145.629 206.676 131.862 227.255 115.541Z" fill="#C5B8A6" fill-opacity="0.33"/>
<path d="M245.696 78.2874C242.006 78.5713 238.955 76.75 237.891 75.8038L240.729 72.6106L243.213 70.4817L245.696 69.4173L247.116 69.0625L248.535 69.4173L249.954 69.7721L251.373 70.4817L254.212 72.9654C252.911 74.6211 249.386 78.0036 245.696 78.2874Z" fill="black"/>
<path d="M261.31 79.3516C260.246 80.6525 258.188 84.5317 258.472 89.6409" stroke="black" stroke-width="2.83845"/>
<path d="M222.996 92.125C226.899 93.7808 231.937 98.1567 220.867 102.414" stroke="black" stroke-width="2.83845"/>
<path d="M184.672 98.1586C184.672 101.849 190.349 109.631 193.187 113.06C193.755 110.222 201.703 99.5778 205.605 94.6106C202.767 95.3202 187.51 91.0625 186.446 91.0625C185.381 91.0625 184.672 93.5461 184.672 98.1586Z" fill="#FCECD2"/>
<path d="M258.477 210.274C260.251 210.038 264.224 209.707 265.927 210.274" stroke="black" stroke-width="2.12883"/>
<path d="M245.344 214.174C252.676 210.508 267.342 196.434 267.342 169.469" stroke="black" stroke-width="2.12883"/>
<path d="M246.059 217.375C243.125 212.486 244.893 196.371 246.649 185.797" stroke="black" stroke-width="2.12883"/>
<path d="M237.547 216.663C241.095 216.19 248.475 216.521 249.61 221.631" stroke="black" stroke-width="2.12883"/>
<path d="M197.805 161.664C199.46 163.911 203.624 168.689 207.03 169.825" stroke="black" stroke-width="2.12883"/>
<path d="M197.094 151.375C199.696 154.213 207.383 160.387 213.06 159.536" stroke="black" stroke-width="2.12883"/>
<path d="M154.516 181.183C156.171 177.517 161.399 169.404 169.063 166.281" stroke="black" stroke-width="2.12883"/>
<path d="M159.844 160.25C163.983 161.433 172.901 167.204 175.455 180.829C179.122 177.754 186.17 169.688 185.035 162.024" stroke="black" stroke-width="2.12883"/>
<path d="M181.484 221.626C189.527 217.959 203.553 205.801 195.322 186.5" stroke="black" stroke-width="2.12883"/>
<path d="M209.516 185.797C214.838 193.721 225.411 211.982 225.127 221.632" stroke="black" stroke-width="2.12883"/>
<path d="M131.096 221.275C129.393 216.733 133.461 210.158 135.708 207.438H130.385L126.127 208.147L122.579 209.566L120.096 212.405L119.031 214.888L119.386 218.082L120.805 221.275H131.096Z" fill="#ECE8E2"/>
<path d="M185.734 97.091V92.8333L186.444 91.4141H187.508L191.766 92.1237L200.636 93.8977L205.249 94.9621L199.927 101.349C195.385 104.187 188.573 99.6929 185.734 97.091Z" fill="#ECE8E2"/>
<path d="M119.391 214.18C118.255 217.018 119.864 220.093 120.81 221.276L225.123 221.63C226.542 226.455 229.026 227.898 230.09 228.016C232.81 228.253 239.528 228.584 244.637 228.016C249.746 227.449 250.078 223.522 249.605 221.63C254.927 222.458 266.422 223.333 269.828 220.211C273.235 217.088 268.409 212.05 265.571 209.921C266.872 197.148 268.693 167.699 265.571 152.087C261.668 132.571 265.571 108.447 265.571 105.609C265.571 102.77 266.635 97.448 266.635 89.6423C266.635 81.8365 252.798 70.4814 248.895 69.417C244.992 68.3525 240.025 71.5458 235.412 79.7063C230.8 87.8669 225.833 84.6736 215.188 87.5121C206.673 89.7828 196.502 106.435 192.481 114.477L179.353 113.058C177.934 122.709 187.514 134.819 192.481 139.669C191.629 143.358 195.674 149.485 197.803 152.087C196.951 154.074 197.448 159.301 197.803 161.666H185.03V159.185C183.611 146.767 170.483 139.67 161.968 141.09C153.452 142.509 145.646 147.121 143.163 159.185C141.176 168.835 149.904 177.871 154.517 181.183C150.969 186.86 148.485 198.213 145.646 203.181C142.808 208.148 131.099 207.438 127.197 207.793C123.294 208.148 120.81 210.632 119.391 214.18Z" stroke="black" stroke-width="2.12883"/>
<path d="M193.187 113.06C190.349 109.631 184.672 101.849 184.672 98.1586C184.672 93.5461 185.381 91.0625 186.446 91.0625C187.51 91.0625 202.767 95.3202 205.605 94.6106" stroke="black" stroke-width="2.12883"/>
<rect x="20" y="178.062" width="108" height="42" rx="10" fill="#5F79FF"/>
<path d="M37.584 205.062V193.862H47.488V205.062H45.44V195.11L45.92 195.622H39.152L39.632 195.11V205.062H37.584ZM54.4061 205.175C53.4568 205.175 52.6248 204.988 51.9101 204.614C51.2061 204.23 50.6568 203.708 50.2621 203.046C49.8781 202.385 49.6861 201.633 49.6861 200.79C49.6861 199.937 49.8728 199.185 50.2461 198.534C50.6301 197.873 51.1528 197.356 51.8141 196.983C52.4861 196.609 53.2488 196.422 54.1021 196.422C54.9341 196.422 55.6755 196.604 56.3261 196.966C56.9768 197.329 57.4888 197.841 57.8621 198.502C58.2355 199.164 58.4221 199.942 58.4221 200.839C58.4221 200.924 58.4168 201.02 58.4061 201.126C58.4061 201.233 58.4008 201.334 58.3901 201.43H51.2701V200.102H57.3341L56.5501 200.518C56.5608 200.028 56.4595 199.596 56.2461 199.222C56.0328 198.849 55.7395 198.556 55.3661 198.342C55.0035 198.129 54.5821 198.022 54.1021 198.022C53.6115 198.022 53.1795 198.129 52.8061 198.342C52.4435 198.556 52.1555 198.854 51.9421 199.238C51.7395 199.612 51.6381 200.054 51.6381 200.566V200.886C51.6381 201.398 51.7555 201.852 51.9901 202.246C52.2248 202.641 52.5555 202.945 52.9821 203.158C53.4088 203.372 53.8995 203.478 54.4541 203.478C54.9341 203.478 55.3661 203.404 55.7501 203.254C56.1341 203.105 56.4755 202.87 56.7741 202.55L57.8461 203.782C57.4621 204.23 56.9768 204.577 56.3901 204.822C55.8141 205.057 55.1528 205.175 54.4061 205.175ZM65.3456 205.175C64.6523 205.175 64.0176 205.014 63.4416 204.694C62.8763 204.374 62.423 203.894 62.0816 203.254C61.751 202.604 61.5856 201.782 61.5856 200.79C61.5856 199.788 61.7456 198.966 62.0656 198.326C62.3963 197.686 62.8443 197.212 63.4096 196.902C63.975 196.582 64.6203 196.422 65.3456 196.422C66.1883 196.422 66.9296 196.604 67.5696 196.966C68.2203 197.329 68.7323 197.836 69.1056 198.486C69.4896 199.137 69.6816 199.905 69.6816 200.79C69.6816 201.676 69.4896 202.449 69.1056 203.11C68.7323 203.761 68.2203 204.268 67.5696 204.63C66.9296 204.993 66.1883 205.175 65.3456 205.175ZM60.6096 208.167V196.518H62.5136V198.534L62.4496 200.806L62.6096 203.078V208.167H60.6096ZM65.1216 203.462C65.6016 203.462 66.0283 203.356 66.4016 203.142C66.7856 202.929 67.0896 202.62 67.3136 202.214C67.5376 201.809 67.6496 201.334 67.6496 200.79C67.6496 200.236 67.5376 199.761 67.3136 199.366C67.0896 198.961 66.7856 198.652 66.4016 198.438C66.0283 198.225 65.6016 198.118 65.1216 198.118C64.6416 198.118 64.2096 198.225 63.8256 198.438C63.4416 198.652 63.1376 198.961 62.9136 199.366C62.6896 199.761 62.5776 200.236 62.5776 200.79C62.5776 201.334 62.6896 201.809 62.9136 202.214C63.1376 202.62 63.4416 202.929 63.8256 203.142C64.2096 203.356 64.6416 203.462 65.1216 203.462ZM75.6561 205.175C74.7068 205.175 73.8748 204.988 73.1601 204.614C72.4561 204.23 71.9068 203.708 71.5121 203.046C71.1281 202.385 70.9361 201.633 70.9361 200.79C70.9361 199.937 71.1228 199.185 71.4961 198.534C71.8801 197.873 72.4028 197.356 73.0641 196.983C73.7361 196.609 74.4988 196.422 75.3521 196.422C76.1841 196.422 76.9255 196.604 77.5761 196.966C78.2268 197.329 78.7388 197.841 79.1121 198.502C79.4855 199.164 79.6721 199.942 79.6721 200.839C79.6721 200.924 79.6668 201.02 79.6561 201.126C79.6561 201.233 79.6508 201.334 79.6401 201.43H72.5201V200.102H78.5841L77.8001 200.518C77.8108 200.028 77.7095 199.596 77.4961 199.222C77.2828 198.849 76.9895 198.556 76.6161 198.342C76.2535 198.129 75.8321 198.022 75.3521 198.022C74.8615 198.022 74.4295 198.129 74.0561 198.342C73.6935 198.556 73.4055 198.854 73.1921 199.238C72.9895 199.612 72.8881 200.054 72.8881 200.566V200.886C72.8881 201.398 73.0055 201.852 73.2401 202.246C73.4748 202.641 73.8055 202.945 74.2321 203.158C74.6588 203.372 75.1495 203.478 75.7041 203.478C76.1841 203.478 76.6161 203.404 77.0001 203.254C77.3841 203.105 77.7255 202.87 78.0241 202.55L79.0961 203.782C78.7121 204.23 78.2268 204.577 77.6401 204.822C77.0641 205.057 76.4028 205.175 75.6561 205.175ZM81.8596 205.062V196.518H83.8596V202.15L88.5796 196.518H90.4036V205.062H88.4036V199.43L83.6996 205.062H81.8596ZM86.0036 195.51C85.1503 195.51 84.4943 195.313 84.0356 194.918C83.577 194.513 83.3423 193.926 83.3316 193.158H84.6596C84.6703 193.542 84.7876 193.846 85.0116 194.07C85.2463 194.294 85.5716 194.406 85.9876 194.406C86.393 194.406 86.713 194.294 86.9476 194.07C87.193 193.846 87.321 193.542 87.3316 193.158H88.6916C88.681 193.926 88.441 194.513 87.9716 194.918C87.513 195.313 86.857 195.51 86.0036 195.51ZM94.87 205.062V197.734L95.334 198.214H91.862V196.518H99.862V198.214H96.406L96.87 197.734V205.062H94.87ZM101.313 205.062V196.518H103.313V202.15L108.033 196.518H109.857V205.062H107.857V199.43L103.153 205.062H101.313Z" fill="white"/>
</svg>
