<svg width="630" height="547" viewBox="0 0 630 547" fill="none" xmlns="http://www.w3.org/2000/svg">
<rect y="0.0625" width="630" height="546" rx="43" fill="#0F0F0F"/>
<path d="M91.08 245.643C92.6508 242.816 95.631 241.062 98.8655 241.062H555.864C562.655 241.062 566.947 248.358 563.649 254.294L537.92 300.607C536.349 303.434 533.369 305.188 530.135 305.188H73.1363C66.3454 305.188 62.0529 297.892 65.3508 291.956L91.08 245.643Z" fill="#5F79FF"/>
<path d="M100.651 288.406C98.0923 288.406 96.0848 287.502 94.6289 285.693C93.57 284.355 93.0406 282.818 93.0406 281.082C93.0406 280.465 93.1067 279.818 93.2391 279.141H98.5335C98.4746 279.435 98.4452 279.715 98.4452 279.979C98.4452 280.729 98.7099 281.443 99.2394 282.119C99.7835 282.781 100.607 283.112 101.71 283.112H104.357C105.46 283.112 106.475 282.73 107.401 281.965C108.328 281.185 108.902 280.244 109.122 279.141C109.181 278.862 109.21 278.597 109.21 278.347C109.21 277.582 108.938 276.862 108.394 276.185C107.85 275.509 107.026 275.17 105.923 275.17H99.3055L100.364 269.876H104.335C105.438 269.876 106.453 269.494 107.379 268.729C108.306 267.949 108.879 267.008 109.1 265.905C109.159 265.611 109.188 265.332 109.188 265.067C109.188 264.317 108.916 263.611 108.372 262.949C107.843 262.273 107.026 261.935 105.923 261.935C104.82 261.935 103.806 262.324 102.879 263.104C101.953 263.868 101.379 264.802 101.159 265.905H95.8642C96.3789 263.346 97.7172 261.162 99.8791 259.354C102.041 257.545 104.401 256.64 106.96 256.64C109.519 256.64 111.527 257.545 112.983 259.354C114.056 260.692 114.593 262.236 114.593 263.986C114.593 264.604 114.527 265.243 114.394 265.905C113.997 267.935 113.078 269.722 111.637 271.266C112.137 271.633 112.593 272.075 113.005 272.589C114.078 273.928 114.615 275.479 114.615 277.244C114.615 277.847 114.549 278.479 114.416 279.141C113.902 281.7 112.556 283.884 110.38 285.693C108.218 287.502 105.857 288.406 103.298 288.406H100.651ZM118.365 272.523C119.233 268.141 121.527 264.398 125.248 261.295C128.969 258.192 133.02 256.64 137.403 256.64C141.785 256.64 145.219 258.192 147.705 261.295C149.543 263.589 150.462 266.244 150.462 269.258C150.462 270.303 150.352 271.391 150.131 272.523L146.977 288.406H141.682L142.741 283.112H121.564L120.505 288.406H115.211L118.365 272.523ZM143.778 277.818L144.837 272.523C144.984 271.758 145.058 271.023 145.058 270.317C145.058 268.317 144.337 266.42 142.896 264.626C141.469 262.832 139.293 261.935 136.366 261.935C133.439 261.935 130.733 262.971 128.248 265.045C125.777 267.104 124.248 269.597 123.66 272.523L122.601 277.818H143.778ZM162.595 283.112C163.698 283.112 164.713 282.73 165.639 281.965C166.566 281.185 167.139 280.244 167.36 279.141L167.867 276.494C167.926 276.2 167.956 275.92 167.956 275.656C167.956 274.906 167.683 274.2 167.139 273.538C166.61 272.861 165.794 272.523 164.691 272.523H158.073L155.977 283.112H162.595ZM172.654 279.141C172.14 281.7 170.794 283.884 168.617 285.693C166.455 287.502 164.095 288.406 161.536 288.406H149.624L155.933 256.64H174.463L173.426 261.935H160.191L159.132 267.229H165.75C168.309 267.229 170.309 268.133 171.75 269.942C172.823 271.281 173.36 272.825 173.36 274.575C173.36 275.192 173.294 275.832 173.162 276.494L172.654 279.141ZM189.331 288.406C184.949 288.406 181.515 286.855 179.03 283.752C177.191 281.457 176.272 278.803 176.272 275.788C176.272 274.744 176.382 273.656 176.603 272.523C177.485 268.141 179.78 264.398 183.486 261.295C187.206 258.192 191.258 256.64 195.641 256.64C200.038 256.64 203.479 258.192 205.965 261.295C207.803 263.589 208.722 266.229 208.722 269.214C208.722 270.273 208.604 271.376 208.369 272.523C207.501 276.906 205.207 280.649 201.486 283.752C197.766 286.855 193.714 288.406 189.331 288.406ZM190.39 283.112C193.317 283.112 196.016 282.082 198.486 280.024C200.972 277.95 202.501 275.45 203.075 272.523C203.222 271.758 203.295 271.023 203.295 270.317C203.295 268.317 202.575 266.42 201.133 264.626C199.707 262.832 197.53 261.935 194.604 261.935C191.677 261.935 188.971 262.971 186.486 265.045C184.015 267.104 182.486 269.597 181.897 272.523C181.75 273.273 181.677 274.001 181.677 274.707C181.677 276.707 182.397 278.612 183.839 280.421C185.28 282.215 187.464 283.112 190.39 283.112ZM243.29 256.64L242.253 261.935H229.017L223.745 288.406H218.45L223.723 261.935H210.487L211.524 256.64H243.29ZM258.158 288.406H252.864L258.136 261.935H251.518L248.099 279.141C247.584 281.7 246.238 283.884 244.062 285.693C241.9 287.502 239.54 288.406 236.981 288.406L238.039 283.112C239.142 283.112 240.157 282.73 241.084 281.965C242.01 281.185 242.584 280.244 242.804 279.141L247.26 256.64H264.467L258.158 288.406ZM298.88 256.64L292.571 288.406H287.277L292.262 263.346L267.533 288.406H260.805L267.114 256.64H272.409L267.445 281.7L292.152 256.64H298.88ZM304.197 269.876H305.52C306.623 269.876 307.638 269.494 308.565 268.729C309.491 267.949 310.065 267.008 310.285 265.905C310.344 265.611 310.373 265.332 310.373 265.067C310.373 264.317 310.101 263.611 309.557 262.949C309.028 262.273 308.212 261.935 307.109 261.935H305.785L304.197 269.876ZM308.19 283.112C309.293 283.112 310.307 282.73 311.234 281.965C312.16 281.185 312.734 280.244 312.954 279.141C313.013 278.862 313.043 278.597 313.043 278.347C313.043 277.582 312.771 276.862 312.226 276.185C311.682 275.509 310.859 275.17 309.756 275.17H303.138L301.572 283.112H308.19ZM313.616 270.317C314.881 270.744 315.955 271.501 316.837 272.589C317.911 273.928 318.447 275.479 318.447 277.244C318.447 277.847 318.381 278.479 318.249 279.141C317.734 281.7 316.388 283.884 314.212 285.693C312.05 287.502 309.69 288.406 307.131 288.406H295.218L301.527 256.64H308.145C310.704 256.64 312.712 257.545 314.168 259.354C315.241 260.692 315.778 262.236 315.778 263.986C315.778 264.604 315.712 265.243 315.58 265.905C315.256 267.523 314.602 268.994 313.616 270.317ZM325.396 283.112C326.499 283.112 327.514 282.73 328.44 281.965C329.367 281.185 329.94 280.244 330.161 279.141L330.668 276.494C330.727 276.2 330.757 275.92 330.757 275.656C330.757 274.906 330.485 274.2 329.94 273.538C329.411 272.861 328.595 272.523 327.492 272.523L325.396 283.112ZM340.22 288.406H334.926L341.235 256.64H346.529L340.22 288.406ZM335.455 279.141C334.941 281.7 333.595 283.884 331.418 285.693C329.257 287.502 326.896 288.406 324.337 288.406H319.043L325.352 256.64H330.646L328.551 267.229C331.11 267.229 333.11 268.133 334.551 269.942C335.625 271.281 336.161 272.825 336.161 274.575C336.161 275.192 336.095 275.832 335.963 276.494L335.455 279.141ZM380.943 256.64L379.906 261.935H353.434L351.846 269.876H373.023L371.964 275.17H350.787L349.221 283.112H375.692L374.634 288.406H342.868L349.177 256.64H380.943ZM411.694 288.406H406.4L411.672 261.935H405.054L401.635 279.141C401.12 281.7 399.774 283.884 397.598 285.693C395.436 287.502 393.076 288.406 390.517 288.406L391.575 283.112C392.678 283.112 393.693 282.73 394.62 281.965C395.546 281.185 396.12 280.244 396.34 279.141L400.796 256.64H418.003L411.694 288.406ZM417.496 272.523C418.363 268.141 420.658 264.398 424.378 261.295C428.099 258.192 432.151 256.64 436.533 256.64C440.916 256.64 444.35 258.192 446.835 261.295C448.674 263.589 449.593 266.244 449.593 269.258C449.593 270.303 449.482 271.391 449.262 272.523L446.107 288.406H440.813L441.872 283.112H420.694L419.636 288.406H414.341L417.496 272.523ZM442.909 277.818L443.967 272.523C444.115 271.758 444.188 271.023 444.188 270.317C444.188 268.317 443.467 266.42 442.026 264.626C440.6 262.832 438.423 261.935 435.496 261.935C432.57 261.935 429.864 262.971 427.378 265.045C424.908 267.104 423.378 269.597 422.79 272.523L421.731 277.818H442.909ZM469.932 288.406H464.637L469.91 261.935H459.321L454.049 288.406H448.754L455.063 256.64H476.241L469.932 288.406ZM480.19 276.781L477.873 288.406H472.579L478.888 256.64H484.182L481.888 268.266L493.337 256.64H500.065L484.403 272.523L493.756 288.406H487.028L480.19 276.781ZM534.479 256.64L528.17 288.406H522.875L527.861 263.346L503.132 288.406H496.404L502.713 256.64H508.007L503.044 281.7L527.75 256.64H534.479Z" fill="white"/>
</svg>
