<svg width="582" height="192" viewBox="0 0 582 192" fill="none" xmlns="http://www.w3.org/2000/svg">
<rect x="31.6406" y="47.4561" width="518.718" height="143.822" rx="26.9959" fill="white" fill-opacity="0.31"/>
<rect x="10.5469" y="27.3203" width="560.906" height="143.822" rx="26.9959" fill="#767676"/>
<rect width="582" height="147.683" rx="26.9959" transform="matrix(1 0 0 -1 0 147.684)" fill="white"/>
<path d="M37.7032 98.832L33.1584 92.2929L35.1719 91.0465L40.5221 98.832H37.7032ZM28.8246 98.832V85.4086H31.2792V98.832H28.8246ZM30.5313 93.175V91.0273H35.0569V93.175H30.5313ZM35.4021 92.408L33.1201 92.1012L37.7032 85.4086H40.3495L35.4021 92.408ZM42.7352 102.686C42.2366 102.686 41.738 102.603 41.2394 102.437C40.7408 102.271 40.3254 102.041 39.993 101.747L40.9518 99.9826C41.1947 100.2 41.4695 100.373 41.7764 100.5C42.0832 100.628 42.3964 100.692 42.716 100.692C43.1507 100.692 43.5022 100.583 43.7707 100.366C44.0392 100.149 44.2885 99.7845 44.5186 99.2731L45.113 97.9307L45.3048 97.6431L49.1784 88.5919H51.4796L46.6855 99.6566C46.3659 100.424 46.0079 101.031 45.6116 101.478C45.2281 101.926 44.7934 102.239 44.3076 102.418C43.8346 102.597 43.3105 102.686 42.7352 102.686ZM44.8446 99.1964L40.2231 88.5919H42.716L46.4746 97.4322L44.8446 99.1964ZM58.8206 98.9663C57.9897 98.9663 57.229 98.7745 56.5387 98.391C55.8611 98.0075 55.3178 97.4322 54.9087 96.6651C54.5124 95.8853 54.3142 94.9009 54.3142 93.712C54.3142 92.5103 54.506 91.5259 54.8895 90.7588C55.2858 89.9918 55.8227 89.4229 56.5003 89.0521C57.1779 88.6686 57.9513 88.4768 58.8206 88.4768C59.8306 88.4768 60.7191 88.6942 61.4861 89.1288C62.266 89.5635 62.8796 90.1707 63.3271 90.9506C63.7873 91.7304 64.0174 92.6509 64.0174 93.712C64.0174 94.7731 63.7873 95.6999 63.3271 96.4925C62.8796 97.2724 62.266 97.8796 61.4861 98.3143C60.7191 98.7489 59.8306 98.9663 58.8206 98.9663ZM53.1445 102.552V88.5919H55.4264V91.0081L55.3497 93.7311L55.5415 96.4542V102.552H53.1445ZM58.5522 96.9144C59.1275 96.9144 59.6388 96.7866 60.0863 96.5309C60.5465 96.2752 60.9108 95.9045 61.1793 95.4187C61.4478 94.9329 61.582 94.364 61.582 93.712C61.582 93.0472 61.4478 92.4783 61.1793 92.0053C60.9108 91.5195 60.5465 91.1487 60.0863 90.8931C59.6388 90.6374 59.1275 90.5095 58.5522 90.5095C57.9769 90.5095 57.4591 90.6374 56.9989 90.8931C56.5387 91.1487 56.1743 91.5195 55.9058 92.0053C55.6374 92.4783 55.5031 93.0472 55.5031 93.712C55.5031 94.364 55.6374 94.9329 55.9058 95.4187C56.1743 95.9045 56.5387 96.2752 56.9989 96.5309C57.4591 96.7866 57.9769 96.9144 58.5522 96.9144ZM71.0629 98.9663C69.989 98.9663 69.0302 98.7425 68.1864 98.2951C67.3555 97.8349 66.7035 97.2084 66.2305 96.4158C65.7574 95.6232 65.5209 94.7219 65.5209 93.712C65.5209 92.6892 65.7574 91.7879 66.2305 91.0081C66.7035 90.2155 67.3555 89.5955 68.1864 89.148C69.0302 88.7006 69.989 88.4768 71.0629 88.4768C72.0601 88.4768 72.9358 88.6814 73.69 89.0905C74.4571 89.4868 75.0388 90.0749 75.4351 90.8547L73.5942 91.9286C73.2873 91.4428 72.9102 91.0848 72.4628 90.8547C72.0281 90.6246 71.5551 90.5095 71.0437 90.5095C70.4556 90.5095 69.9251 90.6374 69.4521 90.8931C68.9791 91.1487 68.6083 91.5195 68.3399 92.0053C68.0714 92.4783 67.9372 93.0472 67.9372 93.712C67.9372 94.3767 68.0714 94.952 68.3399 95.4378C68.6083 95.9108 68.9791 96.2752 69.4521 96.5309C69.9251 96.7866 70.4556 96.9144 71.0437 96.9144C71.5551 96.9144 72.0281 96.7993 72.4628 96.5692C72.9102 96.3391 73.2873 95.9812 73.5942 95.4954L75.4351 96.5692C75.0388 97.3363 74.4571 97.9307 73.69 98.3526C72.9358 98.7617 72.0601 98.9663 71.0629 98.9663ZM89.8637 97.7198V90.6246H85.9326L85.8751 92.2737C85.8495 92.8618 85.8111 93.4307 85.76 93.9804C85.7089 94.5174 85.6258 95.016 85.5107 95.4762C85.3957 95.9236 85.2295 96.2944 85.0121 96.5884C84.7948 96.8824 84.5072 97.0742 84.1492 97.1637L81.7713 96.7993C82.1549 96.7993 82.4617 96.6779 82.6918 96.435C82.9347 96.1793 83.1201 95.8341 83.2479 95.3995C83.3885 94.952 83.4908 94.4471 83.5547 93.8846C83.6187 93.3093 83.6634 92.7148 83.689 92.1012L83.8232 88.5919H92.2608V97.7198H89.8637ZM81.407 101.114V96.7993H93.7757V101.114H91.5321V98.832H83.6314V101.114H81.407ZM94.4208 98.8129L94.5358 96.7993C94.6253 96.8121 94.7084 96.8249 94.7851 96.8377C94.8618 96.8505 94.9322 96.8569 94.9961 96.8569C95.3924 96.8569 95.6992 96.7354 95.9165 96.4925C96.1339 96.2496 96.2937 95.9236 96.3959 95.5145C96.511 95.0927 96.5877 94.626 96.6261 94.1147C96.6772 93.5905 96.7156 93.0664 96.7411 92.5422L96.9137 88.5919H105.198V98.832H102.801V89.9726L103.357 90.6246H98.4862L99.0039 89.9534L98.8697 92.6573C98.8313 93.5649 98.7546 94.4087 98.6396 95.1885C98.5373 95.9556 98.3711 96.6268 98.141 97.202C97.9237 97.7773 97.6168 98.2248 97.2205 98.5444C96.837 98.864 96.3448 99.0238 95.744 99.0238C95.5522 99.0238 95.3413 99.0046 95.1111 98.9663C94.8938 98.9279 94.6637 98.8768 94.4208 98.8129ZM114.927 98.832V95.3419L115.272 95.7447H112.204C110.798 95.7447 109.692 95.4506 108.886 94.8625C108.094 94.2617 107.697 93.3988 107.697 92.2737C107.697 91.072 108.119 90.158 108.963 89.5315C109.82 88.9051 110.957 88.5919 112.376 88.5919H117.075V98.832H114.927ZM107.563 98.832L110.325 94.9201H112.779L110.133 98.832H107.563ZM114.927 94.5749V89.9726L115.272 90.6054H112.453C111.712 90.6054 111.136 90.746 110.727 91.0273C110.331 91.2958 110.133 91.7368 110.133 92.3504C110.133 93.501 110.881 94.0763 112.376 94.0763H115.272L114.927 94.5749ZM127.727 98.832V90.0493L128.283 90.6246H124.122V88.5919H133.71V90.6246H129.568L130.124 90.0493V98.832H127.727ZM139.774 98.9663C138.637 98.9663 137.639 98.7425 136.783 98.2951C135.939 97.8349 135.281 97.2084 134.808 96.4158C134.347 95.6232 134.117 94.7219 134.117 93.712C134.117 92.6892 134.341 91.7879 134.789 91.0081C135.249 90.2155 135.875 89.5955 136.668 89.148C137.473 88.7006 138.387 88.4768 139.41 88.4768C140.407 88.4768 141.296 88.6942 142.075 89.1288C142.855 89.5635 143.469 90.1771 143.916 90.9698C144.364 91.7624 144.588 92.6956 144.588 93.7695C144.588 93.8718 144.581 93.9868 144.568 94.1147C144.568 94.2425 144.562 94.364 144.549 94.479H136.016V92.8874H143.284L142.344 93.386C142.357 92.7979 142.235 92.2801 141.98 91.8327C141.724 91.3852 141.372 91.0337 140.925 90.778C140.49 90.5223 139.985 90.3945 139.41 90.3945C138.822 90.3945 138.304 90.5223 137.857 90.778C137.422 91.0337 137.077 91.3916 136.821 91.8519C136.578 92.2993 136.457 92.8299 136.457 93.4435V93.827C136.457 94.4407 136.597 94.984 136.879 95.457C137.16 95.93 137.556 96.2944 138.068 96.5501C138.579 96.8057 139.167 96.9336 139.832 96.9336C140.407 96.9336 140.925 96.8441 141.385 96.6651C141.845 96.4861 142.254 96.2049 142.612 95.8214L143.897 97.2979C143.437 97.8349 142.855 98.2504 142.152 98.5444C141.462 98.8256 140.669 98.9663 139.774 98.9663ZM152.099 99.0238C151.256 99.0238 150.501 98.896 149.836 98.6403C149.172 98.3846 148.596 97.9947 148.111 97.4705C147.638 96.9336 147.273 96.256 147.018 95.4378C146.762 94.6196 146.634 93.648 146.634 92.523C146.634 91.7048 146.704 90.957 146.845 90.2794C146.986 89.6018 147.197 88.9946 147.478 88.4577C147.759 87.9079 148.111 87.4221 148.532 87.0003C148.967 86.5784 149.472 86.2268 150.047 85.9456C150.623 85.6643 151.275 85.447 152.003 85.2936L156.759 84.2772L157.104 86.425L152.79 87.3071C152.547 87.3582 152.253 87.4349 151.908 87.5372C151.575 87.6267 151.23 87.7673 150.872 87.9591C150.527 88.1381 150.201 88.4001 149.894 88.7453C149.6 89.0777 149.357 89.5124 149.165 90.0493C148.986 90.5734 148.897 91.2318 148.897 92.0245C148.897 92.2674 148.903 92.4527 148.916 92.5806C148.942 92.6956 148.961 92.8235 148.974 92.9641C148.999 93.0919 149.012 93.2837 149.012 93.5394L148.111 92.5997C148.366 91.9477 148.718 91.3916 149.165 90.9314C149.626 90.4584 150.156 90.1004 150.757 89.8575C151.371 89.6018 152.035 89.474 152.751 89.474C153.71 89.474 154.56 89.6722 155.302 90.0685C156.043 90.4648 156.625 91.0209 157.047 91.7368C157.469 92.4527 157.68 93.2645 157.68 94.1722C157.68 95.1182 157.449 95.9556 156.989 96.6843C156.529 97.413 155.877 97.9883 155.033 98.4102C154.202 98.8192 153.224 99.0238 152.099 99.0238ZM152.291 97.087C152.866 97.087 153.371 96.9655 153.806 96.7226C154.253 96.467 154.599 96.1218 154.841 95.6871C155.097 95.2525 155.225 94.7667 155.225 94.2297C155.225 93.6928 155.097 93.2262 154.841 92.8299C154.599 92.4208 154.253 92.0948 153.806 91.8519C153.371 91.609 152.854 91.4875 152.253 91.4875C151.677 91.4875 151.16 91.6026 150.699 91.8327C150.252 92.0628 149.9 92.3824 149.645 92.7915C149.402 93.1878 149.28 93.648 149.28 94.1722C149.28 94.7091 149.408 95.2013 149.664 95.6488C149.92 96.0962 150.271 96.4478 150.719 96.7035C151.179 96.9591 151.703 97.087 152.291 97.087ZM166.163 98.832V95.3419L166.509 95.7447H163.44C162.034 95.7447 160.928 95.4506 160.123 94.8625C159.33 94.2617 158.934 93.3988 158.934 92.2737C158.934 91.072 159.356 90.158 160.2 89.5315C161.056 88.9051 162.194 88.5919 163.613 88.5919H168.311V98.832H166.163ZM158.8 98.832L161.561 94.9201H164.016L161.369 98.832H158.8ZM166.163 94.5749V89.9726L166.509 90.6054H163.69C162.948 90.6054 162.373 90.746 161.964 91.0273C161.568 91.2958 161.369 91.7368 161.369 92.3504C161.369 93.501 162.117 94.0763 163.613 94.0763H166.509L166.163 94.5749Z" fill="black" fill-opacity="0.35"/>
<path d="M51.6973 59.9205C51.6973 60.8867 51.5566 61.7779 51.2751 62.5941C50.9937 63.4008 50.5387 64.0997 49.9102 64.6907C49.291 65.2724 48.4843 65.7273 47.4899 66.0557C46.4955 66.384 45.2853 66.5482 43.8594 66.5482H35.1913V72.6553H29.9707V53.3209H43.8594C45.2853 53.3209 46.4955 53.485 47.4899 53.8134C48.4843 54.1323 49.291 54.5873 49.9102 55.1783C50.5387 55.76 50.9937 56.4542 51.2751 57.2609C51.5566 58.0677 51.6973 58.9542 51.6973 59.9205ZM46.4204 60.0049C46.4204 59.5546 46.3548 59.17 46.2234 58.851C46.1015 58.5227 45.8951 58.2553 45.6043 58.0489C45.3135 57.8426 44.9335 57.6925 44.4645 57.5986C43.9954 57.4955 43.4185 57.4439 42.7337 57.4439H35.1913V62.4252H42.7337C43.4185 62.4252 43.9954 62.3877 44.4645 62.3126C44.9335 62.2282 45.3135 62.0922 45.6043 61.9046C45.8951 61.7076 46.1015 61.4543 46.2234 61.1447C46.3548 60.8351 46.4204 60.4552 46.4204 60.0049ZM73.8179 57.6971C73.6771 57.6502 73.4708 57.5893 73.1987 57.5142C72.936 57.4298 72.6265 57.35 72.27 57.275C71.9135 57.1906 71.5195 57.1202 71.088 57.0639C70.6658 57.0076 70.2296 56.9795 69.7793 56.9795C68.8412 56.9795 67.9641 57.0968 67.1479 57.3313C66.3411 57.5564 65.586 57.8613 64.8824 58.2459C64.1788 58.6212 63.5221 59.0527 62.9124 59.5405C62.312 60.019 61.7585 60.5115 61.2519 61.018V72.6553H56.0313V53.3209H61.2519V56.4588C61.8804 55.9898 62.523 55.5395 63.1797 55.108C63.8458 54.6671 64.5353 54.2777 65.2482 53.94C65.9706 53.6023 66.7305 53.3349 67.5279 53.1379C68.3252 52.9316 69.1695 52.8284 70.0607 52.8284C70.3985 52.8284 70.7409 52.8471 71.088 52.8847C71.4445 52.9128 71.7869 52.9503 72.1152 52.9972C72.4529 53.0441 72.7672 53.0957 73.058 53.152C73.3488 53.2083 73.6021 53.2646 73.8179 53.3209V57.6971ZM93.5322 72.6553V70.7556C92.8661 71.1215 92.1485 71.4451 91.3792 71.7265C90.6194 72.008 89.8267 72.2472 89.0011 72.4442C88.1756 72.6412 87.3219 72.7866 86.4401 72.8804C85.5677 72.9836 84.6858 73.0352 83.7946 73.0352C82.7533 73.0352 81.7449 72.9367 80.7692 72.7397C79.803 72.5427 78.9446 72.2237 78.1941 71.7828C77.4436 71.3419 76.8386 70.765 76.3789 70.052C75.9286 69.3391 75.7035 68.4666 75.7035 67.4347C75.7035 66.1307 76.0599 65.0472 76.7729 64.1842C77.4859 63.3117 78.5741 62.5988 80.0375 62.0453C81.501 61.4918 83.349 61.065 85.5817 60.7648C87.8238 60.4646 90.474 60.23 93.5322 60.0612V59.6531C93.5322 59.3341 93.4478 59.0199 93.2789 58.7103C93.11 58.3913 92.8005 58.1146 92.3502 57.8801C91.9093 57.6362 91.2995 57.4392 90.5209 57.2891C89.7516 57.139 88.7666 57.0639 87.5658 57.0639C86.6183 57.0639 85.6802 57.1155 84.7515 57.2187C83.8322 57.3125 82.941 57.4439 82.0779 57.6127C81.2242 57.7816 80.4128 57.9786 79.6435 58.2037C78.8743 58.4289 78.1754 58.6634 77.5468 58.9073V54.2637C78.2035 54.0948 78.9399 53.9306 79.7561 53.7712C80.5722 53.6117 81.4212 53.4757 82.303 53.3631C83.1849 53.2411 84.0761 53.1473 84.9767 53.0817C85.8772 53.0066 86.7403 52.9691 87.5658 52.9691C89.1888 52.9691 90.685 53.1051 92.0547 53.3772C93.4243 53.6398 94.6016 54.0526 95.5867 54.6155C96.581 55.1783 97.355 55.8913 97.9085 56.7543C98.4713 57.6174 98.7528 58.6446 98.7528 59.836V72.6553H93.5322ZM93.5322 63.8324C91.5246 63.9074 89.8173 64.0153 88.4101 64.156C87.0123 64.2967 85.8491 64.4609 84.9204 64.6485C83.9916 64.8361 83.2599 65.0378 82.7252 65.2536C82.1999 65.4694 81.8058 65.6898 81.5432 65.915C81.2805 66.1401 81.1163 66.3653 81.0507 66.5904C80.9944 66.8156 80.9662 67.0219 80.9662 67.2096C80.9662 67.4347 81.0272 67.6552 81.1492 67.8709C81.2711 68.0773 81.4822 68.2602 81.7824 68.4197C82.092 68.5792 82.5 68.7058 83.0066 68.7997C83.5132 68.8935 84.1511 68.9404 84.9204 68.9404C85.774 68.9404 86.609 68.8747 87.4251 68.7434C88.2413 68.612 89.0152 68.4338 89.7469 68.2086C90.4787 67.9741 91.1635 67.7021 91.8014 67.3925C92.4487 67.0735 93.0256 66.7358 93.5322 66.3793V63.8324ZM123.083 72.6553C122.989 71.6046 122.735 70.6852 122.323 69.8972C121.91 69.0998 121.389 68.415 120.761 67.8428C120.142 67.2705 119.438 66.7968 118.65 66.4215C117.871 66.0463 117.069 65.7508 116.244 65.535C115.418 65.3099 114.593 65.1551 113.767 65.0707C112.951 64.9769 112.191 64.93 111.488 64.93H109.94V72.6553H104.719V53.3209H109.94V60.7788H111.009C111.731 60.7788 112.487 60.7225 113.275 60.61C114.063 60.4974 114.841 60.3192 115.611 60.0752C116.389 59.8313 117.135 59.5171 117.848 59.1325C118.561 58.7478 119.199 58.2788 119.762 57.7253C120.325 57.1718 120.794 56.5339 121.169 55.8115C121.544 55.0798 121.779 54.2496 121.872 53.3209H127.192C127.098 54.3434 126.891 55.2674 126.572 56.093C126.263 56.9185 125.873 57.6596 125.404 58.3163C124.945 58.9636 124.429 59.5311 123.857 60.019C123.284 60.5068 122.698 60.9289 122.098 61.2854C121.497 61.6325 120.897 61.9233 120.296 62.1578C119.705 62.383 119.152 62.5565 118.636 62.6785C119.293 62.7817 119.973 62.9459 120.676 63.171C121.389 63.3868 122.093 63.6776 122.787 64.0434C123.481 64.3999 124.143 64.8408 124.771 65.3662C125.409 65.8915 125.981 66.506 126.488 67.2096C126.994 67.9131 127.417 68.7152 127.754 69.6158C128.092 70.5164 128.308 71.5295 128.402 72.6553H123.083ZM143.726 57.5283V72.6553H138.505V57.5283H130.301V53.3209H151.943V57.5283H143.726ZM155.405 72.6553V53.3209H160.626V72.6553H155.405ZM185.054 72.6553C184.96 71.6046 184.707 70.6852 184.294 69.8972C183.881 69.0998 183.361 68.415 182.732 67.8428C182.113 67.2705 181.409 66.7968 180.621 66.4215C179.843 66.0463 179.041 65.7508 178.215 65.535C177.39 65.3099 176.564 65.1551 175.739 65.0707C174.922 64.9769 174.163 64.93 173.459 64.93H171.911V72.6553H166.691V53.3209H171.911V60.7788H172.981C173.703 60.7788 174.458 60.7225 175.246 60.61C176.034 60.4974 176.813 60.3192 177.582 60.0752C178.361 59.8313 179.106 59.5171 179.819 59.1325C180.532 58.7478 181.17 58.2788 181.733 57.7253C182.296 57.1718 182.765 56.5339 183.14 55.8115C183.515 55.0798 183.75 54.2496 183.844 53.3209H189.163C189.069 54.3434 188.863 55.2674 188.544 56.093C188.234 56.9185 187.845 57.6596 187.376 58.3163C186.916 58.9636 186.4 59.5311 185.828 60.019C185.256 60.5068 184.669 60.9289 184.069 61.2854C183.469 61.6325 182.868 61.9233 182.268 62.1578C181.677 62.383 181.123 62.5565 180.607 62.6785C181.264 62.7817 181.944 62.9459 182.648 63.171C183.361 63.3868 184.064 63.6776 184.758 64.0434C185.453 64.3999 186.114 64.8408 186.743 65.3662C187.38 65.8915 187.953 66.506 188.459 67.2096C188.966 67.9131 189.388 68.7152 189.726 69.6158C190.063 70.5164 190.279 71.5295 190.373 72.6553H185.054ZM211.255 72.6553V70.7556C210.589 71.1215 209.872 71.4451 209.102 71.7265C208.343 72.008 207.55 72.2472 206.724 72.4442C205.899 72.6412 205.045 72.7866 204.163 72.8804C203.291 72.9836 202.409 73.0352 201.518 73.0352C200.476 73.0352 199.468 72.9367 198.492 72.7397C197.526 72.5427 196.668 72.2237 195.917 71.7828C195.167 71.3419 194.562 70.765 194.102 70.052C193.652 69.3391 193.427 68.4666 193.427 67.4347C193.427 66.1307 193.783 65.0472 194.496 64.1842C195.209 63.3117 196.297 62.5988 197.761 62.0453C199.224 61.4918 201.072 61.065 203.305 60.7648C205.547 60.4646 208.197 60.23 211.255 60.0612V59.6531C211.255 59.3341 211.171 59.0199 211.002 58.7103C210.833 58.3913 210.524 58.1146 210.073 57.8801C209.632 57.6362 209.023 57.4392 208.244 57.2891C207.475 57.139 206.49 57.0639 205.289 57.0639C204.341 57.0639 203.403 57.1155 202.475 57.2187C201.555 57.3125 200.664 57.4439 199.801 57.6127C198.947 57.7816 198.136 57.9786 197.367 58.2037C196.597 58.4289 195.899 58.6634 195.27 58.9073V54.2637C195.927 54.0948 196.663 53.9306 197.479 53.7712C198.295 53.6117 199.144 53.4757 200.026 53.3631C200.908 53.2411 201.799 53.1473 202.7 53.0817C203.6 53.0066 204.463 52.9691 205.289 52.9691C206.912 52.9691 208.408 53.1051 209.778 53.3772C211.147 53.6398 212.325 54.0526 213.31 54.6155C214.304 55.1783 215.078 55.8913 215.632 56.7543C216.194 57.6174 216.476 58.6446 216.476 59.836V72.6553H211.255ZM211.255 63.8324C209.248 63.9074 207.54 64.0153 206.133 64.156C204.735 64.2967 203.572 64.4609 202.644 64.6485C201.715 64.8361 200.983 65.0378 200.448 65.2536C199.923 65.4694 199.529 65.6898 199.266 65.915C199.004 66.1401 198.839 66.3653 198.774 66.5904C198.718 66.8156 198.689 67.0219 198.689 67.2096C198.689 67.4347 198.75 67.6552 198.872 67.8709C198.994 68.0773 199.205 68.2602 199.506 68.4197C199.815 68.5792 200.223 68.7058 200.73 68.7997C201.236 68.8935 201.874 68.9404 202.644 68.9404C203.497 68.9404 204.332 68.8747 205.148 68.7434C205.964 68.612 206.738 68.4338 207.47 68.2086C208.202 67.9741 208.887 67.7021 209.525 67.3925C210.172 67.0735 210.749 66.7358 211.255 66.3793V63.8324Z" fill="#151516"/>
<rect x="326.031" y="42.6006" width="227.111" height="61.0278" rx="30.5139" fill="#E53AFF"/>
<path d="M361.923 65.4375V81.1143H359.106V67.7951H352.248V81.1143H349.431V65.4375H361.923ZM365.197 85.5233V69.3567H367.922V71.301H368.083C368.226 71.0152 368.428 70.7116 368.688 70.3901C368.948 70.0635 369.3 69.7853 369.744 69.5557C370.188 69.321 370.755 69.2036 371.444 69.2036C372.352 69.2036 373.171 69.4358 373.901 69.9002C374.636 70.3594 375.217 71.0407 375.646 71.944C376.08 72.8421 376.297 73.9444 376.297 75.2508C376.297 76.5419 376.085 77.639 375.661 78.5423C375.238 79.4455 374.661 80.1345 373.931 80.609C373.202 81.0836 372.375 81.3209 371.451 81.3209C370.778 81.3209 370.219 81.2087 369.775 80.9841C369.331 80.7596 368.974 80.4891 368.703 80.1727C368.438 79.8512 368.231 79.5476 368.083 79.2618H367.968V85.5233H365.197ZM367.915 75.2355C367.915 75.9958 368.022 76.6618 368.236 77.2333C368.456 77.8049 368.77 78.2514 369.178 78.5729C369.591 78.8893 370.091 79.0475 370.678 79.0475C371.291 79.0475 371.803 78.8842 372.217 78.5576C372.63 78.2259 372.941 77.7743 373.151 77.2027C373.365 76.6261 373.472 75.9703 373.472 75.2355C373.472 74.5057 373.368 73.8576 373.158 73.2912C372.949 72.7247 372.638 72.2808 372.224 71.9593C371.811 71.6378 371.296 71.477 370.678 71.477C370.086 71.477 369.584 71.6327 369.17 71.944C368.757 72.2553 368.443 72.6916 368.229 73.2529C368.019 73.8143 367.915 74.4751 367.915 75.2355ZM381.341 77.3635L386.049 69.3567H388.896V81.1143H386.217V73.0998L381.525 81.1143H378.67V69.3567H381.341V77.3635ZM399.818 74.0873V76.3607H393.556V74.0873H399.818ZM394.413 69.3567V81.1143H391.742V69.3567H394.413ZM401.632 69.3567V81.1143H398.968V69.3567H401.632ZM411.386 81.1143V71.6072H408.875C408.237 71.6072 407.747 71.7551 407.405 72.0511C407.063 72.3471 406.895 72.7145 406.9 73.1534C406.895 73.5923 407.056 73.9546 407.382 74.2404C407.709 74.5261 408.176 74.669 408.783 74.669H412.258V76.6899H408.783C407.844 76.6899 407.033 76.5419 406.349 76.2459C405.665 75.9499 405.14 75.5315 404.772 74.9905C404.405 74.4496 404.221 73.8168 404.221 73.0922C404.221 72.3369 404.407 71.6812 404.78 71.1249C405.157 70.5636 405.693 70.1298 406.387 69.8236C407.086 69.5123 407.916 69.3567 408.875 69.3567H413.981V81.1143H411.386ZM403.792 81.1143L407.076 75.0824H409.809L406.517 81.1143H403.792ZM415.454 71.6301V69.3567H425.742V71.6301H421.938V81.1143H419.259V71.6301H415.454ZM429.824 73.184H433.291C434.792 73.184 435.953 73.5489 436.774 74.2786C437.596 75.0084 438.009 75.9652 438.014 77.1491C438.009 77.9197 437.82 78.6035 437.448 79.2006C437.081 79.7977 436.545 80.2671 435.84 80.609C435.141 80.9459 434.292 81.1143 433.291 81.1143H427.949V69.3567H430.62V78.8408H433.291C433.894 78.8408 434.389 78.6877 434.776 78.3815C435.164 78.0702 435.358 77.6722 435.358 77.1874C435.358 76.6771 435.164 76.2612 434.776 75.9397C434.389 75.6182 433.894 75.4575 433.291 75.4575H429.824V73.184ZM447.458 85.5233C447.081 85.5233 446.731 85.4927 446.41 85.4315C446.093 85.3754 445.841 85.309 445.652 85.2325L446.295 83.0739C446.698 83.1912 447.058 83.2474 447.374 83.2423C447.691 83.2372 447.969 83.1376 448.209 82.9437C448.453 82.7549 448.66 82.4385 448.829 81.9945L449.066 81.3592L444.802 69.3567H447.742L450.451 78.2361H450.574L453.291 69.3567H456.238L451.531 82.538C451.311 83.1606 451.02 83.6939 450.658 84.1379C450.296 84.5869 449.852 84.9288 449.326 85.1636C448.806 85.4034 448.183 85.5233 447.458 85.5233ZM467.64 69.3567V81.1143H464.976V69.3567H467.64ZM466.392 74.669V76.9348C466.091 77.0675 465.749 77.1874 465.366 77.2946C464.989 77.3966 464.588 77.4783 464.165 77.5395C463.746 77.6008 463.328 77.6314 462.909 77.6314C461.338 77.6314 460.095 77.2793 459.181 76.575C458.273 75.8657 457.819 74.7609 457.819 73.2606V69.3414H460.467V73.2606C460.467 73.7658 460.557 74.1715 460.735 74.4777C460.914 74.7838 461.184 75.0084 461.547 75.1513C461.909 75.2891 462.363 75.3579 462.909 75.3579C463.522 75.3579 464.103 75.2967 464.655 75.1742C465.206 75.0518 465.785 74.8834 466.392 74.669ZM473.811 81.3516C473.066 81.3516 472.395 81.2189 471.798 80.9535C471.206 80.683 470.737 80.285 470.39 79.7594C470.048 79.2338 469.877 78.5857 469.877 77.8151C469.877 77.1517 469.999 76.6031 470.244 76.1693C470.489 75.7356 470.824 75.3886 471.247 75.1283C471.671 74.868 472.148 74.6716 472.679 74.5389C473.214 74.4011 473.768 74.3016 474.34 74.2404C475.029 74.1689 475.587 74.1051 476.016 74.049C476.445 73.9878 476.756 73.8959 476.95 73.7734C477.149 73.6458 477.248 73.4494 477.248 73.184V73.1381C477.248 72.5614 477.077 72.1149 476.736 71.7985C476.394 71.4821 475.901 71.3239 475.258 71.3239C474.579 71.3239 474.041 71.4719 473.643 71.7679C473.25 72.0639 472.985 72.4134 472.847 72.8166L470.26 72.4492C470.464 71.7347 470.801 71.1377 471.27 70.658C471.74 70.1732 472.314 69.8109 472.992 69.571C473.671 69.3261 474.421 69.2036 475.243 69.2036C475.809 69.2036 476.373 69.2699 476.935 69.4026C477.496 69.5353 478.009 69.7547 478.473 70.0609C478.938 70.362 479.31 70.7728 479.591 71.2933C479.877 71.8138 480.019 72.4645 480.019 73.2453V81.1143H477.356V79.4991H477.264C477.095 79.8257 476.858 80.1319 476.552 80.4177C476.251 80.6984 475.871 80.9254 475.411 81.0989C474.957 81.2674 474.424 81.3516 473.811 81.3516ZM474.531 79.3154C475.087 79.3154 475.569 79.2057 475.978 78.9863C476.386 78.7617 476.7 78.4657 476.919 78.0983C477.144 77.7309 477.256 77.3303 477.256 76.8965V75.511C477.169 75.5825 477.021 75.6488 476.812 75.7101C476.608 75.7713 476.378 75.8249 476.123 75.8708C475.868 75.9167 475.615 75.9576 475.365 75.9933C475.115 76.029 474.898 76.0596 474.715 76.0851C474.301 76.1413 473.931 76.2331 473.605 76.3607C473.278 76.4883 473.02 76.6669 472.832 76.8965C472.643 77.1211 472.548 77.4119 472.548 77.7692C472.548 78.2795 472.735 78.6648 473.107 78.925C473.48 79.1853 473.954 79.3154 474.531 79.3154ZM487.934 81.3439C486.761 81.3439 485.753 81.0862 484.911 80.5708C484.074 80.0554 483.428 79.3435 482.974 78.4351C482.525 77.5217 482.301 76.4704 482.301 75.2814C482.301 74.0873 482.53 73.0335 482.989 72.12C483.449 71.2015 484.097 70.487 484.934 69.9767C485.776 69.4613 486.771 69.2036 487.919 69.2036C488.873 69.2036 489.718 69.3796 490.453 69.7318C491.193 70.0788 491.782 70.5712 492.221 71.2091C492.66 71.8419 492.91 72.5819 492.971 73.429H490.323C490.215 72.8625 489.96 72.3905 489.557 72.0129C489.159 71.6301 488.626 71.4388 487.957 71.4388C487.391 71.4388 486.893 71.5918 486.465 71.898C486.036 72.1991 485.702 72.6329 485.462 73.1993C485.227 73.7658 485.11 74.4445 485.11 75.2355C485.11 76.0367 485.227 76.7256 485.462 77.3022C485.697 77.8738 486.026 78.3152 486.449 78.6265C486.878 78.9327 487.381 79.0858 487.957 79.0858C488.366 79.0858 488.73 79.0092 489.052 78.8561C489.379 78.6979 489.652 78.4708 489.871 78.1749C490.09 77.8789 490.241 77.5191 490.323 77.0956H492.971C492.905 77.9274 492.66 78.6648 492.236 79.3078C491.813 79.9456 491.236 80.4457 490.506 80.8081C489.777 81.1653 488.919 81.3439 487.934 81.3439ZM494.393 71.6301V69.3567H504.681V71.6301H500.876V81.1143H498.197V71.6301H494.393ZM509.559 77.3635L514.266 69.3567H517.114V81.1143H514.435V73.0998L509.743 81.1143H506.887V69.3567H509.559V77.3635ZM525.165 81.3439C523.986 81.3439 522.968 81.0989 522.111 80.609C521.258 80.114 520.603 79.4149 520.143 78.5117C519.684 77.6033 519.454 76.5342 519.454 75.3044C519.454 74.0949 519.684 73.0335 520.143 72.12C520.608 71.2015 521.256 70.487 522.088 69.9767C522.919 69.4613 523.897 69.2036 525.019 69.2036C525.744 69.2036 526.428 69.321 527.071 69.5557C527.719 69.7853 528.29 70.1426 528.785 70.6274C529.286 71.1122 529.678 71.7296 529.964 72.4798C530.25 73.2248 530.393 74.1128 530.393 75.1436V75.9933H520.756V74.1255H527.737C527.732 73.5948 527.617 73.1228 527.392 72.7094C527.168 72.291 526.854 71.9618 526.451 71.722C526.053 71.4821 525.588 71.3622 525.058 71.3622C524.491 71.3622 523.994 71.5 523.565 71.7756C523.136 72.046 522.802 72.4032 522.562 72.8472C522.327 73.2861 522.208 73.7683 522.202 74.2939V75.9244C522.202 76.6082 522.327 77.1951 522.577 77.685C522.828 78.1698 523.177 78.5423 523.626 78.8025C524.075 79.0577 524.601 79.1853 525.203 79.1853C525.606 79.1853 525.971 79.1291 526.298 79.0169C526.624 78.8995 526.907 78.7286 527.147 78.504C527.387 78.2795 527.568 78.0014 527.691 77.6697L530.278 77.9605C530.115 78.6444 529.803 79.2414 529.344 79.7517C528.89 80.2569 528.308 80.6499 527.599 80.9305C526.89 81.2061 526.078 81.3439 525.165 81.3439Z" fill="white"/>
</svg>
