<svg width="1340" height="382" viewBox="0 0 1340 382" fill="none" xmlns="http://www.w3.org/2000/svg">
<rect width="1340" height="382" rx="64" fill="#EBEBEB"/>
<path d="M346.389 177.117C346.389 181.492 345.752 185.528 344.477 189.224C343.203 192.877 341.142 196.042 338.296 198.719C335.492 201.353 331.839 203.413 327.335 204.9C322.832 206.387 317.352 207.13 310.895 207.13H271.641V234.786H248V147.23H310.895C317.352 147.23 322.832 147.974 327.335 149.461C331.839 150.905 335.492 152.965 338.296 155.642C341.142 158.276 343.203 161.419 344.477 165.073C345.752 168.726 346.389 172.741 346.389 177.117ZM322.493 177.499C322.493 175.46 322.195 173.718 321.6 172.274C321.048 170.787 320.114 169.576 318.797 168.641C317.48 167.707 315.759 167.027 313.635 166.602C311.511 166.135 308.898 165.901 305.797 165.901H271.641V188.459H305.797C308.898 188.459 311.511 188.289 313.635 187.949C315.759 187.567 317.48 186.951 318.797 186.102C320.114 185.209 321.048 184.062 321.6 182.66C322.195 181.259 322.493 179.538 322.493 177.499Z" fill="#151516"/>
<path d="M446.562 167.048C445.924 166.836 444.99 166.56 443.758 166.22C442.568 165.838 441.166 165.476 439.552 165.137C437.938 164.754 436.154 164.436 434.199 164.181C432.288 163.926 430.312 163.798 428.273 163.798C424.025 163.798 420.053 164.329 416.357 165.391C412.703 166.411 409.284 167.792 406.097 169.533C402.911 171.233 399.938 173.187 397.176 175.396C394.457 177.563 391.951 179.793 389.657 182.087V234.786H366.016V147.23H389.657V161.441C392.503 159.316 395.413 157.277 398.387 155.323C401.403 153.327 404.526 151.563 407.754 150.034C411.025 148.505 414.466 147.294 418.077 146.402C421.688 145.467 425.512 145 429.548 145C431.077 145 432.628 145.085 434.199 145.255C435.814 145.382 437.364 145.552 438.851 145.765C440.381 145.977 441.804 146.211 443.121 146.466C444.438 146.721 445.585 146.975 446.562 147.23V167.048Z" fill="#151516"/>
<path d="M535.838 234.786V226.183C532.822 227.84 529.572 229.306 526.088 230.58C522.647 231.855 519.058 232.938 515.319 233.83C511.581 234.722 507.993 234.744 504 235.168C500.049 235.636 496.036 235.168 492 235.168C487.284 235.168 480.918 235.678 476.5 234.786C472.124 233.894 469.778 232.832 466.38 230.835C462.981 228.839 460.241 226.226 458.159 222.997C456.12 219.769 455.101 215.818 455.101 211.145C455.101 205.24 456.715 200.333 459.944 196.425C463.172 192.474 468.1 189.245 474.727 186.739C481.355 184.232 489.724 182.299 499.834 180.94C509.988 179.58 521.989 178.518 535.838 177.754V175.906C535.838 174.461 535.456 173.038 534.691 171.636C533.926 170.192 532.524 168.939 530.485 167.877C528.489 166.772 525.727 165.88 522.201 165.2C518.718 164.521 514.257 164.181 508.819 164.181C504.529 164.181 500.28 164.414 496.075 164.882C491.911 165.306 487.876 165.901 483.967 166.666C480.101 167.431 476.427 168.323 472.943 169.342C469.46 170.362 466.295 171.424 463.448 172.528V151.5C466.422 150.735 469.757 149.992 473.453 149.269C477.149 148.547 480.994 147.931 484.987 147.421C488.98 146.869 493.016 146.444 497.094 146.147C501.173 145.807 505.081 145.637 508.819 145.637C516.169 145.637 522.945 146.253 529.147 147.485C535.349 148.675 540.681 150.544 545.142 153.093C549.645 155.642 553.15 158.87 555.656 162.779C558.205 166.687 559.479 171.339 559.479 176.734V234.786H535.838ZM535.838 194.832C526.747 195.171 519.015 195.66 512.643 196.297C506.313 196.934 501.045 197.678 496.839 198.528C492.634 199.377 489.32 200.291 486.899 201.268C484.52 202.245 482.735 203.243 481.546 204.263C480.356 205.282 479.613 206.302 479.315 207.321C479.061 208.341 478.933 209.276 478.933 210.125C478.933 211.145 479.209 212.143 479.762 213.12C480.314 214.055 481.27 214.883 482.629 215.605C484.031 216.328 485.879 216.901 488.173 217.326C490.467 217.751 493.356 217.963 496.839 217.963C500.705 217.963 504.486 217.666 508.182 217.071C511.878 216.476 515.383 215.669 518.696 214.65C522.01 213.587 525.111 212.355 528 210.954C530.931 209.509 533.544 207.98 535.838 206.366V194.832Z" fill="#151516"/>
<path d="M669.657 234.786C669.232 230.028 668.085 225.865 666.216 222.296C664.347 218.685 661.989 215.584 659.143 212.993C656.339 210.401 653.153 208.256 649.584 206.557C646.058 204.857 642.426 203.519 638.687 202.542C634.949 201.523 631.211 200.822 627.472 200.439C623.776 200.014 620.335 199.802 617.149 199.802H610.139V234.786H586.498V147.23H610.139V181.004H614.982C618.253 181.004 621.673 180.749 625.242 180.239C628.81 179.729 632.336 178.922 635.82 177.817C639.346 176.713 642.723 175.29 645.952 173.548C649.18 171.806 652.069 169.682 654.618 167.176C657.167 164.669 659.291 161.78 660.991 158.509C662.69 155.196 663.752 152.206 664.177 148H688.264C687.839 152.631 686.905 156.045 685.46 159.784C684.058 163.522 682.295 166.878 680.171 169.852C678.09 172.783 675.753 175.354 673.162 177.563C670.57 179.772 667.915 181.683 665.196 183.298C662.477 184.87 659.759 186.186 657.04 187.249C654.363 188.268 651.857 189.054 649.52 189.606C652.494 190.074 655.574 190.817 658.76 191.837C661.989 192.814 665.175 194.131 668.319 195.787C671.462 197.402 674.457 199.398 677.304 201.777C680.192 204.156 682.784 206.939 685.078 210.125C687.372 213.311 689.284 216.944 690.813 221.022C692.342 225.1 693.319 229.688 693.744 234.786H669.657Z" fill="#151516"/>
<path d="M763.139 166.284V234.786H739.498V166.284H702.347V147.23H800.353V166.284H763.139Z" fill="#151516"/>
<path d="M816.029 234.786V147.23H839.671V234.786H816.029Z" fill="#151516"/>
<path d="M950.294 234.786C949.869 230.028 948.722 225.865 946.853 222.296C944.984 218.685 942.626 215.584 939.78 212.993C936.976 210.401 933.79 208.256 930.221 206.557C926.695 204.857 923.063 203.519 919.325 202.542C915.586 201.523 911.848 200.822 908.109 200.439C904.413 200.014 900.972 199.802 897.786 199.802H890.777V234.786H867.135V147.23H890.777V181.004H895.62C898.891 181.004 902.311 180.749 905.879 180.239C909.448 179.729 912.974 178.922 916.457 177.817C919.983 176.713 923.36 175.29 926.589 173.548C929.818 171.806 932.707 169.682 935.255 167.176C937.804 164.669 939.929 161.78 941.628 158.509C943.327 155.196 944.389 152.206 944.814 148H968.901C968.477 152.631 967.542 156.045 966.098 159.784C964.696 163.522 962.933 166.878 960.809 169.852C958.727 172.783 956.39 175.354 953.799 177.563C951.208 179.772 948.552 181.683 945.834 183.298C943.115 184.87 940.396 186.186 937.677 187.249C935.001 188.268 932.494 189.054 930.158 189.606C933.131 190.074 936.211 190.817 939.398 191.837C942.626 192.814 945.812 194.131 948.956 195.787C952.1 197.402 955.095 199.398 957.941 201.777C960.83 204.156 963.421 206.939 965.715 210.125C968.009 213.311 969.921 216.944 971.45 221.022C972.98 225.1 973.957 229.688 974.382 234.786H950.294Z" fill="#151516"/>
<path d="M1068.95 234.786V226.183C1065.93 227.84 1062.68 229.306 1059.2 230.58C1055.76 231.855 1052.17 232.938 1048.43 233.83C1044.69 234.722 1042.49 234.744 1038.5 235.168C1034.55 235.636 1029.04 235.168 1025 235.168C1020.28 235.168 1014.92 235.392 1010.5 234.5C1006.12 233.608 1002.89 232.832 999.489 230.835C996.09 228.839 993.35 226.226 991.268 222.997C989.229 219.769 988.21 215.818 988.21 211.145C988.21 205.24 989.824 200.333 993.053 196.425C996.281 192.474 1001.21 189.245 1007.84 186.739C1014.46 184.232 1022.83 182.299 1032.94 180.94C1043.1 179.58 1055.1 178.518 1068.95 177.754V175.906C1068.95 174.461 1068.56 173.038 1067.8 171.636C1067.04 170.192 1065.63 168.939 1063.59 167.877C1061.6 166.772 1058.84 165.88 1055.31 165.2C1051.83 164.521 1047.37 164.181 1041.93 164.181C1037.64 164.181 1033.39 164.414 1029.18 164.882C1025.02 165.306 1020.98 165.901 1017.08 166.666C1013.21 167.431 1009.54 168.323 1006.05 169.342C1002.57 170.362 999.404 171.424 996.557 172.528V151.5C999.531 150.735 1002.87 149.992 1006.56 149.269C1010.26 148.547 1014.1 147.931 1018.1 147.421C1022.09 146.869 1026.12 146.444 1030.2 146.147C1034.28 145.807 1038.19 145.637 1041.93 145.637C1049.28 145.637 1056.05 146.253 1062.26 147.485C1068.46 148.675 1073.79 150.544 1078.25 153.093C1082.75 155.642 1086.26 158.87 1088.76 162.779C1091.31 166.687 1092.59 171.339 1092.59 176.734V234.786H1068.95ZM1068.95 194.832C1059.86 195.171 1052.12 195.66 1045.75 196.297C1039.42 196.934 1034.15 197.678 1029.95 198.528C1025.74 199.377 1022.43 200.291 1020.01 201.268C1017.63 202.245 1015.84 203.243 1014.65 204.263C1013.47 205.282 1012.72 206.302 1012.42 207.321C1012.17 208.341 1012.04 209.276 1012.04 210.125C1012.04 211.145 1012.32 212.143 1012.87 213.12C1013.42 214.055 1014.38 214.883 1015.74 215.605C1017.14 216.328 1018.99 216.901 1021.28 217.326C1023.58 217.751 1026.46 217.963 1029.95 217.963C1033.81 217.963 1037.6 217.666 1041.29 217.071C1044.99 216.476 1048.49 215.669 1051.81 214.65C1055.12 213.587 1058.22 212.355 1061.11 210.954C1064.04 209.509 1066.65 207.98 1068.95 206.366V194.832Z" fill="#151516"/>
<path d="M248 115V267" stroke="black"/>
<path d="M271 115V267" stroke="black"/>
<path d="M367 115V267" stroke="black"/>
<path d="M390 115V267" stroke="black"/>
<path d="M446 115V267" stroke="black"/>
<path d="M464 115V267" stroke="black"/>
<path d="M536 115V267" stroke="black"/>
<path d="M560 115V267" stroke="black"/>
<path d="M587 115V267" stroke="black"/>
<path d="M610 115V267" stroke="black"/>
<path d="M702 115V267" stroke="black"/>
<path d="M800 115V267" stroke="black"/>
<path d="M762 115V267" stroke="black"/>
<path d="M739 115V267" stroke="black"/>
<path d="M816 115V267" stroke="black"/>
<path d="M840 115V267" stroke="black"/>
<path d="M867 115V267" stroke="black"/>
<path d="M890 115V267" stroke="black"/>
<path d="M996 115V267" stroke="black"/>
<path d="M1069 115V267" stroke="black"/>
<path d="M1093 115V267" stroke="black"/>
<path d="M236 148H343.5" stroke="black"/>
<path d="M236 166H343.5" stroke="black"/>
<path d="M236 188H343.5" stroke="black"/>
<path d="M236 235H343.5" stroke="black"/>
<path d="M350 235H457.5" stroke="black"/>
<path d="M464 235H571.5" stroke="black"/>
<path d="M350 148H457.5" stroke="black"/>
<path d="M578 148H695" stroke="black"/>
<path d="M578 235H695" stroke="black"/>
<path d="M699 235H805" stroke="black"/>
<path d="M699 148H805" stroke="black"/>
<path d="M811 148L848 148" stroke="black"/>
<path d="M861 148L973 148" stroke="black"/>
<path d="M861 235L979 235" stroke="black"/>
<path d="M987 235L1105 235" stroke="black"/>
<path d="M811 235L848 235" stroke="black"/>
</svg>
