<svg width="44" height="44" viewBox="0 0 44 44" fill="none" xmlns="http://www.w3.org/2000/svg">
<circle cx="22.0392" cy="22.048" r="21.8517" fill="white"/>
<path d="M21.7886 29.96L22.1526 30.324L21.7886 30.6881L21.4245 30.324L21.7886 29.96ZM21.2737 14.5131C21.2737 14.2288 21.5042 13.9982 21.7886 13.9982C22.0729 13.9982 22.3035 14.2288 22.3035 14.5131L21.2737 14.5131ZM27.3016 25.1751L22.1526 30.324L21.4245 29.5959L26.5734 24.4469L27.3016 25.1751ZM21.4245 30.324L16.2755 25.1751L17.0037 24.4469L22.1526 29.5959L21.4245 30.324ZM21.2737 29.96L21.2737 14.5131L22.3035 14.5131L22.3035 29.96L21.2737 29.96Z" fill="#151515"/>
</svg>
