<svg width="44" height="44" viewBox="0 0 44 44" fill="none" xmlns="http://www.w3.org/2000/svg">
<path d="M32.4725 20.6983C32.6443 20.8687 32.7807 21.0715 32.8738 21.2949C32.9668 21.5183 33.0147 21.7579 33.0147 21.9999C33.0147 22.242 32.9668 22.4816 32.8738 22.705C32.7807 22.9284 32.6443 23.1312 32.4725 23.3016L17.8058 37.9683C17.6354 38.1401 17.4326 38.2765 17.2092 38.3696C16.9858 38.4626 16.7461 38.5106 16.5041 38.5106C16.2621 38.5106 16.0225 38.4626 15.7991 38.3696C15.5757 38.2765 15.3729 38.1401 15.2025 37.9683C15.0306 37.7978 14.8942 37.5951 14.8012 37.3717C14.7081 37.1482 14.6602 36.9086 14.6602 36.6666C14.6602 36.4246 14.7081 36.185 14.8012 35.9615C14.8942 35.7381 15.0306 35.5354 15.2025 35.3649L28.5858 21.9999L15.2025 8.63493C14.8572 8.28971 14.6633 7.82149 14.6633 7.33327C14.6633 6.84505 14.8572 6.37682 15.2025 6.0316C15.5477 5.68638 16.0159 5.49243 16.5041 5.49243C16.9923 5.49243 17.4606 5.68638 17.8058 6.0316L32.4725 20.6983Z" fill="#171717"/>
</svg>
