<svg width="32" height="32" viewBox="0 0 32 32" fill="none" xmlns="http://www.w3.org/2000/svg">
<rect width="31.8431" height="31.8431" rx="15.9216" fill="white"/>
<path d="M15.8097 29.7416C13.4053 29.7416 11.2099 29.123 9.22365 27.886C7.25482 26.6489 5.67801 24.9937 4.49323 22.9203C3.32586 20.8295 2.74219 18.521 2.74219 15.9946C2.74219 14.078 3.08194 12.2921 3.76145 10.6369C4.44095 8.96427 5.3731 7.50071 6.55789 6.24623C7.7601 4.97433 9.15396 3.9812 10.7395 3.26684C12.325 2.55249 14.0151 2.19531 15.8097 2.19531C18.2141 2.19531 20.4007 2.81384 22.3695 4.05089C24.3558 5.28795 25.9326 6.95188 27.1 9.04267C28.2847 11.1335 28.8771 13.4508 28.8771 15.9946C28.8771 17.8937 28.5374 19.6709 27.8579 21.3261C27.1784 22.9813 26.2375 24.4449 25.0353 25.7168C23.8505 26.9713 22.4654 27.9557 20.8798 28.67C19.3118 29.3844 17.6217 29.7416 15.8097 29.7416ZM15.8097 24.3055C17.2558 24.3055 18.5538 23.9222 19.7038 23.1556C20.8537 22.3889 21.7597 21.3784 22.4218 20.1239C23.1013 18.852 23.4411 17.4756 23.4411 15.9946C23.4411 14.4787 23.0926 13.0849 22.3957 11.813C21.7162 10.5411 20.8014 9.53053 19.6515 8.78132C18.5016 8.0147 17.221 7.63138 15.8097 7.63138C14.381 7.63138 13.0829 8.0147 11.9156 8.78132C10.7656 9.54795 9.8509 10.5672 9.17139 11.8391C8.5093 13.111 8.17826 14.4962 8.17826 15.9946C8.17826 17.5452 8.52672 18.9478 9.22365 20.2023C9.92058 21.4568 10.844 22.4586 11.994 23.2078C13.1613 23.9396 14.4332 24.3055 15.8097 24.3055Z" fill="#080808"/>
</svg>
