<svg width="658" height="621" viewBox="0 0 658 621" fill="none" xmlns="http://www.w3.org/2000/svg">
<rect width="658" height="621" rx="23" fill="#111111"/>
<circle cx="329.445" cy="311.445" r="176.445" fill="#4C55FF"/>
<mask id="path-3-inside-1_393_864" fill="white">
<path d="M305.593 218.291C336.834 292.379 337.365 375.842 307.068 450.321L250.388 427.265C274.57 367.818 274.147 301.2 249.211 242.066L305.593 218.291Z"/>
<path d="M353.234 174.008C321.992 248.096 321.462 331.559 351.759 406.038L408.439 382.982C384.257 323.535 384.68 256.917 409.616 197.783L353.234 174.008Z"/>
</mask>
<path d="M305.593 218.291C336.834 292.379 337.365 375.842 307.068 450.321L250.388 427.265C274.57 367.818 274.147 301.2 249.211 242.066L305.593 218.291Z" fill="#4C55FF"/>
<path d="M353.234 174.008C321.992 248.096 321.462 331.559 351.759 406.038L408.439 382.982C384.257 323.535 384.68 256.917 409.616 197.783L353.234 174.008Z" fill="#4C55FF"/>
<path d="M305.593 218.291L390.339 182.555L354.603 97.8091L269.857 133.545L305.593 218.291ZM307.068 450.321L272.412 535.515L357.606 570.17L392.261 484.977L307.068 450.321ZM250.388 427.265L165.195 392.609L130.539 477.803L215.732 512.458L250.388 427.265ZM249.211 242.066L213.475 157.32L128.729 193.056L164.465 277.802L249.211 242.066ZM353.234 174.008L388.969 89.2617L304.223 53.5261L268.488 138.272L353.234 174.008ZM351.759 406.038L266.565 440.694L301.221 525.887L386.414 491.232L351.759 406.038ZM408.439 382.982L443.094 468.175L528.288 433.52L493.632 348.326L408.439 382.982ZM409.616 197.783L494.362 233.519L530.098 148.773L445.351 113.037L409.616 197.783ZM220.847 254.027C242.611 305.638 242.98 363.782 221.874 415.666L392.261 484.977C431.749 387.903 431.058 279.119 390.339 182.555L220.847 254.027ZM341.723 365.128L285.044 342.071L215.732 512.458L272.412 535.515L341.723 365.128ZM335.581 461.92C368.955 379.879 368.37 287.941 333.957 206.33L164.465 277.802C179.923 314.46 180.185 355.757 165.195 392.609L335.581 461.92ZM284.947 326.812L341.329 303.037L269.857 133.545L213.475 157.32L284.947 326.812ZM268.488 138.272C227.769 234.836 227.077 343.62 266.565 440.694L436.952 371.383C415.847 319.498 416.216 261.355 437.98 209.743L268.488 138.272ZM386.414 491.232L443.094 468.175L373.783 297.788L317.103 320.845L386.414 491.232ZM493.632 348.326C478.641 311.474 478.904 270.177 494.362 233.519L324.87 162.047C290.456 243.658 289.872 335.596 323.245 417.637L493.632 348.326ZM445.351 113.037L388.969 89.2617L317.498 258.754L373.88 282.529L445.351 113.037Z" fill="white" mask="url(#path-3-inside-1_393_864)"/>
</svg>
